<svg width="51" height="51" viewBox="0 0 51 51" fill="none" xmlns="http://www.w3.org/2000/svg">
<path d="M20.1295 11.5269C20.1295 11.0813 20.6395 10.7201 21.2687 10.7201L34.56 10.7201C35.1892 10.7201 35.6992 11.0813 35.6992 11.5269C35.6992 11.9724 35.1892 12.3336 34.56 12.3336L21.2687 12.3336C20.6395 12.3336 20.1295 11.9724 20.1295 11.5269Z" fill="#2A5FD9"/>
<path d="M20.1295 15.5269C20.1295 15.0813 20.6395 14.7201 21.2687 14.7201L34.56 14.7201C35.1892 14.7201 35.6992 15.0813 35.6992 15.5269C35.6992 15.9724 35.1892 16.3336 34.56 16.3336L21.2687 16.3336C20.6395 16.3336 20.1295 15.9724 20.1295 15.5269Z" fill="#2A5FD9"/>
<path d="M20.1295 19.5269C20.1295 19.0813 20.6395 18.7201 21.2687 18.7201L34.56 18.7201C35.1892 18.7201 35.6992 19.0813 35.6992 19.5269C35.6992 19.9724 35.1892 20.3336 34.56 20.3336L21.2687 20.3336C20.6395 20.3336 20.1295 19.9724 20.1295 19.5269Z" fill="#2A5FD9"/>
<path d="M16.1298 11.5269C16.1298 11.0813 16.1943 10.7201 16.274 10.7201L17.9555 10.7201C18.0351 10.7201 18.0996 11.0813 18.0996 11.5269C18.0996 11.9724 18.0351 12.3336 17.9555 12.3336L16.274 12.3336C16.1943 12.3336 16.1298 11.9724 16.1298 11.5269Z" fill="#2A5FD9"/>
<path d="M16.1298 15.5269C16.1298 15.0813 16.1943 14.7201 16.274 14.7201L17.9555 14.7201C18.0351 14.7201 18.0996 15.0813 18.0996 15.5269C18.0996 15.9724 18.0351 16.3336 17.9555 16.3336L16.274 16.3336C16.1943 16.3336 16.1298 15.9724 16.1298 15.5269Z" fill="#2A5FD9"/>
<path d="M16.1298 19.5269C16.1298 19.0813 16.1943 18.7201 16.274 18.7201L17.9555 18.7201C18.0351 18.7201 18.0996 19.0813 18.0996 19.5269C18.0996 19.9724 18.0351 20.3336 17.9555 20.3336L16.274 20.3336C16.1943 20.3336 16.1298 19.9724 16.1298 19.5269Z" fill="#2A5FD9"/>
<path d="M12.0626 23.184C11.617 23.184 11.2559 22.8229 11.2559 22.3773V0.864691C11.2559 0.419111 11.617 0.0579681 12.0626 0.0579681H30.8861C31.3317 0.0579681 31.6928 0.419111 31.6928 0.864691C31.6928 1.31027 31.3317 1.67141 30.8861 1.67141H12.8693V22.3773C12.8693 22.8229 12.5082 23.184 12.0626 23.184Z" fill="#2A5FD9"/>
<path d="M41.6416 9.73864C41.4732 9.73864 41.3033 9.6862 41.1581 9.57729L30.4018 1.51007C30.0455 1.24277 29.9731 0.736956 30.2404 0.380653C30.5077 0.0243508 31.0136 -0.0479853 31.3699 0.219309L42.1262 8.28654C42.4825 8.55383 42.5548 9.05964 42.2875 9.41595C42.1291 9.62731 41.8868 9.73864 41.6416 9.73864Z" fill="#2A5FD9"/>
<path d="M45.6457 50.0748H17.4405C16.9949 50.0748 16.6338 49.7136 16.6338 49.2681C16.6338 48.8225 16.9949 48.4613 17.4405 48.4613H45.6454C46.5043 48.4613 47.3126 48.1276 47.9217 47.5218C48.5305 46.9159 48.8683 46.1092 48.8723 45.25L48.9027 39.0057C48.9049 38.5615 49.2657 38.203 49.7094 38.203H49.7135C50.159 38.2052 50.5183 38.5682 50.5161 39.0138L50.4858 45.2581C50.4796 46.5464 49.9729 47.7568 49.0597 48.6654C48.1465 49.5741 46.934 50.0748 45.6454 50.0748H45.6457Z" fill="#2A5FD9"/>
<path d="M49.659 35.2849C49.2134 35.2849 48.8523 34.9237 48.8523 34.4781V15.1168H45.6749C45.2293 15.1168 44.8682 14.7557 44.8682 14.3101C44.8682 13.8645 45.2293 13.5034 45.6749 13.5034H49.659C50.1046 13.5034 50.4657 13.8645 50.4657 14.3101V34.4781C50.4657 34.9237 50.1046 35.2849 49.659 35.2849Z" fill="#2A5FD9"/>
<path d="M13.4066 50.0748H5.33936C2.67045 50.0748 0.499024 47.9034 0.499024 45.2344V11.621C0.498755 10.3281 1.00215 9.11263 1.91644 8.19834C2.83072 7.28406 4.04618 6.78066 5.33909 6.78066H8.02817C8.47375 6.78066 8.83489 7.14181 8.83489 7.58739C8.83489 8.03297 8.47375 8.39411 8.02817 8.39411H5.33909C4.47724 8.39411 3.66675 8.7297 3.05741 9.33932C2.4478 9.94893 2.1122 10.7592 2.1122 11.621V45.2344C2.11247 47.0138 3.56 48.4613 5.33936 48.4613H13.4066C13.8522 48.4613 14.2133 48.8225 14.2133 49.2681C14.2133 49.7136 13.8522 50.0748 13.4066 50.0748Z" fill="#2A5FD9"/>
<path d="M8.0284 44.6966C7.58282 44.6966 7.22168 44.3355 7.22168 43.8899V31.7891C7.22168 29.7779 8.00474 27.887 9.42699 26.465C10.849 25.043 12.7399 24.2597 14.7511 24.2597H45.6752C46.1208 24.2597 46.4819 24.6208 46.4819 25.0664C46.4819 25.512 46.1208 25.8731 45.6752 25.8731H14.7511C13.171 25.8731 11.6853 26.4884 10.568 27.6059C9.45065 28.7233 8.83513 30.209 8.83513 31.7891V43.8899C8.83513 44.3355 8.47398 44.6966 8.0284 44.6966Z" fill="#2A5FD9"/>
<path d="M11.6992 36.4848C11.6992 36.1399 12.094 35.8603 12.5811 35.8603L22.8709 35.8603C23.3581 35.8603 23.7529 36.1399 23.7529 36.4848C23.7529 36.8298 23.3581 37.1094 22.8709 37.1094L12.5811 37.1094C12.094 37.1094 11.6992 36.8298 11.6992 36.4848Z" fill="#2A5FD9"/>
<path d="M17.726 30.458C18.071 30.458 18.3506 30.8528 18.3506 31.3399L18.3506 41.6298C18.3506 42.1169 18.071 42.5117 17.726 42.5117C17.3811 42.5117 17.1015 42.1169 17.1015 41.6298L17.1015 31.3399C17.1015 30.8528 17.3811 30.458 17.726 30.458Z" fill="#2A5FD9"/>
</svg>
