<svg width="65" height="65" viewBox="0 0 65 65" fill="none" xmlns="http://www.w3.org/2000/svg">
<g id="Layer_1" clip-path="url(#clip0_5893_23938)">
<path id="Vector" d="M47.022 64.0581C56.6753 64.0581 64.501 56.2325 64.501 46.5791C64.501 36.9257 56.6753 29.1001 47.022 29.1001C37.3686 29.1001 29.543 36.9257 29.543 46.5791C29.543 56.2325 37.3686 64.0581 47.022 64.0581Z" fill="#CAE6FD"/>
<g id="Group">
<g id="Group_2">
<g id="Group 91">
<path id="Vector_2" d="M20.1334 11.5269C20.1334 11.0814 20.6434 10.7202 21.2726 10.7202L34.5639 10.7202C35.1931 10.7202 35.7031 11.0814 35.7031 11.5269C35.7031 11.9725 35.1931 12.3337 34.5639 12.3337L21.2726 12.3337C20.6434 12.3337 20.1334 11.9725 20.1334 11.5269Z" fill="#2A5FD9"/>
<path id="Vector_3" d="M20.1334 15.5269C20.1334 15.0814 20.6434 14.7202 21.2726 14.7202L34.5639 14.7202C35.1931 14.7202 35.7031 15.0814 35.7031 15.5269C35.7031 15.9725 35.1931 16.3337 34.5639 16.3337L21.2726 16.3337C20.6434 16.3337 20.1334 15.9725 20.1334 15.5269Z" fill="#2A5FD9"/>
<path id="Vector_4" d="M20.1334 19.5269C20.1334 19.0814 20.6434 18.7202 21.2726 18.7202L34.5639 18.7202C35.1931 18.7202 35.7031 19.0814 35.7031 19.5269C35.7031 19.9725 35.1931 20.3337 34.5639 20.3337L21.2726 20.3337C20.6434 20.3337 20.1334 19.9725 20.1334 19.5269Z" fill="#2A5FD9"/>
</g>
<g id="Group 91_2">
<path id="Vector_5" d="M16.1318 11.5269C16.1318 11.0814 16.1963 10.7202 16.2759 10.7202L17.9574 10.7202C18.037 10.7202 18.1016 11.0814 18.1016 11.5269C18.1016 11.9725 18.037 12.3337 17.9574 12.3337L16.2759 12.3337C16.1963 12.3337 16.1318 11.9725 16.1318 11.5269Z" fill="#2A5FD9"/>
<path id="Vector_6" d="M16.1318 15.5269C16.1318 15.0814 16.1963 14.7202 16.2759 14.7202L17.9574 14.7202C18.037 14.7202 18.1016 15.0814 18.1016 15.5269C18.1016 15.9725 18.037 16.3337 17.9574 16.3337L16.2759 16.3337C16.1963 16.3337 16.1318 15.9725 16.1318 15.5269Z" fill="#2A5FD9"/>
<path id="Vector_7" d="M16.1318 19.5269C16.1318 19.0814 16.1963 18.7202 16.2759 18.7202L17.9574 18.7202C18.037 18.7202 18.1016 19.0814 18.1016 19.5269C18.1016 19.9725 18.037 20.3337 17.9574 20.3337L16.2759 20.3337C16.1963 20.3337 16.1318 19.9725 16.1318 19.5269Z" fill="#2A5FD9"/>
</g>
<path id="Vector_8" d="M12.0645 23.1842C11.619 23.1842 11.2578 22.823 11.2578 22.3774V0.864828C11.2578 0.419248 11.619 0.0581055 12.0645 0.0581055H30.8881C31.3336 0.0581055 31.6948 0.419248 31.6948 0.864828C31.6948 1.31041 31.3336 1.67155 30.8881 1.67155H12.8713V22.3774C12.8713 22.823 12.5101 23.1842 12.0645 23.1842Z" fill="#2A5FD9"/>
<path id="Vector_9" d="M41.6445 9.73877C41.4762 9.73877 41.3062 9.68634 41.161 9.57743L30.4047 1.5102C30.0484 1.24291 29.9761 0.737093 30.2434 0.380791C30.5107 0.0244882 31.0165 -0.0478479 31.3728 0.219446L42.1291 8.28667C42.4854 8.55397 42.5577 9.05978 42.2904 9.41608C42.132 9.62745 41.8898 9.73877 41.6445 9.73877Z" fill="#2A5FD9"/>
</g>
<g id="Group_3">
<path id="Vector_10" d="M45.6447 50.0749H17.4395C16.994 50.0749 16.6328 49.7137 16.6328 49.2681C16.6328 48.8226 16.994 48.4614 17.4395 48.4614H45.6444C46.5033 48.4614 47.3117 48.1277 47.9207 47.5218C48.5296 46.916 48.8673 46.1093 48.8713 45.2501L48.9017 39.0058C48.9039 38.5616 49.2647 38.2031 49.7084 38.2031H49.7125C50.1581 38.2053 50.5173 38.5683 50.5152 39.0139L50.4848 45.2582C50.4786 46.5465 49.972 47.7569 49.0588 48.6655C48.1456 49.5742 46.9331 50.0749 45.6444 50.0749H45.6447Z" fill="#2A5FD9"/>
<path id="Vector_11" d="M49.662 35.2849C49.2164 35.2849 48.8552 34.9238 48.8552 34.4782V15.1169H45.6778C45.2322 15.1169 44.8711 14.7557 44.8711 14.3101C44.8711 13.8646 45.2322 13.5034 45.6778 13.5034H49.662C50.1075 13.5034 50.4687 13.8646 50.4687 14.3101V34.4782C50.4687 34.9238 50.1075 35.2849 49.662 35.2849Z" fill="#2A5FD9"/>
<path id="Vector_12" d="M13.4076 50.0749H5.34034C2.67143 50.0749 0.5 47.9035 0.5 45.2345V11.6211C0.499731 10.3282 1.00313 9.11273 1.91741 8.19844C2.8317 7.28416 4.04716 6.78076 5.34007 6.78076H8.02914C8.47472 6.78076 8.83587 7.1419 8.83587 7.58748C8.83587 8.03306 8.47472 8.39421 8.02914 8.39421H5.34007C4.47822 8.39421 3.66773 8.7298 3.05839 9.33942C2.44877 9.94903 2.11318 10.7592 2.11318 11.6211V45.2345C2.11345 47.0139 3.56097 48.4614 5.34034 48.4614H13.4076C13.8531 48.4614 14.2143 48.8226 14.2143 49.2682C14.2143 49.7137 13.8531 50.0749 13.4076 50.0749Z" fill="#2A5FD9"/>
<path id="Vector_13" d="M8.02938 44.6967C7.5838 44.6967 7.22266 44.3356 7.22266 43.89V31.7892C7.22266 29.778 8.00571 27.8871 9.42797 26.4651C10.85 25.0431 12.7409 24.2598 14.7521 24.2598H45.6762C46.1217 24.2598 46.4829 24.6209 46.4829 25.0665C46.4829 25.5121 46.1217 25.8732 45.6762 25.8732H14.7521C13.172 25.8732 11.6863 26.4885 10.5689 27.606C9.45163 28.7234 8.8361 30.2091 8.8361 31.7892V43.89C8.8361 44.3356 8.47496 44.6967 8.02938 44.6967Z" fill="#2A5FD9"/>
</g>
<g id="Group 92">
<path id="Vector_14" d="M11.7001 36.4849C11.7001 36.1399 12.095 35.8604 12.5821 35.8604L22.8719 35.8604C23.3591 35.8604 23.7539 36.1399 23.7539 36.4849C23.7539 36.8299 23.3591 37.1094 22.8719 37.1094L12.5821 37.1094C12.095 37.1094 11.7001 36.8299 11.7001 36.4849Z" fill="#2A5FD9"/>
<path id="Vector_15" d="M17.727 30.4579C18.072 30.4579 18.3516 30.8528 18.3516 31.3399L18.3516 41.6297C18.3516 42.1169 18.072 42.5117 17.727 42.5117C17.3821 42.5117 17.1025 42.1169 17.1025 41.6297L17.1025 31.3399C17.1025 30.8528 17.3821 30.4579 17.727 30.4579Z" fill="#2A5FD9"/>
</g>
</g>
</g>
<defs>
<clipPath id="clip0_5893_23938">
<rect width="64" height="64" fill="white" transform="translate(0.5 0.0581055)"/>
</clipPath>
</defs>
</svg>
