<svg id="ic-touch-id" xmlns="http://www.w3.org/2000/svg" width="24" height="24" viewBox="0 0 24 24">
  <path id="Path_367" data-name="Path 367" d="M0,0H24V24H0Z" fill="none"/>
  <path id="Path_368" data-name="Path 368" d="M19.459,4.47a.562.562,0,0,1-.256-.06A13.854,13.854,0,0,0,13.014,3a13.848,13.848,0,0,0-6.19,1.41.6.6,0,0,1-.756-.2.481.481,0,0,1,.222-.68A15.2,15.2,0,0,1,13.014,2a15.239,15.239,0,0,1,6.7,1.52.467.467,0,0,1,.233.67A.553.553,0,0,1,19.459,4.47ZM3.556,9.72a.625.625,0,0,1-.322-.09.468.468,0,0,1-.133-.7A11.221,11.221,0,0,1,7.268,5.66a14.114,14.114,0,0,1,11.458-.01A11.273,11.273,0,0,1,22.893,8.9a.469.469,0,0,1-.133.7.594.594,0,0,1-.778-.12,10.2,10.2,0,0,0-3.767-2.94,12.884,12.884,0,0,0-10.447.01A10.3,10.3,0,0,0,3.989,9.51a.5.5,0,0,1-.433.21ZM10.5,21.79a.55.55,0,0,1-.389-.15A10.307,10.307,0,0,1,7.879,19a8.174,8.174,0,0,1-1.167-4.34c0-2.97,2.823-5.39,6.29-5.39s6.29,2.42,6.29,5.39a.559.559,0,0,1-1.111,0c0-2.42-2.323-4.39-5.179-4.39s-5.179,1.97-5.179,4.39a7.214,7.214,0,0,0,1.034,3.85,9.659,9.659,0,0,0,2.056,2.42.477.477,0,0,1,0,.71.648.648,0,0,1-.411.15Zm7.968-1.85a6.478,6.478,0,0,1-3.445-.89,5.21,5.21,0,0,1-2.645-4.39.559.559,0,0,1,1.111,0,4.211,4.211,0,0,0,2.156,3.56,5.28,5.28,0,0,0,2.823.71,8.14,8.14,0,0,0,1.156-.1.551.551,0,0,1,.645.41.506.506,0,0,1-.456.58,8.411,8.411,0,0,1-1.345.12ZM16.236,22a.718.718,0,0,1-.144-.02,8.955,8.955,0,0,1-4.134-2.1,6.95,6.95,0,0,1-2.412-5.22,3.212,3.212,0,0,1,3.423-2.94,3.212,3.212,0,0,1,3.423,2.94A2.15,2.15,0,0,0,18.7,16.6a2.15,2.15,0,0,0,2.312-1.94c0-3.77-3.612-6.83-8.057-6.83a8.256,8.256,0,0,0-7.346,4.03,5.893,5.893,0,0,0-.656,2.8A9.052,9.052,0,0,0,5.7,18.27a.476.476,0,0,1-.322.64.571.571,0,0,1-.711-.29,10.158,10.158,0,0,1-.811-3.96,6.881,6.881,0,0,1,.756-3.24,9.38,9.38,0,0,1,8.346-4.6c5.057,0,9.169,3.51,9.169,7.83A3.212,3.212,0,0,1,18.7,17.59a3.212,3.212,0,0,1-3.423-2.94,2.15,2.15,0,0,0-2.312-1.94,2.15,2.15,0,0,0-2.312,1.94,6,6,0,0,0,2.078,4.51,7.8,7.8,0,0,0,3.634,1.85.493.493,0,0,1,.389.61A.533.533,0,0,1,16.236,22Z" transform="translate(-0.997)" fill="rgba(0,0,0,0.54)"/>
</svg>
