<svg width="48" height="48" viewBox="0 0 48 48" fill="none" xmlns="http://www.w3.org/2000/svg">
<g clip-path="url(#clip0_2676_6493)">
<g clip-path="url(#clip1_2676_6493)">
<path d="M18.4599 34.4046C18.9284 34.4046 19.2188 34.1311 20.0992 33.2796L23.9131 29.525C23.9609 29.4773 24.0521 29.4773 24.0895 29.525L27.9034 33.2796C28.7921 34.1289 29.0701 34.4046 29.551 34.4046C30.2001 34.4046 30.5796 33.967 30.5796 33.2101V16.2641C30.5796 14.4107 29.6518 13.4704 27.8192 13.4704H20.1814C18.3508 13.4704 17.4209 14.4107 17.4209 16.2641V33.2101C17.4209 33.967 17.8026 34.4046 18.4599 34.4046ZM19.2577 31.7695C19.1143 31.9046 18.9605 31.8652 18.9605 31.6698V16.289C18.9605 15.4468 19.4034 15.01 20.2581 15.01H27.7446C28.5972 15.01 29.0421 15.4468 29.0421 16.289V31.6698C29.0421 31.8652 28.8905 31.9046 28.7532 31.7695L24.5187 27.6709C24.2057 27.3639 23.797 27.3639 23.4818 27.6709L19.2577 31.7695Z" fill="#007AFF"/>
</g>
</g>
<defs>
<clipPath id="clip0_2676_6493">
<rect x="9.4209" y="5.4704" width="29.1591" height="37.0592" rx="14.5795" fill="white"/>
</clipPath>
<clipPath id="clip1_2676_6493">
<rect width="13.1591" height="21.0592" fill="white" transform="translate(17.4209 13.4704)"/>
</clipPath>
</defs>
</svg>
