<svg width="177" height="151" viewBox="0 0 177 151" fill="none" xmlns="http://www.w3.org/2000/svg">
<g clip-path="url(#clip0_5893_16959)">
<path d="M66.3823 104.817C95.2551 104.817 118.661 81.4108 118.661 52.538C118.661 23.6652 95.2551 0.259155 66.3823 0.259155C37.5095 0.259155 14.1035 23.6652 14.1035 52.538C14.1035 81.4108 37.5095 104.817 66.3823 104.817Z" fill="#C8E4FD"/>
<path d="M150.833 138.195H62.3607C61.6948 138.195 61.1543 137.654 61.1543 136.988C61.1543 136.322 61.6948 135.782 62.3607 135.782H150.833C159.037 135.782 165.712 129.107 165.712 120.903V92.7525C165.712 92.0865 166.252 91.546 166.918 91.546C167.584 91.546 168.125 92.0865 168.125 92.7525V120.903C168.125 125.522 166.326 129.864 163.06 133.13C159.794 136.396 155.452 138.195 150.833 138.195Z" fill="#2A5FD9"/>
<path d="M30.1889 73.8516C29.5229 73.8516 28.9824 73.3112 28.9824 72.6452V40.4736C28.9824 35.8546 30.7808 31.5122 34.047 28.246C37.3133 24.9798 41.6556 23.1814 46.2746 23.1814H150.832C155.451 23.1814 159.794 24.9798 163.06 28.246C166.326 31.5122 168.125 35.8546 168.125 40.4736V68.6238C168.125 69.2897 167.584 69.8302 166.918 69.8302C166.252 69.8302 165.712 69.2897 165.712 68.6238V40.4736C165.712 32.2691 159.037 25.5943 150.832 25.5943H46.2746C38.0701 25.5943 31.3953 32.2691 31.3953 40.4736V72.6452C31.3953 73.3112 30.8548 73.8516 30.1889 73.8516Z" fill="#2A5FD9"/>
<path d="M174.96 93.9589H166.917C166.251 93.9589 165.711 93.4184 165.711 92.7525C165.711 92.0865 166.251 91.546 166.917 91.546H173.754V69.8302H142.788C139.019 69.8302 135.952 72.897 135.952 76.6667V84.7096C135.952 88.4793 139.019 91.546 142.788 91.546H158.874C159.54 91.546 160.081 92.0865 160.081 92.7525C160.081 93.4184 159.54 93.9589 158.874 93.9589H142.788C137.688 93.9589 133.539 89.8096 133.539 84.7096V76.6667C133.539 71.5667 137.688 67.4174 142.788 67.4174H174.96C175.626 67.4174 176.166 67.9578 176.166 68.6238V92.7525C176.166 93.4184 175.626 93.9589 174.96 93.9589Z" fill="#2A5FD9"/>
<path d="M146.811 84.7095C149.031 84.7095 150.832 82.9091 150.832 80.6881C150.832 78.4671 149.031 76.6666 146.811 76.6666C144.59 76.6666 142.789 78.4671 142.789 80.6881C142.789 82.9091 144.59 84.7095 146.811 84.7095Z" fill="#2A5FD9"/>
<path d="M118.659 41.6801H110.617C109.951 41.6801 109.41 41.1396 109.41 40.4736C109.41 39.8077 109.951 39.2672 110.617 39.2672H118.659C119.325 39.2672 119.866 39.8077 119.866 40.4736C119.866 41.1396 119.325 41.6801 118.659 41.6801Z" fill="#2A5FD9"/>
<path d="M146.81 41.6801H138.767C138.101 41.6801 137.561 41.1396 137.561 40.4736C137.561 39.8077 138.101 39.2672 138.767 39.2672H146.81C147.476 39.2672 148.016 39.8077 148.016 40.4736C148.016 41.1396 147.476 41.6801 146.81 41.6801Z" fill="#2A5FD9"/>
<path d="M62.3607 41.6801H54.3178C53.6518 41.6801 53.1113 41.1396 53.1113 40.4736C53.1113 39.8077 53.6518 39.2672 54.3178 39.2672H62.3607C63.0266 39.2672 63.5671 39.8077 63.5671 40.4736C63.5671 41.1396 63.0266 41.6801 62.3607 41.6801Z" fill="#2A5FD9"/>
<path d="M90.511 41.6801H82.4682C81.8022 41.6801 81.2617 41.1396 81.2617 40.4736C81.2617 39.8077 81.8022 39.2672 82.4682 39.2672H90.511C91.177 39.2672 91.7175 39.8077 91.7175 40.4736C91.7175 41.1396 91.177 41.6801 90.511 41.6801Z" fill="#2A5FD9"/>
<path d="M86.4896 122.109H78.4467C77.7807 122.109 77.2402 121.569 77.2402 120.903C77.2402 120.237 77.7807 119.696 78.4467 119.696H86.4896C87.1555 119.696 87.696 120.237 87.696 120.903C87.696 121.569 87.1555 122.109 86.4896 122.109Z" fill="#2A5FD9"/>
<path d="M118.659 122.109H110.617C109.951 122.109 109.41 121.569 109.41 120.903C109.41 120.237 109.951 119.696 110.617 119.696H118.659C119.325 119.696 119.866 120.237 119.866 120.903C119.866 121.569 119.325 122.109 118.659 122.109Z" fill="#2A5FD9"/>
<path d="M146.81 122.109H138.767C138.101 122.109 137.561 121.569 137.561 120.903C137.561 120.237 138.101 119.696 138.767 119.696H146.81C147.476 119.696 148.016 120.237 148.016 120.903C148.016 121.569 147.476 122.109 146.81 122.109Z" fill="#2A5FD9"/>
<path d="M30.1886 150.259C30.0261 150.259 29.8645 150.226 29.7133 150.162C29.4165 150.035 22.3604 146.958 15.2312 139.32C11.0489 134.839 7.71594 129.71 5.3256 124.076C2.3441 117.046 0.832031 109.214 0.832031 100.795C0.832031 100.129 1.37251 99.589 2.03847 99.589C7.38779 99.589 12.1419 98.7726 16.1682 97.1616C19.3516 95.8884 22.0902 94.1182 24.3084 91.8992C28.05 88.1576 29.0087 84.4538 29.0176 84.4168C29.1519 83.8796 29.6344 83.5032 30.1878 83.5032C30.7411 83.5032 31.2237 83.8796 31.358 84.4168C31.6942 85.7278 33.1339 89.0045 36.1685 91.9989C38.3915 94.193 41.1285 95.9423 44.3039 97.1994C48.3092 98.7847 53.0312 99.589 58.3387 99.589C59.0047 99.589 59.5452 100.129 59.5452 100.795C59.5452 110.127 58.0347 118.526 55.0556 125.761C52.6596 131.579 49.3154 136.659 45.1162 140.858C37.9403 148.034 30.8192 150.127 30.5192 150.213C30.4106 150.245 30.2988 150.26 30.1878 150.26L30.1886 150.259ZM3.25536 101.988C3.39128 109.627 4.83337 116.736 7.54704 123.134C9.8264 128.507 13.0058 133.399 16.995 137.674C22.8398 143.937 28.7071 147.009 30.2642 147.759C31.8406 147.21 37.7103 144.889 43.5044 139.057C47.4543 135.081 50.6015 130.27 52.8599 124.755C55.5688 118.142 57.0012 110.487 57.1235 101.987C51.9551 101.871 47.3143 101.002 43.313 99.4016C39.8248 98.0061 36.8135 96.0565 34.3621 93.605C32.3087 91.5517 30.9977 89.4975 30.1886 87.9107C29.3787 89.4975 28.0677 91.5525 26.0151 93.605C23.5645 96.0565 20.5524 98.0061 17.0642 99.4016C13.0637 101.002 8.42292 101.871 3.25536 101.987V101.988Z" fill="#55953B"/>
<path d="M26.1677 126.13C25.8589 126.13 25.55 126.013 25.3144 125.777L17.2715 117.734C16.8001 117.263 16.8001 116.499 17.2715 116.029C17.7428 115.557 18.5068 115.557 18.9774 116.029L26.1669 123.218L41.3993 107.986C41.8706 107.514 42.6347 107.514 43.1052 107.986C43.5765 108.457 43.5765 109.221 43.1052 109.692L27.0194 125.777C26.7838 126.013 26.4749 126.13 26.1661 126.13H26.1677Z" fill="#55953B"/>
</g>
<defs>
<clipPath id="clip0_5893_16959">
<rect width="175.335" height="150" fill="white" transform="translate(0.832031 0.259155)"/>
</clipPath>
</defs>
</svg>
