<svg width="140" height="46" viewBox="0 0 140 46" fill="none" xmlns="http://www.w3.org/2000/svg">
<path d="M61.5768 18.6501C59.5284 14.9029 55.9912 12.1989 52.2076 10.3184C48.1002 8.27729 43.4402 6.62001 38.8401 6.25715C34.8559 5.94314 30.6253 6.87122 27.6301 9.61708C25.5782 11.5116 23.9627 14.6133 22.8505 17.0766C21.9248 19.1281 21.1681 21.2948 21.0836 23.5557C20.9217 27.9937 23.4347 32.1142 25.5711 35.8405C27.616 39.4028 30.122 42.6825 34.159 44.0885C38.0235 45.4388 42.4653 45.2888 46.4284 44.4514C54.2349 42.7941 61.1686 37.4629 62.9495 29.487C63.766 25.8375 63.3965 21.9542 61.5804 18.6466L61.5768 18.6501Z" fill="#DBE4F1"/>
<mask id="mask0_12797_5144" style="mask-type:luminance" maskUnits="userSpaceOnUse" x="0" y="0" width="32" height="35">
<path d="M22.9 32.4004C25.8635 30.5407 27.8873 27.5402 29.2247 24.3826C30.6748 20.9599 31.78 17.108 31.8257 13.3782C31.8644 10.1474 30.8719 6.7875 28.4539 4.51964C26.7856 2.96703 24.1494 1.83658 22.0693 1.07249C20.3341 0.437489 18.5145 -0.0544614 16.6526 0.0048519C12.9993 0.1165 9.75769 2.3704 6.81528 4.29983C4.00311 6.14203 1.44786 8.34708 0.515165 11.6791C-0.378819 14.8715 -0.016298 18.4443 0.891764 21.5949C2.67973 27.8018 7.43826 33.0982 14.0798 34.0995C17.1207 34.5566 20.2884 34.0437 22.9 32.4004Z" fill="white"/>
</mask>
<g mask="url(#mask0_12797_5144)">
<path d="M3.46484 33.4754C11.8169 28.5908 19.7184 23.9714 27.6165 19.3484C28.7815 18.6646 29.9641 18.0819 31.1185 17.269C36.4296 13.5218 40.1111 12.8972 43.9897 11.8366C44.8873 11.5923 45.1759 12.2343 45.9467 12.5483C41.3782 15.2 37.3341 17.5865 33.3147 19.8718C25.4871 24.3237 17.6736 28.7339 9.85999 33.137C4.89381 35.9352 4.90085 35.9177 3.46484 33.472V33.4754Z" fill="#DBE4F1"/>
<path d="M6.30469 37.2306C10.2291 34.9453 13.5762 32.96 16.8987 31.069C25.5957 26.1181 34.2892 21.1741 42.9615 16.3069C44.2814 15.5673 46.4776 13.6623 46.541 15.0265C46.5762 15.7662 43.3804 19.2656 41.786 20.253C39.6355 21.5893 37.4885 22.8628 35.3486 24.1398C28.4642 28.2429 21.5939 32.2797 14.699 36.4595C11.8446 38.1901 10.4895 38.0296 9.12742 37.7888C8.27919 37.6388 7.4556 37.4574 6.31173 37.2271L6.30469 37.2306Z" fill="#DBE4F1"/>
<path d="M30.1397 9.8379C27.7217 11.3696 25.3354 12.2069 23.0089 13.5677C20.3199 15.1412 17.55 17.0497 14.8188 18.7977C11.3203 21.0342 7.81473 23.295 4.32326 25.4582C2.29596 26.7143 1.43366 27.419 0.729732 25.842C0.391849 25.0814 -0.0305067 24.3383 0.919791 23.5846C2.67608 22.5833 5.32283 20.6504 6.89962 19.649C11.4822 16.7392 16.0718 13.7456 20.6613 10.7939C22.3226 9.72626 23.9768 8.70049 25.6381 7.63983C29.0732 5.44524 30.196 5.8709 30.2629 7.56307C30.2769 7.95035 30.3896 8.27134 30.5339 8.65164C30.6254 8.89238 30.7099 9.47505 30.1397 9.8379Z" fill="#DBE4F1"/>
<path d="M32.8159 13.9062C29.518 15.7972 26.3574 17.5975 23.1827 19.4607C18.1566 22.4124 13.1306 25.3432 8.07645 28.4519C2.08958 32.1328 2.07902 32.2095 1.98047 28.567C3.91274 27.5342 5.72886 26.7213 7.5837 25.542C10.512 23.6824 13.4826 21.4634 16.4109 19.6142C19.1738 17.8662 21.905 16.3973 24.6468 14.8098C24.8404 14.6982 33.02 10.6718 33.9351 12.4861C34.1252 12.8629 33.4916 13.5189 32.8159 13.9062Z" fill="#DBE4F1"/>
<path d="M28.7384 3.88524C19.7669 9.58629 10.1513 15.5979 0.539219 21.7036C-2.98744 22.0386 -2.66715 20.3918 -1.63591 18.4275C-1.54792 18.26 1.41209 16.4178 5.36462 14.0313C11.7211 10.1934 20.6433 4.94241 24.3037 2.98856C28.2809 0.867243 28.5413 1.14636 28.7384 3.88524Z" fill="#DBE4F1"/>
<path d="M23.5587 1.89698C22.6682 2.64711 9.44498 10.1555 3.21173 13.4003C0.895822 14.6075 -1.34618 16.7672 -1.87412 16.6102C-2.53581 16.4113 -3.74304 14.8377 -2.41966 13.6864C0.265809 11.3487 7.03052 7.71665 9.86381 5.95121C12.5915 4.25206 21.0879 -0.370882 22.7456 -0.227832C23.9001 -0.13014 24.78 0.864228 23.5587 1.89698Z" fill="#DBE4F1"/>
<path d="M-5.34866 9.40171C-4.4582 8.65157 8.76501 1.14321 14.9983 -2.10157C17.3142 -3.30877 19.5562 -5.46847 20.0841 -5.31147C20.7458 -5.11259 21.953 -3.53905 20.6297 -2.38767C17.9442 -0.0500312 11.1795 3.58203 8.34618 5.34747C5.61847 7.04662 -2.87789 11.6696 -4.53563 11.5265C-5.69007 11.4288 -6.56997 10.4345 -5.34866 9.40171Z" fill="#DBE4F1"/>
<path d="M41.2677 22.1222C34.7951 29.4805 20.8398 37.7669 15.3633 37.4983C23.9969 32.3729 32.6341 27.2476 41.2677 22.1222Z" fill="#DBE4F1"/>
</g>
<path d="M36.9502 17.904C37.0558 18.1029 37.0593 18.3401 36.9537 18.5425L28.3271 35.2654L28.1476 35.6108V35.6178C27.8097 36.1969 27.3205 36.6959 26.694 37.0552C24.7934 38.1438 22.3614 37.4983 21.2668 35.6108C21.2421 35.5654 21.2175 35.5235 21.1929 35.4782L11.5139 17.3144C11.074 16.484 11.6758 15.4896 12.6226 15.4896H34.4654C35.2045 15.4896 35.8838 15.8943 36.2287 16.5433L36.9537 17.904H36.9502Z" fill="#0048D1"/>
<path d="M25.6384 10.1574C26.7154 12.2962 25.8425 14.0337 23.685 14.0337C21.5274 14.0337 18.9053 12.2997 17.8283 10.1574C16.7513 8.01864 18.2507 6.94751 20.4082 6.94751C22.5657 6.94751 24.5614 8.01515 25.6384 10.1574Z" fill="#0048D1"/>
<path d="M34.8206 21.3235C34.9086 21.4874 34.9086 21.6828 34.8241 21.8468L31.484 35.604L31.3362 35.8866V35.8936C31.0546 36.3716 30.6533 36.7833 30.1395 37.0764C28.5732 37.973 26.5776 37.4392 25.6731 35.8901C25.652 35.8552 25.6308 35.8168 25.6097 35.7784L17.8806 21.0025C17.5181 20.3221 18.0144 19.5022 18.7922 19.5022L32.7722 19.3347C33.3811 19.3347 33.9407 19.6697 34.2222 20.2035L34.8171 21.3235H34.8206Z" fill="#FFF0B9"/>
<path d="M33.2006 24.1C33.2499 24.1942 33.2499 24.3058 33.2006 24.4L31.8279 32.2608L31.7435 32.4213C31.5851 32.6969 31.3563 32.9307 31.0607 33.1016C30.1667 33.6145 29.0263 33.311 28.5089 32.4248C28.4984 32.4039 28.4843 32.3829 28.4737 32.362L24.0848 23.9849C23.8771 23.5941 24.1622 23.1266 24.6057 23.1266L32.0321 22.9661C32.3805 22.9661 32.6973 23.158 32.8627 23.4615L33.2041 24.1H33.2006Z" fill="#FF6E70"/>
<path d="M65.1886 9.47421L52.3772 34.2009C51.2967 36.2873 49.1286 37.5922 46.7634 37.5817H24.6426C25.6738 37.5817 26.7684 36.6781 27.4724 35.2545C27.4724 35.2511 27.4794 35.2441 27.4794 35.2406L27.5885 35.0278L28.669 32.9378L41.4804 8.15188C42.3991 6.37946 44.2433 5.26646 46.253 5.27693L49.5967 5.29088C50.0578 5.29088 50.3534 5.77237 50.1493 6.18058L49.199 8.20072C47.858 10.8559 48.8364 13.0086 51.3811 13.0121C54.2003 13.0121 56.6183 11.7386 58.4169 8.21119C58.7371 7.58666 59.6276 5.67816 59.6276 5.67816C59.7332 5.46882 59.9514 5.33624 60.1872 5.33973L62.6756 5.35019C66.6704 5.35019 65.5863 8.67872 65.1921 9.46723L65.1886 9.47421Z" fill="#0048D1"/>
<path d="M49.1034 18.0257H50.0291L49.0471 18.6293L48.9626 19.5888L48.4453 18.9991L47.4668 19.5888L48.139 18.6293L47.6217 18.0257H48.5473L49.1949 17.0941L49.1034 18.0257Z" fill="#FFF0B9"/>
<path d="M44.307 30.3455H45.2713L44.2682 30.9247L44.2119 31.8458L43.6558 31.277L42.6562 31.8458L43.325 30.9247L42.7689 30.3455H43.7297L44.3773 29.4453L44.307 30.3455Z" fill="#FFF0B9"/>
<path d="M47.6796 29.5297H48.6404L47.6444 30.1089L47.5951 31.03L47.039 30.4612L46.043 31.03L46.7047 30.1089L46.145 29.5297H47.1059L47.7394 28.6295L47.6796 29.5297Z" fill="#FFF0B9"/>
<path d="M51.762 18.8486H52.6947L51.7233 19.4278L51.6634 20.3489L51.132 19.7836L50.1641 20.3489L50.8152 19.4278L50.2802 18.8486H51.2094L51.8324 17.9519L51.762 18.8486Z" fill="#FFF0B9"/>
<path d="M53.1022 21.1096H54.0384L53.067 21.6887L53.0177 22.6098L52.4757 22.0446L51.5078 22.6098L52.1519 21.6887L51.6099 21.1096H52.5426L53.1656 20.2129L53.1022 21.1096Z" fill="#FFF0B9"/>
<path d="M50.7796 27.2965H51.7369L50.7479 27.8791L50.7021 28.8002L50.146 28.2315L49.1641 28.8002L49.8152 27.8791L49.2556 27.2965H50.2094L50.8359 26.3998L50.7796 27.2965Z" fill="#FFF0B9"/>
<path d="M52.7928 24.1552H53.7431L52.7647 24.7379L52.7189 25.659L52.1663 25.0903L51.1914 25.659L51.839 24.7379L51.2864 24.1552H52.2297L52.8527 23.2585L52.7928 24.1552Z" fill="#FFF0B9"/>
<path d="M45.7702 18.856H46.6994L45.7174 19.4387L45.64 20.3598L45.1191 19.7911L44.1406 20.3598L44.8058 19.4387L44.2849 18.856H45.2141L45.8547 17.9594L45.7702 18.856Z" fill="#FFF0B9"/>
<path d="M42.7155 21.1171H43.6553L42.6627 21.6998L42.5783 22.6209L42.0574 22.0522L41.0684 22.6209L41.7441 21.6998L41.2232 21.1171H42.1559L42.8071 20.2205L42.7155 21.1171Z" fill="#FFF0B9"/>
<path d="M40.6671 24.1627H41.6139L40.6143 24.7453L40.5334 25.6664L40.0019 25.0977L39.0059 25.6664L39.6887 24.7453L39.1607 24.1627H40.104L40.7586 23.266L40.6671 24.1627Z" fill="#FFF0B9"/>
<path d="M40.1878 27.3035H41.1452L40.135 27.8861L40.0611 28.8072L39.5226 28.2385L38.5195 28.8072L39.2023 27.8861L38.6638 27.3035H39.6177L40.2723 26.4103L40.1878 27.3035Z" fill="#FFF0B9"/>
<path d="M41.512 29.5366H42.4729L41.4628 30.1157L41.3959 31.0368L40.8504 30.4681L39.8438 31.0368L40.523 30.1157L39.9775 29.5366H40.9348L41.586 28.6399L41.512 29.5366Z" fill="#FFF0B9"/>
<path d="M88.2596 13.9426C88.1892 13.9426 88.1399 13.9287 88.1118 13.9008C88.0906 13.8729 88.0801 13.8345 88.0801 13.7856V8.62539C88.0801 8.52072 88.1329 8.46838 88.2349 8.46838H89.9032C90.3573 8.46838 90.7339 8.54165 91.0295 8.69168C91.3252 8.83473 91.5575 9.03012 91.7264 9.27784C91.9024 9.52556 92.0221 9.81514 92.0889 10.1431C92.1593 10.4746 92.1945 10.8235 92.1945 11.1898C92.1945 11.5562 92.1628 11.919 92.096 12.254C92.0291 12.5854 91.9129 12.875 91.744 13.1297C91.5751 13.3774 91.3393 13.5763 91.0366 13.7228C90.7409 13.8659 90.3643 13.9392 89.9032 13.9392H88.2596V13.9426ZM91.2266 11.2526C91.2266 10.8688 91.1914 10.5478 91.121 10.2966C91.0542 10.0384 90.9626 9.83608 90.843 9.68605C90.7233 9.53602 90.5755 9.43136 90.4066 9.37204C90.2411 9.31273 90.0616 9.28132 89.8645 9.28132H89.0093V13.1262H89.8082C89.9948 13.1262 90.1743 13.1018 90.3432 13.0529C90.5121 13.0041 90.6635 12.9099 90.7937 12.7738C90.9239 12.6378 91.0295 12.4459 91.107 12.2051C91.1879 11.9574 91.2301 11.6399 91.2301 11.2561L91.2266 11.2526Z" fill="#222433"/>
<path d="M94.1898 8.82473C94.1898 8.89102 94.1827 8.95382 94.1722 9.01313C94.1616 9.06895 94.137 9.1178 94.0983 9.16316C94.0666 9.20852 94.0173 9.24341 93.9505 9.27132C93.8906 9.29225 93.8097 9.30272 93.7041 9.30272C93.595 9.30272 93.507 9.28876 93.4401 9.26085C93.3803 9.23294 93.3345 9.19805 93.2993 9.15269C93.2676 9.10734 93.243 9.05849 93.2324 9.00266C93.2219 8.94335 93.2148 8.88055 93.2148 8.82124C93.2148 8.68866 93.2465 8.58049 93.3064 8.48978C93.3732 8.39557 93.5035 8.35022 93.7006 8.35022C93.8977 8.35022 94.0349 8.39558 94.0947 8.4828C94.1546 8.56654 94.1863 8.67819 94.1863 8.82124L94.1898 8.82473ZM94.1405 13.7861C94.1405 13.8315 94.1299 13.8698 94.1088 13.9012C94.0912 13.9292 94.0525 13.9431 93.9927 13.9431H93.4084C93.2993 13.9431 93.243 13.8908 93.243 13.7861V10.0563C93.243 9.95168 93.2993 9.89934 93.4084 9.89934H93.9927C94.0525 9.89934 94.0912 9.91679 94.1088 9.94819C94.1299 9.9761 94.1405 10.011 94.1405 10.0563V13.7861Z" fill="#222433"/>
<path d="M96.8966 9.81581C97.1605 9.81581 97.4351 9.83675 97.7202 9.87512C98.0052 9.9135 98.2481 9.96584 98.4522 10.0321C98.5508 10.0635 98.6106 10.1159 98.6317 10.1891C98.6599 10.2554 98.674 10.3252 98.674 10.4055V13.898C98.674 14.1352 98.6564 14.355 98.6247 14.5574C98.593 14.7597 98.5156 14.9377 98.3959 15.0842C98.2763 15.2343 98.1003 15.3494 97.8715 15.4296C97.6462 15.5134 97.3365 15.5518 96.9423 15.5518C96.7276 15.5518 96.4953 15.5378 96.2419 15.5099C95.9955 15.482 95.7879 15.4331 95.6189 15.3599C95.531 15.3285 95.4782 15.2866 95.4641 15.2447C95.4465 15.2063 95.4465 15.1645 95.457 15.1226L95.5239 14.8156C95.5345 14.7493 95.5556 14.7109 95.5908 14.7004C95.6295 14.69 95.6858 14.69 95.7633 14.7004C95.9498 14.7283 96.1434 14.7458 96.3475 14.7597C96.5552 14.7772 96.7382 14.7842 96.8966 14.7842C97.0726 14.7842 97.2133 14.7702 97.3224 14.7423C97.4386 14.7144 97.5266 14.669 97.5934 14.6097C97.6603 14.5539 97.7026 14.4806 97.7237 14.3864C97.7518 14.2922 97.7659 14.1841 97.7659 14.055V13.7828C97.5583 13.8596 97.3682 13.9119 97.1993 13.9398C97.0338 13.9677 96.886 13.9817 96.7558 13.9817C96.4214 13.9817 96.1469 13.9329 95.9322 13.8317C95.7175 13.734 95.5486 13.5944 95.4218 13.42C95.3022 13.2385 95.2177 13.0222 95.1684 12.7745C95.1262 12.5198 95.1016 12.2407 95.1016 11.9336C95.1016 11.6092 95.1297 11.3161 95.1825 11.0579C95.2388 10.7927 95.3339 10.5694 95.4711 10.388C95.6084 10.1996 95.7914 10.0566 96.0202 9.95886C96.256 9.86117 96.5481 9.80884 96.9001 9.80884L96.8966 9.81581ZM96.0343 11.8639C96.0343 12.1186 96.0483 12.3279 96.0765 12.4989C96.1082 12.6698 96.1574 12.8059 96.2173 12.9106C96.2841 13.0083 96.3651 13.0815 96.4637 13.1269C96.5692 13.1722 96.6924 13.1932 96.8332 13.1932C96.9529 13.1932 97.0937 13.1827 97.252 13.1618C97.4175 13.1408 97.5864 13.1025 97.7624 13.0536V10.702C97.6357 10.6811 97.4984 10.6636 97.3506 10.6532C97.2098 10.6357 97.0726 10.6288 96.9388 10.6288C96.8051 10.6288 96.696 10.6427 96.5868 10.6706C96.4777 10.6985 96.3827 10.7544 96.2982 10.8451C96.2173 10.9288 96.1504 11.0509 96.1011 11.2149C96.0589 11.3789 96.0343 11.5987 96.0343 11.8674V11.8639Z" fill="#222433"/>
<path d="M100.571 8.82473C100.571 8.89102 100.564 8.95382 100.553 9.01313C100.542 9.06895 100.518 9.1178 100.479 9.16316C100.447 9.20852 100.398 9.24341 100.331 9.27132C100.271 9.29225 100.191 9.30272 100.085 9.30272C99.9758 9.30272 99.8878 9.28876 99.821 9.26085C99.7611 9.23294 99.7154 9.19805 99.6802 9.15269C99.6485 9.10734 99.6239 9.05849 99.6133 9.00266C99.6027 8.94335 99.5957 8.88055 99.5957 8.82124C99.5957 8.68866 99.6274 8.58049 99.6872 8.48978C99.7541 8.39557 99.8843 8.35022 100.081 8.35022C100.279 8.35022 100.416 8.39558 100.476 8.4828C100.535 8.56654 100.567 8.67819 100.567 8.82124L100.571 8.82473ZM100.521 13.7861C100.521 13.8315 100.511 13.8698 100.49 13.9012C100.472 13.9292 100.433 13.9431 100.374 13.9431H99.7893C99.6802 13.9431 99.6239 13.8908 99.6239 13.7861V10.0563C99.6239 9.95168 99.6802 9.89934 99.7893 9.89934H100.374C100.433 9.89934 100.472 9.91679 100.49 9.94819C100.511 9.9761 100.521 10.011 100.521 10.0563V13.7861Z" fill="#222433"/>
<path d="M104.05 13.6294C104.067 13.7236 104.032 13.7934 103.944 13.8353C103.874 13.8667 103.789 13.8946 103.691 13.919C103.599 13.94 103.501 13.9574 103.395 13.9679C103.296 13.9853 103.201 13.9958 103.106 13.9993C103.018 14.0062 102.941 14.0062 102.878 14.0062C102.635 14.0062 102.448 13.9748 102.311 13.9086C102.181 13.8353 102.082 13.7411 102.015 13.619C101.948 13.4969 101.91 13.3573 101.892 13.1968C101.874 13.0363 101.867 12.8688 101.867 12.6944V10.6219H101.456C101.396 10.6219 101.354 10.6114 101.332 10.5905C101.311 10.5626 101.301 10.5207 101.301 10.4684V10.0637C101.301 10.0078 101.311 9.96597 101.332 9.94154C101.354 9.91363 101.396 9.89968 101.456 9.89968H101.874V9.04836C101.874 8.98904 101.889 8.94717 101.917 8.92624C101.948 8.89833 101.987 8.88088 102.033 8.86693L102.582 8.7169C102.691 8.68899 102.747 8.72388 102.747 8.81459V9.89619H103.627C103.694 9.89619 103.733 9.91014 103.75 9.93806C103.772 9.96597 103.782 10.0043 103.782 10.0532V10.4649C103.782 10.5207 103.772 10.5626 103.75 10.587C103.733 10.6079 103.694 10.6184 103.627 10.6184H102.747V12.6734C102.747 12.7851 102.754 12.8688 102.772 12.9281C102.79 12.9875 102.814 13.0363 102.853 13.0677C102.895 13.0956 102.955 13.1131 103.025 13.1165C103.096 13.1235 103.187 13.1235 103.296 13.1235C103.356 13.1235 103.441 13.1235 103.55 13.1165C103.666 13.1096 103.765 13.1026 103.845 13.0921C103.888 13.0851 103.923 13.0921 103.944 13.1096C103.965 13.127 103.983 13.1584 103.993 13.2073L104.05 13.619V13.6294Z" fill="#222433"/>
<path d="M107.001 12.1011H105.998C105.791 12.1011 105.625 12.15 105.505 12.2511C105.386 12.3454 105.326 12.5268 105.326 12.7954C105.326 12.9769 105.361 13.1025 105.432 13.1757C105.509 13.242 105.643 13.2734 105.833 13.2734C105.921 13.2734 106.016 13.263 106.121 13.242C106.227 13.2211 106.329 13.1897 106.435 13.1513C106.54 13.1129 106.639 13.0711 106.737 13.0292C106.836 12.9804 106.924 12.9315 107.001 12.8896V12.1046V12.1011ZM107.051 13.4723C106.843 13.6328 106.607 13.7619 106.343 13.8596C106.086 13.9573 105.819 14.0096 105.537 14.0096C105.319 14.0096 105.136 13.9817 104.988 13.9259C104.847 13.8666 104.731 13.7863 104.643 13.6851C104.562 13.5805 104.502 13.4583 104.464 13.3153C104.432 13.1722 104.414 13.0118 104.414 12.8373C104.407 12.3523 104.534 12.0034 104.791 11.7906C105.048 11.5708 105.439 11.4591 105.959 11.4591H107.012V11.2428C107.012 11.1207 106.998 11.0195 106.97 10.9358C106.948 10.8486 106.903 10.7753 106.839 10.7195C106.772 10.6636 106.685 10.6253 106.575 10.6043C106.466 10.5834 106.325 10.5729 106.157 10.5729C106.09 10.5729 106.009 10.5729 105.91 10.5799C105.819 10.5869 105.72 10.5904 105.615 10.5974C105.516 10.6043 105.414 10.6113 105.312 10.6218C105.213 10.6322 105.122 10.6427 105.041 10.6462C104.96 10.6567 104.9 10.6602 104.868 10.6532C104.84 10.6427 104.823 10.6078 104.812 10.545L104.738 10.238C104.728 10.1822 104.731 10.1403 104.756 10.1054C104.777 10.067 104.837 10.0286 104.928 9.99026C105.016 9.95886 105.118 9.93095 105.241 9.90653C105.361 9.8856 105.484 9.86815 105.611 9.85768C105.738 9.84024 105.861 9.82977 105.981 9.82628C106.107 9.81581 106.22 9.80884 106.318 9.80884C106.674 9.80884 106.956 9.84373 107.167 9.917C107.381 9.99027 107.543 10.0914 107.652 10.224C107.762 10.3496 107.832 10.5066 107.867 10.695C107.899 10.8835 107.916 11.0928 107.916 11.3231V12.9175C107.916 13.0013 107.916 13.0676 107.923 13.1164C107.934 13.1618 107.948 13.1967 107.966 13.2246C107.987 13.2455 108.018 13.263 108.057 13.2734C108.096 13.2839 108.149 13.2944 108.212 13.2979C108.272 13.3048 108.314 13.3153 108.335 13.3293C108.356 13.3467 108.367 13.3746 108.367 13.42V13.7654C108.367 13.8596 108.3 13.9154 108.17 13.9398C108.103 13.9503 108.04 13.9608 107.973 13.9643C107.906 13.9747 107.842 13.9817 107.783 13.9817C107.593 13.9817 107.434 13.9468 107.315 13.8735C107.198 13.8003 107.121 13.6712 107.075 13.4758L107.058 13.4688L107.051 13.4723Z" fill="#222433"/>
<path d="M109.944 12.918C109.944 13.0436 109.973 13.1238 110.025 13.1587C110.085 13.1866 110.187 13.2006 110.328 13.2006C110.388 13.2076 110.427 13.2145 110.444 13.225C110.465 13.2355 110.483 13.2634 110.493 13.3088L110.525 13.7309C110.532 13.7972 110.493 13.8495 110.42 13.8879C110.342 13.9263 110.254 13.9507 110.149 13.9612C110.043 13.9786 109.958 13.9856 109.885 13.9856C109.571 13.9856 109.353 13.9158 109.226 13.7798C109.107 13.6367 109.047 13.4239 109.047 13.1448V8.28457C109.047 8.1799 109.1 8.12756 109.202 8.12756H109.786C109.892 8.12756 109.941 8.1799 109.941 8.28457V12.925L109.944 12.918Z" fill="#222433"/>
<path d="M113.65 8.62638C113.65 8.51473 113.703 8.4624 113.805 8.4624H114.428C114.534 8.4624 114.583 8.51822 114.583 8.62638V13.7866C114.583 13.8913 114.53 13.9436 114.428 13.9436H113.805C113.7 13.9436 113.65 13.8913 113.65 13.7866V8.62638Z" fill="#222433"/>
<path d="M119.168 13.7863C119.168 13.8351 119.157 13.8735 119.136 13.9014C119.118 13.9293 119.08 13.9433 119.02 13.9433H118.429C118.33 13.9433 118.281 13.8944 118.281 13.7933V13.5281H118.263C118.263 13.5281 118.263 13.5211 118.256 13.5211C118.186 13.57 118.101 13.6258 118.003 13.6851C117.904 13.7409 117.799 13.7933 117.682 13.8421C117.566 13.891 117.447 13.9293 117.32 13.9572C117.2 13.9886 117.081 14.0061 116.957 14.0061C116.69 14.0061 116.468 13.9607 116.292 13.8665C116.123 13.7688 115.986 13.6293 115.88 13.4548C115.782 13.2804 115.711 13.0675 115.666 12.8198C115.627 12.5651 115.609 12.2825 115.609 11.9685C115.609 11.6336 115.63 11.3335 115.676 11.0683C115.726 10.7997 115.81 10.5694 115.93 10.3845C116.049 10.1961 116.215 10.0565 116.422 9.96232C116.637 9.86462 116.912 9.81229 117.246 9.81229C117.58 9.81229 117.925 9.87509 118.267 10.0007H118.274C118.274 10.0007 118.274 9.99372 118.281 9.99372V8.2841C118.281 8.22828 118.288 8.18641 118.305 8.16199C118.327 8.13408 118.372 8.12012 118.436 8.12012H119.02C119.087 8.12012 119.125 8.13756 119.143 8.16896C119.161 8.19688 119.168 8.23526 119.168 8.2841V13.7828V13.7863ZM118.27 10.7473C118.08 10.6915 117.904 10.6566 117.753 10.6392C117.605 10.6183 117.461 10.6078 117.327 10.6078C117.179 10.6078 117.052 10.6287 116.95 10.6741C116.845 10.7194 116.764 10.7927 116.704 10.8974C116.644 11.002 116.598 11.1416 116.574 11.3195C116.546 11.4905 116.532 11.7033 116.532 11.965C116.532 12.2267 116.542 12.443 116.563 12.6105C116.591 12.771 116.63 12.8931 116.686 12.9803C116.743 13.0641 116.806 13.1199 116.883 13.1548C116.961 13.1827 117.052 13.1966 117.162 13.1966C117.242 13.1966 117.338 13.1827 117.44 13.1548C117.545 13.1269 117.647 13.0955 117.753 13.0571C117.858 13.0187 117.953 12.9803 118.041 12.9419C118.133 12.8966 118.21 12.8582 118.27 12.8268V10.7543V10.7473Z" fill="#222433"/>
<path d="M120.904 12.168C120.911 12.3773 120.932 12.5518 120.971 12.6879C121.013 12.8239 121.077 12.9356 121.161 13.0193C121.242 13.0961 121.344 13.1519 121.464 13.1833C121.583 13.2147 121.728 13.2322 121.9 13.2322C122.048 13.2322 122.224 13.2217 122.425 13.2007C122.629 13.1798 122.808 13.1589 122.967 13.1414C123.044 13.131 123.097 13.1345 123.122 13.1484C123.153 13.1589 123.178 13.2042 123.188 13.281L123.238 13.5531C123.248 13.6125 123.245 13.6648 123.231 13.7032C123.22 13.7415 123.174 13.7764 123.1 13.8113C123.019 13.8427 122.921 13.8741 122.812 13.902C122.703 13.923 122.587 13.9439 122.467 13.9614C122.347 13.9788 122.228 13.9928 122.104 14.0032C121.985 14.0137 121.876 14.0207 121.777 14.0207C121.383 14.0207 121.066 13.9614 120.83 13.8462C120.594 13.7311 120.415 13.5776 120.288 13.3857C120.162 13.1938 120.077 12.974 120.035 12.7262C119.996 12.4715 119.979 12.2134 119.979 11.9412C119.979 11.7423 119.996 11.519 120.028 11.2713C120.059 11.0236 120.133 10.7933 120.25 10.577C120.369 10.3607 120.545 10.1828 120.774 10.0397C121.01 9.88968 121.327 9.81641 121.728 9.81641C122.094 9.81641 122.389 9.87223 122.615 9.98039C122.843 10.092 123.023 10.2351 123.15 10.4095C123.276 10.5805 123.361 10.7794 123.403 11.0027C123.452 11.2225 123.481 11.4423 123.484 11.6621C123.491 11.8121 123.466 11.9308 123.41 12.025C123.354 12.1192 123.245 12.1645 123.083 12.1645H120.904V12.168ZM121.728 10.5596C121.573 10.5596 121.45 10.5805 121.351 10.6259C121.253 10.6712 121.172 10.7375 121.105 10.8247C121.045 10.9085 120.999 11.0131 120.975 11.1387C120.946 11.2609 120.929 11.3969 120.918 11.5504H122.544C122.544 11.4248 122.534 11.3027 122.513 11.1876C122.492 11.0655 122.449 10.9608 122.389 10.8666C122.333 10.7724 122.252 10.6991 122.143 10.6433C122.037 10.5875 121.904 10.5596 121.731 10.5596H121.728Z" fill="#222433"/>
<path d="M127.707 13.7858C127.707 13.8346 127.696 13.873 127.675 13.9009C127.654 13.9288 127.612 13.9428 127.552 13.9428H126.961C126.855 13.9428 126.806 13.8905 126.806 13.7858L126.813 11.4656C126.813 11.2249 126.77 11.0295 126.69 10.8794C126.612 10.7294 126.457 10.6561 126.221 10.6561C126.14 10.6561 126.042 10.6701 125.933 10.698C125.827 10.7259 125.722 10.7608 125.613 10.8062C125.507 10.8445 125.408 10.8864 125.317 10.9283C125.225 10.9667 125.151 11.0016 125.095 11.026V13.7823C125.095 13.887 125.042 13.9393 124.94 13.9393H124.356C124.25 13.9393 124.201 13.887 124.201 13.7823V10.0595C124.201 9.94787 124.254 9.89554 124.356 9.89554H124.94C125.046 9.89554 125.095 9.95136 125.095 10.0595V10.3072C125.095 10.3072 125.102 10.3072 125.102 10.3142H125.12C125.197 10.2584 125.285 10.2026 125.391 10.1502C125.5 10.0909 125.616 10.0351 125.736 9.98625C125.855 9.9374 125.982 9.89902 126.112 9.87111C126.243 9.83971 126.373 9.82227 126.499 9.82227C126.778 9.82227 126.999 9.86762 127.158 9.95485C127.316 10.0386 127.436 10.1502 127.52 10.2933C127.601 10.4363 127.654 10.6038 127.675 10.7957C127.696 10.9841 127.707 11.1795 127.707 11.3888V13.7823V13.7858Z" fill="#222433"/>
<path d="M131.079 13.6294C131.096 13.7236 131.061 13.7934 130.973 13.8353C130.903 13.8667 130.818 13.8946 130.72 13.919C130.628 13.94 130.53 13.9574 130.424 13.9679C130.326 13.9853 130.231 13.9958 130.136 13.9993C130.048 14.0062 129.97 14.0062 129.907 14.0062C129.668 14.0062 129.477 13.9748 129.34 13.9086C129.21 13.8353 129.111 13.7411 129.045 13.619C128.978 13.4969 128.939 13.3573 128.921 13.1968C128.904 13.0363 128.897 12.8688 128.897 12.6944V10.6219H128.485C128.425 10.6219 128.383 10.6114 128.362 10.5905C128.341 10.5626 128.33 10.5207 128.33 10.4684V10.0637C128.33 10.0078 128.341 9.96597 128.362 9.94154C128.383 9.91363 128.425 9.89968 128.485 9.89968H128.904V9.04836C128.904 8.98904 128.918 8.94717 128.946 8.92624C128.978 8.89833 129.016 8.88088 129.062 8.86693L129.611 8.7169C129.72 8.68899 129.777 8.72388 129.777 8.81459V9.89619H130.657C130.723 9.89619 130.762 9.91014 130.78 9.93806C130.801 9.96597 130.811 10.0043 130.811 10.0532V10.4649C130.811 10.5207 130.801 10.5626 130.78 10.587C130.762 10.6079 130.723 10.6184 130.657 10.6184H129.777V12.6734C129.777 12.7851 129.784 12.8688 129.801 12.9281C129.819 12.9875 129.844 13.0363 129.882 13.0677C129.924 13.0956 129.984 13.1131 130.055 13.1165C130.125 13.1235 130.217 13.1235 130.326 13.1235C130.386 13.1235 130.47 13.1235 130.579 13.1165C130.695 13.1096 130.794 13.1026 130.875 13.0921C130.917 13.0851 130.952 13.0921 130.973 13.1096C130.994 13.127 131.012 13.1584 131.023 13.2073L131.079 13.619V13.6294Z" fill="#222433"/>
<path d="M132.602 8.82473C132.602 8.89102 132.595 8.95382 132.584 9.01313C132.574 9.06895 132.549 9.1178 132.51 9.16316C132.479 9.20852 132.429 9.24341 132.363 9.27132C132.303 9.29225 132.222 9.30272 132.116 9.30272C132.007 9.30272 131.919 9.28876 131.852 9.26085C131.792 9.23294 131.747 9.19805 131.711 9.15269C131.68 9.10734 131.655 9.05849 131.645 9.00266C131.634 8.94335 131.627 8.88055 131.627 8.82124C131.627 8.68866 131.659 8.58049 131.718 8.48978C131.785 8.39557 131.916 8.35022 132.113 8.35022C132.31 8.35022 132.447 8.39558 132.507 8.4828C132.567 8.56654 132.598 8.67819 132.598 8.82124L132.602 8.82473ZM132.553 13.7861C132.553 13.8315 132.542 13.8698 132.521 13.9012C132.503 13.9292 132.465 13.9431 132.405 13.9431H131.821C131.711 13.9431 131.655 13.8908 131.655 13.7861V10.0563C131.655 9.95168 131.711 9.89934 131.821 9.89934H132.405C132.465 9.89934 132.503 9.91679 132.521 9.94819C132.542 9.9761 132.553 10.011 132.553 10.0563V13.7861Z" fill="#222433"/>
<path d="M136.081 13.6294C136.098 13.7236 136.063 13.7934 135.975 13.8353C135.905 13.8667 135.82 13.8946 135.722 13.919C135.63 13.94 135.532 13.9574 135.426 13.9679C135.328 13.9853 135.233 13.9958 135.138 13.9993C135.05 14.0062 134.972 14.0062 134.909 14.0062C134.666 14.0062 134.479 13.9748 134.342 13.9086C134.212 13.8353 134.113 13.7411 134.047 13.619C133.98 13.4969 133.941 13.3573 133.923 13.1968C133.906 13.0363 133.899 12.8688 133.899 12.6944V10.6219H133.487C133.427 10.6219 133.385 10.6114 133.364 10.5905C133.343 10.5626 133.332 10.5207 133.332 10.4684V10.0637C133.332 10.0078 133.343 9.96597 133.364 9.94154C133.385 9.91363 133.427 9.89968 133.487 9.89968H133.906V9.04836C133.906 8.98904 133.92 8.94717 133.948 8.92624C133.98 8.89833 134.018 8.88088 134.064 8.86693L134.613 8.7169C134.722 8.68899 134.779 8.72388 134.779 8.81459V9.89619H135.659C135.725 9.89619 135.764 9.91014 135.782 9.93806C135.803 9.96597 135.813 10.0043 135.813 10.0532V10.4649C135.813 10.5207 135.803 10.5626 135.782 10.587C135.764 10.6079 135.725 10.6184 135.659 10.6184H134.779V12.6734C134.779 12.7851 134.786 12.8688 134.803 12.9281C134.821 12.9875 134.845 13.0363 134.884 13.0677C134.926 13.0956 134.986 13.1131 135.057 13.1165C135.127 13.1235 135.219 13.1235 135.328 13.1235C135.387 13.1235 135.472 13.1235 135.581 13.1165C135.697 13.1096 135.796 13.1026 135.877 13.0921C135.919 13.0851 135.954 13.0921 135.975 13.1096C135.996 13.127 136.014 13.1584 136.025 13.2073L136.081 13.619V13.6294Z" fill="#222433"/>
<path d="M138.146 12.7884C138.206 12.6174 138.262 12.4569 138.311 12.3104C138.368 12.1603 138.413 12.0313 138.452 11.9231C138.494 11.7905 138.537 11.6684 138.575 11.5602L139.086 10.0425C139.103 9.99367 139.124 9.95878 139.153 9.93435C139.181 9.91342 139.223 9.90295 139.283 9.90295H139.892C139.959 9.90295 139.994 9.9204 139.997 9.9518C140.004 9.9832 139.997 10.0251 139.98 10.0669L138.065 15.3179C138.044 15.3737 138.019 15.4121 137.991 15.433C137.963 15.454 137.914 15.4644 137.843 15.4644H137.284C137.217 15.4644 137.178 15.447 137.168 15.4156C137.16 15.3842 137.168 15.3423 137.185 15.3005L137.702 13.9049L136.263 10.0669C136.245 10.0216 136.242 9.9832 136.245 9.9518C136.256 9.9204 136.291 9.90295 136.351 9.90295H136.984C137.041 9.90295 137.076 9.90993 137.101 9.9204C137.122 9.93087 137.143 9.96576 137.168 10.0286L137.702 11.5637L138.114 12.7919H138.146V12.7884Z" fill="#222433"/>
<path d="M75.5895 8.63981C75.5895 8.53165 75.6458 8.47583 75.7584 8.47583H78.8486C78.9542 8.47583 79.007 8.52817 79.007 8.62935V9.13525C79.007 9.23295 78.9507 9.28179 78.8381 9.28179H76.5433V10.6844H78.5776C78.6902 10.6844 78.7466 10.7332 78.7466 10.8309V11.3368C78.7466 11.4345 78.6902 11.4834 78.5776 11.4834H76.5433V13.0918H78.8944C78.9965 13.0918 79.0457 13.1441 79.0457 13.2453V13.7442C79.0457 13.8419 78.9929 13.8908 78.8873 13.8908H75.7549C75.6423 13.8908 75.5859 13.8419 75.5859 13.7442V8.63633L75.5895 8.63981Z" fill="#222433"/>
<path d="M82.068 13.1441C82.4375 13.1441 82.7191 13.0464 82.9092 12.8511C83.1063 12.6487 83.2048 12.3382 83.2048 11.9125V8.63981C83.2048 8.53165 83.2611 8.47583 83.3737 8.47583H84.0038C84.0671 8.47583 84.1058 8.49327 84.1199 8.52468C84.141 8.55259 84.1551 8.59097 84.1551 8.63981L84.1481 11.9125C84.1481 12.0765 84.1375 12.2405 84.1129 12.401C84.0953 12.558 84.0566 12.715 83.9967 12.8755C83.9123 13.0709 83.8031 13.2383 83.6694 13.3744C83.5392 13.5105 83.3913 13.6221 83.2224 13.7094C83.0535 13.7966 82.874 13.8594 82.6769 13.8978C82.4798 13.9396 82.2791 13.964 82.0715 13.964C81.1881 13.964 80.5827 13.6605 80.2554 13.0569C80.1674 12.8929 80.1005 12.7185 80.0618 12.5266C80.0231 12.3312 80.002 12.1253 80.002 11.916V8.6433C80.002 8.53514 80.0547 8.47932 80.1603 8.47932H80.7903C80.8959 8.47932 80.9487 8.53514 80.9487 8.6433V11.916C80.9487 12.3172 81.0402 12.6243 81.2268 12.8371C81.4168 13.043 81.6984 13.1476 82.068 13.1476V13.1441Z" fill="#222433"/>
<path d="M85.0174 26.4201L84.5246 28.0739L82.8141 33.7784C82.7683 33.9494 82.6979 34.075 82.6029 34.1518C82.5255 34.2285 82.3777 34.2669 82.1559 34.2669H80.4665C80.2483 34.2669 80.0899 34.2285 79.9984 34.1518C79.9034 34.075 79.8435 33.9564 79.8118 33.8029L75.6129 19.2711C75.5355 18.9606 75.6376 18.8071 75.9191 18.8071H77.7705C77.957 18.8071 78.0907 18.8455 78.1682 18.9222C78.2632 18.985 78.3336 19.1002 78.3794 19.2711C78.77 20.6842 79.129 21.9716 79.4599 23.1369C79.6007 23.6324 79.7344 24.1313 79.8576 24.6268C79.9984 25.1082 80.1251 25.5513 80.2342 25.9526C80.3609 26.3573 80.4595 26.7062 80.5404 26.9993C80.6178 27.2958 80.6742 27.4877 80.7058 27.582L81.4555 30.4918H81.5259L82.2052 28.0948C82.2193 28.032 82.2685 27.8611 82.346 27.582C82.4234 27.2854 82.5184 26.9469 82.6275 26.5562C82.7542 26.1515 82.8774 25.7258 83.0041 25.2757C83.1449 24.8256 83.2716 24.4 83.3807 23.9952C83.5075 23.5905 83.606 23.2486 83.687 22.9695C83.7644 22.6729 83.8207 22.488 83.8524 22.4112L82.8915 19.2676C82.8598 19.142 82.8598 19.0339 82.8915 18.9431C82.9373 18.8489 83.0253 18.8036 83.1485 18.8036H84.9083C85.2673 18.8036 85.4855 18.9571 85.5664 19.2676C85.9888 20.7121 86.3654 22.0309 86.6927 23.2277C86.8335 23.7405 86.9743 24.243 87.1151 24.7419C87.2558 25.2373 87.3826 25.6979 87.4917 26.1166C87.6184 26.5352 87.7169 26.9016 87.7979 27.2121C87.8753 27.5087 87.9316 27.7006 87.9633 27.7948L88.6672 30.4953H88.7622L89.4204 27.725C89.4521 27.6308 89.5049 27.4389 89.5858 27.1423C89.6633 26.8318 89.7583 26.4655 89.8674 26.0468C89.9765 25.6281 90.0927 25.171 90.2194 24.6721C90.3602 24.1767 90.5009 23.6777 90.6417 23.1823C90.955 22.003 91.3069 20.6981 91.6976 19.2711C91.775 18.9606 91.9933 18.8071 92.3558 18.8071H94.1367C94.4183 18.8071 94.5027 18.978 94.3936 19.32L90.3355 33.7784C90.2898 33.9494 90.2088 34.075 90.0997 34.1518C90.0047 34.2285 89.8498 34.2669 89.6316 34.2669H88.0126C87.7627 34.2669 87.5902 34.2285 87.4952 34.1518C87.4177 34.0576 87.3544 33.9354 87.3086 33.7784L85.5981 28.0285L85.13 26.3992L85.035 26.4236L85.0174 26.4201Z" fill="#222433"/>
<path d="M102.595 29.0755H99.7337C99.1389 29.0755 98.6707 29.2151 98.3258 29.4942C97.9809 29.7594 97.8084 30.2688 97.8084 31.0294C97.8084 31.5422 97.9105 31.8981 98.1146 32.1005C98.3329 32.2854 98.7165 32.3796 99.262 32.3796C99.5119 32.3796 99.7865 32.3482 100.082 32.2854C100.378 32.2226 100.677 32.1389 100.973 32.0307C101.268 31.9225 101.56 31.8039 101.842 31.6818C102.123 31.5422 102.373 31.4097 102.592 31.2875V29.0755H102.595ZM102.736 32.9413C102.141 33.3914 101.469 33.7578 100.719 34.0369C99.9836 34.316 99.2198 34.4556 98.4208 34.4556C97.7944 34.4556 97.2735 34.3788 96.8511 34.2218C96.4463 34.0508 96.1155 33.8275 95.8656 33.5449C95.6298 33.2484 95.4609 32.8995 95.3482 32.4982C95.2532 32.0935 95.2074 31.6434 95.2074 31.148C95.1934 29.7803 95.5524 28.7964 96.288 28.1893C97.0236 27.5683 98.1322 27.2577 99.6175 27.2577H102.62V26.6541C102.62 26.3122 102.581 26.0261 102.504 25.7923C102.44 25.5446 102.317 25.3423 102.127 25.1887C101.94 25.0317 101.691 24.9236 101.377 24.8643C101.064 24.805 100.666 24.7701 100.181 24.7701C99.9941 24.7701 99.7583 24.777 99.4767 24.7945C99.2128 24.8084 98.9312 24.8259 98.632 24.8398C98.3505 24.8538 98.0618 24.8782 97.7627 24.9096C97.4811 24.941 97.2242 24.9654 96.9884 24.9794C96.7525 25.0108 96.5906 25.0178 96.4956 25.0038C96.4182 24.9724 96.3619 24.8712 96.3302 24.7003L96.119 23.8385C96.0873 23.6815 96.1049 23.5594 96.1648 23.4652C96.2281 23.357 96.39 23.2489 96.6575 23.1407C96.9074 23.0465 97.2031 22.9697 97.548 22.9069C97.8929 22.8441 98.2449 22.7988 98.6039 22.7674C98.9629 22.722 99.3148 22.6906 99.6598 22.6732C100.019 22.6418 100.339 22.6278 100.621 22.6278C101.638 22.6278 102.44 22.729 103.035 22.9314C103.644 23.1337 104.105 23.4198 104.418 23.7931C104.732 24.149 104.936 24.5921 105.027 25.119C105.122 25.6458 105.168 26.2354 105.168 26.8879V31.3817C105.168 31.6155 105.175 31.8004 105.193 31.94C105.224 32.0656 105.263 32.1668 105.309 32.2435C105.372 32.3063 105.457 32.3517 105.566 32.3831C105.675 32.4145 105.823 32.4389 106.013 32.4529C106.185 32.4668 106.301 32.4982 106.365 32.5471C106.428 32.5924 106.46 32.6797 106.46 32.8018V33.7787C106.46 34.0439 106.273 34.2044 105.897 34.2672C105.71 34.2986 105.52 34.323 105.333 34.3369C105.147 34.3683 104.967 34.3823 104.795 34.3823C104.249 34.3823 103.802 34.2811 103.457 34.0788C103.13 33.8764 102.901 33.5031 102.778 32.9623L102.732 32.9378L102.736 32.9413Z" fill="#222433"/>
<path d="M110.993 31.3821C110.993 31.738 111.07 31.9647 111.229 32.059C111.401 32.1357 111.69 32.1741 112.098 32.1741C112.27 32.1881 112.379 32.2125 112.425 32.2439C112.489 32.2753 112.534 32.352 112.566 32.4776L112.661 33.6639C112.675 33.8488 112.577 33.9988 112.355 34.107C112.137 34.2152 111.876 34.2849 111.581 34.3163C111.285 34.3617 111.031 34.3861 110.831 34.3861C109.94 34.3861 109.314 34.1907 108.955 33.8035C108.61 33.3987 108.438 32.8021 108.438 32.0101V18.2948C108.438 17.9982 108.585 17.8517 108.884 17.8517H110.549C110.845 17.8517 110.996 17.9982 110.996 18.2948V31.3821H110.993Z" fill="#222433"/>
<path d="M117.198 31.3821C117.198 31.738 117.275 31.9647 117.434 32.059C117.606 32.1357 117.895 32.1741 118.303 32.1741C118.475 32.1881 118.585 32.2125 118.63 32.2439C118.694 32.2753 118.739 32.352 118.771 32.4776L118.866 33.6639C118.88 33.8488 118.782 33.9988 118.56 34.107C118.342 34.2152 118.081 34.2849 117.786 34.3163C117.49 34.3617 117.237 34.3861 117.036 34.3861C116.145 34.3861 115.519 34.1907 115.16 33.8035C114.815 33.3987 114.643 32.8021 114.643 32.0101V18.2948C114.643 17.9982 114.79 17.8517 115.09 17.8517H116.754C117.05 17.8517 117.201 17.9982 117.201 18.2948V31.3821H117.198Z" fill="#222433"/>
<path d="M122.983 29.2595C122.998 29.8491 123.061 30.3376 123.17 30.7249C123.297 31.1122 123.476 31.4227 123.709 31.6564C123.944 31.8728 124.233 32.0298 124.578 32.1205C124.923 32.2147 125.335 32.26 125.82 32.26C126.243 32.26 126.742 32.2286 127.32 32.1658C127.897 32.103 128.414 32.0507 128.868 32.0019C129.087 31.9704 129.234 31.9774 129.315 32.0263C129.41 32.0577 129.47 32.1798 129.502 32.3996L129.643 33.1672C129.674 33.3381 129.667 33.4777 129.618 33.5859C129.586 33.694 129.463 33.7952 129.241 33.8894C129.006 33.9836 128.735 34.0674 128.421 34.1441C128.108 34.2069 127.781 34.2592 127.436 34.3081C127.091 34.3535 126.749 34.3918 126.405 34.4232C126.06 34.4546 125.746 34.4686 125.465 34.4686C124.339 34.4686 123.441 34.3046 122.769 33.9801C122.097 33.6556 121.579 33.2195 121.22 32.6752C120.861 32.1309 120.618 31.5099 120.492 30.8121C120.382 30.0968 120.326 29.3607 120.326 28.6001C120.326 28.0418 120.372 27.4138 120.467 26.7125C120.562 26.0147 120.773 25.3623 121.1 24.7552C121.445 24.1481 121.945 23.6457 122.6 23.2409C123.272 22.8223 124.18 22.6129 125.321 22.6129C126.369 22.6129 127.214 22.7664 127.855 23.077C128.513 23.3875 129.02 23.7922 129.379 24.2876C129.738 24.7691 129.98 25.3274 130.107 25.9659C130.248 26.5869 130.325 27.2079 130.343 27.829C130.357 28.2477 130.287 28.5896 130.132 28.8548C129.977 29.1199 129.664 29.249 129.192 29.249H122.976L122.983 29.2595ZM125.328 24.7203C124.891 24.7203 124.529 24.7831 124.251 24.9052C123.969 25.0308 123.733 25.2157 123.547 25.4634C123.374 25.6972 123.251 25.9903 123.17 26.3497C123.093 26.6916 123.036 27.0789 123.005 27.515H127.647C127.647 27.1591 127.615 26.8172 127.552 26.4892C127.489 26.1473 127.372 25.8437 127.2 25.5821C127.045 25.3169 126.809 25.1076 126.496 24.954C126.2 24.797 125.81 24.7203 125.324 24.7203H125.328Z" fill="#222433"/>
<path d="M139.628 33.3847C139.674 33.6499 139.572 33.8418 139.322 33.9674C139.118 34.0616 138.875 34.1383 138.594 34.2011C138.326 34.2639 138.045 34.3093 137.749 34.3407C137.467 34.3861 137.193 34.4174 136.929 34.4349C136.679 34.4488 136.461 34.4593 136.271 34.4593C135.584 34.4593 135.042 34.3651 134.652 34.1802C134.275 33.9778 133.994 33.7057 133.807 33.3638C133.62 33.0218 133.501 32.6276 133.455 32.1775C133.409 31.7274 133.385 31.2529 133.385 30.7575V24.9134H132.213C132.04 24.9134 131.924 24.882 131.861 24.8192C131.797 24.7424 131.766 24.6238 131.766 24.4703V23.3294C131.766 23.1758 131.797 23.0572 131.861 22.9805C131.924 22.9037 132.04 22.8653 132.213 22.8653H133.409V20.4684C133.409 20.2974 133.448 20.1823 133.525 20.1195C133.62 20.0427 133.73 19.9869 133.853 19.9555L135.423 19.5368C135.736 19.46 135.891 19.5508 135.891 19.8159V22.8653H138.4C138.587 22.8653 138.706 22.9037 138.752 22.9805C138.815 23.0572 138.847 23.1654 138.847 23.3049V24.4703C138.847 24.6273 138.815 24.7424 138.752 24.8192C138.706 24.882 138.587 24.9134 138.4 24.9134H135.891V30.7121C135.891 31.0226 135.915 31.2634 135.961 31.4343C136.007 31.6053 136.088 31.7379 136.197 31.8286C136.324 31.9054 136.485 31.9542 136.69 31.9682C136.894 31.9821 137.151 31.9926 137.464 31.9926C137.636 31.9926 137.879 31.9856 138.192 31.9682C138.52 31.9542 138.801 31.9298 139.037 31.8984C139.164 31.8844 139.255 31.8984 139.319 31.9437C139.382 31.9891 139.428 32.0833 139.46 32.2229L139.625 33.3882L139.628 33.3847Z" fill="#222433"/>
</svg>
