<svg width="61" height="37" viewBox="0 0 61 37" fill="none" xmlns="http://www.w3.org/2000/svg">
<path d="M28.95 14.1711C29.0665 14.3949 29.0701 14.6606 28.9536 14.8864L19.3565 33.6547L19.1581 34.0405L19.1545 34.0496C18.7814 34.6993 18.2372 35.26 17.5419 35.6622C15.427 36.8853 12.7224 36.1591 11.5012 34.0423C11.4721 33.9932 11.4448 33.9423 11.4192 33.8931L0.648222 13.5067C0.156739 12.5766 0.83016 11.4573 1.88042 11.4573H26.1854C27.008 11.4573 27.7633 11.9123 28.1473 12.6422L28.9518 14.1692H28.95V14.1711Z" fill="#0048D2"/>
<path d="M16.3623 5.47477C17.5617 7.87726 16.5898 9.82475 14.1891 9.82475C11.7885 9.82475 8.87279 7.87913 7.67163 5.47477C6.4722 3.0723 8.14292 1.87289 10.5418 1.87289C12.9406 1.87289 15.1629 3.0723 16.3606 5.47477H16.3623Z" fill="#0048D2"/>
<path d="M26.5787 18.0076C26.6753 18.1896 26.677 18.4117 26.5824 18.5955L22.864 34.0386L22.7002 34.3554L22.6966 34.3626C22.389 34.8977 21.9413 35.36 21.3679 35.6894C19.628 36.6941 17.4039 36.099 16.3974 34.3571C16.3737 34.3171 16.35 34.2752 16.3282 34.2334L7.72852 17.6472C7.32439 16.8828 7.87769 15.9619 8.74227 15.9619L24.2982 15.7745C24.9753 15.7745 25.596 16.1493 25.9126 16.7481L26.5751 18.0058L26.5787 18.0076Z" fill="#FFF1BA"/>
<path d="M24.78 21.1254C24.8347 21.2292 24.8365 21.3548 24.7819 21.4603L23.2548 30.284L23.162 30.4659V30.4695C22.9837 30.7753 22.7288 31.0392 22.4012 31.2285C21.4075 31.8036 20.1352 31.4614 19.562 30.4678C19.5493 30.4441 19.5364 30.4204 19.5237 30.3986L14.6406 20.9944C14.4094 20.5576 14.726 20.0316 15.2193 20.0316L23.4805 19.8514C23.8663 19.8514 24.2231 20.0661 24.4033 20.4083L24.7819 21.1254H24.78Z" fill="#FF6E70"/>
<path d="M60.3656 4.70854L46.1129 32.4643C44.9097 34.8049 42.4964 36.2718 39.8664 36.2591H15.2539C16.4005 36.2591 17.6217 35.2472 18.4007 33.6492C18.4026 33.6437 18.408 33.6382 18.408 33.6346L18.5282 33.3962L19.7293 31.0502L33.9858 3.22702C35.0069 1.2377 37.0598 -0.0108576 39.2949 7.11653e-05L43.0151 0.0182648C43.5265 0.0200841 43.8577 0.56064 43.6303 1.0193L42.5709 3.28527C41.0804 6.26472 42.1669 8.68176 44.999 8.68712C48.1368 8.68712 50.8267 7.26027 52.827 3.298C53.1819 2.59546 54.1739 0.455079 54.1739 0.455079C54.2903 0.220291 54.5324 0.0728711 54.7945 0.0728711L57.5645 0.0856068C62.0073 0.0856068 60.8024 3.82035 60.3656 4.70672V4.70854Z" fill="#0048D2"/>
<path d="M42.4694 14.3094H43.5014L42.4075 14.9864L42.3148 16.0602L41.7414 15.3978L40.6494 16.0602L41.3992 14.9864L40.8241 14.3094H41.8525L42.5732 13.261L42.4694 14.3094Z" fill="#FFF1BA"/>
<path d="M37.1332 28.1326H38.2089L37.0896 28.7859L37.0277 29.818L36.4088 29.1827L35.2969 29.818L36.0412 28.7859L35.4224 28.1326H36.4944L37.2115 27.1261L37.1332 28.1326Z" fill="#FFF1BA"/>
<path d="M40.8837 27.2172H41.9558L40.8473 27.8688L40.7927 28.9025L40.172 28.2655L39.0654 28.9025L39.8008 27.8688L39.1765 27.2172H40.2467L40.9529 26.2089L40.8837 27.2172Z" fill="#FFF1BA"/>
<path d="M45.4304 15.2303H46.4661L45.3849 15.8819L45.3194 16.9157L44.7261 16.2787L43.6504 16.9157L44.3729 15.8819L43.7796 15.2303H44.8134L45.5087 14.2238L45.4304 15.2303Z" fill="#FFF1BA"/>
<path d="M46.9209 17.7692H47.9638L46.8809 18.4208L46.8245 19.4546L46.222 18.8176L45.1445 19.4546L45.8634 18.4208L45.2592 17.7692H46.2985L46.9882 16.7628L46.9209 17.7692Z" fill="#FFF1BA"/>
<path d="M44.3363 24.7128H45.3993L44.2999 25.3661L44.2508 26.3999L43.6301 25.7629L42.5381 26.3999L43.2625 25.3661L42.6419 24.7128H43.7011L44.3982 23.7063L44.3363 24.7128Z" fill="#FFF1BA"/>
<path d="M46.5776 21.1891H47.6314L46.543 21.8408L46.4921 22.8746L45.8806 22.2357L44.7939 22.8746L45.5147 21.8408L44.8995 21.1891H45.9497L46.6414 20.1809L46.5776 21.1891Z" fill="#FFF1BA"/>
<path d="M38.762 15.2394H39.7977L38.7038 15.8927L38.6182 16.9247L38.0376 16.2877L36.9492 16.9247L37.6918 15.8927L37.1131 15.2394H38.1432L38.8585 14.231L38.762 15.2394Z" fill="#FFF1BA"/>
<path d="M35.3642 17.7783H36.4088L35.3059 18.4299L35.213 19.4637L34.6324 18.8267L33.5332 19.4637L34.2849 18.4299L33.7024 17.7783H34.7435L35.4679 16.77L35.3642 17.7783Z" fill="#FFF1BA"/>
<path d="M33.0855 21.1964H34.1392L33.0254 21.8497L32.9343 22.8818L32.3465 22.2465L31.2363 22.8818L31.9952 21.8497L31.4074 21.1964H32.4576L33.1856 20.1898L33.0855 21.1964Z" fill="#FFF1BA"/>
<path d="M32.5517 24.7219H33.6165L32.4935 25.3752L32.4098 26.409L31.8129 25.772L30.6953 26.409L31.4542 25.3752L30.8554 24.7219H31.9165L32.6464 23.7153L32.5517 24.7219Z" fill="#FFF1BA"/>
<path d="M34.0228 27.2261H35.093L33.9719 27.8778L33.8953 28.9116L33.2875 28.2745L32.1699 28.9116L32.9253 27.8778L32.3156 27.2261H33.3839L34.1083 26.2179L34.0228 27.2261Z" fill="#FFF1BA"/>
</svg>
