<svg width="139" height="151" viewBox="0 0 139 151" fill="none" xmlns="http://www.w3.org/2000/svg">
<g clip-path="url(#clip0_2676_5757)">
<path d="M104.536 133.295C123.028 133.295 138.018 118.304 138.018 99.8128C138.018 81.3211 123.028 66.3306 104.536 66.3306C86.0442 66.3306 71.0537 81.3211 71.0537 99.8128C71.0537 118.304 86.0442 133.295 104.536 133.295Z" fill="#CAE6FD"/>
<path d="M82.2145 139.099H30.8734C27.6243 139.099 24.9814 136.456 24.9814 133.207V32.9369C24.9814 29.6878 27.6243 27.0449 30.8734 27.0449H55.3386C56.0779 27.0449 56.6779 27.6449 56.6779 28.3842C56.6779 29.1235 56.0779 29.7235 55.3386 29.7235H30.8734C29.102 29.7235 27.66 31.1646 27.66 32.9369V133.207C27.66 134.978 29.1011 136.42 30.8734 136.42H82.2154C82.9547 136.42 83.5547 137.02 83.5547 137.759C83.5547 138.499 82.9547 139.099 82.2154 139.099H82.2145Z" fill="#2A5FD9"/>
<path d="M111.232 98.9199C110.493 98.9199 109.894 98.3217 109.893 97.5824L109.808 32.9324C109.805 31.1628 108.364 29.7235 106.595 29.7235H88.8198C88.0805 29.7235 87.4805 29.1235 87.4805 28.3842C87.4805 27.6449 88.0805 27.0449 88.8198 27.0449H106.595C109.839 27.0449 112.482 29.6842 112.487 32.9289L112.572 97.5789C112.572 98.3181 111.973 98.919 111.234 98.9199H111.232Z" fill="#2A5FD9"/>
<path d="M111.232 103.989C110.493 103.989 109.894 104.616 109.893 105.39L109.808 133.094C109.805 134.947 108.364 136.454 106.595 136.454H88.8207C88.0814 136.454 87.4814 137.082 87.4814 137.857C87.4814 138.631 88.0814 139.259 88.8207 139.259H106.595C109.839 139.259 112.482 136.495 112.487 133.097L112.571 105.394C112.572 104.619 111.973 103.99 111.234 103.989H111.232Z" fill="#2A5FD9"/>
<path d="M68.4229 43.1164H64.9934C62.6675 43.1164 60.5541 41.7431 59.6095 39.6173L45.7996 8.54404C44.9862 6.71457 45.1523 4.61993 46.2434 2.94047C47.3345 1.2619 49.1809 0.259216 51.1836 0.259216H54.613C56.9389 0.259216 59.0523 1.63243 59.997 3.75832L73.8077 34.8315C74.6211 36.661 74.455 38.7556 73.3639 40.4351C72.2729 42.1137 70.4264 43.1164 68.4237 43.1164H68.4229ZM51.1836 2.93779C50.0755 2.93779 49.0934 3.47082 48.4889 4.40029C47.8854 5.32975 47.797 6.44315 48.247 7.45654L62.0577 38.5298C62.5729 39.6887 63.7255 40.4378 64.9943 40.4378H68.4237C69.5318 40.4378 70.5139 39.9048 71.1184 38.9753C71.722 38.0458 71.8104 36.9324 71.3604 35.919L57.5487 4.84582C57.0336 3.68689 55.8809 2.93779 54.6121 2.93779H51.1827H51.1836Z" fill="#2A5FD9"/>
<path d="M75.4265 43.1164C75.2444 43.1164 75.0604 43.0789 74.8837 43.0003C74.2078 42.7003 73.9033 41.9083 74.2033 41.2324L89.2149 7.45565C89.6649 6.44314 89.5765 5.32886 88.9729 4.3994C88.3694 3.46993 87.3872 2.9369 86.2783 2.9369H82.8488C81.5801 2.9369 80.4274 3.686 79.9122 4.84493L72.1854 22.2306C71.8854 22.9065 71.0935 23.211 70.4176 22.9101C69.7417 22.6101 69.4372 21.8181 69.7381 21.1423L77.4649 3.75654C78.4095 1.63065 80.5229 0.257431 82.8488 0.257431H86.2783C88.281 0.257431 90.1274 1.26011 91.2185 2.93868C92.3095 4.61725 92.4756 6.71279 91.6622 8.54225L76.6506 42.319C76.4292 42.8181 75.939 43.1146 75.4265 43.1146V43.1164Z" fill="#2A5FD9"/>
<path d="M82.124 43.1164H55.3383C54.599 43.1164 53.999 42.5164 53.999 41.7771C53.999 41.0378 54.599 40.4378 55.3383 40.4378H82.124C82.8633 40.4378 83.4633 41.0378 83.4633 41.7771C83.4633 42.5164 82.8633 43.1164 82.124 43.1164Z" fill="#2A5FD9"/>
<path d="M82.1252 87.7592C81.6921 87.7592 81.268 87.5494 81.01 87.1628C81.002 87.1503 79.943 85.6012 77.8903 84.0824C75.1832 82.0789 72.1019 81.0628 68.7314 81.0628C65.3609 81.0628 62.2787 82.0789 59.5725 84.0824C57.5198 85.6012 56.4618 87.1512 56.4511 87.1664C56.0377 87.778 55.2064 87.9423 54.5939 87.5306C53.9814 87.119 53.8153 86.2914 54.2243 85.6771C54.2752 85.6012 55.4948 83.7914 57.8832 82.0003C61.0377 79.6342 64.7886 78.3842 68.7314 78.3842C72.6743 78.3842 76.4252 79.6342 79.5796 82.0003C81.968 83.7914 83.1877 85.6012 83.2386 85.6771C83.6493 86.2923 83.4823 87.1244 82.8671 87.5342C82.6386 87.6869 82.3805 87.7592 82.1252 87.7592Z" fill="#2C7E0A"/>
<path d="M68.7329 74.3664C67.1427 74.3664 65.5391 73.9021 64.0418 73.0003C63.2338 72.5137 62.5489 71.8289 62.0623 71.0208C60.9704 69.2065 60.5195 67.2378 60.7588 65.3262C60.9784 63.5682 61.7927 61.9065 63.0498 60.6494C64.3079 59.3914 65.9686 58.578 67.7266 58.3583C69.6382 58.119 71.6079 58.5699 73.4213 59.6619C74.2302 60.1485 74.9141 60.8333 75.4007 61.6414C76.4927 63.4548 76.9436 65.4244 76.7043 67.336C76.4847 69.094 75.6704 70.7557 74.4132 72.0128C73.1561 73.2699 71.4945 74.0842 69.7364 74.3039C69.4034 74.3458 69.0686 74.3664 68.7329 74.3664ZM68.7248 60.9735C68.5007 60.9735 68.2784 60.9869 68.0579 61.0146C66.8873 61.161 65.7811 61.703 64.9427 62.5423C64.1043 63.3815 63.5614 64.4869 63.415 65.6574C63.2516 66.9673 63.5766 68.344 64.3561 69.6387C64.6186 70.0744 64.9873 70.4432 65.4222 70.7048C66.7168 71.4842 68.0927 71.8092 69.4034 71.6458C70.5739 71.4994 71.6802 70.9574 72.5186 70.1181C73.357 69.2789 73.8998 68.1735 74.0463 67.003C74.2097 65.6932 73.8847 64.3164 73.1052 63.0217C72.8427 62.586 72.4739 62.2173 72.0391 61.9557C70.9632 61.3074 69.8293 60.9735 68.7248 60.9735Z" fill="#2C7E0A"/>
<path d="M84.2679 94.4556H53.1947C49.9456 94.4556 47.3027 91.8128 47.3027 88.5637V57.4905C47.3027 54.2414 49.9456 51.5985 53.1947 51.5985H84.2679C87.517 51.5985 90.1599 54.2414 90.1599 57.4905V88.5637C90.1599 91.8128 87.517 94.4556 84.2679 94.4556ZM53.1947 54.2771C51.4233 54.2771 49.9813 55.7181 49.9813 57.4905V88.5637C49.9813 90.3351 51.4224 91.7771 53.1947 91.7771H84.2679C86.0393 91.7771 87.4813 90.336 87.4813 88.5637V57.4905C87.4813 55.719 86.0402 54.2771 84.2679 54.2771H53.1947Z" fill="#2C7E0A"/>
<path d="M88.8206 105.616H48.642C47.9027 105.616 47.3027 105.016 47.3027 104.277C47.3027 103.538 47.9027 102.938 48.642 102.938H88.8206C89.5599 102.938 90.1599 103.538 90.1599 104.277C90.1599 105.016 89.5599 105.616 88.8206 105.616Z" fill="#2C7E0A"/>
<path d="M73.1956 114.545H48.642C47.9027 114.545 47.3027 113.945 47.3027 113.206C47.3027 112.466 47.9027 111.866 48.642 111.866H73.1956C73.9349 111.866 74.5349 112.466 74.5349 113.206C74.5349 113.945 73.9349 114.545 73.1956 114.545Z" fill="#2C7E0A"/>
<path d="M88.8206 114.545H79.892C79.1527 114.545 78.5527 113.945 78.5527 113.206C78.5527 112.466 79.1527 111.866 79.892 111.866H88.8206C89.5599 111.866 90.1599 112.466 90.1599 113.206C90.1599 113.945 89.5599 114.545 88.8206 114.545Z" fill="#2C7E0A"/>
</g>
<defs>
<clipPath id="clip0_2676_5757">
<rect width="113.037" height="150" fill="white" transform="translate(24.9814 0.259216)"/>
</clipPath>
</defs>
</svg>
