<svg id="ic-qr-scanner" xmlns="http://www.w3.org/2000/svg" width="24" height="24" viewBox="0 0 24 24">
  <path id="qr_code_scanner_FILL0_wght400_GRAD0_opsz24" d="M80-875v-5h5v2H82v3Zm0,15v-5h2v3h3v2Zm15,0v-2h3v-3h2v5Zm3-15v-3H95v-2h5v5Zm-2.5,10.5H97v1.5H95.5Zm0-3H97v1.5H95.5ZM94-866h1.5v1.5H94Zm-1.5,1.5H94v1.5H92.5ZM91-866h1.5v1.5H91Zm3-3h1.5v1.5H94Zm-1.5,1.5H94v1.5H92.5ZM91-869h1.5v1.5H91Zm6-8v6H91v-6Zm-8,8v6H83v-6Zm0-8v6H83v-6Zm-1.5,12.5v-3h-3v3Zm0-8v-3h-3v3Zm8,0v-3h-3v3Z" transform="translate(-78 882)" fill="#2a5ed9"/>
  <rect id="Rectangle_9987" data-name="Rectangle 9987" width="24" height="24" fill="none"/>
</svg>
