<svg width="65" height="65" viewBox="0 0 65 65" fill="none" xmlns="http://www.w3.org/2000/svg">
<g clip-path="url(#clip0_2676_6686)">
<path d="M47.02 64.058C56.6734 64.058 64.499 56.2324 64.499 46.579C64.499 36.9256 56.6734 29.1 47.02 29.1C37.3666 29.1 29.541 36.9256 29.541 46.579C29.541 56.2324 37.3666 64.058 47.02 64.058Z" fill="#CAE6FD"/>
<path d="M45.6457 50.0748H17.4405C16.9949 50.0748 16.6338 49.7136 16.6338 49.2681C16.6338 48.8225 16.9949 48.4613 17.4405 48.4613H45.6454C46.5043 48.4613 47.3126 48.1276 47.9217 47.5218C48.5305 46.9159 48.8683 46.1092 48.8723 45.25L48.9027 39.0057C48.9049 38.5615 49.2657 38.203 49.7094 38.203H49.7135C50.159 38.2052 50.5183 38.5682 50.5161 39.0138L50.4858 45.2581C50.4796 46.5464 49.9729 47.7568 49.0597 48.6654C48.1465 49.5741 46.934 50.0748 45.6454 50.0748H45.6457Z" fill="#2A5FD9"/>
<path d="M49.659 35.2849C49.2134 35.2849 48.8523 34.9237 48.8523 34.4781V15.1168H45.6749C45.2293 15.1168 44.8682 14.7556 44.8682 14.3101C44.8682 13.8645 45.2293 13.5033 45.6749 13.5033H49.659C50.1046 13.5033 50.4657 13.8645 50.4657 14.3101V34.4781C50.4657 34.9237 50.1046 35.2849 49.659 35.2849Z" fill="#2A5FD9"/>
<path d="M13.4066 50.0748H5.33936C2.67045 50.0748 0.499024 47.9033 0.499024 45.2344V11.621C0.498755 10.3281 1.00215 9.11262 1.91644 8.19834C2.83072 7.28405 4.04618 6.78065 5.33909 6.78065H8.02817C8.47375 6.78065 8.83489 7.1418 8.83489 7.58738C8.83489 8.03296 8.47375 8.3941 8.02817 8.3941H5.33909C4.47724 8.3941 3.66675 8.7297 3.05741 9.33931C2.4478 9.94892 2.1122 10.7591 2.1122 11.621V45.2344C2.11247 47.0138 3.56 48.4613 5.33936 48.4613H13.4066C13.8522 48.4613 14.2133 48.8225 14.2133 49.2681C14.2133 49.7136 13.8522 50.0748 13.4066 50.0748Z" fill="#2A5FD9"/>
<path d="M8.0284 44.6966C7.58282 44.6966 7.22168 44.3355 7.22168 43.8899V31.7891C7.22168 29.7779 8.00474 27.8869 9.42699 26.465C10.849 25.043 12.7399 24.2596 14.7511 24.2596H45.6752C46.1208 24.2596 46.4819 24.6208 46.4819 25.0664C46.4819 25.5119 46.1208 25.8731 45.6752 25.8731H14.7511C13.171 25.8731 11.6853 26.4883 10.568 27.6059C9.45065 28.7232 8.83513 30.209 8.83513 31.7891V43.8899C8.83513 44.3355 8.47398 44.6966 8.0284 44.6966Z" fill="#2A5FD9"/>
<path d="M19.9266 5.17232C19.5703 5.17232 19.2812 4.88324 19.2812 4.52694V0.839142C19.2812 0.482839 19.5703 0.193764 19.9266 0.193764H23.6144C23.9707 0.193764 24.2598 0.482839 24.2598 0.839142C24.2598 1.19544 23.9707 1.48452 23.6144 1.48452H20.572V4.52694C20.572 4.88324 20.2829 5.17232 19.9266 5.17232Z" fill="#2A5FD9"/>
<path d="M23.6144 18.6946H19.9266C19.5703 18.6946 19.2812 18.4055 19.2812 18.0492V14.3614C19.2812 14.0051 19.5703 13.716 19.9266 13.716C20.2829 13.716 20.572 14.0051 20.572 14.3614V17.4038H23.6144C23.9707 17.4038 24.2598 17.6929 24.2598 18.0492C24.2598 18.4055 23.9707 18.6946 23.6144 18.6946Z" fill="#2A5FD9"/>
<path d="M37.1369 18.6946H33.4491C33.0928 18.6946 32.8037 18.4055 32.8037 18.0492C32.8037 17.6929 33.0928 17.4038 33.4491 17.4038H36.4915V14.3614C36.4915 14.0051 36.7806 13.716 37.1369 13.716C37.4932 13.716 37.7823 14.0051 37.7823 14.3614V18.0492C37.7823 18.4055 37.4932 18.6946 37.1369 18.6946Z" fill="#2A5FD9"/>
<path d="M37.1369 5.17232C36.7806 5.17232 36.4915 4.88324 36.4915 4.52694V1.48452H33.4491C33.0928 1.48452 32.8037 1.19544 32.8037 0.839142C32.8037 0.482839 33.0928 0.193764 33.4491 0.193764H37.1369C37.4932 0.193764 37.7823 0.482839 37.7823 0.839142V4.52694C37.7823 4.88324 37.4932 5.17232 37.1369 5.17232Z" fill="#2A5FD9"/>
<path d="M25.3045 6.86267H23.1532C22.7969 6.86267 22.5078 6.5736 22.5078 6.21729V4.06603C22.5078 3.70973 22.7969 3.42065 23.1532 3.42065H25.3045C25.6608 3.42065 25.9498 3.70973 25.9498 4.06603V6.21729C25.9498 6.5736 25.6608 6.86267 25.3045 6.86267ZM23.7986 5.57191H24.6591V4.71141H23.7986V5.57191Z" fill="#2A5FD9"/>
<path d="M33.9089 6.86267H31.7577C31.4014 6.86267 31.1123 6.5736 31.1123 6.21729V4.06603C31.1123 3.70973 31.4014 3.42065 31.7577 3.42065H33.9089C34.2652 3.42065 34.5543 3.70973 34.5543 4.06603V6.21729C34.5543 6.5736 34.2652 6.86267 33.9089 6.86267ZM32.4031 5.57191H33.2636V4.71141H32.4031V5.57191Z" fill="#2A5FD9"/>
<path d="M25.3045 15.4677H23.1532C22.7969 15.4677 22.5078 15.1786 22.5078 14.8223V12.6711C22.5078 12.3148 22.7969 12.0257 23.1532 12.0257H25.3045C25.6608 12.0257 25.9498 12.3148 25.9498 12.6711V14.8223C25.9498 15.1786 25.6608 15.4677 25.3045 15.4677ZM23.7986 14.177H24.6591V13.3165H23.7986V14.177Z" fill="#2A5FD9"/>
<path d="M27.4557 11.1652C27.0994 11.1652 26.8103 10.8761 26.8103 10.5198V10.0896H25.3045C24.9481 10.0896 24.6591 9.80049 24.6591 9.44418V9.01393H23.1532C22.7969 9.01393 22.5078 8.72486 22.5078 8.36855C22.5078 8.01225 22.7969 7.72318 23.1532 7.72318H25.3045C25.6608 7.72318 25.9498 8.01225 25.9498 8.36855V8.79881H27.4557C27.812 8.79881 28.1011 9.08788 28.1011 9.44418V10.5198C28.1011 10.8761 27.812 11.1652 27.4557 11.1652Z" fill="#2A5FD9"/>
<path d="M32.8339 13.3165C32.4776 13.3165 32.1885 13.0274 32.1885 12.6711V11.5954C32.1885 11.2391 32.4776 10.9501 32.8339 10.9501H33.9095C34.2658 10.9501 34.5549 11.2391 34.5549 11.5954C34.5549 11.9517 34.2658 12.2408 33.9095 12.2408H33.4792V12.6711C33.4792 13.0274 33.1902 13.3165 32.8339 13.3165Z" fill="#2A5FD9"/>
<path d="M33.9091 10.0896C33.5527 10.0896 33.2637 9.80049 33.2637 9.44418V8.36855C33.2637 8.01225 33.5527 7.72318 33.9091 7.72318C34.2654 7.72318 34.5544 8.01225 34.5544 8.36855V9.44418C34.5544 9.80049 34.2654 10.0896 33.9091 10.0896Z" fill="#2A5FD9"/>
<path d="M29.6073 7.9383C29.251 7.9383 28.9619 7.64923 28.9619 7.29292V6.21729C28.9619 5.86099 29.251 5.57191 29.6073 5.57191C29.9636 5.57191 30.2527 5.86099 30.2527 6.21729V7.29292C30.2527 7.64923 29.9636 7.9383 29.6073 7.9383Z" fill="#2A5FD9"/>
<path d="M28.5316 15.4677H27.4559C27.0996 15.4677 26.8105 15.1786 26.8105 14.8223C26.8105 14.466 27.0996 14.177 27.4559 14.177H28.5316C28.8879 14.177 29.1769 14.466 29.1769 14.8223C29.1769 15.1786 28.8879 15.4677 28.5316 15.4677Z" fill="#2A5FD9"/>
<path d="M29.6072 13.3165H27.4559C27.0996 13.3165 26.8105 13.0274 26.8105 12.6711C26.8105 12.3148 27.0996 12.0257 27.4559 12.0257H28.9618V11.5954C28.9618 11.2391 29.2509 10.9501 29.6072 10.9501C29.9635 10.9501 30.2526 11.2391 30.2526 11.5954V12.6711C30.2526 13.0274 29.9635 13.3165 29.6072 13.3165Z" fill="#2A5FD9"/>
<path d="M31.7586 10.0896H29.6073C29.251 10.0896 28.9619 9.80049 28.9619 9.44418C28.9619 9.08788 29.251 8.79881 29.6073 8.79881H31.1132V8.36855C31.1132 8.01225 31.4023 7.72318 31.7586 7.72318C32.1149 7.72318 32.4039 8.01225 32.4039 8.36855V9.44418C32.4039 9.80049 32.1149 10.0896 31.7586 10.0896Z" fill="#2A5FD9"/>
<path d="M33.9095 15.4677H32.8339C32.4776 15.4677 32.1885 15.1786 32.1885 14.8223C32.1885 14.466 32.4776 14.177 32.8339 14.177H33.9095C34.2658 14.177 34.5549 14.466 34.5549 14.8223C34.5549 15.1786 34.2658 15.4677 33.9095 15.4677Z" fill="#2A5FD9"/>
<path d="M30.6825 15.4677C30.3262 15.4677 30.0371 15.1786 30.0371 14.8223V13.7467C30.0371 13.3904 30.3262 13.1013 30.6825 13.1013C31.0388 13.1013 31.3279 13.3904 31.3279 13.7467V14.8223C31.3279 15.1786 31.0388 15.4677 30.6825 15.4677Z" fill="#2A5FD9"/>
<path d="M27.4559 5.78704C27.0996 5.78704 26.8105 5.49797 26.8105 5.14166V4.06603C26.8105 3.70973 27.0996 3.42065 27.4559 3.42065C27.8122 3.42065 28.1013 3.70973 28.1013 4.06603V5.14166C28.1013 5.49797 27.8122 5.78704 27.4559 5.78704Z" fill="#2A5FD9"/>
<path d="M24.2288 11.1652H23.1532C22.7969 11.1652 22.5078 10.8761 22.5078 10.5198C22.5078 10.1635 22.7969 9.87444 23.1532 9.87444H24.2288C24.5851 9.87444 24.8742 10.1635 24.8742 10.5198C24.8742 10.8761 24.5851 11.1652 24.2288 11.1652Z" fill="#2A5FD9"/>
<path d="M11.7001 36.4849C11.7001 36.1399 12.095 35.8603 12.5821 35.8603L22.8719 35.8603C23.3591 35.8603 23.7539 36.1399 23.7539 36.4849C23.7539 36.8298 23.3591 37.1094 22.8719 37.1094L12.5821 37.1094C12.095 37.1094 11.7001 36.8298 11.7001 36.4849Z" fill="#2A5FD9"/>
<path d="M17.727 30.458C18.072 30.458 18.3516 30.8528 18.3516 31.34L18.3516 41.6298C18.3516 42.1169 18.072 42.5117 17.727 42.5117C17.3821 42.5117 17.1025 42.1169 17.1025 41.6298L17.1025 31.34C17.1025 30.8528 17.3821 30.458 17.727 30.458Z" fill="#2A5FD9"/>
</g>
<defs>
<clipPath id="clip0_2676_6686">
<rect width="64" height="64" fill="white" transform="translate(0.5 0.0579681)"/>
</clipPath>
</defs>
</svg>
