<svg id="ic-id" xmlns="http://www.w3.org/2000/svg" width="80" height="60" viewBox="0 0 80 60">
  <rect id="Rectangle_7571" data-name="Rectangle 7571" width="80" height="60" fill="none"/>
  <path id="id-card-solid" d="M0,38.19H63.333A6.159,6.159,0,0,0,57.217,32H6.116A6.159,6.159,0,0,0,0,38.19Zm0,3.1V69.143a6.159,6.159,0,0,0,6.116,6.19h51.1a6.159,6.159,0,0,0,6.116-6.19V41.286ZM6.116,68.108a5.123,5.123,0,0,1,5.094-5.156H22.43a5.123,5.123,0,0,1,5.094,5.156A1.03,1.03,0,0,1,26.5,69.143H7.139a1.03,1.03,0,0,1-1.023-1.035Zm10.7-20.632a6.191,6.191,0,1,1-6.116,6.19A6.154,6.154,0,0,1,16.82,47.476Zm18.891,1.548a1.543,1.543,0,0,1,1.529-1.548H55.688a1.548,1.548,0,0,1,0,3.1H37.24A1.543,1.543,0,0,1,35.711,49.024Zm0,6.19a1.543,1.543,0,0,1,1.529-1.548H55.688a1.548,1.548,0,0,1,0,3.1H37.24A1.543,1.543,0,0,1,35.711,55.214Zm0,6.19a1.543,1.543,0,0,1,1.529-1.548H55.688a1.548,1.548,0,0,1,0,3.1H37.24A1.543,1.543,0,0,1,35.711,61.4Z" transform="translate(8.333 -23.667)" fill="#2a5ed9"/>
</svg>
