<svg width="150" height="61" viewBox="0 0 150 61" fill="none" xmlns="http://www.w3.org/2000/svg">
<path d="M29.4658 13.8549C29.2984 13.8549 29.1843 13.8252 29.1234 13.7623C29.0742 13.6994 29.0474 13.6103 29.0474 13.4992V1.71003C29.0474 1.47283 29.1692 1.35055 29.4088 1.35055H33.2882C34.3458 1.35055 35.2166 1.52101 35.9052 1.85827C36.5935 2.18442 37.1336 2.63284 37.5291 3.19617C37.9362 3.76323 38.2177 4.4229 38.3697 5.17524C38.5372 5.93129 38.6169 6.72809 38.6169 7.56927C38.6169 8.41071 38.5408 9.23717 38.3888 10.0043C38.2367 10.7604 37.9627 11.4237 37.5672 12.0056C37.1716 12.5727 36.6239 13.0249 35.9242 13.3621C35.2356 13.6882 34.357 13.8514 33.2882 13.8514H29.4658V13.8549ZM36.3653 7.70655C36.3653 6.82451 36.2817 6.09805 36.1182 5.51991C35.9661 4.93063 35.7492 4.46368 35.4677 4.12271C35.1862 3.78175 34.8515 3.54454 34.4559 3.40742C34.0757 3.27029 33.6533 3.19987 33.1932 3.19987H31.2041V11.9909H33.0562C33.4898 11.9909 33.9044 11.9353 34.3 11.8203C34.6955 11.7054 35.0455 11.4943 35.35 11.1791C35.6541 10.8642 35.8976 10.4306 36.0763 9.8784C36.2664 9.31126 36.3614 8.58858 36.3614 7.7101L36.3653 7.70655Z" fill="#222432"/>
<path d="M43.2611 2.15844C43.2611 2.31041 43.2496 2.45494 43.2231 2.59207C43.1963 2.71808 43.1392 2.82925 43.0517 2.93304C42.9757 3.03309 42.8616 3.11462 42.7095 3.17763C42.5689 3.22952 42.3785 3.25175 42.1351 3.25175C41.8804 3.25175 41.6788 3.22211 41.5228 3.1591C41.3822 3.09609 41.2757 3.01456 41.1996 2.91449C41.1233 2.81443 41.0741 2.69953 41.0473 2.57352C41.0207 2.4364 41.0093 2.29556 41.0093 2.15844C41.0093 1.85825 41.0778 1.60623 41.2186 1.40241C41.3707 1.18744 41.6788 1.07998 42.1351 1.07998C42.5916 1.07998 42.9111 1.18003 43.0517 1.38016C43.1926 1.56918 43.2611 1.82491 43.2611 2.15473V2.15844ZM43.147 13.4954C43.147 13.5956 43.1202 13.6844 43.0707 13.7585C43.0327 13.8217 42.9452 13.8511 42.8046 13.8511H41.4468C41.1918 13.8511 41.0627 13.7326 41.0627 13.4918V4.96397C41.0627 4.72679 41.1882 4.60449 41.4468 4.60449H42.8046C42.9452 4.60449 43.0327 4.64154 43.0707 4.71936C43.1202 4.78237 43.147 4.86392 43.147 4.96397V13.4918V13.4954Z" fill="#222432"/>
<path d="M49.5479 4.42283C50.1604 4.42283 50.7955 4.46732 51.4572 4.55626C52.1192 4.6452 52.6859 4.7638 53.1575 4.91574C53.3856 4.98986 53.5265 5.11217 53.5796 5.27523C53.6442 5.4272 53.6747 5.59026 53.6747 5.76446V13.7438C53.6747 14.2848 53.6367 14.7887 53.5606 15.2521C53.4846 15.719 53.3059 16.1194 53.0244 16.4602C52.7429 16.8012 52.3359 17.0644 51.7997 17.2534C51.2786 17.4424 50.5559 17.5351 49.6392 17.5351C49.1411 17.5351 48.601 17.5054 48.0153 17.4424C47.4408 17.3795 46.9578 17.2646 46.5622 17.1014C46.357 17.0273 46.239 16.9385 46.201 16.8383C46.163 16.7495 46.1551 16.6568 46.182 16.5566L46.3341 15.8598C46.3606 15.7081 46.4101 15.6228 46.4861 15.5967C46.5736 15.5708 46.7106 15.5708 46.8893 15.5967C47.3228 15.6598 47.7754 15.7043 48.2471 15.7301C48.7301 15.7672 49.1601 15.7857 49.5288 15.7857C49.9359 15.7857 50.2669 15.756 50.5216 15.6931C50.788 15.6302 51.001 15.5299 51.1531 15.3929C51.3052 15.2668 51.408 15.0965 51.4572 14.8852C51.5221 14.6702 51.5525 14.4183 51.5525 14.1292V13.5065C51.0695 13.6844 50.6281 13.8029 50.2325 13.8661C49.8484 13.929 49.5062 13.9587 49.2018 13.9587C48.426 13.9587 47.7869 13.8438 47.2924 13.6177C46.7942 13.3916 46.4025 13.0767 46.1059 12.6727C45.8244 12.2576 45.6265 11.7683 45.5124 11.2012C45.4098 10.6232 45.3604 9.98194 45.3604 9.27778C45.3604 8.53658 45.4249 7.86947 45.5505 7.27646C45.6799 6.67253 45.9005 6.1647 46.22 5.74962C46.5395 5.32342 46.9653 4.99357 47.5018 4.7675C48.0494 4.54144 48.7301 4.42654 49.5479 4.42654V4.42283ZM47.5398 9.0999C47.5398 9.6782 47.5702 10.1636 47.6348 10.5526C47.7109 10.9419 47.8213 11.257 47.958 11.4978C48.1103 11.7239 48.3005 11.8868 48.5325 11.9871C48.776 12.087 49.0611 12.1391 49.3921 12.1391C49.6734 12.1391 49.9968 12.1129 50.3658 12.0647C50.7499 12.013 51.1416 11.9315 51.5525 11.8204V6.44263C51.2596 6.39087 50.94 6.35382 50.5979 6.32779C50.2669 6.29071 49.9473 6.27219 49.6432 6.27219C49.3387 6.27219 49.0762 6.30183 48.8216 6.36473C48.5666 6.42792 48.3424 6.56114 48.152 6.76134C47.9619 6.95039 47.8098 7.23205 47.6919 7.61014C47.5893 7.98822 47.5398 8.48481 47.5398 9.0999Z" fill="#222432"/>
<path d="M58.0943 2.15844C58.0943 2.31041 58.0831 2.45494 58.0563 2.59207C58.0297 2.71808 57.9727 2.82925 57.8852 2.93304C57.8092 3.03309 57.6951 3.11462 57.543 3.17763C57.4022 3.22952 57.212 3.25175 56.9685 3.25175C56.7139 3.25175 56.5084 3.22211 56.3563 3.1591C56.2154 3.09609 56.1089 3.01456 56.0329 2.91449C55.9568 2.81443 55.9074 2.69953 55.8808 2.57352C55.8542 2.4364 55.8428 2.29556 55.8428 2.15844C55.8428 1.85825 55.9113 1.60623 56.0519 1.40241C56.2042 1.18744 56.5123 1.07998 56.9685 1.07998C57.4251 1.07998 57.7446 1.18003 57.8852 1.38016C58.0261 1.56918 58.0943 1.82491 58.0943 2.15473V2.15844ZM57.9803 13.4954C57.9803 13.5956 57.9537 13.6844 57.9042 13.7585C57.8662 13.8217 57.7787 13.8511 57.6381 13.8511H56.2803C56.0253 13.8511 55.8959 13.7326 55.8959 13.4918V4.96397C55.8959 4.72679 56.0214 4.60449 56.2803 4.60449H57.6381C57.7787 4.60449 57.8662 4.64154 57.9042 4.71936C57.9537 4.78237 57.9803 4.86392 57.9803 4.96397V13.4918V13.4954Z" fill="#222432"/>
<path d="M66.1803 13.136C66.2186 13.351 66.1348 13.5065 65.9332 13.6065C65.7658 13.6809 65.572 13.7438 65.34 13.7955C65.123 13.8476 64.8949 13.8846 64.6514 13.9105C64.4233 13.9475 64.1988 13.9734 63.9822 13.9846C63.7767 13.9958 63.5978 14.0031 63.4457 14.0031C62.8866 14.0031 62.4454 13.929 62.1259 13.777C61.8217 13.6141 61.5897 13.3954 61.4374 13.1175C61.2853 12.8394 61.1902 12.5207 61.1522 12.1538C61.1142 11.7907 61.0952 11.4052 61.0952 11.0048V6.26851H60.1405C59.9999 6.26851 59.9048 6.24258 59.8553 6.19439C59.8059 6.13138 59.7793 6.03874 59.7793 5.91273V4.98989C59.7793 4.8639 59.8059 4.77123 59.8553 4.70823C59.9048 4.64522 59.9999 4.61558 60.1405 4.61558H61.1142V2.67358C61.1142 2.53646 61.1446 2.44011 61.2092 2.39192C61.2853 2.32892 61.3767 2.28443 61.4756 2.2585L62.7574 1.91753C63.0121 1.85453 63.1415 1.92865 63.1415 2.1436V4.61558H65.1876C65.34 4.61558 65.435 4.64522 65.473 4.70823C65.5225 4.77123 65.5491 4.8602 65.5491 4.97137V5.91643C65.5491 6.04244 65.5225 6.13509 65.473 6.19809C65.435 6.24999 65.34 6.27221 65.1876 6.27221H63.1415V10.9678C63.1415 11.22 63.1605 11.4126 63.1986 11.5534C63.2366 11.6904 63.3012 11.798 63.3887 11.8759C63.4913 11.9389 63.6246 11.9759 63.7918 11.9906C63.9592 12.0018 64.1683 12.0094 64.4233 12.0094C64.5639 12.0094 64.7618 12.0018 65.0165 11.9906C65.2829 11.9797 65.515 11.9612 65.7051 11.9351C65.8077 11.9241 65.8837 11.9351 65.9332 11.9721C65.9827 12.0094 66.0207 12.087 66.0473 12.1982L66.1803 13.1434V13.136Z" fill="#222432"/>
<path d="M73.0456 9.64851H70.7141C70.231 9.64851 69.8469 9.76346 69.5654 9.98955C69.2841 10.2045 69.1432 10.6194 69.1432 11.2347C69.1432 11.6498 69.2271 11.9389 69.3906 12.102C69.5693 12.2538 69.8812 12.3281 70.3263 12.3281C70.5315 12.3281 70.7521 12.302 70.9956 12.2538C71.2391 12.202 71.4787 12.1353 71.7221 12.0464C71.9654 11.9574 72.2013 11.8648 72.4294 11.7648C72.6578 11.6498 72.863 11.5461 73.0419 11.4423V9.64851H73.0456ZM73.1599 12.78C72.6768 13.1434 72.1289 13.4398 71.5167 13.6659C70.9195 13.892 70.2919 14.0069 69.6453 14.0069C69.1357 14.0069 68.7096 13.9437 68.3635 13.8179C68.0328 13.6806 67.7625 13.4954 67.5609 13.2693C67.3708 13.0323 67.2302 12.7468 67.1388 12.4207C67.0628 12.0944 67.0247 11.7275 67.0247 11.3273C67.0133 10.2192 67.3063 9.42242 67.9034 8.93319C68.5005 8.42924 69.4057 8.17727 70.6154 8.17727H73.0609V7.68804C73.0609 7.40993 73.0305 7.18029 72.9659 6.99124C72.9164 6.79103 72.8136 6.62787 72.6615 6.50201C72.5094 6.3759 72.3039 6.28703 72.0492 6.23885C71.7943 6.18695 71.4711 6.16473 71.0755 6.16473C70.9234 6.16473 70.7331 6.17214 70.501 6.18325C70.2844 6.19439 70.0563 6.20921 69.8128 6.22032C69.5846 6.23144 69.3487 6.24996 69.1052 6.27592C68.8771 6.30185 68.6641 6.32038 68.474 6.33152C68.2836 6.35737 68.1505 6.36118 68.0708 6.35001C68.006 6.32411 67.9643 6.24255 67.9375 6.10542L67.7664 5.40868C67.7399 5.28267 67.7549 5.18261 67.8044 5.10849C67.8539 5.01955 67.9909 4.93059 68.2076 4.84535C68.413 4.77123 68.6526 4.70823 68.9341 4.65634C69.2156 4.60447 69.5008 4.5674 69.7938 4.54146C70.0865 4.50439 70.3719 4.47846 70.6534 4.46734C70.9461 4.44138 71.2086 4.43027 71.4367 4.43027C72.2659 4.43027 72.9201 4.5118 73.4031 4.67488C73.9016 4.83794 74.2742 5.07142 74.5328 5.37163C74.7878 5.6607 74.9513 6.02019 75.031 6.44644C75.107 6.87249 75.1451 7.3508 75.1451 7.88063V11.5202C75.1451 11.709 75.1529 11.861 75.1643 11.9721C75.1909 12.0723 75.2214 12.1538 75.2594 12.2167C75.3089 12.2687 75.381 12.3058 75.4685 12.3317C75.556 12.3575 75.6776 12.3761 75.83 12.3872C75.9706 12.3984 76.0656 12.4243 76.1151 12.4613C76.1646 12.4984 76.1912 12.5689 76.1912 12.6689V13.4621C76.1912 13.677 76.0391 13.8067 75.731 13.8587C75.5789 13.8846 75.4266 13.9031 75.2706 13.9143C75.1185 13.9402 74.9703 13.9514 74.8294 13.9514C74.3844 13.9514 74.0193 13.8696 73.7417 13.7067C73.4755 13.5436 73.2891 13.2396 73.1865 12.8024L73.1484 12.7838L73.1599 12.78Z" fill="#222432"/>
<path d="M79.8883 11.5164C79.8883 11.8054 79.9532 11.9871 80.0787 12.065C80.2193 12.1279 80.4552 12.1576 80.786 12.1576C80.9269 12.1687 81.0144 12.1873 81.0524 12.2131C81.1016 12.239 81.1399 12.302 81.1664 12.4022L81.2425 13.3657C81.2539 13.5177 81.174 13.6362 80.9951 13.7252C80.8164 13.8141 80.6073 13.8699 80.3638 13.8958C80.1203 13.9328 79.9188 13.9513 79.7516 13.9513C79.025 13.9513 78.5154 13.7955 78.2224 13.4806C77.9409 13.1546 77.8003 12.6689 77.8003 12.0279V0.91691C77.8003 0.679704 77.9219 0.557422 78.1618 0.557422H79.5196C79.7628 0.557422 79.8808 0.676 79.8808 0.91691V11.5202L79.8883 11.5164Z" fill="#222432"/>
<path d="M88.5078 1.70625C88.5078 1.45425 88.6276 1.32824 88.8672 1.32824H90.3203C90.5651 1.32824 90.6823 1.45425 90.6823 1.70625V13.4954C90.6823 13.7326 90.5599 13.8549 90.3203 13.8549H88.8672C88.625 13.8549 88.5078 13.7364 88.5078 13.4954V1.70625Z" fill="#222432"/>
<path d="M101.336 13.4953C101.336 13.6103 101.31 13.6956 101.26 13.7585C101.221 13.8217 101.135 13.8511 100.995 13.8511H99.6172C99.388 13.8511 99.2734 13.7364 99.2734 13.5103V12.9061H99.237C99.237 12.9061 99.2292 12.8876 99.2187 12.8876C99.0495 13.0026 98.8568 13.1249 98.625 13.2657C98.3958 13.3916 98.1458 13.5103 97.8776 13.625C97.612 13.74 97.3307 13.8252 97.039 13.8882C96.7578 13.9625 96.4792 14.0031 96.1979 14.0031C95.5729 14.0031 95.0573 13.8958 94.6484 13.6808C94.2552 13.4547 93.9349 13.1396 93.6953 12.7356C93.4661 12.3317 93.2995 11.85 93.1979 11.2829C93.1094 10.7046 93.0625 10.0563 93.0625 9.34095C93.0625 8.57361 93.112 7.88798 93.2161 7.28405C93.3307 6.66871 93.5286 6.14621 93.8099 5.71999C94.0911 5.29379 94.4713 4.97138 94.9531 4.7564C95.4531 4.53034 96.0885 4.41544 96.8646 4.41544C97.638 4.41544 98.4427 4.56 99.2318 4.84907H99.2526C99.2526 4.84907 99.2604 4.83055 99.2708 4.83055V0.924295C99.2708 0.798282 99.2891 0.705638 99.3281 0.642632C99.3776 0.579626 99.4792 0.549988 99.6328 0.549988H100.99C101.143 0.549988 101.237 0.587035 101.276 0.66486C101.312 0.727866 101.333 0.816805 101.333 0.927998V13.4918L101.336 13.4953ZM99.2526 6.55376C98.8073 6.4279 98.4036 6.34645 98.0495 6.30928C97.7083 6.25738 97.3724 6.23515 97.0573 6.23515C96.7161 6.23515 96.4219 6.28705 96.1797 6.38705C95.9349 6.48728 95.7448 6.65755 95.6042 6.8948C95.4635 7.13206 95.362 7.45458 95.2995 7.85855C95.2344 8.24754 95.2057 8.74058 95.2057 9.32979C95.2057 9.91899 95.2318 10.4229 95.2812 10.801C95.3463 11.1644 95.4401 11.4496 95.5651 11.6498C95.6953 11.8389 95.8489 11.9721 96.026 12.0464C96.2057 12.1094 96.4219 12.1391 96.6771 12.1391C96.8672 12.1391 97.0833 12.1094 97.3281 12.0464C97.5703 11.9833 97.8099 11.9092 98.0547 11.8203C98.2969 11.7313 98.5182 11.6425 98.7239 11.5572C98.9401 11.457 99.1198 11.3682 99.2604 11.2941V6.55757L99.2526 6.55376Z" fill="#222432"/>
<path d="M105.375 9.7967C105.388 10.2748 105.44 10.6714 105.529 10.9863C105.63 11.3014 105.776 11.5534 105.969 11.7425C106.159 11.9203 106.396 12.0426 106.677 12.1205C106.959 12.1946 107.292 12.2352 107.688 12.2352C108.031 12.2352 108.44 12.2094 108.912 12.1611C109.386 12.1094 109.802 12.0685 110.175 12.0277C110.354 12.0018 110.477 12.0091 110.537 12.0462C110.612 12.0723 110.662 12.1723 110.69 12.3464L110.802 12.9691C110.831 13.1064 110.823 13.2211 110.784 13.3101C110.758 13.3989 110.659 13.4806 110.479 13.5547C110.289 13.6288 110.065 13.6991 109.81 13.7623C109.555 13.8141 109.289 13.8549 109.008 13.8955C108.727 13.9328 108.448 13.9661 108.167 13.9884C107.886 14.0143 107.63 14.0254 107.404 14.0254C106.487 14.0254 105.753 13.892 105.203 13.6288C104.656 13.3657 104.235 13.0135 103.943 12.5725C103.649 12.1315 103.451 11.6275 103.349 11.0642C103.261 10.4861 103.216 9.88932 103.216 9.27042C103.216 8.81824 103.253 8.30693 103.328 7.74361C103.406 7.17648 103.576 6.6502 103.847 6.15729C104.128 5.66809 104.534 5.25671 105.07 4.93056C105.62 4.58963 106.357 4.42283 107.289 4.42283C108.141 4.42283 108.828 4.54885 109.354 4.80087C109.891 5.05287 110.305 5.37902 110.597 5.78299C110.891 6.17211 111.089 6.62432 111.19 7.13943C111.305 7.64338 111.37 8.14377 111.38 8.64772C111.393 8.98876 111.336 9.26306 111.211 9.47799C111.083 9.69292 110.831 9.80051 110.445 9.80051H105.383L105.375 9.7967ZM107.284 6.11654C106.927 6.11654 106.636 6.16841 106.406 6.26849C106.177 6.36854 105.985 6.52053 105.831 6.72074C105.69 6.90953 105.589 7.14679 105.529 7.43581C105.464 7.71392 105.422 8.02527 105.393 8.38103H109.18C109.18 8.09201 109.151 7.8139 109.104 7.55076C109.055 7.2729 108.958 7.02829 108.818 6.81336C108.693 6.59843 108.498 6.43147 108.242 6.30553C108 6.17955 107.685 6.11654 107.289 6.11654H107.284Z" fill="#222432"/>
<path d="M121.195 13.4953C121.195 13.6103 121.167 13.6956 121.117 13.7585C121.068 13.8217 120.969 13.8511 120.833 13.8511H119.456C119.214 13.8511 119.094 13.7326 119.094 13.4918L119.115 8.19197C119.115 7.63981 119.018 7.19144 118.828 6.85395C118.648 6.51316 118.289 6.34645 117.74 6.34645C117.549 6.34645 117.326 6.37588 117.07 6.43907C116.828 6.502 116.581 6.58345 116.326 6.68368C116.083 6.77249 115.854 6.86511 115.638 6.96534C115.419 7.05416 115.25 7.12825 115.12 7.19144V13.4918C115.12 13.7288 114.997 13.8511 114.758 13.8511H113.401C113.156 13.8511 113.039 13.7326 113.039 13.4918V4.98246C113.039 4.73047 113.161 4.60445 113.401 4.60445H114.758C115.003 4.60445 115.12 4.73047 115.12 4.98246V5.54952C115.12 5.54952 115.138 5.55693 115.138 5.56804H115.177C115.357 5.44203 115.565 5.31602 115.807 5.19001C116.062 5.05288 116.331 4.92689 116.612 4.812C116.893 4.6971 117.185 4.61186 117.49 4.54886C117.794 4.47474 118.094 4.43399 118.388 4.43399C119.036 4.43399 119.547 4.53404 119.917 4.73417C120.284 4.92319 120.568 5.17889 120.758 5.50874C120.948 5.83489 121.068 6.22031 121.117 6.65755C121.167 7.08385 121.195 7.53958 121.195 8.01409V13.4842V13.4953Z" fill="#222432"/>
<path d="M129.036 13.136C129.075 13.351 128.992 13.5065 128.789 13.6065C128.622 13.6809 128.427 13.7438 128.195 13.7955C127.979 13.8476 127.752 13.8846 127.508 13.9105C127.278 13.9475 127.055 13.9734 126.838 13.9846C126.633 13.9958 126.453 14.0031 126.302 14.0031C125.742 14.0031 125.302 13.929 124.982 13.777C124.677 13.6141 124.445 13.3954 124.294 13.1175C124.14 12.8394 124.047 12.5207 124.008 12.1538C123.971 11.7907 123.95 11.4052 123.95 11.0048V6.26851H122.997C122.857 6.26851 122.76 6.24258 122.711 6.19439C122.661 6.13138 122.635 6.03874 122.635 5.91273V4.98989C122.635 4.8639 122.661 4.77123 122.711 4.70823C122.76 4.64522 122.859 4.61558 122.997 4.61558H123.971V2.67358C123.971 2.53646 124 2.44011 124.065 2.39192C124.14 2.32892 124.234 2.28443 124.331 2.2585L125.614 1.91753C125.87 1.85453 125.997 1.92865 125.997 2.1436V4.61558H128.044C128.195 4.61558 128.292 4.64522 128.331 4.70823C128.38 4.77123 128.406 4.8602 128.406 4.97137V5.91643C128.406 6.04244 128.38 6.13509 128.331 6.19809C128.292 6.24999 128.195 6.27221 128.044 6.27221H125.997V10.9678C125.997 11.22 126.018 11.4126 126.055 11.5534C126.094 11.6942 126.159 11.798 126.245 11.8759C126.349 11.9389 126.482 11.9759 126.648 11.9906C126.815 12.0018 127.026 12.0094 127.278 12.0094C127.419 12.0094 127.617 12.0018 127.872 11.9906C128.138 11.9797 128.372 11.9612 128.562 11.9351C128.664 11.9241 128.739 11.9351 128.789 11.9721C128.838 12.0094 128.877 12.087 128.903 12.1982L129.036 13.1434V13.136Z" fill="#222432"/>
<path d="M132.578 2.15844C132.578 2.31041 132.568 2.45494 132.539 2.59207C132.513 2.71808 132.456 2.82925 132.37 2.93304C132.292 3.03309 132.18 3.11462 132.026 3.17763C131.886 3.22952 131.695 3.25175 131.453 3.25175C131.198 3.25175 130.992 3.22211 130.839 3.1591C130.698 3.09609 130.594 3.01456 130.516 2.91449C130.44 2.81443 130.391 2.69953 130.365 2.57352C130.339 2.4364 130.326 2.29556 130.326 2.15844C130.326 1.85825 130.396 1.60623 130.537 1.40241C130.688 1.18744 130.995 1.07998 131.453 1.07998C131.909 1.07998 132.229 1.18003 132.37 1.38016C132.511 1.56918 132.578 1.82491 132.578 2.15473V2.15844ZM132.464 13.4954C132.464 13.5956 132.438 13.6844 132.388 13.7585C132.349 13.8217 132.263 13.8511 132.123 13.8511H130.763C130.508 13.8511 130.38 13.7326 130.38 13.4918V4.96397C130.38 4.72679 130.505 4.60449 130.763 4.60449H132.123C132.263 4.60449 132.349 4.64154 132.388 4.71936C132.438 4.78237 132.464 4.86392 132.464 4.96397V13.4918V13.4954Z" fill="#222432"/>
<path d="M140.661 13.136C140.698 13.351 140.615 13.5065 140.414 13.6065C140.245 13.6809 140.052 13.7438 139.82 13.7955C139.604 13.8476 139.375 13.8846 139.13 13.9105C138.904 13.9475 138.68 13.9734 138.461 13.9846C138.255 13.9958 138.078 14.0031 137.924 14.0031C137.367 14.0031 136.924 13.929 136.607 13.777C136.302 13.6141 136.07 13.3954 135.917 13.1175C135.766 12.8394 135.669 12.5207 135.633 12.1538C135.594 11.7907 135.576 11.4052 135.576 11.0048V6.26851H134.62C134.479 6.26851 134.385 6.24258 134.336 6.19439C134.286 6.13138 134.258 6.03874 134.258 5.91273V4.98989C134.258 4.8639 134.286 4.77123 134.336 4.70823C134.385 4.64522 134.479 4.61558 134.62 4.61558H135.594V2.67358C135.594 2.53646 135.625 2.44011 135.69 2.39192C135.766 2.32892 135.857 2.28443 135.956 2.2585L137.237 1.91753C137.492 1.85453 137.622 1.92865 137.622 2.1436V4.61558H139.667C139.82 4.61558 139.914 4.64522 139.953 4.70823C140.003 4.77123 140.029 4.8602 140.029 4.97137V5.91643C140.029 6.04244 140.003 6.13509 139.953 6.19809C139.914 6.24999 139.82 6.27221 139.667 6.27221H137.622V10.9678C137.622 11.22 137.641 11.4126 137.677 11.5534C137.716 11.6904 137.781 11.798 137.87 11.8759C137.971 11.9389 138.104 11.9759 138.271 11.9906C138.44 12.0018 138.648 12.0094 138.904 12.0094C139.044 12.0094 139.242 12.0018 139.497 11.9906C139.763 11.9797 139.995 11.9612 140.185 11.9351C140.286 11.9241 140.365 11.9351 140.414 11.9721C140.464 12.0094 140.5 12.087 140.526 12.1982L140.661 13.1434V13.136Z" fill="#222432"/>
<path d="M145.464 11.2126C145.604 10.8234 145.729 10.4564 145.849 10.1192C145.974 9.77817 146.083 9.48535 146.172 9.23337C146.273 8.93319 146.37 8.65533 146.456 8.40336L147.643 4.93066C147.682 4.81576 147.732 4.73423 147.797 4.68605C147.859 4.63416 147.964 4.61193 148.099 4.61193H149.516C149.667 4.61193 149.75 4.649 149.763 4.72682C149.773 4.80094 149.763 4.88989 149.724 4.98996L145.271 16.9867C145.221 17.1126 145.164 17.2016 145.099 17.2498C145.034 17.3016 144.919 17.3239 144.758 17.3239H143.456C143.305 17.3239 143.214 17.2869 143.19 17.209C143.177 17.1349 143.19 17.0458 143.227 16.9459L144.432 13.7585L141.091 4.98623C141.052 4.88618 141.042 4.79724 141.052 4.72312C141.078 4.649 141.159 4.60822 141.3 4.60822H142.771C142.901 4.60822 142.987 4.61934 143.037 4.6453C143.086 4.67123 143.141 4.75276 143.19 4.88988L144.432 8.39955L145.388 11.2088H145.464V11.2126Z" fill="#222432"/>
<path d="M0.00389417 1.73603C0.00389417 1.48771 0.133056 1.3617 0.395556 1.3617H7.58409C7.83149 1.3617 7.95702 1.4803 7.95702 1.71748V2.87379C7.95702 3.09615 7.8276 3.21105 7.5651 3.21105H2.23281V6.41675H6.96041C7.21901 6.41675 7.35207 6.52789 7.35207 6.75399V7.91032C7.35207 8.13286 7.22291 8.24756 6.96041 8.24756H2.23281V11.9203H7.70207C7.93801 11.9203 8.05207 12.0391 8.05207 12.2761V13.4139C8.05207 13.6364 7.92656 13.7511 7.67916 13.7511H0.39192C0.133066 13.7511 0 13.64 0 13.4139V1.73973L0.00389417 1.73603Z" fill="#222432"/>
<path d="M15.073 12.0279C15.9326 12.0279 16.5831 11.8054 17.0282 11.357C17.4844 10.8975 17.7128 10.1822 17.7128 9.2113V1.7323C17.7128 1.48398 17.842 1.35797 18.1045 1.35797H19.5688C19.7133 1.35797 19.8045 1.39504 19.8428 1.46916C19.8959 1.53217 19.9224 1.6174 19.9224 1.72859L19.9034 9.2075C19.9034 9.58178 19.8769 9.95251 19.8237 10.3268C19.7855 10.6864 19.6943 11.0495 19.5498 11.409C19.3558 11.8574 19.1008 12.2355 18.7891 12.5468C18.4886 12.8579 18.1464 13.1137 17.7545 13.3101C17.3628 13.5103 16.9407 13.6512 16.4842 13.74C16.0276 13.8402 15.5599 13.8884 15.0769 13.8884C13.0193 13.8884 11.612 13.199 10.8589 11.8166C10.6495 11.4423 10.5013 11.0383 10.4099 10.6046C10.3188 10.1563 10.2729 9.68937 10.2729 9.2075V1.72859C10.2729 1.48027 10.3985 1.35426 10.6459 1.35426H12.1102C12.3573 1.35426 12.4829 1.48027 12.4829 1.72859V9.2075C12.4829 10.1266 12.6959 10.8307 13.1256 11.3164C13.567 11.7869 14.2211 12.0241 15.0808 12.0241L15.073 12.0279Z" fill="#222432"/>
<path d="M21.9308 42.3734L20.786 46.1537L16.8037 59.1917C16.6933 59.5809 16.5298 59.8664 16.3131 60.0443C16.1305 60.2222 15.7844 60.311 15.2784 60.311H11.3532C10.8435 60.311 10.4824 60.2222 10.2618 60.0443C10.0449 59.8664 9.89642 59.5994 9.82429 59.2472L0.0646418 26.037C-0.11791 25.329 0.117764 24.9732 0.77193 24.9732H5.08131C5.51881 24.9732 5.82688 25.0623 6.00943 25.2402C6.2261 25.381 6.38964 25.6477 6.50006 26.037C7.40917 29.2649 8.2459 32.2112 9.01023 34.8723C9.33731 36.0063 9.64564 37.1441 9.93835 38.2781C10.2654 39.3789 10.5545 40.3906 10.8094 41.3097C11.0985 42.2325 11.3381 43.0293 11.5167 43.704C11.6993 44.3785 11.8248 44.8231 11.8972 45.0345L13.643 51.6868H13.8066L15.3889 46.2055C15.4269 46.0647 15.5334 45.6719 15.7159 45.0345C15.8985 44.36 16.1152 43.5779 16.3701 42.6921C16.6592 41.7694 16.9519 40.7945 17.241 39.7643C17.5683 38.7341 17.8571 37.7594 18.112 36.8365C18.4011 35.9137 18.6407 35.1316 18.8196 34.4942C19.0022 33.8197 19.1277 33.3934 19.1998 33.2155L16.9634 26.0296C16.8912 25.7441 16.8912 25.4957 16.9634 25.2846C17.0738 25.0732 17.2714 24.9659 17.5644 24.9659H21.6532C22.4899 24.9659 22.9995 25.3216 23.1782 26.0296C24.1597 29.3278 25.0305 32.3447 25.7951 35.076C26.1222 36.2473 26.4493 37.3999 26.7764 38.5339C27.1034 39.6679 27.3925 40.7169 27.6475 41.673C27.9365 42.6292 28.1761 43.463 28.3548 44.1745C28.5373 44.8492 28.6628 45.2938 28.7352 45.5052L30.3706 51.6794H30.5876L32.1126 45.3458C32.185 45.1344 32.3144 44.6899 32.493 44.0151C32.6756 43.3074 32.8923 42.4736 33.1472 41.5137C33.4022 40.5537 33.6758 39.5085 33.9649 38.3745C34.292 37.2405 34.6191 36.1027 34.9462 34.9687C35.6727 32.2706 36.4904 29.2908 37.3995 26.0296C37.5821 25.3216 38.0917 24.9659 38.9248 24.9659H43.0704C43.7248 24.9659 43.9264 25.3549 43.6714 26.1369L34.2389 59.1881C34.1284 59.5771 33.9498 59.8626 33.6949 60.0405C33.4782 60.2183 33.1131 60.3074 32.6032 60.3074H28.8417C28.2597 60.3074 27.8605 60.2183 27.6436 60.0405C27.461 59.8291 27.3165 59.5439 27.2061 59.1881L23.224 46.0426L22.1323 42.3178L21.9154 42.3698L21.9308 42.3734Z" fill="#222432"/>
<path d="M62.8033 48.4403H56.1509C54.7702 48.4403 53.6788 48.7592 52.8801 49.4002C52.0811 50.0044 51.6819 51.1755 51.6819 52.9136C51.6819 54.0847 51.9176 54.9003 52.3895 55.3633C52.8991 55.7896 53.7889 56.0008 55.0593 56.0008C55.6413 56.0008 56.2765 55.9305 56.9686 55.7896C57.6611 55.6488 58.3494 55.4524 59.0416 55.204C59.7338 54.9558 60.4033 54.6889 61.0575 54.4072C61.7116 54.0885 62.2936 53.7845 62.8033 53.5029V48.4479V48.4403ZM63.1304 57.2759C61.7496 58.3061 60.1863 59.1399 58.4408 59.7773C56.733 60.4147 54.9491 60.7373 53.0968 60.7373C51.6439 60.7373 50.4267 60.5594 49.4416 60.2036C48.4983 59.8144 47.734 59.2993 47.152 58.6618C46.608 57.9874 46.2087 57.1906 45.9538 56.2677C45.7371 55.3448 45.6267 54.3184 45.6267 53.1806C45.5887 50.06 46.4254 47.8067 48.1371 46.4207C49.8449 45.0012 52.4275 44.2932 55.8809 44.2932H62.8603V42.9108C62.8603 42.129 62.7692 41.4728 62.5864 40.943C62.4418 40.3759 62.1491 39.9128 61.7155 39.5606C61.278 39.2048 60.6963 38.9564 59.9697 38.8155C59.2431 38.6747 58.3153 38.6044 57.1892 38.6044C56.752 38.6044 56.208 38.6229 55.5538 38.6562C54.9377 38.6932 54.2835 38.7267 53.5913 38.7638C52.9371 38.8008 52.264 38.8526 51.5754 38.9231C50.9212 38.9934 50.3202 39.0454 49.7765 39.0825C49.2325 39.1528 48.8483 39.1713 48.6314 39.1343C48.4488 39.064 48.3233 38.8341 48.2512 38.4413L47.7606 36.4734C47.6882 36.1177 47.7225 35.836 47.8707 35.6211C48.0153 35.3727 48.3994 35.1242 49.0158 34.8761C49.5976 34.6647 50.2861 34.4868 51.0884 34.3424C51.8874 34.2016 52.7051 34.094 53.5418 34.0237C54.3785 33.9161 55.1963 33.8459 55.995 33.8124C56.8319 33.7421 57.5772 33.705 58.2314 33.705C60.5934 33.705 62.4647 33.9347 63.8491 34.398C65.2679 34.8576 66.3405 35.5173 67.0671 36.3658C67.7934 37.1811 68.265 38.1931 68.4856 39.4012C68.7025 40.6058 68.8127 41.9547 68.8127 43.4445V53.7142C68.8127 54.2479 68.8317 54.6742 68.866 54.9929C68.9382 55.2781 69.0296 55.508 69.1397 55.6859C69.2843 55.8267 69.4861 55.9343 69.7408 56.0046C69.9957 56.0751 70.3418 56.1269 70.7754 56.1639C71.1746 56.201 71.4486 56.2715 71.5931 56.3753C71.7377 56.4826 71.8098 56.6755 71.8098 56.9607V59.1955C71.8098 59.7997 71.3725 60.1701 70.5015 60.3148C70.0642 60.3853 69.6306 60.4371 69.1931 60.4741C68.7556 60.5447 68.3374 60.5817 67.9379 60.5817C66.6676 60.5817 65.6293 60.3518 64.8306 59.8885C64.066 59.4289 63.541 58.5766 63.2483 57.335L63.1379 57.2832L63.1304 57.2759Z" fill="#222432"/>
<path d="M82.3261 53.7104C82.3261 54.526 82.5087 55.0411 82.8701 55.2522C83.2707 55.4301 83.9425 55.5192 84.8852 55.5192C85.2863 55.5562 85.5389 55.608 85.6509 55.6785C85.7941 55.7488 85.9061 55.9267 85.9764 56.2122L86.1952 58.925C86.2316 59.3513 85.992 59.6885 85.4868 59.9367C84.9764 60.1851 84.3774 60.3445 83.6873 60.4148C82.9946 60.5224 82.4136 60.5741 81.942 60.5741C79.8691 60.5741 78.4162 60.1295 77.5795 59.2437C76.7808 58.3208 76.3813 56.9534 76.3813 55.1449V23.7984C76.3813 23.1239 76.7274 22.7867 77.416 22.7867H81.2879C81.9801 22.7867 82.3225 23.1239 82.3225 23.7984V53.7069L82.3261 53.7104Z" fill="#222432"/>
<path d="M96.7578 53.7104C96.7578 54.526 96.9401 55.0411 97.2995 55.2522C97.7005 55.4301 98.3724 55.5192 99.3177 55.5192C99.7161 55.5562 99.9714 55.608 100.081 55.6785C100.227 55.7488 100.336 55.9267 100.409 56.2122L100.625 58.925C100.664 59.3513 100.424 59.6885 99.9167 59.9367C99.4089 60.1851 98.8073 60.3445 98.1172 60.4148C97.4271 60.5224 96.8438 60.5741 96.3724 60.5741C94.2995 60.5741 92.8464 60.1295 92.0104 59.2437C91.2109 58.3208 90.8125 56.9534 90.8125 55.1449V23.7984C90.8125 23.1239 91.1589 22.7867 91.8464 22.7867H95.7188C96.4115 22.7867 96.7526 23.1239 96.7526 23.7984V53.7069L96.7578 53.7104Z" fill="#222432"/>
<path d="M110.206 48.8666C110.245 50.2155 110.388 51.3313 110.643 52.2207C110.932 53.1065 111.352 53.818 111.898 54.3478C112.443 54.8447 113.115 55.2004 113.914 55.4116C114.714 55.6229 115.68 55.7303 116.805 55.7303C117.786 55.7303 118.951 55.66 120.297 55.5191C121.643 55.3783 122.841 55.2522 123.896 55.1449C124.404 55.0743 124.75 55.0928 124.93 55.1966C125.146 55.2672 125.294 55.5524 125.367 56.049L125.693 57.8057C125.766 58.1949 125.747 58.5137 125.641 58.7656C125.568 59.014 125.276 59.2437 124.768 59.4586C124.227 59.67 123.586 59.8664 122.859 60.0443C122.133 60.1851 121.37 60.311 120.57 60.4186C119.771 60.5261 118.969 60.615 118.169 60.6855C117.372 60.7558 116.646 60.7928 115.987 60.7928C113.37 60.7928 111.279 60.4186 109.716 59.6735C108.151 58.9288 106.953 57.9354 106.117 56.694C105.281 55.4524 104.719 54.0329 104.43 52.4356C104.174 50.805 104.047 49.1186 104.047 47.3804C104.047 46.1017 104.159 44.6675 104.375 43.0702C104.591 41.4728 105.083 39.983 105.846 38.6006C106.646 37.2182 107.81 36.0621 109.339 35.1428C110.901 34.1866 113.008 33.705 115.664 33.705C118.099 33.705 120.065 34.0608 121.552 34.7685C123.078 35.4765 124.26 36.3993 125.096 37.5372C125.932 38.6377 126.497 39.9128 126.786 41.369C127.112 42.7885 127.294 44.208 127.328 45.6275C127.367 46.5874 127.203 47.3657 126.839 47.9698C126.474 48.5738 125.747 48.8739 124.656 48.8739H110.206V48.8666ZM115.659 38.4895C114.641 38.4895 113.807 38.6303 113.154 38.9158C112.5 39.201 111.956 39.6235 111.518 40.1944C111.12 40.7281 110.826 41.4025 110.646 42.2178C110.464 42.9999 110.339 43.8855 110.266 44.8789H121.065C121.065 44.0636 120.992 43.2815 120.849 42.5365C120.703 41.7545 120.43 41.0653 120.031 40.4611C119.664 39.8569 119.122 39.3789 118.396 39.0231C117.703 38.6674 116.794 38.4895 115.667 38.4895H115.659Z" fill="#222432"/>
<path d="M148.914 58.2876C149.024 58.8915 148.789 59.3328 148.206 59.618C147.735 59.8294 147.172 60.0072 146.518 60.1516C145.899 60.2925 145.245 60.4 144.555 60.4703C143.901 60.5779 143.266 60.6482 142.646 60.6817C142.065 60.7188 141.555 60.7335 141.12 60.7335C139.518 60.7335 138.268 60.5224 137.36 60.0961C136.487 59.633 135.833 59.0138 135.396 58.232C134.958 57.4499 134.69 56.5456 134.578 55.5192C134.469 54.4887 134.414 53.4067 134.414 52.2724V38.9158H131.688C131.289 38.9158 131.016 38.8453 130.87 38.7044C130.727 38.5265 130.654 38.2596 130.654 37.9076V35.2986C130.654 34.9428 130.727 34.6759 130.87 34.5018C131.016 34.3239 131.289 34.2349 131.688 34.2349H134.469V28.7536C134.469 28.3644 134.56 28.0977 134.742 27.9568C134.958 27.7787 135.214 27.6567 135.508 27.5823L139.162 26.6262C139.888 26.4483 140.253 26.6632 140.253 27.2636V34.2349H146.089C146.526 34.2349 146.794 34.3239 146.906 34.5018C147.05 34.6797 147.123 34.9279 147.123 35.2466V37.9076C147.123 38.2634 147.05 38.5303 146.906 38.7044C146.794 38.8453 146.526 38.9158 146.089 38.9158H140.253V52.1686C140.253 52.8766 140.307 53.4288 140.417 53.818C140.526 54.207 140.706 54.511 140.961 54.7221C141.25 54.9003 141.633 55.0076 142.107 55.0411C142.578 55.0781 143.177 55.0929 143.904 55.0929C144.305 55.0929 144.867 55.0743 145.594 55.0411C146.357 55.0038 147.013 54.952 147.557 54.8815C147.847 54.8444 148.065 54.8817 148.211 54.9891C148.354 55.0967 148.466 55.3078 148.537 55.6265L148.914 58.2876Z" fill="#222432"/>
</svg>
