<svg width="177" height="151" viewBox="0 0 177 151" fill="none" xmlns="http://www.w3.org/2000/svg">
<g clip-path="url(#clip0_2676_5477)">
<path d="M66.3814 104.817C95.2542 104.817 118.66 81.4108 118.66 52.538C118.66 23.6652 95.2542 0.259216 66.3814 0.259216C37.5086 0.259216 14.1025 23.6652 14.1025 52.538C14.1025 81.4108 37.5086 104.817 66.3814 104.817Z" fill="#C8E4FD"/>
<path d="M150.832 138.195H62.3598C61.6938 138.195 61.1533 137.654 61.1533 136.988C61.1533 136.322 61.6938 135.782 62.3598 135.782H150.832C159.036 135.782 165.711 129.107 165.711 120.903V92.7525C165.711 92.0866 166.251 91.5461 166.917 91.5461C167.583 91.5461 168.124 92.0866 168.124 92.7525V120.903C168.124 125.522 166.325 129.864 163.059 133.13C159.793 136.396 155.451 138.195 150.832 138.195Z" fill="#2A5FD9"/>
<path d="M30.1889 73.8517C29.5229 73.8517 28.9824 73.3112 28.9824 72.6453V40.4737C28.9824 35.8547 30.7808 31.5123 34.047 28.2461C37.3133 24.9799 41.6556 23.1815 46.2746 23.1815H150.832C155.451 23.1815 159.794 24.9799 163.06 28.2461C166.326 31.5123 168.125 35.8547 168.125 40.4737V68.6238C168.125 69.2898 167.584 69.8303 166.918 69.8303C166.252 69.8303 165.712 69.2898 165.712 68.6238V40.4737C165.712 32.2691 159.037 25.5943 150.832 25.5943H46.2746C38.0701 25.5943 31.3953 32.2691 31.3953 40.4737V72.6453C31.3953 73.3112 30.8548 73.8517 30.1889 73.8517Z" fill="#2A5FD9"/>
<path d="M174.961 93.959H166.918C166.252 93.959 165.712 93.4185 165.712 92.7525C165.712 92.0866 166.252 91.5461 166.918 91.5461H173.755V69.8303H142.789C139.02 69.8303 135.953 72.897 135.953 76.6667V84.7096C135.953 88.4793 139.02 91.5461 142.789 91.5461H158.875C159.541 91.5461 160.082 92.0866 160.082 92.7525C160.082 93.4185 159.541 93.959 158.875 93.959H142.789C137.689 93.959 133.54 89.8096 133.54 84.7096V76.6667C133.54 71.5667 137.689 67.4174 142.789 67.4174H174.961C175.627 67.4174 176.167 67.9579 176.167 68.6238V92.7525C176.167 93.4185 175.627 93.959 174.961 93.959Z" fill="#2A5FD9"/>
<path d="M146.811 84.7096C149.031 84.7096 150.832 82.9091 150.832 80.6882C150.832 78.4672 149.031 76.6667 146.811 76.6667C144.59 76.6667 142.789 78.4672 142.789 80.6882C142.789 82.9091 144.59 84.7096 146.811 84.7096Z" fill="#2A5FD9"/>
<path d="M118.66 41.6801H110.618C109.952 41.6801 109.411 41.1397 109.411 40.4737C109.411 39.8077 109.952 39.2673 110.618 39.2673H118.66C119.326 39.2673 119.867 39.8077 119.867 40.4737C119.867 41.1397 119.326 41.6801 118.66 41.6801Z" fill="#2A5FD9"/>
<path d="M146.811 41.6801H138.768C138.102 41.6801 137.562 41.1397 137.562 40.4737C137.562 39.8077 138.102 39.2673 138.768 39.2673H146.811C147.477 39.2673 148.017 39.8077 148.017 40.4737C148.017 41.1397 147.477 41.6801 146.811 41.6801Z" fill="#2A5FD9"/>
<path d="M62.3607 41.6801H54.3178C53.6518 41.6801 53.1113 41.1397 53.1113 40.4737C53.1113 39.8077 53.6518 39.2673 54.3178 39.2673H62.3607C63.0266 39.2673 63.5671 39.8077 63.5671 40.4737C63.5671 41.1397 63.0266 41.6801 62.3607 41.6801Z" fill="#2A5FD9"/>
<path d="M90.5101 41.6801H82.4672C81.8012 41.6801 81.2607 41.1397 81.2607 40.4737C81.2607 39.8077 81.8012 39.2673 82.4672 39.2673H90.5101C91.176 39.2673 91.7165 39.8077 91.7165 40.4737C91.7165 41.1397 91.176 41.6801 90.5101 41.6801Z" fill="#2A5FD9"/>
<path d="M86.4886 122.109H78.4457C77.7797 122.109 77.2393 121.569 77.2393 120.903C77.2393 120.237 77.7797 119.696 78.4457 119.696H86.4886C87.1545 119.696 87.695 120.237 87.695 120.903C87.695 121.569 87.1545 122.109 86.4886 122.109Z" fill="#2A5FD9"/>
<path d="M118.66 122.109H110.618C109.952 122.109 109.411 121.569 109.411 120.903C109.411 120.237 109.952 119.696 110.618 119.696H118.66C119.326 119.696 119.867 120.237 119.867 120.903C119.867 121.569 119.326 122.109 118.66 122.109Z" fill="#2A5FD9"/>
<path d="M146.811 122.109H138.768C138.102 122.109 137.562 121.569 137.562 120.903C137.562 120.237 138.102 119.696 138.768 119.696H146.811C147.477 119.696 148.017 120.237 148.017 120.903C148.017 121.569 147.477 122.109 146.811 122.109Z" fill="#2A5FD9"/>
<path d="M30.1886 150.259C30.0261 150.259 29.8645 150.226 29.7133 150.162C29.4165 150.035 22.3604 146.958 15.2312 139.32C11.0489 134.839 7.71594 129.71 5.3256 124.076C2.3441 117.046 0.832031 109.214 0.832031 100.795C0.832031 100.129 1.37251 99.589 2.03847 99.589C7.38779 99.589 12.1419 98.7726 16.1682 97.1616C19.3516 95.8884 22.0902 94.1182 24.3084 91.8992C28.05 88.1576 29.0087 84.4539 29.0176 84.4169C29.1519 83.8796 29.6344 83.5032 30.1878 83.5032C30.7411 83.5032 31.2237 83.8796 31.358 84.4169C31.6942 85.7279 33.1339 89.0045 36.1685 91.9989C38.3915 94.193 41.1285 95.9423 44.3039 97.1994C48.3092 98.7847 53.0312 99.589 58.3387 99.589C59.0047 99.589 59.5452 100.129 59.5452 100.795C59.5452 110.127 58.0347 118.526 55.0556 125.761C52.6596 131.579 49.3154 136.659 45.1162 140.858C37.9403 148.034 30.8192 150.127 30.5192 150.213C30.4106 150.245 30.2988 150.26 30.1878 150.26L30.1886 150.259ZM3.25536 101.988C3.39128 109.627 4.83337 116.736 7.54704 123.134C9.8264 128.507 13.0058 133.399 16.995 137.674C22.8398 143.937 28.7071 147.009 30.2642 147.759C31.8406 147.21 37.7103 144.889 43.5044 139.057C47.4543 135.081 50.6015 130.27 52.8599 124.755C55.5688 118.142 57.0012 110.487 57.1235 101.987C51.9551 101.871 47.3143 101.002 43.313 99.4016C39.8248 98.0061 36.8135 96.0565 34.3621 93.6051C32.3087 91.5517 30.9977 89.4976 30.1886 87.9107C29.3787 89.4976 28.0677 91.5525 26.0151 93.6051C23.5645 96.0565 20.5524 98.0061 17.0642 99.4016C13.0637 101.002 8.42292 101.871 3.25536 101.987V101.988Z" fill="#55953B"/>
<path d="M26.1667 126.131C25.8579 126.131 25.549 126.013 25.3134 125.777L17.2705 117.735C16.7992 117.263 16.7992 116.499 17.2705 116.029C17.7418 115.557 18.5059 115.557 18.9764 116.029L26.1659 123.218L41.3984 107.986C41.8697 107.514 42.6337 107.514 43.1043 107.986C43.5756 108.457 43.5756 109.221 43.1043 109.692L27.0185 125.777C26.7828 126.013 26.474 126.131 26.1651 126.131H26.1667Z" fill="#55953B"/>
</g>
<defs>
<clipPath id="clip0_2676_5477">
<rect width="175.335" height="150" fill="white" transform="translate(0.832031 0.259216)"/>
</clipPath>
</defs>
</svg>
