<svg width="37" height="36" viewBox="0 0 37 36" fill="none" xmlns="http://www.w3.org/2000/svg">
<path d="M35.154 18.0001C35.154 27.1985 27.6973 34.6552 18.4989 34.6552C9.30051 34.6552 1.84375 27.1985 1.84375 18.0001C1.84375 8.80173 9.30051 1.34497 18.4989 1.34497C27.6973 1.34497 35.154 8.80173 35.154 18.0001Z" fill="white" stroke="black" stroke-miterlimit="10"/>
<path d="M21.1343 19.5797C21.3729 19.875 21.8055 19.921 22.1009 19.6827C22.3962 19.4445 22.4422 19.0116 22.2039 18.7162C21.3527 17.6618 20.0881 17.0745 18.7349 17.1049C17.469 17.1333 16.2825 17.7118 15.4798 18.6922C15.3717 18.8244 15.321 18.9845 15.3244 19.1427C15.3288 19.3363 15.4143 19.5269 15.5761 19.6594C15.8698 19.9 16.3027 19.8568 16.543 19.5631C17.0912 18.8936 17.9012 18.4986 18.7653 18.479C19.6893 18.4584 20.5524 18.8595 21.134 19.5797H21.1343Z" fill="#292B32"/>
<path d="M18.7715 15.872C20.1997 15.8744 21.5514 16.4218 22.5781 17.4144C22.8512 17.6783 23.2861 17.6709 23.5497 17.3978C23.8137 17.1248 23.8062 16.6898 23.5332 16.4262C22.2493 15.1853 20.5592 14.5003 18.7735 14.4976C16.9767 14.4949 15.2761 15.1819 13.9862 16.4323C13.8473 16.5668 13.7773 16.7456 13.7773 16.9247C13.7773 17.0974 13.8416 17.2704 13.971 17.4039C14.2353 17.6763 14.6702 17.6834 14.9426 17.4191C15.9743 16.4191 17.3342 15.8696 18.7715 15.872Z" fill="#292B32"/>
<path d="M18.7838 13.1259C20.7594 13.1502 22.6688 13.8748 24.1605 15.1657C24.4474 15.4141 24.8814 15.383 25.1297 15.0958C25.3781 14.8089 25.347 14.375 25.0598 14.1266C23.3234 12.6234 21.1004 11.7799 18.8007 11.7515C16.3965 11.7217 14.0762 12.5754 12.2665 14.1556C12.1131 14.2895 12.0337 14.4763 12.0313 14.6649C12.0293 14.8281 12.085 14.9927 12.2006 15.1252C12.4504 15.4111 12.8846 15.4405 13.1702 15.1908C14.7244 13.8336 16.7179 13.1002 18.7831 13.1256L18.7838 13.1259Z" fill="#292B32"/>
<path d="M18.8214 10.4331C21.3851 10.4902 23.7835 11.38 25.7574 13.0066C26.0504 13.2482 26.4837 13.2063 26.725 12.9133C26.9666 12.62 26.9247 12.1871 26.6317 11.9461C24.4171 10.1212 21.7271 9.12291 18.8522 9.05904C15.8235 8.99178 12.8679 10.011 10.5286 11.9295C10.3671 12.062 10.2819 12.2523 10.2775 12.4459C10.2741 12.6044 10.3248 12.7646 10.4333 12.8967C10.6739 13.1901 11.1068 13.233 11.4002 12.9924C13.4856 11.282 16.1209 10.3733 18.8214 10.4335V10.4331Z" fill="#292B32"/>
<path d="M16.8098 27.0447C16.8098 27.2434 16.7537 27.3935 16.6418 27.4955C16.5296 27.6023 16.3897 27.656 16.2217 27.656C16.1504 27.656 16.0639 27.6304 15.9619 27.5797C15.8652 27.529 15.7861 27.4678 15.725 27.3962L13.2499 24.0806H13.2346V27.0447C13.2346 27.2434 13.1785 27.3935 13.0667 27.4955C12.9545 27.6023 12.8146 27.656 12.6466 27.656C12.4787 27.656 12.3384 27.6026 12.2266 27.4955C12.1144 27.3938 12.0586 27.2434 12.0586 27.0447V22.5068C12.0586 22.308 12.1147 22.1553 12.2266 22.0485C12.3384 21.9468 12.4787 21.8958 12.6466 21.8958C12.7179 21.8958 12.8044 21.9187 12.9065 21.9644C13.0082 22.0154 13.0873 22.0789 13.1434 22.1553L15.6185 25.5091H15.6337V22.5068C15.6337 22.308 15.6898 22.1553 15.8017 22.0485C15.9135 21.9468 16.0538 21.8958 16.2217 21.8958C16.3897 21.8958 16.53 21.9468 16.6418 22.0485C16.7537 22.1553 16.8098 22.3084 16.8098 22.5068V27.0447Z" fill="#292B32"/>
<path d="M20.8231 22.5299C20.8231 22.6674 20.7799 22.7921 20.6933 22.9043C20.6068 23.0165 20.4743 23.0723 20.2959 23.0723H18.8596V24.2105H20.0668C20.255 24.2105 20.3976 24.2639 20.4946 24.371C20.5862 24.4832 20.6322 24.6052 20.6322 24.7377C20.6322 24.8702 20.5862 25.0026 20.4946 25.1196C20.398 25.2318 20.255 25.2875 20.0668 25.2875H18.8596V27.0445C18.8596 27.2432 18.8035 27.3933 18.6917 27.4953C18.5795 27.6021 18.4396 27.6559 18.2716 27.6559C18.1037 27.6559 17.9634 27.6025 17.8516 27.4953C17.7394 27.3936 17.6836 27.2432 17.6836 27.0445V22.5982C17.6836 22.4353 17.737 22.2927 17.8441 22.1703C17.9458 22.048 18.0962 21.9868 18.2949 21.9868H20.2966C20.4696 21.9868 20.5994 22.0429 20.6862 22.1548C20.7778 22.267 20.8238 22.3917 20.8238 22.5292L20.8231 22.5299Z" fill="#292B32"/>
<path d="M25.614 26.7319C25.614 26.9205 25.5501 27.0733 25.423 27.1902C25.2956 27.3125 25.1405 27.4068 24.957 27.4727C24.7684 27.544 24.5751 27.5924 24.3764 27.618C24.1726 27.6434 23.9996 27.6562 23.857 27.6562C23.4545 27.6562 23.0878 27.5822 22.757 27.4345C22.4309 27.2818 22.1483 27.078 21.9091 26.8232C21.6749 26.5633 21.4914 26.2578 21.3589 25.9063C21.2315 25.5599 21.168 25.1831 21.168 24.7756C21.168 24.368 21.2315 23.9888 21.3589 23.6374C21.4914 23.2859 21.6745 22.9804 21.9091 22.7205C22.1483 22.4606 22.4312 22.2572 22.757 22.1092C23.0878 21.9666 23.4548 21.8953 23.857 21.8953C23.9945 21.8953 24.1598 21.9081 24.3534 21.9335C24.5471 21.9591 24.7303 22.0048 24.9036 22.071C25.0817 22.1423 25.2321 22.2339 25.3544 22.3461C25.4768 22.4583 25.5379 22.6009 25.5379 22.7739C25.5379 22.9115 25.4947 23.0338 25.4082 23.1406C25.3166 23.2427 25.1966 23.2933 25.0489 23.2933C24.9726 23.2933 24.8985 23.2808 24.8272 23.2552C24.7509 23.2247 24.6694 23.1916 24.5829 23.1558C24.4964 23.1254 24.3943 23.0946 24.2774 23.0642C24.1652 23.0338 24.0253 23.0183 23.8573 23.0183C23.613 23.0183 23.3991 23.0666 23.2156 23.1636C23.0321 23.2602 22.8793 23.3903 22.7573 23.5532C22.635 23.7161 22.5434 23.9047 22.4822 24.1186C22.416 24.3325 22.3829 24.5593 22.3829 24.7986C22.3829 25.0378 22.416 25.2544 22.4822 25.4633C22.5434 25.6721 22.635 25.8556 22.7573 26.0135C22.8847 26.1662 23.0398 26.2913 23.2234 26.3879C23.4069 26.4795 23.6181 26.5255 23.8573 26.5255C24.0253 26.5255 24.1679 26.5102 24.2852 26.4795C24.4075 26.444 24.5143 26.4058 24.6059 26.3649C24.7025 26.3244 24.7894 26.2862 24.8658 26.2504C24.9421 26.2149 25.0212 26.197 25.1027 26.197C25.1892 26.197 25.2656 26.2172 25.3318 26.2581C25.398 26.299 25.4514 26.3447 25.4923 26.3957C25.5329 26.4518 25.5636 26.5102 25.5839 26.5714C25.6042 26.6326 25.6143 26.686 25.6143 26.7319H25.614Z" fill="#292B32"/>
</svg>
