<svg id="ic-qr" xmlns="http://www.w3.org/2000/svg" width="192" height="192" viewBox="0 0 192 192">
  <path id="Icon_metro-qrcode" data-name="Icon metro-qrcode" d="M61.714,13.285h-48v48h48Zm12-12v72h-72v-72Zm-48,24h24v24h-24Zm156-12h-48v48h48v-48Zm12-12v72h-72v-72h72Zm-48,24h24v24h-24Zm-84,108h-48v48h48v-48Zm12-12v72h-72v-72Zm-48,24h24v24h-24Zm60-144h12v12h-12Zm12,12h12v12h-12Zm-12,12h12v12h-12Zm12,12h12v12h-12Zm-12,12h12v12h-12Zm12,12h12v12h-12Zm-12,12h12v12h-12Zm0,24h12v12h-12Zm12,12h12v12h-12Zm-12,12h12v12h-12Zm12,12h12v12h-12Zm-12,12h12v12h-12Zm12,12h12v12h-12Zm-12,12h12v12h-12Zm12,12h12v12h-12Zm84-84h12v12h-12Zm-168,0h12v12h-12Zm12-12h12v12h-12Zm-24,0h12v12h-12Zm48,0h12v12h-12Zm12,12h12v12h-12Zm12-12h12v12h-12Zm36,12h12v12h-12Zm12-12h12v12h-12Zm12,12h12v12h-12Zm12-12h12v12h-12Zm12,12h12v12h-12Zm12-12h12v12h-12Zm12,36h12v12h-12Zm-72,0h12v12h-12Zm12-12h12v12h-12Zm12,12h12v12h-12Zm24,0h12v12h-12Zm12-12h12v12h-12Zm12,36h12v12h-12Zm-72,0h12v12h-12Zm12-12h12v12h-12Zm24,0h12v12h-12Zm12,12h12v12h-12Zm12-12h12v12h-12Zm12,36h12v12h-12Zm-60-12h12v12h-12Zm12,12h12v12h-12Zm12-12h12v12h-12Zm12,12h12v12h-12Zm-36,12h12v12h-12Zm24,0h12v12h-12Zm24,0h12v12h-12Z" transform="translate(-1.714 -1.285)" fill="#004494"/>
  <rect id="Rectangle_9946" data-name="Rectangle 9946" width="192" height="192" fill="none"/>
</svg>
