<svg width="88" height="98" viewBox="0 0 88 98" fill="none" xmlns="http://www.w3.org/2000/svg">
<g clip-path="url(#clip0_4964_22040)">
<path d="M82.8974 4.58398H24.4878C22.0002 4.58398 19.9836 6.5965 19.9836 9.07907V91.711C19.9836 94.1937 22.0002 96.2061 24.4878 96.2061H82.8974C85.3849 96.2061 87.4016 94.1937 87.4016 91.711V9.07907C87.4016 6.5965 85.3849 4.58398 82.8974 4.58398Z" fill="#FFE998"/>
<path d="M82.8937 95.7576H80.4403C78.2898 95.7576 76.1426 95.7576 73.992 95.7576C70.933 95.7576 67.8706 95.7576 64.8116 95.7576H54.2893C50.7417 95.7576 47.1976 95.7576 43.65 95.7576C40.5325 95.7576 37.415 95.7576 34.2941 95.7576H27.4605C26.4797 95.7576 25.4991 95.7679 24.5184 95.7576C22.5743 95.7403 20.8779 94.3908 20.5029 92.4678C20.4306 92.0934 20.434 91.7191 20.434 91.3415V82.0421C20.434 79.3122 20.434 76.5822 20.434 73.8556C20.434 70.6139 20.434 67.3722 20.434 64.1306V10.9896C20.434 10.3543 20.4271 9.71904 20.434 9.08375C20.4616 6.85853 22.2543 5.06256 24.4875 5.03508C24.7146 5.03508 24.9416 5.03508 25.1722 5.03508C26.7413 5.03508 28.3068 5.03508 29.876 5.03508H37.883C41.2379 5.03508 44.5928 5.03508 47.9477 5.03508C51.5228 5.03508 55.0979 5.03508 58.673 5.03508C62.0589 5.03508 65.4448 5.03508 68.8306 5.03508C71.5628 5.03508 74.2948 5.03508 77.027 5.03508H82.0128C82.2984 5.03508 82.5874 5.03508 82.873 5.03508C84.8962 5.05568 86.665 6.5426 86.9196 8.57209C87.009 9.27949 86.9471 10.0281 86.9471 10.7389V91.2144C86.9471 91.3792 86.9471 91.5441 86.9471 91.7088C86.9231 93.9376 85.1269 95.7266 82.8937 95.7576C82.3122 95.7645 82.3122 96.6675 82.8937 96.6573C85.3884 96.623 87.5149 94.7685 87.8142 92.2789C87.852 91.9561 87.8486 91.6368 87.8486 91.3105C87.8486 90.1945 87.8486 89.0785 87.8486 87.9589C87.8486 86.8396 87.8486 83.8279 87.8486 81.7607V10.5913C87.8486 9.68813 87.9174 8.72662 87.6938 7.84752C87.1364 5.66694 85.12 4.16285 82.8869 4.13881C82.6322 4.13881 82.3741 4.13881 82.1195 4.13881C80.4885 4.13881 78.8575 4.13881 77.2265 4.13881C74.4806 4.13881 71.7347 4.13881 68.9889 4.13881C65.5789 4.13881 62.169 4.13881 58.7624 4.13881C55.1427 4.13881 51.5228 4.13881 47.9029 4.13881C44.5239 4.13881 41.145 4.13881 37.766 4.13881C35.0821 4.13881 32.3947 4.13881 29.7108 4.13881C28.1693 4.13881 26.6312 4.13881 25.0896 4.13881C24.804 4.13881 24.5184 4.12851 24.2363 4.14568C21.745 4.28648 19.7218 6.28506 19.5463 8.76783C19.4982 9.44775 19.536 10.138 19.536 10.8179V74.017C19.536 76.7677 19.536 79.5148 19.536 82.2654C19.536 85.0161 19.536 86.2832 19.536 88.2955V91.4307C19.536 92.0489 19.5842 92.6601 19.7769 93.2507C20.4479 95.2871 22.3679 96.6435 24.5013 96.6675C25.4372 96.6778 26.3765 96.6675 27.3125 96.6675C29.5698 96.6675 31.8269 96.6675 34.0843 96.6675C37.2292 96.6675 40.3742 96.6675 43.5192 96.6675H64.8976C67.9738 96.6675 71.05 96.6675 74.1296 96.6675C76.2803 96.6675 78.4308 96.6675 80.5814 96.6675H82.9006C83.4821 96.6675 83.4821 95.7679 82.9006 95.7679L82.8937 95.7576Z" fill="#2E293B"/>
<path d="M81.0667 3.03027H22.657C20.1695 3.03027 18.1528 5.04279 18.1528 7.52536V90.1573C18.1528 92.6399 20.1695 94.6524 22.657 94.6524H81.0667C83.5542 94.6524 85.5709 92.6399 85.5709 90.1573V7.52536C85.5709 5.04279 83.5542 3.03027 81.0667 3.03027Z" fill="#FFE998"/>
<path d="M81.0667 94.2019H78.6134C76.4627 94.2019 74.3156 94.2019 72.165 94.2019H62.9847C59.4783 94.2019 55.9686 94.2019 52.4623 94.2019C48.956 94.2019 45.3706 94.2019 41.823 94.2019C38.7055 94.2019 35.5881 94.2019 32.4671 94.2019C30.1893 94.2019 27.9114 94.2019 25.6334 94.2019C24.6528 94.2019 23.6722 94.2123 22.6914 94.2019C20.7473 94.1847 19.051 92.8352 18.676 90.9121C18.6037 90.5378 18.6071 90.1635 18.6071 89.7858C18.6071 88.7075 18.6071 87.6293 18.6071 86.551C18.6071 85.4727 18.6071 82.5091 18.6071 80.4865C18.6071 77.7566 18.6071 75.0265 18.6071 72.3C18.6071 69.0583 18.6071 65.8166 18.6071 62.5748C18.6071 59.3333 18.6071 55.5249 18.6071 51.9982V41.2739C18.6071 37.8537 18.6071 34.43 18.6071 31.0097V9.43397C18.6071 8.79869 18.6002 8.1634 18.6071 7.52812C18.6346 5.3029 20.4273 3.50692 22.6605 3.47944C22.8877 3.47944 23.1147 3.47944 23.3452 3.47944C24.9143 3.47944 26.4799 3.47944 28.0489 3.47944C30.7191 3.47944 33.3859 3.47944 36.0561 3.47944C39.411 3.47944 42.7658 3.47944 46.1207 3.47944C49.6959 3.47944 53.271 3.47944 56.8461 3.47944C60.2319 3.47944 63.6177 3.47944 67.0037 3.47944C69.7357 3.47944 72.4679 3.47944 75.1999 3.47944H80.1858C80.4714 3.47944 80.7605 3.47944 81.0461 3.47944C83.0693 3.50004 84.8379 4.98697 85.0926 7.01645C85.1821 7.72385 85.1201 8.47246 85.1201 9.18329V21.216C85.1201 24.231 85.1201 27.2461 85.1201 30.2611C85.1201 33.2762 85.1201 37.0914 85.1201 40.5081V61.8332C85.1201 65.0886 85.1201 68.3475 85.1201 71.6029C85.1201 74.8583 85.1201 77.1728 85.1201 79.9578V89.6588C85.1201 89.8236 85.1201 89.9884 85.1201 90.1532C85.096 92.3819 83.2998 94.171 81.0667 94.2019C80.4852 94.2089 80.4852 95.1119 81.0667 95.1016C83.5614 95.0672 85.6878 93.2129 85.9872 90.7233C86.0251 90.4005 86.0217 90.0811 86.0217 89.7549V80.2049C86.0217 77.4131 86.0217 74.6213 86.0217 71.8329C86.0217 69.0445 86.0217 65.2499 86.0217 61.9602C86.0217 58.4095 86.0217 54.8587 86.0217 51.308C86.0217 47.7573 86.0217 44.076 86.0217 40.4601V9.02876C86.0217 8.12563 86.0904 7.16412 85.8668 6.28501C85.3093 4.10442 83.2929 2.60035 81.0598 2.57631C80.8051 2.57631 80.5472 2.57631 80.2925 2.57631C78.6615 2.57631 77.0305 2.57631 75.3995 2.57631H67.1619C63.752 2.57631 60.342 2.57631 56.9355 2.57631C53.3156 2.57631 49.6959 2.57631 46.076 2.57631C42.697 2.57631 39.3181 2.57631 35.939 2.57631C33.255 2.57631 30.5677 2.57631 27.8839 2.57631C26.3422 2.57631 24.8041 2.57631 23.2626 2.57631C22.977 2.57631 22.6914 2.56601 22.4094 2.58318C19.9181 2.72396 17.8949 4.72255 17.7194 7.20532C17.6711 7.88525 17.7091 8.57548 17.7091 9.25541V41.14C17.7091 44.7594 17.7091 48.3788 17.7091 51.9982C17.7091 55.6177 17.7091 59.1065 17.7091 62.6607C17.7091 65.9264 17.7091 69.1887 17.7091 72.4544C17.7091 75.2051 17.7091 77.9523 17.7091 80.703C17.7091 82.7119 17.7091 84.7206 17.7091 86.7331C17.7091 88.7454 17.7091 88.8208 17.7091 89.8682C17.7091 90.4864 17.7572 91.0976 17.9499 91.6882C18.6208 93.7245 20.5409 95.0811 22.6742 95.1051C23.6102 95.1154 24.5496 95.1051 25.4855 95.1051C27.7427 95.1051 30 95.1051 32.2572 95.1051H41.6922C45.2673 95.1051 48.8425 95.1051 52.4176 95.1051C55.9927 95.1051 59.5197 95.1051 63.0741 95.1051H72.3061C74.4567 95.1051 76.6073 95.1051 78.7578 95.1051H81.077C81.6585 95.1051 81.6585 94.2054 81.077 94.2054L81.0667 94.2019Z" fill="#2E293B"/>
<path d="M79.4361 1.24023H21.0264C18.5387 1.24023 16.5222 3.25275 16.5222 5.73532V88.3673C16.5222 90.8499 18.5387 92.8624 21.0264 92.8624H79.4361C81.9236 92.8624 83.9402 90.8499 83.9402 88.3673V5.73532C83.9402 3.25275 81.9236 1.24023 79.4361 1.24023Z" fill="#FFE998"/>
<path d="M79.4357 92.4119H76.9824C74.8317 92.4119 72.6846 92.4119 70.5341 92.4119H50.8279C47.2803 92.4119 43.7362 92.4119 40.1886 92.4119C37.071 92.4119 33.9536 92.4119 30.8326 92.4119C28.5548 92.4119 26.2769 92.4119 23.999 92.4119C23.0183 92.4119 22.0377 92.4222 21.0571 92.4119C19.1129 92.3948 17.4166 91.0451 17.0415 89.1221C16.9692 88.7478 16.9726 88.3736 16.9726 87.9958V78.6966C16.9726 75.9665 16.9726 73.2365 16.9726 70.5099C16.9726 67.7834 16.9726 64.0266 16.9726 60.7849C16.9726 57.5432 16.9726 53.7349 16.9726 50.2081V39.4839C16.9726 36.0636 16.9726 32.6399 16.9726 29.2196V7.64393C16.9726 7.00865 16.9658 6.37336 16.9726 5.73808C17.0001 3.51286 18.7929 1.71688 21.026 1.68941C21.2532 1.68941 21.4802 1.68941 21.7107 1.68941C23.2799 1.68941 24.8455 1.68941 26.4145 1.68941H34.4216C37.7765 1.68941 41.1314 1.68941 44.4863 1.68941C48.0614 1.68941 51.6365 1.68941 55.2116 1.68941C58.5974 1.68941 61.9834 1.68941 65.3692 1.68941C68.1013 1.68941 70.8334 1.68941 73.5655 1.68941H78.5514C78.837 1.68941 79.126 1.68941 79.4116 1.68941C81.4349 1.71001 83.2036 3.19693 83.4581 5.22641C83.5476 5.93381 83.4857 6.68242 83.4857 7.39325V87.8687C83.4857 88.0335 83.4857 88.1984 83.4857 88.3632C83.4616 90.5919 81.6655 92.3809 79.4322 92.4119C78.8507 92.4188 78.8507 93.3219 79.4322 93.3116C81.9269 93.2773 84.0534 91.4228 84.3528 88.9332C84.3906 88.6105 84.3872 88.2911 84.3872 87.9648V38.67C84.3872 35.2291 84.3872 31.7848 84.3872 28.344C84.3872 24.9031 84.3872 22.2556 84.3872 19.213V7.23872C84.3872 6.33559 84.4561 5.37408 84.2323 4.49497C83.675 2.3144 81.6586 0.810306 79.4254 0.786268C79.1708 0.786268 78.9127 0.786268 78.658 0.786268C77.027 0.786268 75.396 0.786268 73.765 0.786268C71.0192 0.786268 68.2733 0.786268 65.5276 0.786268C62.1175 0.786268 58.7076 0.786268 55.3011 0.786268H44.4415C41.0626 0.786268 37.6836 0.786268 34.3046 0.786268C31.6207 0.786268 28.9333 0.786268 26.2494 0.786268C24.7079 0.786268 23.1698 0.786268 21.6283 0.786268C21.3427 0.786268 21.0571 0.775966 20.7749 0.793136C18.2837 0.93393 16.2604 2.93251 16.0849 5.41528C16.0367 6.09521 16.0746 6.78544 16.0746 7.46537V70.6645C16.0746 73.415 16.0746 76.1622 16.0746 78.9129C16.0746 81.6636 16.0746 82.9307 16.0746 84.943V88.0781C16.0746 88.6963 16.1227 89.3075 16.3154 89.8981C16.9864 91.9346 18.9064 93.291 21.0398 93.315C21.9757 93.3253 22.9151 93.315 23.8511 93.315H40.0577C43.633 93.315 47.2081 93.315 50.7831 93.315H61.4397C64.5159 93.315 67.5921 93.315 70.6717 93.315C72.8223 93.315 74.9729 93.315 77.1234 93.315H79.4425C80.0242 93.315 80.0242 92.4154 79.4425 92.4154L79.4357 92.4119Z" fill="#2E293B"/>
<path d="M35.7086 7.4771C35.2338 6.76627 34.3184 6.51215 33.5202 6.78C32.629 7.07875 32.0647 7.92695 31.7928 8.78201C31.4866 9.74353 31.4935 10.8252 31.8066 11.7833C32.099 12.6865 32.684 13.6617 33.7335 13.7441C34.8415 13.83 35.3198 12.7483 35.5194 11.8486C35.6466 11.282 34.7761 11.0416 34.6488 11.6082C34.5214 12.1748 34.2566 13.1672 33.4754 12.7517C33.1039 12.5525 32.8904 12.1164 32.746 11.7421C32.5808 11.3094 32.4879 10.8527 32.4741 10.3891C32.4501 9.56497 32.6462 8.61374 33.2414 8.00593C33.6577 7.57668 34.5283 7.32944 34.931 7.93038C35.2509 8.41114 36.0355 7.96129 35.7121 7.4771H35.7086Z" fill="#2E293B"/>
<path d="M39.2805 6.93833C38.2069 6.27213 36.8822 6.91429 36.3832 7.97882C35.8499 9.11548 36.0804 10.5509 36.5277 11.6841C36.9475 12.7452 37.9729 13.7685 39.222 13.4286C40.3506 13.1195 40.8667 11.8077 40.9528 10.7501C41.0525 9.52412 40.5777 8.26042 39.6831 7.41566C39.2598 7.01731 38.6199 7.65259 39.043 8.05437C39.6108 8.59007 39.9721 9.32152 40.0479 10.101C40.1235 10.8805 39.9653 11.7425 39.4112 12.2953C38.7712 12.9341 37.9144 12.3915 37.5497 11.7425C37.3294 11.351 37.2125 10.9046 37.1196 10.465C37.0129 9.97741 36.9372 9.46575 37.0163 8.96782C37.1436 8.15739 37.9283 7.15123 38.8297 7.71097C39.3252 8.0166 39.7794 7.23708 39.284 6.93146L39.2805 6.93833Z" fill="#2E293B"/>
<path d="M42.7009 13.0251C42.8281 11.1879 42.9554 9.34731 43.0794 7.51012L42.1916 7.63031C42.9899 9.57052 43.7916 11.5142 44.59 13.4543C44.6656 13.6397 44.8101 13.784 45.0269 13.784C45.2127 13.784 45.4295 13.6466 45.464 13.4543C45.8148 11.4077 46.042 9.34044 46.1384 7.26632C46.1659 6.68597 45.2608 6.68597 45.2368 7.26632C45.1473 9.26146 44.934 11.2463 44.5968 13.214H45.4674C44.669 11.2738 43.8673 9.33014 43.0691 7.38993C42.8798 6.92977 42.2191 6.97785 42.1812 7.51012C42.0539 9.34731 41.9267 11.1879 41.8027 13.0251C41.7615 13.6054 42.6664 13.602 42.7043 13.0251H42.7009Z" fill="#2E293B"/>
<path d="M47.4593 8.0376C48.5329 8.06163 49.6064 8.0376 50.68 7.97579C50.9243 7.96205 51.1308 7.78005 51.1308 7.52594C51.1308 7.29242 50.9243 7.05892 50.68 7.07609C49.6064 7.14132 48.5329 7.16194 47.4593 7.13789C47.215 7.13102 47.0085 7.34737 47.0085 7.58775C47.0085 7.82813 47.215 8.03417 47.4593 8.0376Z" fill="#2E293B"/>
<path d="M48.5603 7.55928C48.5465 9.41706 48.5293 11.2749 48.5156 13.1292C48.5121 13.7096 49.4136 13.7096 49.417 13.1292C49.4308 11.2714 49.448 9.41364 49.4618 7.55928C49.4653 6.97894 48.5637 6.97894 48.5603 7.55928Z" fill="#2E293B"/>
<path d="M52.6311 13.6136C52.6517 11.7181 52.6759 9.82593 52.6965 7.93037C52.7034 7.35003 51.7985 7.35003 51.7951 7.93037C51.7743 9.82593 51.7503 11.7181 51.7297 13.6136C51.7228 14.194 52.6277 14.194 52.6311 13.6136Z" fill="#2E293B"/>
<path d="M52.3835 8.05007C53.2403 7.64485 54.4928 8.00542 54.51 9.09056C54.5272 10.1757 53.1199 10.2272 52.3112 10.1997L52.4316 11.0857C52.9375 10.9758 53.2815 11.6523 53.4984 11.9923C53.8562 12.5486 54.2175 13.1049 54.5754 13.6577C54.8885 14.1419 55.673 13.6922 55.3565 13.2044C54.9057 12.5074 54.479 11.7931 54.0008 11.1166C53.574 10.5122 52.9684 10.0452 52.1908 10.2169C51.6782 10.3302 51.8157 11.0857 52.3112 11.1029C53.0373 11.1269 53.8149 11.1132 54.4653 10.7492C55.1155 10.3852 55.4769 9.67433 55.4046 8.93946C55.3324 8.20459 54.8954 7.52122 54.2038 7.20874C53.4674 6.87564 52.6485 6.93058 51.9293 7.27054C51.4029 7.51779 51.864 8.29731 52.3835 8.05007Z" fill="#2E293B"/>
<path d="M56.6466 13.8263C57.3142 11.7212 57.9851 9.61958 58.6527 7.51454H57.7822C58.343 9.60928 58.9005 11.7006 59.4614 13.7953C59.6127 14.3619 60.4455 14.1216 60.3319 13.555C60.3044 13.4107 60.2734 13.2665 60.2459 13.1188C60.1324 12.5522 59.2618 12.7926 59.3754 13.3592C59.4028 13.5034 59.4338 13.6477 59.4614 13.7953L60.3319 13.555C59.771 11.4602 59.2136 9.3689 58.6527 7.27416C58.5357 6.83118 57.913 6.85866 57.7822 7.27416C57.1146 9.3792 56.4436 11.4808 55.7761 13.5858C55.6007 14.1387 56.4712 14.3756 56.6466 13.8263Z" fill="#2E293B"/>
<path d="M57.3763 12.2014C57.4211 12.1945 57.4623 12.1876 57.5071 12.1842C57.4142 12.1979 57.5655 12.1773 57.5827 12.1739C57.6687 12.1636 57.7548 12.1533 57.8442 12.1464C58.0266 12.1293 58.2056 12.1155 58.388 12.1087C58.7527 12.0915 59.1139 12.0915 59.4787 12.1087C59.7162 12.119 59.9398 11.8923 59.9295 11.6588C59.9192 11.4047 59.7299 11.2192 59.4787 11.2089C58.6942 11.1712 57.9165 11.2192 57.1389 11.336C56.9048 11.3703 56.7535 11.6794 56.8224 11.8889C56.9049 12.143 57.1252 12.2426 57.3763 12.2048V12.2014Z" fill="#2E293B"/>
<path d="M64.5229 7.72382C63.9586 7.04389 62.9228 7.08511 62.2553 7.57616C61.5362 8.10499 61.1094 9.01157 60.9615 9.87693C60.8135 10.7423 60.9064 11.666 61.2677 12.4971C61.6291 13.3281 62.3241 14.1969 63.3151 14.19C63.8381 14.1866 64.2785 13.9084 64.5675 13.4861C64.8876 13.019 64.9426 12.4353 64.984 11.8858C65.0287 11.3089 64.1272 11.3089 64.0824 11.8858C64.0515 12.2739 64.0308 12.7203 63.7796 13.0431C63.5285 13.3658 63.1258 13.3384 62.8127 13.122C62.2037 12.6997 61.8871 11.8171 61.8115 11.1097C61.7289 10.3439 61.8767 9.55071 62.276 8.88795C62.5857 8.37628 63.3564 7.72726 63.8828 8.36597C64.0377 8.55485 64.3577 8.52394 64.5229 8.36597C64.7121 8.18054 64.6778 7.91612 64.5229 7.72726V7.72382Z" fill="#2E293B"/>
<path d="M65.3558 8.13954C66.3845 8.19793 67.4168 8.25286 68.4457 8.31124C68.6899 8.32498 68.8965 8.0949 68.8965 7.8614C68.8965 7.60728 68.6899 7.42528 68.4457 7.41154C67.4168 7.35317 66.3845 7.29822 65.3558 7.23984C65.1114 7.2261 64.905 7.45618 64.905 7.6897C64.905 7.94381 65.1114 8.12581 65.3558 8.13954Z" fill="#2E293B"/>
<path d="M66.419 7.70581C66.2366 9.71813 66.2228 11.7407 66.3811 13.7565C66.4259 14.33 67.3308 14.3369 67.2826 13.7565C67.1278 11.7407 67.1415 9.71813 67.3205 7.70581C67.372 7.1289 66.4706 7.13233 66.419 7.70581Z" fill="#2E293B"/>
<path d="M59.2584 76.483C59.8228 78.6122 60.012 80.8237 59.7883 83.018C59.6266 84.6216 58.9246 87.0082 56.9254 87.0632C56.1271 87.0838 55.3839 86.5859 54.9882 85.9128C54.5339 85.1402 54.565 84.1579 54.9056 83.3476C55.642 81.5894 57.6412 80.7927 59.4201 80.6519C60.4558 80.5695 61.7083 80.5318 62.6511 81.04C63.3772 81.4314 63.9174 82.3483 63.3634 83.1003L64.4645 83.5639C65.0151 82.0702 65.7445 80.6554 66.6219 79.3264L65.5003 79.0242C65.5553 80.3188 65.6104 81.6134 65.6653 82.9046C65.6861 83.3853 66.3329 83.7493 66.6942 83.3304C67.5613 82.3174 68.4284 81.3044 69.2955 80.2948L68.2909 79.711C67.9158 80.7515 67.902 81.8813 68.2392 82.9321C68.3872 83.3887 68.893 83.4883 69.244 83.1964C70.2178 82.3895 71.0504 81.4074 71.6767 80.305C72.3374 79.1409 72.8948 77.764 72.6367 76.4076C72.4165 75.2469 71.4737 74.2544 70.2521 74.2132C68.917 74.1685 67.8779 75.2777 67.871 76.5792C67.8675 77.3518 69.0719 77.3553 69.0754 76.5792C69.0822 75.7311 69.9597 75.1129 70.7407 75.5559C71.5218 75.9988 71.5941 76.981 71.4323 77.733C71.0435 79.5461 69.7979 81.1841 68.3906 82.3448L69.3953 82.6092C69.1166 81.7439 69.1373 80.8819 69.447 80.0269C69.6466 79.4707 68.8241 78.9933 68.4422 79.4431C67.5751 80.4562 66.708 81.4691 65.8409 82.4788L66.8697 82.9046C66.8146 81.61 66.7596 80.3153 66.7045 79.0242C66.677 78.4199 65.9131 78.2207 65.5827 78.722C64.6469 80.1367 63.8899 81.6546 63.3049 83.248C63.0503 83.9348 64.0343 84.2164 64.406 83.7116C65.0495 82.8394 64.8465 81.6203 64.2133 80.8029C63.477 79.8483 62.2383 79.5358 61.089 79.45C58.6941 79.2714 55.9896 79.8311 54.4446 81.816C53.0097 83.6532 53.0922 86.5446 55.2394 87.8152C56.2407 88.4059 57.4451 88.399 58.4635 87.853C59.4821 87.3069 60.2116 86.2527 60.5867 85.1436C61.0511 83.7699 61.1131 82.2246 61.0821 80.7892C61.0476 79.2337 60.8206 77.6781 60.4215 76.174C60.2253 75.4253 59.0623 75.7448 59.2619 76.4934L59.2584 76.483Z" fill="#2E293B"/>
<path d="M71.8246 85.2882C72.148 83.9455 72.4887 82.4105 73.6345 81.5073C74.0509 81.1777 74.7253 80.8515 75.2381 81.1469C75.6853 81.4043 75.9022 82.0054 76.0776 82.493C76.1876 82.7986 76.4871 83.0046 76.8174 82.9119C77.1133 82.8294 77.3508 82.4791 77.2371 82.1735C76.962 81.418 76.635 80.6317 75.9365 80.1681C75.121 79.6256 74.0577 79.8179 73.2664 80.3055C71.6319 81.3116 71.0813 83.2209 70.6616 84.9722C70.4826 85.7243 71.6422 86.0437 71.8212 85.2916L71.8246 85.2882Z" fill="#2E293B"/>
<path d="M56.8569 73.4211C57.256 73.6545 57.6448 73.9053 58.0233 74.173C58.2057 74.3001 58.3778 74.4512 58.5671 74.5715C58.5361 74.5507 58.4845 74.5096 58.5464 74.5542C58.5671 74.5715 58.5911 74.5886 58.6117 74.6057C58.66 74.6435 58.7115 74.6848 58.7597 74.7225C58.8527 74.798 58.9456 74.8736 59.035 74.9492C59.1589 75.0522 59.293 75.1242 59.4617 75.1242C59.6097 75.1242 59.7852 75.0591 59.8884 74.9492C60.0948 74.7259 60.1464 74.3139 59.8884 74.101C59.1279 73.4622 58.3193 72.8853 57.4659 72.3806C57.1942 72.2191 56.7949 72.3084 56.6436 72.5969C56.4921 72.8853 56.5713 73.2493 56.8603 73.4176L56.8569 73.4211Z" fill="#2E293B"/>
<path d="M24.2707 20.3707C30.9254 20.2677 37.5835 20.2711 44.2383 20.3913C50.8931 20.5114 57.5478 20.7382 64.1956 21.0815C67.9601 21.2738 71.7244 21.5039 75.4888 21.7683C76.263 21.8233 76.2595 20.6214 75.4888 20.5664C68.8478 20.0994 62.2 19.7422 55.5486 19.4985C48.8973 19.2546 42.2426 19.1207 35.5843 19.1002C31.8131 19.0864 28.0419 19.1139 24.2707 19.1722C23.4965 19.186 23.493 20.3878 24.2707 20.3741V20.3707Z" fill="#2E293B"/>
<path d="M24.1917 23.878C30.8499 23.799 37.5046 23.7887 44.1629 23.8505C50.821 23.9123 57.4757 24.0394 64.1304 24.2386C67.9018 24.3519 71.6695 24.4857 75.4373 24.6437C76.2115 24.6746 76.2115 23.4728 75.4373 23.4418C68.7861 23.1636 62.1313 22.9542 55.4765 22.8169C48.8218 22.6794 42.1637 22.6074 35.5054 22.6074C31.7342 22.6074 27.9629 22.6314 24.1917 22.676C23.4175 22.6863 23.414 23.8883 24.1917 23.878Z" fill="#2E293B"/>
<path d="M24.1469 27.3553C34.7553 27.3793 45.3637 27.4033 55.972 27.4273C58.9553 27.4341 61.9351 27.4411 64.9184 27.448C65.6927 27.448 65.6961 26.2495 64.9184 26.246C54.3101 26.222 43.7018 26.198 33.0933 26.1739L24.1469 26.1533C23.3727 26.1533 23.3693 27.3518 24.1469 27.3553Z" fill="#2E293B"/>
<path d="M23.9541 34.6029C23.9575 36.5603 23.9644 38.5176 23.9678 40.475C23.9678 40.8596 24.3532 41.1653 24.7317 41.0553C26.7756 40.451 28.8849 40.2072 31.0148 40.3239C31.3108 40.3411 31.6583 40.0321 31.617 39.723C31.469 38.6275 31.3211 37.5356 31.1766 36.44C31.1008 35.8734 31.0287 35.3068 30.9461 34.7403C30.8875 34.3316 30.7774 33.9058 30.4746 33.6105C30.1271 33.2739 29.6522 33.1949 29.1877 33.2122C28.651 33.2362 28.1141 33.2808 27.5774 33.3186C26.435 33.3941 25.296 33.4662 24.1536 33.5418C23.3829 33.5934 23.3794 34.7952 24.1536 34.7437C25.1343 34.6785 26.1149 34.6166 27.0991 34.5514C27.5774 34.5204 28.0591 34.4896 28.5374 34.4587C28.7714 34.4449 29.0054 34.4209 29.2428 34.414C29.3494 34.4106 29.5352 34.3831 29.6282 34.4621C29.8174 34.6235 29.8037 35.1524 29.8312 35.3721L30.0204 36.7801C30.1511 37.7622 30.2854 38.7442 30.4161 39.7265L31.0182 39.1254C28.792 39.0018 26.552 39.2663 24.4152 39.9015L25.1791 40.4818C25.1756 38.5245 25.1688 36.5672 25.1653 34.6097C25.1653 33.8371 23.9575 33.8337 23.961 34.6097L23.9541 34.6029Z" fill="#2E293B"/>
<path d="M33.5786 34.8089C42.563 34.5994 51.5507 34.39 60.5349 34.1804C63.0744 34.1221 65.6137 34.0637 68.1496 34.0019C68.9238 33.9847 68.9272 32.7828 68.1496 32.8C59.1654 33.0094 50.1777 33.2189 41.1935 33.4285C38.654 33.4868 36.1147 33.5452 33.5786 33.6069C32.8044 33.6242 32.801 34.826 33.5786 34.8089Z" fill="#2E293B"/>
<path d="M33.3649 37.3899C39.0562 37.3899 44.7474 37.3899 50.4388 37.2801C51.213 37.2664 51.2164 36.0644 50.4388 36.0782C44.7474 36.1881 39.0562 36.1881 33.3649 36.1881C32.5907 36.1881 32.5873 37.3899 33.3649 37.3899Z" fill="#2E293B"/>
<path d="M72.667 37.2053C62.4338 38.1702 52.1454 38.1186 41.8777 38.4141C39.0217 38.4964 36.1657 38.6064 33.3132 38.7746C32.5425 38.8193 32.539 40.0211 33.3132 39.9765C43.5259 39.3722 53.7627 39.5129 63.9822 39.015C66.8828 38.8741 69.7766 38.6818 72.667 38.4071C73.4309 38.3351 73.4379 37.1331 72.667 37.2053Z" fill="#2E293B"/>
<path d="M30.2582 45.6932L24.4154 45.0029C23.9888 44.9514 23.7788 45.4253 23.8339 45.7652C24.1781 47.7948 24.1711 49.8895 23.8099 51.919C23.7445 52.2934 23.9681 52.6848 24.3914 52.6814C25.5027 52.6675 26.6142 52.6538 27.7291 52.6367C28.2727 52.6298 28.8198 52.6367 29.3636 52.6161C29.828 52.599 30.3236 52.52 30.6642 52.1696C31.0049 51.8195 31.0736 51.3421 31.1012 50.8751C31.1356 50.329 31.1631 49.7796 31.1907 49.2337C31.2525 48.1382 31.3111 47.0462 31.3729 45.9507C31.4143 45.178 30.2099 45.1815 30.1687 45.9507C30.1136 46.919 30.062 47.8875 30.0069 48.8525C29.9794 49.3367 29.9519 49.8209 29.9278 50.305C29.914 50.5248 29.9106 50.748 29.89 50.9678C29.8796 51.0743 29.8865 51.2357 29.8108 51.318C29.6422 51.5034 29.0986 51.4176 28.8818 51.421L27.3436 51.4417C26.3595 51.4554 25.3755 51.4657 24.3914 51.4794L24.9729 52.2418C25.3755 49.9856 25.3823 47.709 24.997 45.4493L24.4154 46.2117L30.2582 46.9019C30.5816 46.9398 30.8603 46.5997 30.8603 46.301C30.8603 45.9438 30.5816 45.7378 30.2582 45.7001V45.6932Z" fill="#2E293B"/>
<path d="M33.7992 47.5021C39.4354 47.6874 45.0751 47.509 50.7114 47.351C56.4164 47.1895 62.1283 47.0453 67.83 47.3132C71.0231 47.4608 74.2094 47.739 77.3716 48.2197C77.6951 48.2679 78.0151 48.1373 78.1114 47.8008C78.194 47.5158 78.0117 47.1105 77.6916 47.0625C72.0244 46.204 66.2953 45.9567 60.573 45.9671C54.8405 45.9774 49.1148 46.2349 43.3822 46.3379C40.189 46.3963 36.9924 46.4066 33.7992 46.3001C33.025 46.2761 33.025 47.478 33.7992 47.5021Z" fill="#2E293B"/>
<path d="M33.7234 49.8883C43.3133 49.9296 52.9066 49.9708 62.4965 50.0121C65.1804 50.0223 67.8643 50.0361 70.5448 50.0464C71.319 50.0464 71.3225 48.848 70.5448 48.8445C60.9549 48.8032 51.3616 48.7621 41.7718 48.7208C39.0878 48.7105 36.4039 48.6968 33.7234 48.6865C32.9492 48.6865 32.9458 49.8849 33.7234 49.8883Z" fill="#2E293B"/>
<path d="M33.7234 52.2204H44.4454C45.2196 52.2204 45.223 51.0186 44.4454 51.0186H33.7234C32.9492 51.0186 32.9458 52.2204 33.7234 52.2204Z" fill="#2E293B"/>
<path d="M24.5116 58.4017C24.5151 60.3592 24.5219 62.3165 24.5254 64.2738C24.5254 64.6584 24.9108 64.9641 25.2893 64.8541C27.3331 64.2498 29.4424 64.006 31.5723 64.1228C31.8683 64.1399 32.2158 63.8309 32.1746 63.5219C32.0266 62.4263 31.8787 61.3344 31.7341 60.2389C31.6584 59.6723 31.5861 59.1058 31.5036 58.5391C31.4451 58.1304 31.335 57.7046 31.0322 57.4093C30.6846 57.0727 30.2098 56.9937 29.7452 57.011C29.2085 57.035 28.6717 57.0796 28.135 57.1174C26.9926 57.193 25.8536 57.265 24.7112 57.3406C23.9404 57.3922 23.937 58.594 24.7112 58.5426C25.6918 58.4773 26.6725 58.4154 27.6567 58.3503C28.135 58.3193 28.6167 58.2884 29.095 58.2575C29.3289 58.2437 29.5628 58.2197 29.8003 58.2128C29.907 58.2094 30.0928 58.182 30.1857 58.261C30.375 58.4223 30.3612 58.9512 30.3887 59.1709L30.578 60.5789C30.7087 61.561 30.8429 62.5431 30.9736 63.5253L31.5758 62.9242C29.3495 62.8007 27.1095 63.0651 24.9727 63.7003L25.7366 64.2806C25.7332 62.3233 25.7262 60.366 25.7228 58.4086C25.7228 57.6359 24.5151 57.6325 24.5185 58.4086L24.5116 58.4017Z" fill="#2E293B"/>
<path d="M34.1393 58.6058C43.1235 58.3962 52.1112 58.1867 61.0954 57.9773L68.7103 57.7987C69.4845 57.7815 69.4879 56.5796 68.7103 56.5969C59.726 56.8063 50.7383 57.0158 41.754 57.2252L34.1393 57.4038C33.3651 57.4209 33.3617 58.6229 34.1393 58.6058Z" fill="#2E293B"/>
<path d="M33.9225 61.1868C39.6137 61.1868 45.305 61.1868 50.9962 61.0769C51.7704 61.0632 51.774 59.8613 50.9962 59.8751C45.305 59.985 39.6137 59.985 33.9225 59.985C33.1483 59.985 33.1448 61.1868 33.9225 61.1868Z" fill="#2E293B"/>
<path d="M73.2283 61.0061C62.995 61.971 52.7066 61.9194 42.4389 62.2147C39.5829 62.2972 36.727 62.407 33.8745 62.5753C33.1037 62.62 33.1003 63.8219 33.8745 63.7773C44.0871 63.1728 54.3239 63.3137 64.5434 62.8158C67.444 62.6749 70.338 62.4826 73.2283 62.2079C73.9922 62.1359 73.9991 60.9339 73.2283 61.0061Z" fill="#2E293B"/>
<path d="M13.8894 86.5125C20.7211 86.5125 26.2594 80.9854 26.2594 74.1675C26.2594 67.3494 20.7211 61.8223 13.8894 61.8223C7.0575 61.8223 1.51923 67.3494 1.51923 74.1675C1.51923 80.9854 7.0575 86.5125 13.8894 86.5125Z" fill="#DCF2CC"/>
<path d="M25.1824 77.4663C23.7923 82.1296 19.5634 85.5739 14.6773 85.8863C9.72918 86.2023 5.00825 83.3212 3.05729 78.7677C1.11307 74.228 2.31058 68.816 5.95452 65.4886C9.56398 62.1919 15.0179 61.4879 19.35 63.7578C23.6615 66.0173 26.1941 70.842 25.5678 75.6703C25.4886 76.2781 25.3544 76.879 25.1824 77.4663C24.9691 78.2114 26.1286 78.5308 26.342 77.7856C27.8354 72.5832 25.905 66.9343 21.5487 63.7166C17.1926 60.499 11.0746 60.4131 6.61519 63.4452C2.15568 66.4775 -0.0602579 72.226 1.35056 77.5006C2.76138 82.7752 7.39627 86.5835 12.7916 87.0643C18.1044 87.5382 23.369 84.5128 25.616 79.6881C25.9016 79.0733 26.1458 78.4381 26.3385 77.7856C26.5587 77.0438 25.3991 76.7245 25.1789 77.4663H25.1824Z" fill="#2E293B"/>
<path d="M37.126 57.5662C37.2671 57.0889 37.2189 56.4604 36.9574 56.0278C36.4447 55.183 35.1235 54.565 34.2047 55.2242C29.8657 58.3389 25.7812 61.7832 22.0444 65.6018C20.2276 67.4561 18.4968 69.3894 16.8486 71.3949C15.9403 72.5007 15.0525 73.6201 14.1923 74.7602C14.0168 74.9903 13.8447 75.2238 13.6692 75.4538C13.566 75.5912 13.4593 75.732 13.3527 75.8694C13.3424 75.8831 13.3045 75.9277 13.2667 75.9792C13.2667 75.9792 13.2666 75.9758 13.2632 75.9724C12.9329 75.2788 12.6197 74.5747 12.3204 73.8674C12.1828 73.5412 12.0485 73.2114 11.9144 72.8818C11.9006 72.8508 11.8903 72.8234 11.8835 72.8028C11.8731 72.7754 11.8627 72.7444 11.8455 72.7033C11.7629 72.48 11.6769 72.2602 11.5944 72.0371C11.3294 71.3159 11.0816 70.5879 10.8443 69.8564C10.5207 68.8503 9.48169 68.057 8.38396 68.3833C7.38614 68.6786 6.56027 69.7603 6.90785 70.8385C7.82307 73.6853 8.91393 76.5562 10.3315 79.1934C10.8374 80.1343 11.6494 80.9138 12.7746 80.9757C13.831 81.0341 14.643 80.4538 15.345 79.7291C16.3875 78.6475 17.2477 77.4009 18.1597 76.2093C18.576 75.6668 18.9993 75.1276 19.4293 74.5954C19.5016 74.5061 19.5739 74.4168 19.6426 74.3275C19.6599 74.307 19.6737 74.2897 19.6874 74.2725C19.7046 74.2554 19.7218 74.2314 19.7459 74.2038C20.0005 73.8982 20.2552 73.5892 20.5132 73.2836C21.3976 72.2396 22.3059 71.2163 23.2385 70.2136C25.1034 68.2082 27.0579 66.2886 29.1018 64.4617C30.2511 63.4349 31.4244 62.4391 32.6253 61.4707C33.2481 60.9692 33.8778 60.4782 34.5109 59.994C34.8274 59.7537 35.1475 59.5133 35.4675 59.2764C35.6052 59.1734 35.7428 59.0738 35.8803 58.9708C35.8977 58.9604 35.9045 58.9535 35.9148 58.9432C35.994 58.8849 36.073 58.8299 36.1522 58.7715C36.6099 58.4453 36.9609 58.126 37.1225 57.5628L37.126 57.5662Z" fill="#F67875"/>
<path d="M37.7072 57.7261C37.9722 56.6821 37.659 55.6486 36.8056 54.9824C36.0625 54.3986 35.0405 54.1411 34.1562 54.56C33.6504 54.8004 33.1962 55.2159 32.7454 55.5456C32.2361 55.9232 31.7304 56.3044 31.2279 56.6926C30.2644 57.4308 29.3148 58.1863 28.3823 58.9623C24.6077 62.0942 21.091 65.5247 17.8841 69.2368C16.9584 70.3083 16.0568 71.4037 15.176 72.5129C14.3812 73.5156 13.6379 74.5595 12.8362 75.5588L13.7825 75.6791C12.8603 73.8006 12.1309 71.8399 11.4736 69.855C11.1812 68.9725 10.6409 68.2204 9.74628 67.8735C8.92728 67.5542 8.02237 67.7362 7.33077 68.2581C6.63905 68.7802 6.1367 69.673 6.24679 70.5898C6.30534 71.0671 6.50147 71.5341 6.65292 71.9909C6.83174 72.5266 7.01756 73.0588 7.21369 73.5912C7.96039 75.6378 8.78627 77.7119 9.87012 79.6075C10.782 81.2008 12.5781 82.0799 14.3295 81.2524C15.1829 80.8472 15.847 80.1123 16.4458 79.4082C17.134 78.5979 17.7567 77.736 18.3968 76.8877C21.0221 73.4057 23.9745 70.1537 27.1161 67.1283C28.9363 65.377 30.8288 63.7013 32.7902 62.1113C33.7088 61.3661 34.6413 60.6416 35.591 59.9341C36.4375 59.3058 37.3596 58.7872 37.7072 57.7329C37.948 56.9947 36.7884 56.6821 36.5476 57.4136C36.3067 58.1451 35.3915 58.5914 34.8031 59.0311C34.0495 59.5942 33.3062 60.1677 32.5698 60.7549C30.9836 62.0186 29.4387 63.3373 27.9418 64.704C24.986 67.4065 22.2128 70.3049 19.6527 73.3817C18.4483 74.8308 17.3473 76.3521 16.1842 77.8321C15.3068 78.9516 13.9958 80.8299 12.3201 80.2875C11.5837 80.0504 11.1226 79.4048 10.775 78.7525C10.3175 77.9008 9.90448 77.0252 9.51566 76.1391C9.12684 75.2532 8.74834 74.2917 8.40432 73.3507C8.23912 72.8941 8.07736 72.4373 7.91916 71.9806C7.76083 71.5238 7.55439 71.0397 7.45461 70.5589C7.29972 69.7966 7.98445 69.0445 8.71741 68.9278C9.61888 68.787 10.1282 69.6077 10.3656 70.3357C11.0297 72.3652 11.8039 74.3707 12.7467 76.2903C12.9051 76.613 13.459 76.7023 13.693 76.4104C15.0625 74.7106 16.339 72.9421 17.743 71.263C19.2156 69.4978 20.7572 67.7911 22.3607 66.1462C25.4609 62.9698 28.8089 60.0337 32.3462 57.3483C32.852 56.9637 33.3614 56.586 33.874 56.2117C34.2663 55.9268 34.6654 55.5146 35.185 55.5525C36.1312 55.6245 36.785 56.4967 36.5545 57.4102C36.3652 58.1588 37.5248 58.4816 37.7141 57.7295L37.7072 57.7261Z" fill="#2E293B"/>
</g>
<defs>
<clipPath id="clip0_4964_22040">
<rect width="88" height="97" fill="white" transform="translate(0 0.5)"/>
</clipPath>
</defs>
</svg>
