<svg width="20" height="18" viewBox="0 0 20 18" fill="none" xmlns="http://www.w3.org/2000/svg">
<g clip-path="url(#clip0_2676_5970)">
<path d="M13.4973 17.2788C14.7903 17.2788 15.8468 16.2245 15.8468 14.9293C15.8468 13.6467 14.7903 12.5902 13.4973 12.5902C12.2043 12.5902 11.1478 13.6467 11.1478 14.9293C11.1478 16.2245 12.2043 17.2788 13.4973 17.2788ZM13.4973 16.0721C12.8553 16.0721 12.3545 15.5692 12.3545 14.9272C12.3545 14.2852 12.8553 13.7844 13.4973 13.7844C14.1393 13.7844 14.6401 14.2852 14.6401 14.9272C14.6401 15.5692 14.1393 16.0721 13.4973 16.0721ZM11.952 14.1418H0.949399C0.512164 14.1418 0.164062 14.4921 0.164062 14.9272C0.164062 15.3727 0.512164 15.7125 0.949399 15.7125H11.952V14.1418ZM19.0803 14.1418H15.1916V15.7125H19.0803C19.4844 15.7125 19.8346 15.3727 19.8346 14.9272C19.8346 14.4921 19.4844 14.1418 19.0803 14.1418ZM6.61069 11.3183C7.90372 11.3183 8.9602 10.2639 8.9602 8.96877C8.9602 7.6861 7.90372 6.62961 6.61069 6.62961C5.31556 6.62961 4.26119 7.6861 4.26119 8.96877C4.26119 10.2639 5.31556 11.3183 6.61069 11.3183ZM6.61069 10.1116C5.96865 10.1116 5.46579 9.6087 5.46579 8.96665C5.46579 8.32463 5.96865 7.82387 6.61069 7.82387C7.25274 7.82387 7.75349 8.32463 7.75349 8.96665C7.75349 9.6087 7.25274 10.1116 6.61069 10.1116ZM0.908002 8.18131C0.512164 8.18131 0.164062 8.53152 0.164062 8.96665C0.164062 9.41214 0.512164 9.752 0.908002 9.752H4.93098V8.18131H0.908002ZM19.0493 8.18131H8.16217V9.752H19.0493C19.4844 9.752 19.8346 9.41214 19.8346 8.96665C19.8346 8.53152 19.4844 8.18131 19.0493 8.18131ZM13.4973 5.35138C14.7903 5.35138 15.8468 4.29491 15.8468 3.00189C15.8468 1.70885 14.7903 0.652405 13.4973 0.652405C12.2043 0.652405 11.1478 1.70885 11.1478 3.00189C11.1478 4.29491 12.2043 5.35138 13.4973 5.35138ZM13.4973 4.14468C12.8553 4.14468 12.3545 3.63147 12.3545 2.99978C12.3545 2.34738 12.8553 1.857 13.4973 1.857C14.1393 1.857 14.6401 2.34738 14.6401 2.99978C14.6401 3.63147 14.1393 4.14468 13.4973 4.14468ZM11.9993 2.22077H0.949399C0.512164 2.22077 0.164062 2.57099 0.164062 3.00611C0.164062 3.44124 0.512164 3.79145 0.949399 3.79145H11.9993V2.22077ZM19.0803 2.22077H15.0594V3.79145H19.0803C19.4844 3.79145 19.8346 3.44124 19.8346 3.00611C19.8346 2.57099 19.4844 2.22077 19.0803 2.22077Z" fill="#007AFF"/>
</g>
<defs>
<clipPath id="clip0_2676_5970">
<rect width="19.6709" height="16.6952" fill="white" transform="translate(0.164062 0.652405)"/>
</clipPath>
</defs>
</svg>
