<svg id="ic-face-id" xmlns="http://www.w3.org/2000/svg" width="24" height="24" viewBox="0 0 24 24">
  <rect id="Rectangle_9948" data-name="Rectangle 9948" width="24" height="24" fill="none"/>
  <g id="content" transform="translate(1.999 2)">
    <path id="Path_76" data-name="Path 76" d="M4959.29-977.505v-3.422s-.277-4.668,4.24-4.668h3.942" transform="translate(-4959.286 985.594)" fill="none" stroke="rgba(255,255,255,0.7)" stroke-linecap="round" stroke-width="1"/>
    <path id="Path_79" data-name="Path 79" d="M4959.29-985.594v3.422s-.277,4.668,4.24,4.668h3.942" transform="translate(-4959.286 997.505)" fill="none" stroke="rgba(255,255,255,0.7)" stroke-linecap="round" stroke-width="1"/>
    <path id="Path_77" data-name="Path 77" d="M4967.493-977.505v-3.422s.277-4.668-4.241-4.668h-3.942" transform="translate(-4947.496 985.594)" fill="none" stroke="rgba(255,255,255,0.7)" stroke-linecap="round" stroke-width="1"/>
    <path id="Path_78" data-name="Path 78" d="M4967.493-985.594v3.422s.277,4.668-4.241,4.668h-3.942" transform="translate(-4947.496 997.505)" fill="none" stroke="rgba(255,255,255,0.7)" stroke-linecap="round" stroke-width="1"/>
    <path id="Path_80" data-name="Path 80" d="M5004.878-928.241v1.762" transform="translate(-4999.557 935.185)" fill="none" stroke="rgba(255,255,255,0.7)" stroke-linecap="round" stroke-width="1"/>
    <path id="Path_81" data-name="Path 81" d="M5004.878-928.241v1.762" transform="translate(-4990.143 935.185)" fill="none" stroke="rgba(255,255,255,0.7)" stroke-linecap="round" stroke-width="1"/>
    <path id="Path_82" data-name="Path 82" d="M4995.729-928.241v3.376s.176,2.183-1.454,2.183" transform="translate(-4985.565 934.743)" fill="none" stroke="rgba(255,255,255,0.7)" stroke-linecap="round" stroke-width="1"/>
    <path id="Path_83" data-name="Path 83" d="M5008.8-861.4a5.505,5.505,0,0,0,4.7,2.31,5.911,5.911,0,0,0,4.841-2.31" transform="translate(-5003.714 875.328)" fill="none" stroke="rgba(255,255,255,0.7)" stroke-linecap="round" stroke-width="1"/>
  </g>
</svg>
