<svg width="103" height="138" viewBox="0 0 103 138" fill="none" xmlns="http://www.w3.org/2000/svg">
<g clip-path="url(#clip0_5893_25105)">
<g clip-path="url(#clip1_5893_25105)">
<path d="M44.4179 111.607C43.6351 111.607 43.0012 110.974 43.0012 110.194C43.0012 104.004 41.823 98.4997 39.4973 93.8318C37.6474 90.1173 35.0655 86.9112 31.8237 84.3042C26.255 79.8235 20.5824 78.6347 20.5258 78.6229C19.8658 78.4888 19.3889 77.9097 19.3889 77.2388V41.9295C19.3889 37.1675 16.8767 32.0429 11.3611 32.0429C5.84556 32.0429 3.33333 37.1675 3.33333 41.9295V72.5309C3.33333 73.3113 2.69938 73.9433 1.91667 73.9433C1.13396 73.9433 0.5 73.3113 0.5 72.5309V41.9295C0.5 38.0738 1.6534 34.8088 3.83507 32.489C5.8184 30.3799 8.49118 29.2182 11.3611 29.2182C14.231 29.2182 16.9038 30.3799 18.8872 32.489C21.0688 34.8088 22.2222 38.0738 22.2222 41.9295V76.1407C24.2965 76.7304 28.8829 78.3417 33.4965 82.0209C37.0854 84.8833 39.9447 88.4072 41.9954 92.496C44.543 97.5746 45.8345 103.529 45.8345 110.194C45.8345 110.974 45.2006 111.607 44.4179 111.607Z" fill="#2A5FD9"/>
<path d="M86.918 71.5893C86.1353 71.5893 85.5013 70.9573 85.5013 70.177V11.3282C85.5013 6.91452 81.9006 3.32474 77.4735 3.32474H25.5291C21.102 3.32474 17.5013 6.91452 17.5013 11.3282V23.0979C17.5013 23.8783 16.8673 24.5103 16.0846 24.5103C15.3019 24.5103 14.668 23.8783 14.668 23.0979V11.3282C14.668 5.35738 19.5401 0.5 25.5291 0.5H77.4735C83.4625 0.5 88.3346 5.35738 88.3346 11.3282V70.177C88.3346 70.9573 87.7007 71.5893 86.918 71.5893Z" fill="#2A5FD9"/>
<path d="M77.4748 118.668H51.5026C50.7199 118.668 50.0859 118.036 50.0859 117.256C50.0859 116.476 50.7199 115.844 51.5026 115.844H77.4748C81.9019 115.844 85.5026 112.254 85.5026 107.84V79.5928C85.5026 78.8125 86.1366 78.1804 86.9193 78.1804C87.702 78.1804 88.3359 78.8125 88.3359 79.5928V107.84C88.3359 113.811 83.4638 118.668 77.4748 118.668Z" fill="#2A5FD9"/>
<path d="M20.8056 137.5C20.0228 137.5 19.3889 136.868 19.3889 136.088C19.3889 128.351 16.1247 125.325 11.9915 121.493C9.39903 119.089 6.45944 116.364 4.23528 112.129C1.72187 107.341 0.5 101.319 0.5 93.7165V86.6546C0.5 85.8743 1.13396 85.2422 1.91667 85.2422C2.69938 85.2422 3.33333 85.8743 3.33333 86.6546V93.7165C3.33333 100.851 4.44896 106.445 6.74514 110.818C8.74382 114.624 11.3753 117.064 13.9206 119.424C18.1894 123.382 22.2222 127.12 22.2222 136.086C22.2222 136.867 21.5883 137.499 20.8056 137.499V137.5Z" fill="#2A5FD9"/>
<path d="M60.944 137.5C60.1613 137.5 59.5273 136.868 59.5273 136.088C59.5273 128.561 64.1575 126.234 67.8774 124.364C71.1275 122.73 73.694 121.439 73.694 117.256C73.694 116.476 74.328 115.844 75.1107 115.844C75.8934 115.844 76.5273 116.476 76.5273 117.256C76.5273 123.179 72.6091 125.149 69.1524 126.886C65.508 128.719 62.3607 130.3 62.3607 136.088C62.3607 136.868 61.7267 137.5 60.944 137.5Z" fill="#2A5FD9"/>
<path d="M94 81.0052H86.9167C86.134 81.0052 85.5 80.3731 85.5 79.5928C85.5 78.8125 86.134 78.1804 86.9167 78.1804H94C97.1249 78.1804 99.6667 75.6464 99.6667 72.5309V70.177C99.6667 67.0615 97.1249 64.5275 94 64.5275H86.9167C86.134 64.5275 85.5 63.8955 85.5 63.1151C85.5 62.3348 86.134 61.7028 86.9167 61.7028H94C98.6868 61.7028 102.5 65.5044 102.5 70.177V72.5309C102.5 77.2035 98.6868 81.0052 94 81.0052Z" fill="#2A5FD9"/>
<path d="M94 97.4828H86.9167C86.134 97.4828 85.5 96.8508 85.5 96.0705C85.5 95.2901 86.134 94.6581 86.9167 94.6581H94C97.1249 94.6581 99.6667 92.1241 99.6667 89.0086V86.6546C99.6667 83.5392 97.1249 81.0052 94 81.0052H86.9167C86.134 81.0052 85.5 80.3731 85.5 79.5928C85.5 78.8125 86.134 78.1804 86.9167 78.1804H94C98.6868 78.1804 102.5 81.9821 102.5 86.6546V89.0086C102.5 93.6812 98.6868 97.4828 94 97.4828Z" fill="#2A5FD9"/>
<path d="M94 64.5275H86.9167C86.134 64.5275 85.5 63.8955 85.5 63.1151C85.5 62.3348 86.134 61.7028 86.9167 61.7028H94C97.1249 61.7028 99.6667 59.1687 99.6667 56.0533V53.6993C99.6667 50.5839 97.1249 48.0498 94 48.0498H86.9167C86.134 48.0498 85.5 47.4178 85.5 46.6375C85.5 45.8571 86.134 45.2251 86.9167 45.2251H94C98.6868 45.2251 102.5 49.0267 102.5 53.6993V56.0533C102.5 60.7259 98.6868 64.5275 94 64.5275Z" fill="#2A5FD9"/>
<path d="M94 48.0498H86.9167C86.134 48.0498 85.5 47.4178 85.5 46.6375C85.5 45.8571 86.134 45.2251 86.9167 45.2251H94C97.1249 45.2251 99.6667 42.6911 99.6667 39.5756V37.2217C99.6667 34.1062 97.1249 31.5722 94 31.5722H86.9167C86.134 31.5722 85.5 30.9401 85.5 30.1598C85.5 29.3795 86.134 28.7474 86.9167 28.7474H94C98.6868 28.7474 102.5 32.5491 102.5 37.2217V39.5756C102.5 44.2482 98.6868 48.0498 94 48.0498Z" fill="#2A5FD9"/>
<path d="M51.3706 50.4038C50.8334 50.4038 50.3187 50.0966 50.0814 49.5775C49.7568 48.869 50.0696 48.0322 50.7791 47.7073C50.8193 47.6885 53.577 46.3973 56.2817 43.5797C59.8552 39.8569 61.6662 35.342 61.6662 30.1598V27.8058C61.6662 27.0255 62.3002 26.3935 63.0829 26.3935C63.8656 26.3935 64.4995 27.0255 64.4995 27.8058V30.1598C64.4995 37.6053 61.0984 42.6769 58.245 45.6194C55.1661 48.7948 52.0872 50.2166 51.9585 50.2755C51.7673 50.3626 51.5677 50.4038 51.3706 50.4038Z" fill="#2A5FD9"/>
<path d="M51.37 50.4038C51.174 50.4038 50.9733 50.3626 50.7832 50.2755C50.6534 50.2166 47.5757 48.7948 44.4968 45.6194C41.6434 42.6769 38.2422 37.6053 38.2422 30.1598V27.8058C38.2422 27.0255 38.8761 26.3935 39.6589 26.3935C40.4416 26.3935 41.0755 27.0255 41.0755 27.8058V30.1598C41.0755 35.342 42.8877 39.8581 46.46 43.5797C49.1706 46.4032 51.9355 47.6944 51.9626 47.7073C52.6721 48.0333 52.9838 48.8713 52.6579 49.5799C52.4195 50.0978 51.9071 50.4038 51.37 50.4038Z" fill="#2A5FD9"/>
<path d="M63.0814 71.5893C62.2987 71.5893 61.6648 70.9573 61.6648 70.177V67.823C61.6648 62.6408 59.8526 58.1247 56.2803 54.4031C53.5697 51.5796 50.8048 50.2884 50.7777 50.2755C50.0682 49.9495 49.7565 49.1114 50.0823 48.4029C50.4082 47.6955 51.2464 47.3836 51.9571 47.7061C52.0869 47.765 55.1646 49.1868 58.2435 52.3623C61.0969 55.3047 64.4981 60.3763 64.4981 67.8218V70.1758C64.4981 70.9561 63.8642 71.5882 63.0814 71.5882V71.5893Z" fill="#2A5FD9"/>
<path d="M39.6589 71.5893C38.8761 71.5893 38.2422 70.9573 38.2422 70.177V67.823C38.2422 60.3775 41.6434 55.3059 44.4968 52.3634C47.5757 49.188 50.6545 47.7662 50.7832 47.7073C51.4951 47.3837 52.3357 47.6956 52.6603 48.4053C52.985 49.1138 52.6721 49.9506 51.9626 50.2755C51.9225 50.2943 49.1647 51.5855 46.46 54.4031C42.8865 58.1259 41.0755 62.6408 41.0755 67.823V70.177C41.0755 70.9573 40.4416 71.5893 39.6589 71.5893Z" fill="#2A5FD9"/>
<path d="M67.7684 29.2182H34.9714C34.1886 29.2182 33.5547 28.5862 33.5547 27.8058C33.5547 27.0255 34.1886 26.3935 34.9714 26.3935H67.7684C68.5511 26.3935 69.185 27.0255 69.185 27.8058C69.185 28.5862 68.5511 29.2182 67.7684 29.2182Z" fill="#2A5FD9"/>
<path d="M67.7684 71.5893H34.9714C34.1886 71.5893 33.5547 70.9573 33.5547 70.177C33.5547 69.3966 34.1886 68.7646 34.9714 68.7646H67.7684C68.5511 68.7646 69.185 69.3966 69.185 70.177C69.185 70.9573 68.5511 71.5893 67.7684 71.5893Z" fill="#2A5FD9"/>
</g>
</g>
<defs>
<clipPath id="clip0_5893_25105">
<rect width="102" height="137" fill="white" transform="translate(0.5 0.5)"/>
</clipPath>
<clipPath id="clip1_5893_25105">
<rect width="102" height="137" fill="white" transform="translate(0.5 0.5)"/>
</clipPath>
</defs>
</svg>
