<svg width="44" height="44" viewBox="0 0 44 44" fill="none" xmlns="http://www.w3.org/2000/svg">
<path d="M19.7552 32.3778L28.6247 20.969C28.7865 20.7534 28.8778 20.5627 28.8778 20.347C28.8778 19.9638 28.592 19.6778 28.1816 19.6778H22.6567L25.5751 12.0939C25.9627 11.0844 24.8871 10.5394 24.2425 11.3685L15.3751 22.7773C15.2133 22.9929 15.1221 23.1837 15.1221 23.3993C15.1221 23.7825 15.4161 24.0685 15.8183 24.0685H21.341L18.4247 31.6525C18.0454 32.6619 19.1127 33.2069 19.7552 32.3778ZM20.3255 29.7498L23.5954 22.6117H17.559L23.9375 14.1499L23.6639 13.9966L20.4044 21.1346H26.4284L20.052 29.5964L20.3255 29.7498Z" fill="#007AFF"/>
</svg>
