<svg width="115" height="151" viewBox="0 0 115 151" fill="none" xmlns="http://www.w3.org/2000/svg">
<g clip-path="url(#clip0_5893_17244)">
<path d="M80.5368 133.295C99.0285 133.295 114.019 118.304 114.019 99.8127C114.019 81.321 99.0285 66.3306 80.5368 66.3306C62.0452 66.3306 47.0547 81.321 47.0547 99.8127C47.0547 118.304 62.0452 133.295 80.5368 133.295Z" fill="#CAE6FD"/>
<path d="M58.2155 139.098H6.87439C3.62528 139.098 0.982422 136.456 0.982422 133.206V32.9368C0.982422 29.6877 3.62528 27.0448 6.87439 27.0448H31.3396C32.0789 27.0448 32.6789 27.6448 32.6789 28.3841C32.6789 29.1234 32.0789 29.7234 31.3396 29.7234H6.87439C5.10296 29.7234 3.66099 31.1644 3.66099 32.9368V133.206C3.66099 134.978 5.10206 136.42 6.87439 136.42H58.2164C58.9556 136.42 59.5556 137.02 59.5556 137.759C59.5556 138.498 58.9556 139.098 58.2164 139.098H58.2155Z" fill="#2A5FD9"/>
<path d="M87.2342 98.9198C86.4949 98.9198 85.8958 98.3216 85.8949 97.5823L85.8101 32.9323C85.8074 31.1627 84.3664 29.7234 82.5967 29.7234H64.8217C64.0824 29.7234 63.4824 29.1234 63.4824 28.3841C63.4824 27.6448 64.0824 27.0448 64.8217 27.0448H82.5967C85.8414 27.0448 88.4842 29.6841 88.4887 32.9287L88.5735 97.5787C88.5744 98.318 87.9753 98.9189 87.236 98.9198H87.2342Z" fill="#2A5FD9"/>
<path d="M87.2332 103.989C86.4939 103.989 85.8949 104.616 85.894 105.39L85.8091 133.094C85.8065 134.947 84.3655 136.454 82.5959 136.454H64.8217C64.0824 136.454 63.4824 137.082 63.4824 137.857C63.4824 138.631 64.0824 139.259 64.8217 139.259H82.5959C85.8404 139.259 88.4831 136.495 88.4876 133.097L88.5724 105.394C88.5733 104.619 87.9742 103.99 87.235 103.989H87.2332Z" fill="#2A5FD9"/>
<path d="M44.4229 43.1163H40.9934C38.6675 43.1163 36.5541 41.7431 35.6095 39.6172L21.7996 8.54398C20.9862 6.71451 21.1523 4.61987 22.2434 2.94041C23.3345 1.26183 25.1809 0.259155 27.1836 0.259155H30.613C32.9389 0.259155 35.0523 1.63237 35.997 3.75826L49.8077 34.8315C50.6211 36.6609 50.455 38.7556 49.3639 40.4351C48.2729 42.1136 46.4264 43.1163 44.4237 43.1163H44.4229ZM27.1836 2.93773C26.0755 2.93773 25.0934 3.47076 24.4889 4.40023C23.8854 5.32969 23.797 6.44308 24.247 7.45648L38.0577 38.5297C38.5729 39.6886 39.7255 40.4377 40.9943 40.4377H44.4237C45.5318 40.4377 46.5139 39.9047 47.1184 38.9752C47.722 38.0458 47.8104 36.9324 47.3604 35.919L33.5487 4.84576C33.0336 3.68683 31.8809 2.93773 30.6121 2.93773H27.1827H27.1836Z" fill="#2A5FD9"/>
<path d="M51.4275 43.1163C51.2453 43.1163 51.0614 43.0788 50.8846 43.0002C50.2087 42.7002 49.9043 41.9082 50.2043 41.2323L65.2159 7.45554C65.6659 6.44304 65.5775 5.32875 64.9739 4.39929C64.3703 3.46982 63.3882 2.93679 62.2793 2.93679H58.8498C57.5811 2.93679 56.4284 3.6859 55.9132 4.84482L48.1864 22.2305C47.8864 22.9064 47.0945 23.2109 46.4186 22.91C45.7427 22.61 45.4382 21.818 45.7391 21.1421L53.4659 3.75643C54.4105 1.63054 56.5239 0.257324 58.8498 0.257324H62.2793C64.282 0.257324 66.1284 1.26 67.2194 2.93857C68.3105 4.61715 68.4766 6.71268 67.6632 8.54214L52.6516 42.3189C52.4302 42.818 51.94 43.1145 51.4275 43.1145V43.1163Z" fill="#2A5FD9"/>
<path d="M58.125 43.1162H31.3393C30.6 43.1162 30 42.5162 30 41.7769C30 41.0376 30.6 40.4376 31.3393 40.4376H58.125C58.8643 40.4376 59.4643 41.0376 59.4643 41.7769C59.4643 42.5162 58.8643 43.1162 58.125 43.1162Z" fill="#2A5FD9"/>
<path d="M58.1271 87.7592C57.6941 87.7592 57.27 87.5493 57.0119 87.1627C57.0039 87.1502 55.945 85.6011 53.8923 84.0824C51.1852 82.0788 48.1039 81.0627 44.7334 81.0627C41.3628 81.0627 38.2807 82.0788 35.5744 84.0824C33.5218 85.6011 32.4637 87.1511 32.453 87.1663C32.0396 87.7779 31.2084 87.9422 30.5959 87.5306C29.9834 87.119 29.8173 86.2913 30.2262 85.677C30.2771 85.6011 31.4968 83.7913 33.8852 82.0002C37.0396 79.6342 40.7905 78.3842 44.7334 78.3842C48.6762 78.3842 52.4271 79.6342 55.5816 82.0002C57.97 83.7913 59.1896 85.6011 59.2405 85.677C59.6512 86.2922 59.4843 87.1243 58.8691 87.5342C58.6405 87.6868 58.3825 87.7592 58.1271 87.7592Z" fill="#55953B"/>
<path d="M44.7358 74.3663C43.1456 74.3663 41.5421 73.902 40.0447 73.0002C39.2367 72.5136 38.5519 71.8288 38.0653 71.0208C36.9733 69.2065 36.5224 67.2377 36.7617 65.3261C36.9813 63.5681 37.7956 61.9065 39.0528 60.6493C40.3108 59.3913 41.9715 58.5779 43.7296 58.3583C45.6412 58.119 47.6108 58.5699 49.4242 59.6618C50.2331 60.1484 50.9171 60.8333 51.4037 61.6413C52.4956 63.4547 52.9465 65.4243 52.7072 67.3359C52.4876 69.094 51.6733 70.7556 50.4162 72.0127C49.159 73.2699 47.4974 74.0841 45.7394 74.3038C45.4063 74.3458 45.0715 74.3663 44.7358 74.3663ZM44.7278 60.9734C44.5037 60.9734 44.2813 60.9868 44.0608 61.0145C42.8903 61.1609 41.784 61.7029 40.9456 62.5422C40.1072 63.3815 39.5644 64.4868 39.4179 65.6574C39.2546 66.9672 39.5796 68.344 40.359 69.6386C40.6215 70.0743 40.9903 70.4431 41.4251 70.7047C42.7197 71.4841 44.0956 71.8091 45.4063 71.6458C46.5769 71.4993 47.6831 70.9574 48.5215 70.1181C49.3599 69.2788 49.9028 68.1734 50.0492 67.0029C50.2126 65.6931 49.8876 64.3163 49.1081 63.0216C48.8456 62.5859 48.4769 62.2172 48.0421 61.9556C46.9662 61.3074 45.8322 60.9734 44.7278 60.9734Z" fill="#55953B"/>
<path d="M60.2699 94.4555H29.1967C25.9475 94.4555 23.3047 91.8127 23.3047 88.5636V57.4904C23.3047 54.2412 25.9475 51.5984 29.1967 51.5984H60.2699C63.519 51.5984 66.1618 54.2412 66.1618 57.4904V88.5636C66.1618 91.8127 63.519 94.4555 60.2699 94.4555ZM29.1967 54.277C27.4252 54.277 25.9833 55.718 25.9833 57.4904V88.5636C25.9833 90.335 27.4243 91.777 29.1967 91.777H60.2699C62.0413 91.777 63.4833 90.3359 63.4833 88.5636V57.4904C63.4833 55.7189 62.0422 54.277 60.2699 54.277H29.1967Z" fill="#55953B"/>
<path d="M64.8225 105.616H24.644C23.9047 105.616 23.3047 105.016 23.3047 104.277C23.3047 103.538 23.9047 102.938 24.644 102.938H64.8225C65.5618 102.938 66.1618 103.538 66.1618 104.277C66.1618 105.016 65.5618 105.616 64.8225 105.616Z" fill="#55953B"/>
<path d="M49.1975 114.545H24.644C23.9047 114.545 23.3047 113.945 23.3047 113.205C23.3047 112.466 23.9047 111.866 24.644 111.866H49.1975C49.9368 111.866 50.5368 112.466 50.5368 113.205C50.5368 113.945 49.9368 114.545 49.1975 114.545Z" fill="#55953B"/>
<path d="M64.8225 114.545H55.894C55.1547 114.545 54.5547 113.945 54.5547 113.205C54.5547 112.466 55.1547 111.866 55.894 111.866H64.8225C65.5618 111.866 66.1618 112.466 66.1618 113.205C66.1618 113.945 65.5618 114.545 64.8225 114.545Z" fill="#55953B"/>
</g>
<defs>
<clipPath id="clip0_5893_17244">
<rect width="113.037" height="150" fill="white" transform="translate(0.982422 0.259155)"/>
</clipPath>
</defs>
</svg>
