<?xml version="1.0" encoding="UTF-8"?>
<svg width="300" height="207.72" version="1.1" xmlns="http://www.w3.org/2000/svg">
  <path d="m61.314 202.05h129.21v-57.462h-129.21z" fill="#fff"/>
  <g fill="#bdbcbc">
    <path d="m134.23 49.073c-5.6041 4.5003-9.929 7.6986-16.79 10.421-5.9721 2.3775-12.386 3.3455-19.716 4.3475-4.7154 0.66231-9.6459 1.636-14.356 1.953-1.936 0.12997-3.872 0.25451-5.8023 0.40757l-77.564 5.6551v5.74l77.875-7.5514 10.099-0.94535c3.7418-0.35685 7.0703-0.7642 10.161-1.268 7.5458-1.2114 14.05-3.0568 19.881-5.6551 6.0457-2.6662 12.165-7.0363 17.854-11.82 3.8663-3.2493 7.5911-7.3363 11.639-11.803v-2.0549c-4.8966 5.0607-8.961 9.1082-13.28 12.573m13.282 96.132-147.51-3.7418v5.723h147.51zm-54.973-10.12-19.077-0.20379c-24.341-0.34553-48.654-0.78685-73.46-1.251v5.723c23.673-0.15261 48.75-0.33421 73.477-0.61136l19.088-0.28304c6.4306-0.11321 12.731-0.23186 19.099-0.44154 13.116-0.41889 24.868-1.3416 35.844-2.7964v-1.9926c-11.021 1.1888-22.785 1.8114-35.912 1.8964-6.3457 0.0566-12.703 0.0136-19.06-0.0408m19.277-8.9954c-4.0531 0.1585-8.4402 0.23775-13.416 0.23775-1.8794 0-3.7644-9e-3 -5.6381-0.0272l-19.145-0.23187c-13.059-0.0965-26.073-0.1191-38.284-0.12997l-35.329 0.0317v5.7174l35.414-0.9227c12.165-0.2998 25.213-0.61136 38.238-0.84346l19.128-0.25496c5.2475-0.0793 12.171-0.23775 19.184-0.69627 6.8722-0.44697 13.127-1.1322 19.122-2.0888 5.3947-0.86043 10.908-2.0209 16.422-3.4304v-2.0266c-5.6664 1.302-11.299 2.3492-16.761 3.0794-5.9608 0.79816-12.154 1.3133-18.935 1.585m0.37583-9.3093c-9.7252 0.80383-19.677 0.80383-29.306 0.80383-2.9945 0-5.9891 0-8.9836 0.0226-24.607 0.10778-49.016 0.31157-73.901 0.52645v5.723c23.702-0.80378 48.841-1.6416 73.986-2.3888 2.9832-0.1019 5.9664-0.17526 8.9553-0.25451 9.6799-0.24319 19.688-0.49249 29.515-1.5567 6.8608-0.7359 13.11-1.8171 19.094-3.2946 5.2192-1.285 10.58-2.9945 15.963-5.0494v-2.1058c-5.5589 1.9926-11.095 3.6229-16.49 4.8116-5.9268 1.3076-12.086 2.2077-18.833 2.7624m0.58985-9.4446c-10.382 1.3869-21.064 1.5454-31.4 1.6982-2.3662 0.0317-4.738 0.0679-7.1042 0.1191l-74.275 1.3359v5.723l74.405-3.204c2.3549-0.10733 4.7211-0.20379 7.0873-0.29436 10.404-0.41889 21.166-0.84911 31.689-2.519 6.657-1.0472 13.065-2.604 19.048-4.6135 4.9532-1.6586 10.082-3.804 15.278-6.34v-2.1964c-5.4626 2.5417-10.835 4.6588-15.992 6.2438-5.9098 1.8228-12.21 3.187-18.737 4.0474m0.66403-9.3858c-5.6551 1.0359-11.74 1.6982-19.162 2.0775-2.7908 0.14718-5.7796 0.24907-9.6855 0.33965l-84.594 2.2869v5.7343l75.011-3.9172 9.7195-0.49248c3.7927-0.18115 6.8948-0.36229 9.7648-0.58306 7.5231-0.5774 13.71-1.4039 19.473-2.6096 6.5438-1.3586 12.895-3.3398 18.873-5.8872 4.8173-2.0435 9.6403-4.5343 14.667-7.5628v-2.3039c-5.3664 3.1247-10.472 5.6268-15.544 7.6364-5.8928 2.3436-12.125 4.121-18.522 5.2815m0.83892-9.3454c-5.6324 1.319-11.74 2.1624-19.218 2.6662-2.8813 0.19246-5.9834 0.33421-9.7591 0.45286l-9.8214 0.35097c-24.749 0.93402-49.843 2.0096-75.486 3.1247v5.7343c25.479-1.7378 50.471-3.4304 75.679-5.0041l9.7988-0.58872c3.8436-0.221 6.974-0.44154 9.8554-0.70759 7.6137-0.70193 13.846-1.7265 19.609-3.2153 6.4646-1.6643 12.748-4.1097 18.675-7.2571 4.5852-2.4285 9.1591-5.3494 13.897-8.8704v-2.4511c-5.123 3.6965-10.037 6.7137-14.95 9.1704-5.8249 2.9153-11.972 5.1343-18.279 6.5948m0.91478-9.5316c-5.5928 1.6416-11.888 2.7511-19.247 3.3908-2.9832 0.2604-6.1985 0.45852-9.8327 0.6057l-9.9176 0.43565c-24.641 1.1435-49.169 2.4228-76.199 3.855v5.7343c25.824-1.9982 51.128-3.9399 76.426-5.74l9.8837-0.67363c3.821-0.25496 6.9854-0.52645 9.9629-0.86043 7.5401-0.84345 13.993-2.1454 19.722-3.9795 6.3457-2.0096 12.533-4.9249 18.386-8.661 4.3192-2.7511 8.644-6.0344 13.127-9.9459v-0.10189c-4.9418 4.2173-9.6516 5.1569-14.344 7.9873-5.7513 3.487-11.797 6.1589-17.967 7.9534m-1.885-10.933c-5.1626 2.887-9.0232 4.5512-16.394 5.3211-4.455 0.48116-9.0346 0.70759-13.467 0.92836-2.1398 0.10733-4.2852 0.21511-6.4306 0.35097-13.393 0.7642-26.549 1.6133-39.971 2.4851l-37.05 2.4964v5.7513l37.423-3.4304c12.091-1.0869 26.141-2.3379 39.857-3.4587l9.9742-0.76986c3.8946-0.29979 7.0873-0.61702 10.042-1.002 7.5854-0.97931 14.067-2.5134 19.807-4.6814 6.1816-2.3096 12.012-5.8985 17.848-10.121 5.2645-3.804 12.55-11.305 12.556-11.401v-2.0322c-4.7607 4.6418-7.5005 7.2514-12.714 10.687-6.2325 4.104-16.852 6.2891-21.483 8.8761m21.441-29.875c-5.423 4.9758-11.084 8.8874-16.829 11.627-5.6211 2.7115-11.905 4.6135-19.224 5.8136-3.0172 0.50381-6.3004 0.91138-10.031 1.251l-88.67 7.2797v5.7513l78.82-8.3609 10.195-1.0699c3.8436-0.44697 7.1948-0.94535 10.24-1.5227 7.5798-1.4322 14.084-3.5663 19.875-6.5325 5.9212-2.9945 11.837-7.976 17.339-13.252 3.6908-3.538 7.2458-8.1062 11.044-12.895v-1.919c-4.3871 5.457-8.576 9.9969-12.759 13.829m-15.555 1.4123c-5.5645 3.1983-11.989 5.5419-19.099 6.9571-3.0342 0.61702-6.3457 1.1152-10.116 1.5227-2.219 0.24318-4.4494 0.43565-6.6853 0.62834-1.2057 0.10189-2.4115 0.20922-3.6172 0.317-27.24 2.4454-54.338 5.0437-79.681 7.5005v5.7683c25.541-3.0794 52.832-6.3457 80.06-9.4252 1.2114-0.14129 2.4228-0.27715 3.6342-0.40757 2.2303-0.24364 4.4663-0.49248 6.7023-0.78684 3.8776-0.51513 7.2684-1.1095 10.365-1.8114 7.3873-1.6529 14.056-4.2569 19.824-7.7496 5.7287-3.4361 10.789-8.2534 16.235-14.141 3.3908-3.6625 7.1608-8.8364 10.693-13.693v-2.1171c-4.1606 5.6381-8.1062 10.376-12.006 14.418-5.3154 5.5079-10.801 9.8837-16.309 13.02m-119.2 14.902s88.885-11.503 91.393-11.91c3.8493-0.62834 7.2627-1.3642 10.45-2.2417 7.1892-1.9699 13.807-4.9758 19.665-8.9383 5.6211-3.7644 10.846-9.244 16.026-15.256 3.2889-3.8267 6.7476-8.8138 9.9742-13.625v-2.3266c-3.8267 5.6664-7.5967 10.552-11.474 14.859-5.14 5.723-10.529 10.399-16.026 13.908-5.6721 3.6568-12.052 6.3797-18.975 8.1062-3.1021 0.78118-6.4193 1.4152-10.155 1.936-2.4568 0.34508-4.9928 0.61136-7.4439 0.8661-0.97931 0.10778-83.434 8.8534-83.434 8.8534z"/>
    <path d="m208.94 142.54s24.313 0.8944 31.7 1.0529 59.279 2.2077 59.279 2.2077v1.4208l-90.98-0.0566zm-0.052-12.244s15.465 2.6096 31.751 5.2532c12.21 1.9869 28.757 3.238 30.523 3.3115 1.7662 0.0793 28.757 1.8964 28.757 1.8964v1.4152s-17.271-0.87175-28.757-1.4944c-11.961-0.65098-23.849-1.3586-30.602-2.0492-15.126-1.551-31.672-3.6002-31.672-3.6002zm0.052-11.827s18.85 5.7287 31.7 9.0402c12.85 3.3115 24.658 4.6531 30.602 5.0437 5.9438 0.39625 28.598 2.2077 28.598 2.2077v1.3416s-12.85-0.86043-28.677-1.9699c-12.799-0.8944-23.079-1.8398-30.602-3.47-8.3383-1.8058-31.672-7.2514-31.672-7.2514l0.0507-4.9418zm0-11.984s18.584 7.8005 31.7 12.901c12.907 5.0211 22.762 5.4456 30.602 6.3117 3.4531 0.3795 28.598 2.9153 28.598 2.9153v1.4152s-15.024-1.1774-28.677-2.3605-19.547-1.6812-30.602-5.2815c-11.191-3.6399-31.672-10.642-31.672-10.642l0.0507-5.2588zm0-11.826s23.622 12.595 31.621 16.529c8.9157 4.3871 16.626 6.4929 30.602 8.1175 13.722 1.6076 28.757 3.1587 28.757 3.1587v1.4208s-13.903-1.4605-28.757-2.8417c-14.724-1.3642-19.971-1.9982-30.602-6.6231-9.5101-4.1324-31.672-14.242-31.672-14.242l0.0507-5.5192zm-0.0532-11.616s26.69 17.424 31.751 20.186c5.0664 2.7568 11.01 7.2514 30.523 9.6969 19.518 2.4398 28.677 3.5436 28.677 3.5436v1.5001s-16.144-1.7322-28.757-3.0738c-12.612-1.3416-21.205-3.153-30.602-8.2024-9.3968-5.0437-31.542-17.712-31.542-17.712l-0.0512-5.9381zm0-11.616s26.611 20.684 31.593 24.307c4.9815 3.6285 11.565 7.8571 30.681 10.569 18.958 2.6832 28.677 4.0191 28.677 4.0191v1.5794s-17.186-2.4511-28.677-3.8663c-11.486-1.4208-20.294-2.0209-30.602-8.7515-10.037-6.5495-31.621-21.443-31.621-21.443l-0.0512-6.4136zm0.0532-12.142s23.328 21.233 31.621 28.491c7.6307 6.674 13.818 8.7515 30.602 11.667 16.79 2.9153 28.757 4.7267 28.757 4.7267v1.5001s-15.182-2.4454-28.836-4.5739c-13.654-2.1284-22.354-2.9662-30.523-9.4591-9.4252-7.4948-31.621-25.411-31.621-25.411zm0-11.353s24.528 25.196 31.621 32.43c7.5231 7.6703 17.163 10.512 30.523 12.85 12.754 2.2303 28.836 4.8116 28.836 4.8116v1.4152s-15.103-2.4228-28.836-4.7267c-13.467-2.2643-22.892-3.521-30.602-10.489-6.9061-6.2381-31.542-28.881-31.542-28.881zm-0.052-12.247s26.566 30.755 31.672 36.24c7.9534 8.5421 11.808 11.486 30.602 15.058 7.5175 1.4322 28.757 5.1286 28.757 5.1286v1.3359s-17.588-3.153-28.757-5.123c-11.163-1.9699-20.611-2.7058-30.681-12.38-7.6703-7.3646-31.542-32.323-31.542-32.323l-0.0512-7.9364zm0.052-11.774s26.238 33.902 31.542 40.684c5.2985 6.7759 12.606 12.374 30.681 15.844 10.421 2.0039 28.757 5.3607 28.757 5.3607v1.2623s-16.065-2.9945-28.757-5.2815c-12.691-2.2869-23.169-4.5003-30.681-12.929-6.5891-7.3986-31.593-36.478-31.593-36.478l0.0507-8.4628zm0-11.984s27.845 39.891 31.542 44.782c3.6965 4.8909 8.6723 12.771 30.681 17.424 5.6834 1.2001 28.836 5.757 28.836 5.757v1.2623s-17.594-3.3908-28.836-5.757c-11.248-2.3662-23.062-4.5229-30.602-14.033-6.8495-8.6383-31.672-40.497-31.672-40.497l0.0507-8.9383zm0-11.932s26.945 41.963 31.876 49.679c4.9249 7.7099 10.557 13.812 30.494 17.956s28.615 6.1023 28.615 6.1023v1.4944s-12.669-2.6492-28.972-6.2155c-16.297-3.5663-22.96-4.772-30.393-14.905-6.1872-8.4345-31.621-44.284-31.621-44.284z"/>
  </g>
  <g fill="#254aa5">
    <path d="m190.55 60.731h-129.23v86.451h129.23z"/>
    <path d="m61.314 207.72h129.25v-7.376h-129.25z"/>
  </g>
  <path d="m112.72 126.9h4.4946l-3.6229 2.7172 1.3982 4.3078-3.6002-2.6549-3.6116 2.6549 1.4265-4.3078-3.6568-2.7172h4.4833l1.3586-4.2059zm-10.445-10.444h4.506l-3.6285 2.7228 1.4039 4.3135-3.6059-2.6606-3.6059 2.6606 1.4152-4.3135-3.6568-2.7228h4.489l1.3586-4.1946zm-3.821-14.7h4.5003l-3.6229 2.7172 1.4039 4.3135-3.6059-2.6549-3.6116 2.6549 1.4208-4.3135-3.6512-2.7172h4.4833l1.3586-4.2003zm3.821-14.259h4.506l-3.6285 2.7172 1.4039 4.3135-3.6059-2.6606-3.6059 2.6606 1.4152-4.3135-3.6568-2.7172h4.489l1.3586-4.2003zm10.295-10.587h4.4946l-3.6229 2.7228 1.4095 4.3078-3.6116-2.6606-3.6116 2.6606 1.4265-4.3078-3.6568-2.7228h4.4833l1.3586-4.2003zm43.515 24.81h4.506l-3.6286 2.7172 1.4095 4.3135-3.6116-2.6606-3.6059 2.6606 1.4208-4.3135-3.6625-2.7172h4.4833l1.3642-4.2003zm-3.9671 14.7h4.4946l-3.6229 2.7228 1.4095 4.3135-3.6116-2.6606-3.6002 2.6606 1.4208-4.3135-3.6625-2.7228h4.4833l1.3586-4.2059zm0-28.959h4.4946l-3.6229 2.7115 1.4095 4.3135-3.6116-2.6549-3.6002 2.6549 1.4208-4.3135-3.6625-2.7115h4.4833l1.3586-4.2059zm-10.588-10.587h4.506l-3.6285 2.7172 1.4095 4.3078-3.6116-2.6549-3.6059 2.6549 1.4208-4.3078-3.6625-2.7172h4.489l1.3586-4.2003zm0 49.99h4.506l-3.6285 2.7172 1.4095 4.3078-3.6116-2.6606-3.6059 2.6606 1.4208-4.3078-3.6625-2.7172h4.489l1.3586-4.2059zm-14.261 3.8176h4.506l-3.6285 2.7228 1.4095 4.3022-3.6116-2.6492-3.6059 2.6492 1.4208-4.3022-3.6625-2.7228h4.489l1.3586-4.2003zm-0.15855-57.653h4.4946l-3.6229 2.8247 1.4095 4.4777-3.6116-2.7568-3.6116 2.7568 1.4265-4.4777-3.6568-2.8247h4.4833l1.3586-4.3701z" fill="#fff200"/>
  <g fill="#5a5758">
    <path d="m143.5 168.83h-1.4661c-0.26628 0-0.39082-0.12454-0.39082-0.38493l0.0226-5.7287c0-1.2057-0.28304-1.9982-1.4661-1.9982-0.81515 0-2.2417 0.65099-2.7964 0.91705v6.8099c0 0.24364-0.10189 0.38493-0.38493 0.38493h-1.4492c-0.28304 0-0.38493-0.12454-0.38493-0.38493v-9.1987c0-0.2604 0.10189-0.40214 0.38493-0.40214h1.4492c0.28304 0 0.38493 0.14129 0.38493 0.40214v0.61702c0.0226 0 0.0453 0.0181 0.0625 0.0181 0.75288-0.52645 2.1794-1.2227 3.4248-1.2227 2.7511 0 3.0002 1.8171 3.0002 3.872v5.9155c0 0.24364-0.0851 0.38493-0.39082 0.38493m-12.248-4.5478h-2.4851c-1.0189 0-1.6756 0.36818-1.6756 1.7152 0 0.8944 0.30568 1.1831 1.268 1.1831 0.87741 0 2.1171-0.51513 2.8926-0.96233zm0.12454 3.3851c-1.0189 0.77553-2.3888 1.3246-3.7531 1.3246-2.1624 0-2.7908-1.1831-2.7908-2.8926-0.0226-2.3888 1.2624-3.4078 3.8323-3.4078h2.6096v-0.52645c0-1.2227-0.45286-1.6529-2.1228-1.6529-0.67363 0-1.9586 0.1019-2.7738 0.18115-0.40757 0.0625-0.50946 0.0408-0.56607-0.24319l-0.18658-0.75288c-0.0408-0.26628 0.0226-0.43021 0.46984-0.61136 0.87742-0.30568 2.4851-0.44697 3.4474-0.44697 3.5266 0 3.9512 1.4435 3.9512 3.7304v3.9342c0 0.83213 0.1019 0.85477 0.7359 0.93402 0.30568 0.0226 0.38493 0.0847 0.38493 0.30568v0.86043c0 0.221-0.14129 0.36229-0.48682 0.42433-0.32832 0.0625-0.65099 0.1019-0.95667 0.1019-0.96233 0-1.551-0.28304-1.7548-1.2397l-0.0408-0.0226zm-13.718-4.75h4.0361c0-1.2454-0.32832-2.4454-2.0152-2.4454-1.5114 0-1.919 0.91704-2.0209 2.4454m-0.0226 1.5284c0.0625 2.0605 0.79817 2.6322 2.4681 2.6322 0.7359 0 1.8737-0.14718 2.6492-0.22643 0.36818-0.0408 0.49249-0.0408 0.55476 0.34553l0.1191 0.67363c0.0625 0.30568 0.0226 0.46984-0.34508 0.634-0.79817 0.30568-2.2813 0.50947-3.2832 0.50947-3.8946 0-4.4663-2.4851-4.4663-5.14 0-1.9756 0.36817-5.2362 4.3475-5.2362 3.6455 0 4.2965 2.3662 4.3588 4.5626 0.0226 0.7359-0.18115 1.2454-0.9963 1.2454h-5.406zm-7.3947-3.7298c-0.8378 0-2.1228 0.58872-2.7342 0.91704v5.0947c0.91704 0.26628 1.6529 0.34553 2.3492 0.34553 1.4661 0 1.9756-0.75288 1.9756-3.3172 0-2.5926-0.50947-3.0398-1.5907-3.0398m-0.16394 8.2987c-0.67363 0-1.6076-0.12454-2.5473-0.45286l-0.0226 0.0226v3.5889c0 0.22054-0.0566 0.40757-0.38493 0.40757h-1.4492c-0.32244 0-0.38494-0.14129-0.38494-0.40757v-12.924c0-0.26583 0.1019-0.40757 0.38494-0.40757h1.4492c0.28892 0 0.36817 0.1585 0.36817 0.40757v0.61136l0.0625 0.0408c0.73023-0.50947 2.0379-1.2227 3.221-1.2227 2.6662 0 3.3625 2.0152 3.3625 5.0947 0 3.3229-0.83779 5.2418-4.0588 5.2418m-10.413-8.4229c-1.7322 0-2.1228 1.1038-2.1228 3.221 0 2.1624 0.39037 3.221 2.1001 3.221 1.8567 0 2.2247-1.0416 2.2247-3.221 0-2.1624-0.34553-3.221-2.202-3.221m-0.02264 8.4006c-4.0927 0-4.3588-3.0002-4.3588-5.3211 0-1.919 0.42433-5.0381 4.3588-5.0381 3.9569 0 4.506 2.6322 4.506 5.0381 0 2.3209-0.28304 5.3211-4.506 5.3211m-8.5579-0.5519c0 0.24363-0.10189 0.38493-0.38493 0.38493h-1.4718c-0.28304 0-0.38493-0.11911-0.38493-0.38493v-9.1931c0-0.26628 0.10189-0.40757 0.38493-0.40757h1.4492c0.30568 0 0.40757 0.16394 0.40757 0.40757v0.8944l0.04076 0.0408c0.61136-0.56607 2.0605-1.2624 3.0172-1.4435 0.26628-0.0625 0.44697 0 0.49248 0.34508l0.14129 1.3642c0.01811 0.28892 0.04076 0.40757-0.39037 0.49249-1.1378 0.22099-2.587 0.62834-3.3002 0.93402v6.5665zm-4.3588 0.38719h-1.4492c-0.30568 0-0.38493-0.14129-0.38493-0.38493v-0.634l-0.04076-0.0226c-0.79817 0.55476-2.185 1.2227-3.4248 1.2227-2.7511 0-3.0172-1.6303-3.0172-3.7701v-5.9947c0-0.24319 0.10189-0.40214 0.38493-0.40214h1.4888c0.26628 0 0.36818 0.14129 0.36818 0.40214v5.7287c0 1.2284 0.24319 1.9982 1.4888 1.9982 0.87742 0 2.219-0.65098 2.7511-0.91704v-6.8099c0-0.24319 0.07925-0.40214 0.38493-0.40214h1.4492c0.28304 0 0.38493 0.14129 0.38493 0.40214v9.1987c0 0.26039-0.10189 0.38493-0.38493 0.38493m-17.853-13.128c0-0.26629 0.12454-0.40758 0.40757-0.40758h7.5005c0.24364 0 0.39082 0.14129 0.39082 0.38493v1.268c0 0.24364-0.10189 0.36818-0.40757 0.36818h-5.5645v3.504h4.9305c0.26583 0 0.40757 0.12454 0.40757 0.36772v1.2624c0 0.24364-0.10189 0.36772-0.40757 0.36772h-4.9305v4.0135h5.706c0.24318 0 0.36818 0.12453 0.36818 0.39081v1.2397c0 0.26628-0.10189 0.36772-0.39082 0.36772h-7.6024c-0.28304 0-0.40757-0.12453-0.40757-0.36772v-12.759z" aria-label="European"/>
    <path d="m164.14 190.34h-1.4661c-0.26628 0-0.39082-0.12454-0.39082-0.38493l0.0226-5.7287c0-1.2058-0.28304-1.9982-1.4661-1.9982-0.81515 0-2.2417 0.65099-2.7964 0.91704v6.8099c0 0.24363-0.10189 0.38493-0.38493 0.38493h-1.4492c-0.28304 0-0.38493-0.12454-0.38493-0.38493v-9.1987c0-0.26039 0.10189-0.40214 0.38493-0.40214h1.4492c0.28304 0 0.38493 0.1413 0.38493 0.40214v0.61703c0.0226 0 0.0408 0.0181 0.0625 0.0181 0.75288-0.52645 2.185-1.2227 3.4248-1.2227 2.7511 0 3.0002 1.8171 3.0002 3.872v5.9155c0 0.24364-0.0847 0.38493-0.39082 0.38493m-13.9-8.237c-1.7322 0-2.1171 1.1038-2.1171 3.221 0 2.1624 0.38493 3.221 2.0945 3.221 1.8567 0 2.2247-1.0416 2.2247-3.221 0-2.1624-0.34553-3.221-2.202-3.221m-0.0226 8.4006c-4.0927 0-4.3588-3.0002-4.3588-5.3211 0-1.919 0.42433-5.0381 4.3588-5.0381 3.9569 0 4.506 2.6322 4.506 5.0381 0 2.3209-0.28303 5.3211-4.506 5.3211m-5.8668-0.5519c0 0.221-0.0793 0.38493-0.36817 0.38493h-1.4492c-0.28303 0-0.40757-0.1191-0.40757-0.38493v-9.2157c0-0.28304 0.12454-0.38493 0.40757-0.38493h1.4492c0.28892 0 0.36817 0.16393 0.36817 0.38493zm-1.0812-11.067c-1.0586 0-1.2001-0.59438-1.2001-1.1831 0-0.65098 0.221-1.1661 1.2001-1.1661 1.002 0 1.2057 0.46984 1.2057 1.1661 0 0.62835-0.18658 1.1831-1.2057 1.1831m-6.6225 11.618c-1.0189 0-2.3832-0.14129-3.1587-0.44697-0.40758-0.16394-0.49249-0.35097-0.43022-0.67363l0.14129-0.67363c0.0625-0.32833 0.20379-0.34508 0.53211-0.30568 0.8944 0.14129 2.202 0.24364 2.8926 0.24364 1.3076 0 1.8397-0.34554 1.8397-1.1605 0-0.93968-0.35096-1.1435-1.636-1.3246-1.9982-0.28893-3.7474-0.71326-3.7474-2.9379 0-2.0152 1.5454-3.0738 3.8323-3.0738 0.83213 0 2.2416 0.1191 3.0964 0.44697 0.34553 0.14129 0.49248 0.30568 0.43022 0.61136l-0.16394 0.73024c-0.062 0.28892-0.18114 0.32832-0.54909 0.28892-0.87742-0.10189-2.0209-0.22643-2.7738-0.22643-1.302 0-1.6076 0.36773-1.6076 1.1435 0 0.7925 0.48682 0.89439 1.7322 1.0982 1.936 0.28847 3.6851 0.67363 3.6851 3.1021 0 2.3832-2.0152 3.1587-4.1154 3.1587m-8.5387-4.5e-4c-1.0189 0-2.3832-0.14129-3.1587-0.44697-0.40757-0.16394-0.49248-0.35097-0.43022-0.67363l0.1413-0.67363c0.0625-0.32833 0.20378-0.34508 0.53211-0.30568 0.8944 0.14129 2.202 0.24364 2.8926 0.24364 1.3076 0 1.8398-0.34554 1.8398-1.1605 0-0.93968-0.35097-1.1435-1.636-1.3246-1.9982-0.28893-3.7474-0.71326-3.7474-2.9379 0-2.0152 1.5454-3.0738 3.8323-3.0738 0.83213 0 2.2417 0.1191 3.0964 0.44697 0.34553 0.14129 0.49249 0.30568 0.43022 0.61136l-0.16394 0.73024c-0.0625 0.28892-0.18114 0.32832-0.54909 0.28892-0.87742-0.10189-2.0209-0.22643-2.7738-0.22643-1.302 0-1.6076 0.36773-1.6076 1.1435 0 0.7925 0.48682 0.89439 1.7322 1.0982 1.936 0.28847 3.6852 0.67363 3.6852 3.1021 0 2.3832-2.0152 3.1587-4.1154 3.1587m-5.054-0.55122c0 0.221-0.0793 0.38493-0.36818 0.38493h-1.4492c-0.28304 0-0.40758-0.1191-0.40758-0.38493v-9.2157c0-0.28304 0.12454-0.38493 0.40758-0.38493h1.4492c0.28893 0 0.36818 0.16393 0.36818 0.38493zm-1.0812-11.067c-1.0586 0-1.2001-0.59438-1.2001-1.1831 0-0.65098 0.221-1.1661 1.2001-1.1661 1.002 0 1.2057 0.46984 1.2057 1.1661 0 0.62835-0.18658 1.1831-1.2057 1.1831m-3.1746 11.454h-1.4661c-0.28847 0-0.39082-0.12454-0.39082-0.38493v-5.791c0-1.5114-0.36229-1.936-1.3869-1.936-0.75288 0-1.9756 0.58872-2.604 0.91704 0 0.20379 0.0181 0.57174 0.0181 1.0359v5.774c0 0.24363-0.0793 0.38493-0.38493 0.38493h-1.4888c-0.26583 0-0.34554-0.12454-0.34554-0.38493v-5.8928c0-1.2454-0.32832-1.8341-1.3473-1.8341-0.71325 0-1.8567 0.50947-2.6322 0.91704v6.8099c0 0.24363-0.10189 0.38493-0.38493 0.38493h-1.4661c-0.26628 0-0.36818-0.12454-0.36818-0.38493v-9.1987c0-0.26039 0.1019-0.40214 0.36818-0.40214h1.4435c0.30568 0 0.40757 0.15851 0.40757 0.40214v0.59438l0.0226 0.0226c0.7925-0.55476 1.9133-1.1661 3.0398-1.2057 1.1774 0 2.1568 0.24363 2.7908 1.4265 1.0189-0.75288 2.2813-1.4265 3.5889-1.4265 2.6889 0 2.9549 1.7548 2.9549 3.7927v5.9947c0 0.24363-0.0851 0.38493-0.36817 0.38493m-15.977 5e-5h-1.4661c-0.28847 0-0.39082-0.12454-0.39082-0.38493v-5.791c0-1.5114-0.36229-1.936-1.3869-1.936-0.75288 0-1.9756 0.58872-2.6039 0.91704 0 0.20379 0.01811 0.57174 0.01811 1.0359v5.774c0 0.24363-0.07925 0.38493-0.38493 0.38493h-1.4888c-0.26583 0-0.34553-0.12454-0.34553-0.38493v-5.8928c0-1.2454-0.32832-1.8341-1.3473-1.8341-0.71325 0-1.8567 0.50947-2.6322 0.91704v6.8099c0 0.24363-0.10189 0.38493-0.38493 0.38493h-1.4661c-0.26628 0-0.36818-0.12454-0.36818-0.38493v-9.1987c0-0.26039 0.10189-0.40214 0.36818-0.40214h1.4435c0.30568 0 0.40757 0.15851 0.40757 0.40214v0.59438l0.02264 0.0226c0.7925-0.55476 1.9133-1.1661 3.0398-1.2057 1.1774 0 2.1567 0.24363 2.7908 1.4265 1.0189-0.75288 2.2813-1.4265 3.5889-1.4265 2.6889 0 2.9549 1.7548 2.9549 3.7927v5.9947c0 0.24363-0.0851 0.38493-0.36817 0.38493m-19.893-8.2358c-1.7322 0-2.1228 1.1038-2.1228 3.221 0 2.1624 0.39082 3.221 2.1001 3.221 1.8567 0 2.2247-1.0416 2.2247-3.221 0-2.1624-0.34553-3.221-2.202-3.221m-0.02264 8.4006c-4.0927 0-4.3588-3.0002-4.3588-5.3211 0-1.919 0.42433-5.0381 4.3588-5.0381 3.9569 0 4.506 2.6322 4.506 5.0381 0 2.3209-0.28304 5.3211-4.506 5.3211m-8.7198-13.843c0.99629 0 2.6492 0.14129 3.7304 0.58871 0.32832 0.14718 0.44697 0.31157 0.38493 0.63401l-0.18114 0.83779c-0.06249 0.24364-0.16394 0.34553-0.53211 0.30568-0.99629-0.12454-2.219-0.26583-3.2776-0.26583-2.7738 0-3.1813 2.2417-3.1813 4.8909 0 2.6719 0.50947 4.772 3.1813 4.772 1.1774 0 2.1794-0.12453 3.2776-0.26628 0.39082-0.0408 0.46984 0.0625 0.55475 0.32833l0.1585 0.77552c0.08468 0.32289-0.01811 0.50947-0.34553 0.65099-0.99629 0.42433-2.7738 0.61136-3.7701 0.61136-4.5456 0-5.5023-3.3625-5.5023-6.8325 0-3.4814 0.85477-7.0306 5.5023-7.0306"/>
  </g>
</svg>
