<svg width="37" height="36" viewBox="0 0 37 36" fill="none" xmlns="http://www.w3.org/2000/svg">
<path d="M35.154 18.0001C35.154 27.1985 27.6973 34.6552 18.4989 34.6552C9.30051 34.6552 1.84375 27.1985 1.84375 18.0001C1.84375 8.80173 9.30051 1.34497 18.4989 1.34497C27.6973 1.34497 35.154 8.80173 35.154 18.0001Z" fill="white" stroke="black" stroke-miterlimit="10"/>
<path d="M24.8545 13.71L19.1445 8H18.1445V15.59L13.5545 11L12.1445 12.41L17.7345 18L12.1445 23.59L13.5545 25L18.1445 20.41V28H19.1445L24.8545 22.29L20.5545 18L24.8545 13.71ZM20.1445 11.83L22.0245 13.71L20.1445 15.59V11.83ZM22.0245 22.29L20.1445 24.17V20.41L22.0245 22.29Z" fill="black"/>
</svg>
