<?xml version="1.0" encoding="UTF-8"?>
<svg width="700pt" height="700pt" version="1.1" viewBox="0 0 700 700" xmlns="http://www.w3.org/2000/svg" xmlns:xlink="http://www.w3.org/1999/xlink">
 <g>
  <path d="m488.88 58.238c-70 0-127.12 57.121-127.12 127.12 0 20.16 5.0391 40.32 14 58.238l-19.039 62.719c-1.1211 3.3594 0 6.7188 2.2383 8.9609 1.6797 1.6797 3.9219 2.8008 6.1602 2.8008 1.1211 0 1.6797 0 2.8008-0.55859l62.719-19.039c17.922 8.9609 38.078 14 58.238 14 70 0 127.12-57.121 127.12-127.12 0.003906-70-57.117-127.12-127.12-127.12zm57.68 110.32-57.117 57.121c-3.3594 3.3594-7.8398 5.0391-11.762 5.0391-4.4805 0-8.3984-1.6797-11.762-5.0391l-30.238-30.238c-6.7188-6.7188-6.7188-17.359 0-24.078s17.359-6.7188 24.078 0l17.922 17.922 45.359-45.359c6.7188-6.7188 17.359-6.7188 24.078 0 6.7227 6.7148 6.1641 17.914-0.55859 24.633z"/>
  <path d="m415.52 381.92h-54.32l-44.238-48.719c-12.879-14-31.359-22.398-50.398-22.398h-49.84c-22.398 0-43.121 11.199-56 29.68l-71.121 105.28c-6.7188 9.5195-7.8398 22.398-1.1211 31.922 5.6016 8.3984 14.559 12.879 23.52 12.879s17.359-3.9219 22.961-11.762l36.961-54.32v60.48c0 9.5195 7.8398 17.922 17.922 17.922h102.48c9.5195 0 17.922-7.8398 17.922-17.922l-0.007813-77.84 19.039 21.281c5.6016 6.1602 12.879 9.5195 20.719 9.5195h64.961c14 0 26.879-9.5195 28.559-23.52 2.2461-17.922-11.195-32.48-27.996-32.48z"/>
  <path d="m301.84 233.52c0 34.02-27.578 61.602-61.602 61.602-34.02 0-61.598-27.582-61.598-61.602s27.578-61.598 61.598-61.598c34.023 0 61.602 27.578 61.602 61.598"/>
  <use x="70" y="644" xlink:href="#h"/>
  <use x="90.550781" y="644" xlink:href="#c"/>
  <use x="104.359375" y="644" xlink:href="#a"/>
  <use x="123.347656" y="644" xlink:href="#l"/>
  <use x="142.242188" y="644" xlink:href="#b"/>
  <use x="155.628906" y="644" xlink:href="#a"/>
  <use x="174.617188" y="644" xlink:href="#e"/>
  <use x="204.410156" y="644" xlink:href="#k"/>
  <use x="224.453125" y="644" xlink:href="#j"/>
  <use x="252.453125" y="644" xlink:href="#i"/>
  <use x="274.121094" y="644" xlink:href="#e"/>
  <use x="294.164062" y="644" xlink:href="#c"/>
  <use x="307.972656" y="644" xlink:href="#u"/>
  <use x="317.570312" y="644" xlink:href="#a"/>
  <use x="336.5625" y="644" xlink:href="#g"/>
  <use x="366.242188" y="644" xlink:href="#h"/>
  <use x="386.789062" y="644" xlink:href="#d"/>
  <use x="406.027344" y="644" xlink:href="#t"/>
  <use x="426.070312" y="644" xlink:href="#f"/>
  <use x="446.003906" y="644" xlink:href="#a"/>
  <use x="464.992187" y="644" xlink:href="#b"/>
  <use x="70" y="672" xlink:href="#s"/>
  <use x="82.183594" y="672" xlink:href="#c"/>
  <use x="95.992188" y="672" xlink:href="#d"/>
  <use x="115.226562" y="672" xlink:href="#r"/>
  <use x="154.152344" y="672" xlink:href="#b"/>
  <use x="167.535156" y="672" xlink:href="#q"/>
  <use x="187.46875" y="672" xlink:href="#a"/>
  <use x="216.207031" y="672" xlink:href="#p"/>
  <use x="239.640625" y="672" xlink:href="#d"/>
  <use x="258.878906" y="672" xlink:href="#f"/>
  <use x="278.8125" y="672" xlink:href="#g"/>
  <use x="308.492188" y="672" xlink:href="#o"/>
  <use x="329.015625" y="672" xlink:href="#c"/>
  <use x="342.820312" y="672" xlink:href="#d"/>
  <use x="362.058594" y="672" xlink:href="#n"/>
  <use x="371.65625" y="672" xlink:href="#a"/>
  <use x="390.648438" y="672" xlink:href="#m"/>
  <use x="407.242188" y="672" xlink:href="#b"/>
 </g>
</svg>
