<svg id="ic-nfc" xmlns="http://www.w3.org/2000/svg" width="192" height="192" viewBox="0 0 192 192">
  <rect id="Rectangle_9945" data-name="Rectangle 9945" width="192" height="192" fill="none"/>
  <path id="Path_33966" data-name="Path 33966" d="M39.832,814.4a52.981,52.981,0,0,1-8.667-3.679c-3.147-1.76-7.527-5.613-11.028-9.536a8.665,8.665,0,0,0,6.976-11.643,8.665,8.665,0,0,0,5.251-15.508,8.659,8.659,0,0,0-2.61-14.517,8.664,8.664,0,0,0-4.886-14.278l-9.415-1.75a8.659,8.659,0,0,0-9.287,12.465,8.659,8.659,0,0,0-2.808,15.137,8.658,8.658,0,0,0-1.37,11.36,8.682,8.682,0,0,0,1.831,1.943,8.658,8.658,0,0,0,4.192,14.968l5.937,1.1c4,5.372,10.548,11.486,15.1,14.033a56.443,56.443,0,0,0,9.341,3.984c7.618,2.686,14.235,5.019,22.294,21.274a2.165,2.165,0,1,0,3.878-1.926C55.717,820,47.993,817.273,39.832,814.4m-8.519-32.729a4.33,4.33,0,0,1-5.048,3.467l-14.852-2.759-.239-.044h0L8.337,781.8a4.331,4.331,0,0,1,.782-8.589,4.381,4.381,0,0,1,.8.074l15.093,2.8h0l2.837.527a4.33,4.33,0,0,1,3.467,5.048M9.614,751.21a4.335,4.335,0,0,1,5.048-3.467l9.415,1.75a4.33,4.33,0,0,1-1.573,8.516l-4.122-.766-5.3-.985a4.33,4.33,0,0,1-3.467-5.048M4.4,763.455a4.33,4.33,0,0,1,5.048-3.467l8.757,1.627,3.5.649h0l.01,0,5.666,1.052a4.33,4.33,0,0,1-1.58,8.515l-15.092-2.8h0L7.871,768.5A4.335,4.335,0,0,1,4.4,763.455m1.62,29.84a4.33,4.33,0,0,1,4.355-6.709l1.385.257,8.035,1.493a4.33,4.33,0,1,1-1.582,8.514h0L8.8,795.1A4.3,4.3,0,0,1,6.024,793.3" transform="translate(36.474 -648.958)" fill="#2a5ed9"/>
  <path id="Path_33967" data-name="Path 33967" d="M637.429,741.24a4.18,4.18,0,0,1-1.146-4.12,51.6,51.6,0,0,0,1.572-16.779c-.109-1.3-.259-2.427-.4-3.517a37.469,37.469,0,0,1-.423-4.73,28.638,28.638,0,0,1,.147-3.014l.015-.17c.643-7.275,1.108-12.531,3.207-18.412a45.63,45.63,0,0,1,6.55-12.063l.092-.133c.96-1.5,3.021-5.35,1.42-8.739-2.248-4.759-9.513-4.787-13.953-3.287a22.006,22.006,0,0,0-10.012,7.3,33.5,33.5,0,0,0-5.483,9.688l4.117,1.339a29.3,29.3,0,0,1,4.731-8.3,17.766,17.766,0,0,1,8.032-5.923c3.19-1.077,7.76-.856,8.653,1.034.51,1.081-.184,3.02-1.11,4.489a49.949,49.949,0,0,0-7.116,13.141c-2.285,6.4-2.8,12.177-3.442,19.486l-.015.167a32.691,32.691,0,0,0-.164,3.446,40.85,40.85,0,0,0,.461,5.255c.138,1.038.281,2.112.381,3.306a47.005,47.005,0,0,1-1.438,15.292,8.507,8.507,0,0,0,2.341,8.383l21.366,20.344a2.165,2.165,0,0,0,3.061-.075h0a2.165,2.165,0,0,0-.075-3.061Z" transform="translate(-503.941 -580.914)" fill="#2a5ed9"/>
  <path id="Path_33968" data-name="Path 33968" d="M295.67,206.124a2.878,2.878,0,0,1-2.041-.845,13.661,13.661,0,0,0-19.32,0,2.887,2.887,0,1,1-4.082-4.082,19.435,19.435,0,0,1,27.485,0,2.887,2.887,0,0,1-2.041,4.928" transform="translate(-198.703 -170.682)" fill="#2a5ed9"/>
  <path id="Path_33969" data-name="Path 33969" d="M244.1,112.01a2.878,2.878,0,0,1-2.041-.845,26.073,26.073,0,0,0-36.872,0,2.887,2.887,0,0,1-4.082-4.082,31.846,31.846,0,0,1,45.038,0,2.887,2.887,0,0,1-2.041,4.928" transform="translate(-138.36 -85.343)" fill="#2a5ed9"/>
  <path id="Path_33970" data-name="Path 33970" d="M192.537,17.9a2.878,2.878,0,0,1-2.041-.845,38.484,38.484,0,0,0-54.425,0,2.887,2.887,0,1,1-4.082-4.082,44.258,44.258,0,0,1,62.59,0,2.887,2.887,0,0,1-2.041,4.928" transform="translate(-78.018 -0.005)" fill="#2a5ed9"/>
  <path id="Path_33971" data-name="Path 33971" d="M199.138,613.582a.585.585,0,0,1-.183-.427V597.3a.574.574,0,0,1,.183-.439.607.607,0,0,1,.427-.171h2.586a.831.831,0,0,1,.829.464l5.952,9.367V597.3a.574.574,0,0,1,.183-.439.607.607,0,0,1,.427-.171h2.927a.585.585,0,0,1,.61.61v15.832a.638.638,0,0,1-.171.451.574.574,0,0,1-.439.183h-2.61a.872.872,0,0,1-.8-.464l-5.952-9.026v8.88a.607.607,0,0,1-.171.427.574.574,0,0,1-.439.183h-2.927a.585.585,0,0,1-.427-.183" transform="translate(-137.22 -520.928)" fill="#2a5ed9"/>
  <path id="Path_33972" data-name="Path 33972" d="M337.277,613.582a.585.585,0,0,1-.183-.427V597.3a.574.574,0,0,1,.183-.439.607.607,0,0,1,.427-.171h11.221a.585.585,0,0,1,.61.61v2.464a.607.607,0,0,1-.171.427.575.575,0,0,1-.439.183h-7.538v3.586h7.05a.574.574,0,0,1,.439.183.638.638,0,0,1,.171.451v2.439a.607.607,0,0,1-.171.427.574.574,0,0,1-.439.183h-7.05v5.513a.585.585,0,0,1-.61.61H337.7a.585.585,0,0,1-.427-.183" transform="translate(-257.819 -520.928)" fill="#2a5ed9"/>
  <path id="Path_33973" data-name="Path 33973" d="M452.562,610.636a6.485,6.485,0,0,1-2.086-4.916q-.025-.659-.024-2.147,0-1.512.024-2.2a6.447,6.447,0,0,1,2.122-4.891,8.026,8.026,0,0,1,5.415-1.72,9.845,9.845,0,0,1,3.854.72,6.338,6.338,0,0,1,2.7,2.049,5.2,5.2,0,0,1,1.012,3.11v.049a.415.415,0,0,1-.159.329.534.534,0,0,1-.354.134h-3.293a.773.773,0,0,1-.488-.134,1.048,1.048,0,0,1-.293-.5,2.964,2.964,0,0,0-1.073-1.744,3.357,3.357,0,0,0-1.927-.5q-2.879,0-2.976,3.22-.025.659-.024,2.025t.024,2.074q.1,3.22,2.976,3.22a3.352,3.352,0,0,0,1.952-.524,2.8,2.8,0,0,0,1.049-1.72.925.925,0,0,1,.268-.5.82.82,0,0,1,.512-.134h3.293a.539.539,0,0,1,.378.146.412.412,0,0,1,.134.366,5.2,5.2,0,0,1-1.012,3.11,6.329,6.329,0,0,1-2.7,2.049,9.843,9.843,0,0,1-3.854.72,8.074,8.074,0,0,1-5.452-1.7" transform="translate(-356.784 -519.25)" fill="#2a5ed9"/>
  <path id="Path_33974" data-name="Path 33974" d="M170.523,326.013H120.155a9.566,9.566,0,0,0-9.566,9.566v39.47a2.887,2.887,0,0,0,5.774,0v-39.47a3.793,3.793,0,0,1,3.793-3.793h11.109a1.429,1.429,0,0,1,1.429,1.429,4.3,4.3,0,0,0,4.3,4.3h16.686a4.3,4.3,0,0,0,4.3-4.3,1.429,1.429,0,0,1,1.429-1.429h11.109a3.793,3.793,0,0,1,3.793,3.793V433.83a3.793,3.793,0,0,1-3.793,3.793H129.9a2.887,2.887,0,0,0,0,5.774h40.62a9.566,9.566,0,0,0,9.566-9.566V335.579a9.566,9.566,0,0,0-9.566-9.566" transform="translate(-60.073 -284.619)" fill="#2a5ed9"/>
</svg>
