<svg width="103" height="233" viewBox="0 0 103 233" fill="none" xmlns="http://www.w3.org/2000/svg">
<g clip-path="url(#clip0_3352_12143)">
<g clip-path="url(#clip1_3352_12143)">
<path d="M44.4169 159.107C43.6342 159.107 43.0002 158.475 43.0002 157.694C43.0002 151.504 41.822 146 39.4963 141.332C37.6464 137.617 35.0645 134.411 31.8227 131.804C26.254 127.324 20.5815 126.135 20.5248 126.123C19.8649 125.989 19.3879 125.41 19.3879 124.739V89.4296C19.3879 84.6676 16.8757 79.543 11.3601 79.543C5.84458 79.543 3.33236 84.6676 3.33236 89.4296V120.031C3.33236 120.811 2.6984 121.443 1.91569 121.443C1.13298 121.443 0.499023 120.811 0.499023 120.031V89.4296C0.499023 85.5738 1.65243 82.3089 3.83409 79.9891C5.81743 77.8799 8.4902 76.7183 11.3601 76.7183C14.2301 76.7183 16.9028 77.8799 18.8862 79.9891C21.0678 82.3089 22.2212 85.5738 22.2212 89.4296V123.641C24.2955 124.23 28.8819 125.842 33.4956 129.521C37.0844 132.383 39.9438 135.907 41.9944 139.996C44.542 145.075 45.8335 151.029 45.8335 157.694C45.8335 158.475 45.1996 159.107 44.4169 159.107Z" fill="#2A5FD9"/>
<path d="M86.917 119.089C86.1343 119.089 85.5003 118.457 85.5003 117.677V58.8282C85.5003 54.4145 81.8996 50.8247 77.4725 50.8247H25.5281C21.101 50.8247 17.5003 54.4145 17.5003 58.8282V70.5979C17.5003 71.3783 16.8664 72.0103 16.0837 72.0103C15.301 72.0103 14.667 71.3783 14.667 70.5979V58.8282C14.667 52.8574 19.5391 48 25.5281 48H77.4725C83.4615 48 88.3337 52.8574 88.3337 58.8282V117.677C88.3337 118.457 87.6997 119.089 86.917 119.089Z" fill="#2A5FD9"/>
<path d="M77.4729 166.168H51.5007C50.7179 166.168 50.084 165.536 50.084 164.756C50.084 163.976 50.7179 163.344 51.5007 163.344H77.4729C81.9 163.344 85.5006 159.754 85.5006 155.34V127.093C85.5006 126.312 86.1346 125.68 86.9173 125.68C87.7 125.68 88.334 126.312 88.334 127.093V155.34C88.334 161.311 83.4618 166.168 77.4729 166.168Z" fill="#2A5FD9"/>
<path d="M20.8056 185C20.0228 185 19.3889 184.368 19.3889 183.588C19.3889 175.851 16.1247 172.825 11.9915 168.993C9.39903 166.589 6.45944 163.864 4.23528 159.629C1.72187 154.841 0.5 148.819 0.5 141.217V134.155C0.5 133.374 1.13396 132.742 1.91667 132.742C2.69938 132.742 3.33333 133.374 3.33333 134.155V141.217C3.33333 148.351 4.44896 153.946 6.74514 158.318C8.74382 162.124 11.3753 164.564 13.9206 166.924C18.1894 170.882 22.2222 174.62 22.2222 183.586C22.2222 184.367 21.5883 184.999 20.8056 184.999V185Z" fill="#2A5FD9"/>
<path d="M60.945 185C60.1623 185 59.5283 184.368 59.5283 183.588C59.5283 176.061 64.1585 173.734 67.8784 171.864C71.1285 170.23 73.695 168.939 73.695 164.756C73.695 163.976 74.3289 163.344 75.1117 163.344C75.8944 163.344 76.5283 163.976 76.5283 164.756C76.5283 170.679 72.6101 172.649 69.1534 174.386C65.509 176.219 62.3617 177.8 62.3617 183.588C62.3617 184.368 61.7277 185 60.945 185Z" fill="#2A5FD9"/>
<path d="M94 128.505H86.9167C86.134 128.505 85.5 127.873 85.5 127.093C85.5 126.312 86.134 125.68 86.9167 125.68H94C97.1249 125.68 99.6667 123.146 99.6667 120.031V117.677C99.6667 114.562 97.1249 112.028 94 112.028H86.9167C86.134 112.028 85.5 111.395 85.5 110.615C85.5 109.835 86.134 109.203 86.9167 109.203H94C98.6868 109.203 102.5 113.004 102.5 117.677V120.031C102.5 124.704 98.6868 128.505 94 128.505Z" fill="#2A5FD9"/>
<path d="M94 144.983H86.9167C86.134 144.983 85.5 144.351 85.5 143.57C85.5 142.79 86.134 142.158 86.9167 142.158H94C97.1249 142.158 99.6667 139.624 99.6667 136.509V134.155C99.6667 131.039 97.1249 128.505 94 128.505H86.9167C86.134 128.505 85.5 127.873 85.5 127.093C85.5 126.312 86.134 125.68 86.9167 125.68H94C98.6868 125.68 102.5 129.482 102.5 134.155V136.509C102.5 141.181 98.6868 144.983 94 144.983Z" fill="#2A5FD9"/>
<path d="M94 112.028H86.9167C86.134 112.028 85.5 111.395 85.5 110.615C85.5 109.835 86.134 109.203 86.9167 109.203H94C97.1249 109.203 99.6667 106.669 99.6667 103.553V101.199C99.6667 98.0839 97.1249 95.5498 94 95.5498H86.9167C86.134 95.5498 85.5 94.9178 85.5 94.1375C85.5 93.3571 86.134 92.7251 86.9167 92.7251H94C98.6868 92.7251 102.5 96.5267 102.5 101.199V103.553C102.5 108.226 98.6868 112.028 94 112.028Z" fill="#2A5FD9"/>
<path d="M94 95.5498H86.9167C86.134 95.5498 85.5 94.9178 85.5 94.1375C85.5 93.3571 86.134 92.7251 86.9167 92.7251H94C97.1249 92.7251 99.6667 90.1911 99.6667 87.0756V84.7217C99.6667 81.6062 97.1249 79.0722 94 79.0722H86.9167C86.134 79.0722 85.5 78.4401 85.5 77.6598C85.5 76.8795 86.134 76.2474 86.9167 76.2474H94C98.6868 76.2474 102.5 80.0491 102.5 84.7217V87.0756C102.5 91.7482 98.6868 95.5498 94 95.5498Z" fill="#2A5FD9"/>
<path d="M51.3716 97.9037C50.8344 97.9037 50.3197 97.5966 50.0824 97.0775C49.7577 96.369 50.0706 95.5321 50.7801 95.2073C50.8202 95.1885 53.578 93.8973 56.2827 91.0796C59.8562 87.3569 61.6672 82.842 61.6672 77.6598V75.3058C61.6672 74.5255 62.3011 73.8934 63.0839 73.8934C63.8666 73.8934 64.5005 74.5255 64.5005 75.3058V77.6598C64.5005 85.1053 61.0993 90.1769 58.2459 93.1193C55.167 96.2948 52.0882 97.7166 51.9595 97.7755C51.7682 97.8625 51.5687 97.9037 51.3716 97.9037Z" fill="#2A5FD9"/>
<path d="M51.369 97.9037C51.173 97.9037 50.9723 97.8625 50.7823 97.7755C50.6524 97.7166 47.5747 96.2948 44.4958 93.1193C41.6424 90.1769 38.2412 85.1053 38.2412 77.6598V75.3058C38.2412 74.5255 38.8752 73.8934 39.6579 73.8934C40.4406 73.8934 41.0745 74.5255 41.0745 75.3058V77.6598C41.0745 82.842 42.8867 87.358 46.4591 91.0796C49.1696 93.9032 51.9345 95.1943 51.9616 95.2073C52.6711 95.5333 52.9828 96.3713 52.657 97.0799C52.4185 97.5977 51.9061 97.9037 51.369 97.9037Z" fill="#2A5FD9"/>
<path d="M63.0834 119.089C62.3007 119.089 61.6667 118.457 61.6667 117.677V115.323C61.6667 110.141 59.8546 105.625 56.2822 101.903C53.5717 99.0796 50.8068 97.7885 50.7796 97.7755C50.0701 97.4495 49.7585 96.6115 50.0843 95.9029C50.4101 95.1956 51.2483 94.8837 51.959 95.2062C52.0889 95.265 55.1666 96.6868 58.2455 99.8623C61.0989 102.805 64.5001 107.876 64.5001 115.322V117.676C64.5001 118.456 63.8661 119.088 63.0834 119.088V119.089Z" fill="#2A5FD9"/>
<path d="M39.6579 119.089C38.8752 119.089 38.2412 118.457 38.2412 117.677V115.323C38.2412 107.877 41.6424 102.806 44.4958 99.8634C47.5747 96.688 50.6536 95.2662 50.7823 95.2073C51.4941 94.8837 52.3347 95.1956 52.6593 95.9053C52.984 96.6138 52.6711 97.4506 51.9616 97.7755C51.9215 97.7943 49.1637 99.0855 46.4591 101.903C42.8855 105.626 41.0745 110.141 41.0745 115.323V117.677C41.0745 118.457 40.4406 119.089 39.6579 119.089Z" fill="#2A5FD9"/>
<path d="M67.7693 76.7182H34.9723C34.1896 76.7182 33.5557 76.0861 33.5557 75.3058C33.5557 74.5255 34.1896 73.8934 34.9723 73.8934H67.7693C68.5521 73.8934 69.186 74.5255 69.186 75.3058C69.186 76.0861 68.5521 76.7182 67.7693 76.7182Z" fill="#2A5FD9"/>
<path d="M67.7693 119.089H34.9723C34.1896 119.089 33.5557 118.457 33.5557 117.677C33.5557 116.897 34.1896 116.265 34.9723 116.265H67.7693C68.5521 116.265 69.186 116.897 69.186 117.677C69.186 118.457 68.5521 119.089 67.7693 119.089Z" fill="#2A5FD9"/>
</g>
</g>
<defs>
<clipPath id="clip0_3352_12143">
<rect width="102" height="233" fill="white" transform="translate(0.5)"/>
</clipPath>
<clipPath id="clip1_3352_12143">
<rect width="102" height="137" fill="white" transform="translate(0.5 48)"/>
</clipPath>
</defs>
</svg>
