<svg width="88" height="67" viewBox="0 0 88 67" fill="none" xmlns="http://www.w3.org/2000/svg">
<path d="M51.738 10.2407L6.37452 25.3825C2.99049 26.5121 1.16287 30.171 2.29242 33.5551L11.0795 59.8804C12.2091 63.2644 15.868 65.092 19.2521 63.9625L64.6155 48.8207C67.9996 47.6911 69.8272 44.0322 68.6976 40.6481L59.9106 14.3228C58.781 10.9388 55.122 9.11117 51.738 10.2407Z" fill="#F67875"/>
<path d="M52.4703 9.8033C51.9759 9.96834 51.4815 10.1334 50.9847 10.2992L46.983 11.6349C45.0469 12.2812 43.1084 12.9282 41.1722 13.5745C38.8433 14.3519 36.5143 15.1292 34.1854 15.9066C31.7063 16.7341 29.2295 17.5608 26.7504 18.3883L19.4886 20.8122C17.363 21.5217 15.235 22.232 13.1094 22.9415C11.5037 23.4775 9.89789 24.0135 8.29212 24.5495L5.72521 25.4063C5.29777 25.5489 4.8819 25.7109 4.48454 25.9282C2.93436 26.7846 1.84434 28.4042 1.6263 30.1589C1.51882 31.0139 1.59774 31.8812 1.87074 32.6991C1.94401 32.9186 2.19054 33.0417 2.41003 32.9685L57.0847 14.7187C57.8263 14.4712 58.5749 14.2367 59.3119 13.9753C59.3443 13.9645 59.3743 13.9545 59.4067 13.9437C59.6262 13.8704 59.7493 13.6239 59.676 13.4044C58.6873 10.4424 55.4193 8.84466 52.468 9.80407C51.9466 9.97297 52.2166 10.7816 52.7379 10.6127C55.2517 9.79677 58.026 11.1536 58.8674 13.6743L59.1367 13.135L4.46443 31.384C3.72509 31.6308 2.96108 31.8421 2.23715 32.1274C2.20712 32.1374 2.17477 32.1482 2.14242 32.159L2.68171 32.4284C2.14496 30.8203 2.50008 29.0147 3.60718 27.731C4.20462 27.036 4.97391 26.5558 5.83802 26.2674C6.54733 26.0306 7.25664 25.7938 7.96595 25.5571L12.3951 24.0787C14.4283 23.4 16.4615 22.7214 18.4947 22.0427C20.849 21.2569 23.2034 20.471 25.5578 19.6852L32.9489 17.2181C35.3125 16.4291 37.6738 15.641 40.0374 14.852L46.1069 12.8261C47.581 12.3341 49.0551 11.842 50.5292 11.35C51.2338 11.1148 51.9455 10.8927 52.6455 10.6436C52.6756 10.6336 52.7079 10.6228 52.7379 10.6127C53.2578 10.4392 52.9902 9.62978 52.468 9.80407L52.4703 9.8033Z" fill="#2E293B"/>
<path d="M22.4981 31.582C21.8165 31.8095 8.99318 35.4196 7.79948 35.8976C6.60577 36.3757 6.74345 37.7652 7.32493 39.5073C7.83084 41.0229 9.43515 46.3216 10.7456 50.586C10.9392 51.2198 11.1281 51.8321 11.3063 52.4043C12.4917 56.2328 13.076 57.2986 13.9079 57.2829C14.0381 57.2805 14.1728 57.2535 14.3184 57.2049C14.5495 57.1278 15.2719 56.8918 16.2808 56.5602C19.959 55.3555 27.4488 52.9069 28.8651 52.4341C30.6672 51.8326 29.2938 49.772 28.7662 47.922C28.6852 47.6332 28.5379 47.1457 28.3481 46.5157C28.3088 46.3825 28.2648 46.2431 28.2216 46.0983C28.2108 46.0659 28.2 46.0336 28.1915 46.0005C27.0986 42.403 24.9622 35.5178 24.4323 33.7996C23.7729 31.6624 23.1827 31.3561 22.5011 31.5836L22.4981 31.582Z" fill="white"/>
<mask id="mask0_5327_15374" style="mask-type:luminance" maskUnits="userSpaceOnUse" x="7" y="31" width="24" height="27">
<path d="M23.0888 31.7754C22.4072 32.0029 9.58394 35.6129 8.39024 36.091C7.19653 36.569 7.33421 37.9585 7.91569 39.7006C8.4216 41.2163 10.0259 46.515 11.3363 50.7794C11.5299 51.4132 11.7189 52.0255 11.897 52.5977C13.0825 56.4262 13.6668 57.492 14.4987 57.4762C14.6288 57.4739 14.7636 57.4468 14.9092 57.3983C15.1402 57.3211 15.8626 57.0851 16.8715 56.7535C20.5498 55.5489 28.0395 53.1002 29.4558 52.6275C31.258 52.026 29.8845 49.9653 29.3569 48.1154C29.2759 47.8266 29.1286 47.339 28.9389 46.7091C28.8995 46.5758 28.8556 46.4364 28.8124 46.2916C28.8016 46.2593 28.7908 46.2269 28.7823 46.1938C27.6894 42.5964 25.5529 35.7112 25.0231 33.9929C24.3636 31.8557 23.7735 31.5494 23.0919 31.7769L23.0888 31.7754Z" fill="white"/>
</mask>
<g mask="url(#mask0_5327_15374)">
<path d="M29.3374 49.4267C29.2817 50.4981 28.6651 51.4127 27.8866 52.1116C27.0304 52.8776 25.9923 53.4604 24.9673 53.9668C23.8761 54.5057 22.7332 54.936 21.5649 55.2746C20.3934 55.6117 19.1973 55.8594 17.9896 56.0263C16.8505 56.1831 15.6936 56.2945 14.5421 56.2603C13.4552 56.2276 12.3437 56.044 11.3652 55.5514C10.8837 55.309 10.4299 54.988 10.1124 54.5444C9.77405 54.0693 9.60975 53.4925 9.55714 52.9194C9.46583 51.9073 9.59938 50.7457 10.186 49.8874C10.3238 49.6848 10.4931 49.5076 10.6772 49.3511C10.8573 49.1986 11.0545 49.0583 11.2223 48.8918C11.3856 48.7269 11.511 48.5336 11.5433 48.2994C11.5725 48.0714 11.5238 47.8411 11.4614 47.6231C11.3349 47.1826 11.1367 46.7352 11.1904 46.2653C11.2426 45.7831 11.5852 45.4479 11.9425 45.1566C12.1181 45.0132 12.3014 44.8776 12.453 44.7088C12.6147 44.5316 12.7317 44.3282 12.8125 44.101C13.0687 43.376 13.036 42.5165 13.0934 41.7577C13.1701 40.7564 13.0472 39.7805 13.3795 38.8068C14.2604 36.2299 16.9005 35.4308 19.373 35.2758C20.4498 35.2091 21.5421 35.3427 22.4428 35.9793C23.3573 36.6267 24.0309 37.637 24.4011 38.6844C24.5954 39.2358 24.7166 39.8142 24.7469 40.3973C24.7787 41.0004 24.6888 41.6313 24.857 42.2197C25.1277 43.1693 26.1116 43.6318 26.6226 44.4242C26.7567 44.6337 26.853 44.8532 26.9078 45.0942C26.9757 45.3977 26.9751 45.7189 27.1023 46.0077C27.285 46.432 27.6834 46.7099 28.0393 46.9763C28.4331 47.2711 28.8075 47.5775 29.0465 48.0165C29.2793 48.4446 29.3588 48.9445 29.3351 49.4275L29.3374 49.4267Z" fill="#2E293B"/>
<path d="M23.2079 40.1638C23.4114 40.5504 23.5572 40.9717 23.6274 41.4053C23.7572 42.2171 23.6289 43.056 23.2086 43.7663C22.8245 44.4158 22.2208 44.9229 21.5054 45.1642C21.48 45.4192 21.454 45.6719 21.4287 45.9268C21.4264 45.9584 21.4148 45.9854 21.401 46.0054C21.3995 46.1086 21.4018 46.2157 21.4103 46.3181C21.653 46.422 21.9626 46.3264 22.2068 46.2885C22.5572 46.2383 22.91 46.2027 23.2627 46.1826C23.4514 46.1709 23.6918 46.137 23.8836 46.1962C23.9737 46.1045 24.1624 46.1391 24.147 46.3008C24.1455 46.3347 24.1409 46.3671 24.1394 46.401C24.265 46.6312 24.1765 46.8739 24.0542 47.0842C23.9735 47.5426 23.8312 47.9855 23.5394 48.3654C23.1391 48.8893 22.56 49.2469 21.9477 49.4667C21.2461 49.7189 20.4875 49.8463 19.7473 49.929C19.3984 49.9684 19.0671 49.9455 18.732 49.8416C18.692 49.8293 18.6512 49.8147 18.6111 49.8024C18.6134 49.894 18.5103 49.9927 18.4024 49.9696C17.7276 49.8251 17.062 49.6389 16.4119 49.4143C16.2108 49.3813 16.019 49.322 15.8464 49.205C15.4166 49.1097 14.996 49.0267 14.58 48.9421C14.4367 48.9129 14.4597 48.7203 14.5598 48.6587C15.0442 48.3635 15.5401 48.0798 16.0453 47.8162C16.2879 47.689 16.5313 47.5564 16.7831 47.4492C16.8955 47.4014 17.008 47.369 17.1212 47.3697C17.0668 46.2606 17.1187 45.1468 17.2808 44.0476C17.2747 44.0445 17.1375 43.9105 17.1375 43.9105C16.8217 44.0108 16.489 44.0525 16.1708 43.9225C15.6893 43.7262 15.5197 43.2256 15.5857 42.7388C15.5942 42.6795 15.6273 42.6402 15.6665 42.6194C15.6719 42.5277 15.685 42.4361 15.7088 42.3459C15.7857 42.0532 15.9889 41.7466 16.2885 41.6517C16.4487 41.6008 16.6082 41.6323 16.7645 41.6854C16.8462 41.7146 16.9279 41.7439 17.0126 41.7746C17.0049 41.7284 17.018 41.683 17.0672 41.646C17.4399 41.3701 17.7795 41.0564 18.0836 40.7136C18.0767 40.6774 18.0813 40.6373 18.1067 40.598C18.3083 40.2713 18.5501 39.9724 18.8249 39.7034C18.7987 39.648 18.8095 39.5802 18.8572 39.5232C19.2753 39.0601 19.6548 38.5662 19.9935 38.0423C20.1444 37.8096 20.2883 37.5715 20.4207 37.3296C20.4869 37.2125 20.55 37.0939 20.6124 36.9729C20.6678 36.862 20.7139 36.7387 20.7855 36.6378C20.9441 36.4128 21.2083 36.489 21.4371 36.5436C21.6852 36.602 21.9048 36.7213 22.0712 36.92C22.2346 37.1171 22.341 37.3512 22.4512 37.5814C22.4913 37.6631 22.5299 37.7478 22.5699 37.8294C22.6185 37.8286 22.6655 37.854 22.6994 37.9095C23.0917 38.5925 23.2646 39.3797 23.2187 40.1576L23.2079 40.1638Z" fill="white"/>
<path d="M23.4745 40.3393C23.3735 40.1445 23.0701 40.2971 23.171 40.4919C23.6297 41.366 23.6686 42.4212 23.3093 43.3372C22.9369 44.2909 22.1084 45.0015 21.131 45.2815C20.5704 45.4404 19.978 45.466 19.4111 45.3292C19.1992 45.2792 19.0908 45.6004 19.3034 45.6527C20.4157 45.9234 21.6118 45.6525 22.5158 44.9528C23.3844 44.2777 23.8754 43.2099 23.8904 42.1161C23.8986 41.5022 23.7604 40.8884 23.4752 40.3416L23.4745 40.3393Z" fill="#2E293B"/>
<path d="M23.147 38.2348C23.012 37.8998 22.8401 37.5849 22.6374 37.2853C22.4563 37.0197 22.239 36.6608 21.927 36.5415C21.7236 36.4631 21.6159 36.7866 21.8193 36.8651C21.9579 36.919 22.0589 37.083 22.1475 37.1946C22.2454 37.3186 22.3394 37.4464 22.4227 37.5804C22.5953 37.8515 22.7395 38.1372 22.8597 38.436C23.0988 39.0367 23.2092 39.6829 23.1956 40.3268C23.191 40.5441 23.5315 40.5639 23.5353 40.3444C23.5511 39.6227 23.4176 38.9072 23.1454 38.2379L23.147 38.2348Z" fill="#2E293B"/>
<path d="M23.5168 38.5428C22.7558 38.4939 22.2755 39.2859 22.0608 39.9122C21.8331 40.5762 21.8219 41.3504 22.2165 41.9556C22.3337 42.1374 22.6402 41.9863 22.5199 41.803C22.1877 41.2924 22.1821 40.6678 22.359 40.0977C22.5121 39.6024 22.8823 38.842 23.5016 38.8818C23.7196 38.8963 23.7371 38.5566 23.5191 38.5421L23.5168 38.5428Z" fill="#2E293B"/>
<path d="M22.8836 40.3312C22.8744 40.3189 22.8682 40.3081 22.859 40.2958C22.8482 40.2865 22.8374 40.2773 22.8259 40.2657C22.7935 40.2457 22.7565 40.235 22.7195 40.2396C22.6595 40.2442 22.6079 40.282 22.5802 40.3375C22.5586 40.3575 22.5401 40.3791 22.5271 40.4091C22.4701 40.5463 22.4594 40.7065 22.4972 40.8505C22.5119 40.9098 22.5512 40.9583 22.6112 40.9768C22.6405 40.9876 22.669 40.9883 22.6998 40.9806C22.7283 40.9737 22.7553 40.9621 22.7768 40.9421C22.7992 40.9166 22.8199 40.8943 22.8392 40.8673C22.853 40.8473 22.8654 40.8226 22.8761 40.8011C22.9038 40.7456 22.9177 40.6947 22.9277 40.6323C22.9453 40.5314 22.9253 40.4251 22.886 40.3304L22.8836 40.3312Z" fill="#2E293B"/>
<path d="M20.5399 40.7103C20.5199 40.6733 20.4844 40.6363 20.4421 40.6248C20.3997 40.6133 20.3504 40.6117 20.3119 40.6349C20.2195 40.6888 20.1464 40.7774 20.1256 40.8845C20.1233 40.9007 20.121 40.9169 20.1202 40.9299C20.0433 41.0763 20.0587 41.2689 20.1689 41.399C20.2314 41.4706 20.3369 41.4713 20.4077 41.4143C20.6079 41.2525 20.6694 40.9367 20.5399 40.7103Z" fill="#2E293B"/>
<path d="M20.8636 39.4101C20.5908 39.1545 20.2257 39.0684 19.8591 39.1086C19.4277 39.155 19.0419 39.3916 18.6831 39.6167C18.6045 39.666 18.563 39.7569 18.6077 39.8447C18.6462 39.9217 18.7572 39.9694 18.8357 39.9201C19.1476 39.7235 19.4756 39.5139 19.8453 39.4521C20.1057 39.4089 20.4092 39.4488 20.6103 39.6359C20.6773 39.6982 20.7759 39.7167 20.8491 39.6512C20.9122 39.5942 20.9314 39.4748 20.8644 39.4124L20.8636 39.4101Z" fill="#2E293B"/>
<path d="M17.1173 47.1958C17.1358 47.2359 17.1335 47.2829 17.1174 47.3191C17.1066 47.3407 17.0927 47.3607 17.0743 47.3746C17.065 47.3854 17.0519 47.3923 17.0404 47.3961C17.0219 47.4023 16.1617 47.787 15.0959 48.4329C14.9996 48.4907 14.8995 48.5524 14.7979 48.6172C14.7047 48.6765 14.6092 48.7366 14.5145 48.799C14.5029 48.7952 14.4922 48.7937 14.4806 48.7898C14.3589 48.756 14.2356 48.7252 14.1124 48.6945C14.2441 48.6043 14.3727 48.5203 14.5013 48.4363C14.5967 48.3761 14.6876 48.3176 14.7792 48.2613C15.9028 47.5653 16.8423 47.149 16.9139 47.1174C16.9856 47.0858 17.0718 47.1135 17.1104 47.1828C17.1119 47.1874 17.1135 47.192 17.115 47.1966L17.1173 47.1958Z" fill="white"/>
<path d="M24.0606 46.0036C24.0714 46.0591 24.0792 46.113 24.0876 46.1692C24.09 46.1915 24.0938 46.2108 24.0961 46.2331C24.1 46.2601 24.1008 46.2855 24.1016 46.3109C24.023 46.314 23.9468 46.3164 23.8705 46.3187C22.6242 46.3624 21.5444 46.4429 21.5213 46.4429C21.4365 46.4507 21.3633 46.3852 21.3556 46.3005C21.3525 46.2527 21.371 46.2081 21.4025 46.1795C21.4279 46.1557 21.4611 46.1395 21.4957 46.1356C21.5858 46.1286 22.6757 46.0473 23.9181 46.0075C23.9659 46.0044 24.0121 46.0044 24.0599 46.0013L24.0606 46.0036Z" fill="white"/>
<path d="M21.6925 45.1472C21.6116 45.1203 21.4984 45.1658 21.4768 45.2551C21.3507 45.8236 21.2986 46.4059 21.3335 46.9875C21.3382 47.0784 21.3967 47.1615 21.4953 47.1646C21.5793 47.1699 21.6802 47.0952 21.6724 47.0027C21.6406 46.4536 21.6789 45.899 21.7973 45.3613C21.8165 45.2727 21.7826 45.1787 21.6894 45.1456L21.6925 45.1472Z" fill="#2E293B"/>
<path d="M17.7992 42.0766C17.5272 41.7694 17.1497 41.577 16.7461 41.5217C16.3293 41.4656 15.8618 41.5652 15.5908 41.9073C15.0789 42.5584 15.2418 43.6236 15.963 44.0531C16.3405 44.2763 16.8004 44.3154 17.2008 44.1381C17.4026 44.0502 17.2384 43.7506 17.0413 43.837C16.4837 44.0821 15.8288 43.7127 15.6768 43.142C15.5958 42.8378 15.6288 42.4981 15.7866 42.2246C15.9637 41.9164 16.2925 41.8246 16.6314 41.8476C16.9858 41.8705 17.317 42.0398 17.5521 42.3055C17.697 42.4703 17.9449 42.236 17.8008 42.0735L17.7992 42.0766Z" fill="#2E293B"/>
<path d="M17.432 42.9388C17.0792 42.8049 16.7256 42.6687 16.3705 42.5356C16.288 42.5041 16.1802 42.558 16.1548 42.6435C16.1287 42.7344 16.1742 42.8245 16.2628 42.8592C16.6164 42.9953 16.9692 43.1292 17.3243 43.2623C17.4068 43.2939 17.5146 43.2399 17.54 43.1544C17.5661 43.0635 17.5206 42.9734 17.432 42.9388Z" fill="#2E293B"/>
<path d="M22.8171 37.6622C22.6544 37.4134 22.4864 37.1639 22.2891 36.9422C22.108 36.7381 21.8969 36.5518 21.6519 36.4256C21.4139 36.3048 21.0865 36.2009 20.8231 36.2965C20.6837 36.3482 20.5898 36.4592 20.5159 36.584C20.4281 36.7365 20.3481 36.8968 20.2611 37.0516C20.0925 37.3544 19.9155 37.6549 19.7315 37.95C19.3551 38.5532 18.9494 39.138 18.5152 39.6989C18.0325 40.3223 17.5183 40.9202 16.9701 41.4858C16.8322 41.6268 17.0357 41.8593 17.1727 41.716C18.0905 40.7651 18.9227 39.735 19.6548 38.6355C20.0189 38.0877 20.3568 37.523 20.6693 36.9436C20.7293 36.8311 20.7939 36.6401 20.9195 36.5853C21.0335 36.5345 21.2114 36.5829 21.3262 36.6191C21.5704 36.6968 21.7777 36.8561 21.9557 37.0355C22.1691 37.2519 22.3471 37.5006 22.5144 37.7555C22.7387 38.0966 22.9445 38.4516 23.1041 38.8298C23.1804 39.0123 23.4553 38.8743 23.379 38.6918C23.2271 38.329 23.0313 37.9887 22.8186 37.6591L22.8171 37.6622Z" fill="#2E293B"/>
<path d="M22.4154 42.3821C21.9709 42.3892 21.5265 42.3964 21.0813 42.4012C20.9997 42.4027 20.9242 42.4613 20.9196 42.5476C20.915 42.6261 20.9813 42.7093 21.066 42.7093L22.4001 42.6902C22.4817 42.6887 22.5572 42.6301 22.5618 42.5438C22.5664 42.4653 22.5001 42.3821 22.4154 42.3821Z" fill="#2E293B"/>
<path d="M22.5349 42.463C22.4517 42.4368 22.3716 42.4815 22.3416 42.5609C22.2654 42.7558 22.0413 42.8845 21.8248 42.8746C21.7132 42.8708 21.5984 42.8346 21.5051 42.7784C21.4535 42.7469 21.3996 42.7084 21.3588 42.6706C21.3356 42.6475 21.3125 42.6244 21.2917 42.6006C21.2825 42.5883 21.2717 42.579 21.2624 42.5667C21.2593 42.4111 21.0166 42.3457 20.9636 42.5175C20.9074 42.7109 21.127 42.8918 21.268 42.9911C21.419 43.0973 21.5977 43.1635 21.7803 43.1796C22.1416 43.208 22.4996 42.996 22.6328 42.6563C22.6635 42.5792 22.6119 42.486 22.5349 42.463Z" fill="#2E293B"/>
<path d="M17.069 44.0589C17.048 45.4269 17.0278 46.7972 17.0067 48.1652C17.003 48.3616 17.3095 48.38 17.3125 48.1812C17.3336 46.8133 17.3538 45.443 17.3748 44.075C17.3786 43.8786 17.072 43.8602 17.069 44.0589Z" fill="#2E293B"/>
<path d="M32.5958 51.5177C31.0217 52.1022 29.4737 52.6497 28.0451 53.1549C28.0197 53.1633 27.9965 53.171 27.9711 53.1795C27.8972 53.2042 27.8263 53.2304 27.7555 53.2566C26.8044 53.5921 25.8455 53.9275 24.8859 54.2607C23.3318 54.7974 21.7707 55.3288 20.2204 55.8463C19.9824 55.9257 19.7421 56.0059 19.5041 56.0853C17.0512 56.8989 14.5636 57.701 12.1021 58.4738C11.6585 58.6142 11.1926 58.7569 10.6928 58.9135C10.6758 58.7779 10.6611 58.6416 10.6441 58.506C10.5954 58.0755 10.5413 57.6672 10.4903 57.276C10.2662 55.5738 10.0854 54.1936 10.5932 52.7684C10.8309 52.1036 11.2166 51.4279 11.8217 50.7021C12.3752 50.0371 13.0798 49.4399 13.7859 48.932C13.896 48.8541 14.0061 48.7763 14.1147 48.7015C14.2379 48.7323 14.3612 48.7631 14.4829 48.7969C14.4945 48.8007 14.506 48.8046 14.5168 48.8061C14.9675 48.933 15.395 49.0677 15.8225 49.2023C16.5166 49.42 17.1961 49.6246 17.894 49.7383C18.1305 49.7775 18.3716 49.8074 18.6142 49.8266C18.635 49.8273 18.6566 49.8304 18.6774 49.8312C19.5601 49.8986 20.459 49.8297 21.3092 49.5921C22.302 49.3121 23.2623 48.7425 23.7633 47.8126C23.9481 47.4659 24.0681 47.0791 24.0995 46.6886C24.1094 46.5646 24.1117 46.4406 24.1039 46.3174C24.1024 46.2896 24.0993 46.265 24.0977 46.2372C24.0962 46.2172 24.0939 46.1949 24.09 46.1756C24.0838 46.1186 24.0738 46.0655 24.0622 46.0077C24.1185 46.0069 24.1739 46.0038 24.2301 46.003C24.2787 46.0022 24.3272 46.0015 24.3757 46.0007C25.5242 45.9717 26.715 45.9851 27.3197 46.1273C28.2556 46.3465 29.1301 46.8429 29.8891 47.5705C30.4084 48.0725 30.8747 48.6847 31.2671 49.3908C31.5445 49.8914 32.0409 50.6707 32.5997 51.5216L32.5958 51.5177Z" fill="#2B5EDA"/>
<path d="M26.9981 49.0872C26.8428 49.7451 26.7406 50.416 26.6908 51.09C27.1423 51.4965 27.5115 51.987 27.7813 52.5261C27.8823 52.7286 27.9725 52.9373 28.0442 53.1522C28.0188 53.1607 27.9957 53.1684 27.9703 53.1769C27.8963 53.2016 27.8255 53.2278 27.7546 53.254C27.6922 53.0669 27.6158 52.8843 27.531 52.7072C27.3553 52.3422 27.131 52.001 26.862 51.6954C26.7911 51.6137 26.7156 51.5337 26.6393 51.459C26.5669 51.3882 26.4405 51.3096 26.3951 51.2195C26.348 51.1248 26.3911 50.9615 26.4003 50.8583C26.4126 50.7335 26.4241 50.6064 26.441 50.4801C26.5016 49.9771 26.5923 49.4794 26.7084 48.9887C26.7546 48.7962 27.0442 48.8946 27.0004 49.0864L26.9981 49.0872Z" fill="#ECECEC"/>
</g>
<path d="M22.6488 31.2726C21.1986 31.7515 19.706 32.1265 18.2388 32.5469C15.8413 33.2341 13.4461 33.9207 11.0547 34.6264C10.2176 34.8725 9.3804 35.1185 8.55017 35.3854C8.35301 35.4486 8.14969 35.5088 7.95792 35.5882C7.31333 35.8496 6.8822 36.3812 6.78466 37.0737C6.59804 38.4148 7.23098 39.7802 7.62509 41.0379C8.13953 42.6791 8.64241 44.3242 9.14452 45.9669C9.75152 47.947 10.3539 49.9286 10.9655 51.9072C11.4561 53.4999 11.8889 55.1889 12.6959 56.6605C13.1476 57.4829 13.7972 58.0057 14.7668 57.6949C16.1546 57.2522 17.537 56.7856 18.921 56.3314C21.8306 55.3781 24.7411 54.4272 27.6522 53.4709C28.0866 53.3259 28.5225 53.1855 28.9569 53.0406C29.4652 52.8709 29.9665 52.6881 30.259 52.2028C30.5977 51.6403 30.4804 50.9348 30.3122 50.3387C30.1047 49.6017 29.7809 48.9009 29.5457 48.1731C29.059 46.669 28.6348 45.144 28.1712 43.6322C27.6761 42.0179 27.1786 40.4045 26.6788 38.7917C26.2638 37.4486 25.8466 36.1062 25.4316 34.763C25.2751 34.2555 25.1301 33.7441 24.9504 33.2443C24.7306 32.6243 24.453 31.8773 23.909 31.4631C23.5338 31.1775 23.0917 31.1299 22.6488 31.2726C22.1266 31.4392 22.3966 32.2478 22.9187 32.0813C22.958 32.0681 22.9996 32.0543 23.0404 32.0458C23.0427 32.045 23.0027 32.0481 23.0828 32.0419C23.1005 32.0411 23.216 32.0411 23.1637 32.038C23.1167 32.0357 23.2384 32.0542 23.2584 32.0603C23.2561 32.0611 23.2415 32.048 23.3046 32.0834C23.3647 32.1173 23.3563 32.115 23.3624 32.118C23.4587 32.1912 23.505 32.2451 23.5658 32.3275C23.9735 32.8719 24.1656 33.5627 24.3638 34.2027C24.6963 35.2756 25.0287 36.3484 25.3603 37.4189C26.265 40.3447 27.1713 43.2675 28.0621 46.198C28.3089 47.0066 28.5242 47.8284 28.7964 48.6286C29.0301 49.3133 29.3315 49.9779 29.519 50.678C29.6393 51.1231 29.7381 51.6807 29.3292 51.9713C29.0451 52.174 28.6246 52.2527 28.2934 52.3607C25.6841 53.2214 23.0718 54.0728 20.4609 54.9289C19.1255 55.3669 17.7916 55.8019 16.4561 56.2399C16.0095 56.3865 15.5628 56.533 15.1184 56.6788C14.8573 56.7659 14.5839 56.8854 14.3128 56.9348C14.2473 56.9464 14.1842 56.9495 14.1195 56.948C14.0448 56.9472 14.2058 56.9603 14.1326 56.9488C14.1048 56.9426 14.0779 56.9388 14.0501 56.9326C13.9585 56.9119 14.1195 56.9711 14.0363 56.9295C14.0085 56.9157 13.9839 56.9034 13.9562 56.8895C13.8799 56.8533 13.9485 56.8895 13.9446 56.8857C13.8837 56.8418 13.8283 56.791 13.7751 56.7394C13.7219 56.6878 13.7504 56.7117 13.7466 56.7078C13.7204 56.6755 13.6934 56.6408 13.6664 56.6062C13.6048 56.5215 13.5477 56.4352 13.4946 56.3451C13.3735 56.1441 13.2787 55.9524 13.1854 55.7421C12.8701 55.036 12.6187 54.2981 12.3789 53.5642C11.7449 51.6342 11.1734 49.6834 10.5795 47.7426C10.0426 45.9881 9.50891 44.2352 8.96747 42.4824C8.59649 41.2786 8.17775 40.0856 7.83526 38.8749C7.6671 38.2788 7.45727 37.5117 7.70274 36.9085C7.83663 36.5788 8.12079 36.43 8.43809 36.319C9.08733 36.0946 9.74813 35.9048 10.4066 35.7081C12.6339 35.0417 14.8697 34.4007 17.1055 33.7597C18.9031 33.2444 20.7053 32.7353 22.5013 32.2078C22.6415 32.1661 22.7847 32.126 22.9234 32.0797C23.4432 31.9062 23.1764 31.0991 22.6534 31.2711L22.6488 31.2726Z" fill="#2E293B"/>
<path d="M15.9624 62.0315C15.7781 61.4099 15.3948 60.2231 15.2104 59.6016C19.8591 58.1039 24.5054 56.6069 29.1533 55.1068C29.5222 54.9888 30.3023 54.5564 30.4611 54.9091C30.8913 55.8594 31.0702 56.2645 30.9942 57.0371C27.9707 58.1645 24.8647 59.3142 21.7941 60.3083C19.7894 60.9569 17.8702 61.6001 15.9601 62.0322" fill="#2E293B"/>
<path d="M16.3668 61.8961C16.1238 61.0836 15.8578 60.2787 15.6148 59.4662L15.3454 60.0055C17.803 59.2135 20.2629 58.4206 22.7205 57.6286L26.4064 56.4393C27.5008 56.0869 28.6199 55.7775 29.688 55.3542C29.8559 55.2879 30.05 55.2616 30.211 55.1976C30.127 55.2308 30.0823 55.0506 30.1471 55.2447C30.1926 55.381 30.2673 55.5127 30.3221 55.6459C30.5002 56.0718 30.6174 56.4846 30.5745 56.9483L30.8563 56.6308C26.9632 58.0844 23.0578 59.4932 19.0884 60.7257C18.0087 61.0604 16.9243 61.3736 15.8221 61.6259C15.2876 61.7479 15.5622 62.555 16.0921 62.4346C18.0506 61.9863 19.9591 61.3493 21.8683 60.73C23.7775 60.1107 25.8184 59.3935 27.7784 58.6802C28.8951 58.2715 30.0103 57.8582 31.1247 57.4426C31.2525 57.3948 31.3942 57.273 31.4064 57.1251C31.4486 56.6437 31.4191 56.1862 31.2603 55.7256C31.1855 55.5015 31.0883 55.2874 30.9935 55.0725C30.8887 54.8353 30.8046 54.5604 30.5588 54.4319C30.179 54.2325 29.7131 54.4291 29.348 54.5741C28.8251 54.7846 28.2791 54.9412 27.743 55.1124C25.0537 55.9793 22.3666 56.8454 19.6772 57.7122C18.14 58.2074 16.6051 58.7017 15.0678 59.1969C14.8429 59.2693 14.7329 59.5166 14.7985 59.7361C15.0414 60.5487 15.3075 61.3535 15.5504 62.166C15.7078 62.6912 16.5165 62.4213 16.3591 61.8961L16.3668 61.8961Z" fill="#2E293B"/>
<path d="M5.27579 33.6069L54.7218 17.1024C55.2417 16.9289 54.9741 16.1195 54.4519 16.2938L5.00587 32.7983C4.48602 32.9718 4.75363 33.7812 5.27579 33.6069Z" fill="#2E293B"/>
<path d="M6.49261 35.0295C10.4172 33.5397 14.3912 32.1901 18.4107 30.9846C18.9359 30.8272 18.666 30.0186 18.1408 30.1759C14.1221 31.3838 10.1458 32.7341 6.22269 34.2208C5.71209 34.4143 5.97739 35.2245 6.49261 35.0295Z" fill="#2E293B"/>
<path d="M29.8432 31.9011C31.6022 31.2318 33.3627 30.5594 35.1217 29.8901C35.6323 29.6965 35.367 28.8863 34.8518 29.0814C33.0928 29.7507 31.3323 30.4231 29.5733 31.0924C29.0627 31.286 29.328 32.0962 29.8432 31.9011Z" fill="#2E293B"/>
<path d="M30.3539 33.6919C34.4249 32.333 38.4959 30.9742 42.5669 29.6153C43.0868 29.4418 42.8192 28.6324 42.297 28.8067C38.226 30.1655 34.155 31.5244 30.0839 32.8832C29.5641 33.0568 29.8317 33.8662 30.3539 33.6919Z" fill="#2E293B"/>
<path d="M31.7404 37.846C33.5179 37.2322 35.2977 36.6175 37.0752 36.0037C37.5935 35.8255 37.3259 35.0161 36.8053 35.195C35.0278 35.8089 33.248 36.4235 31.4705 37.0373C30.9522 37.2155 31.2198 38.0249 31.7404 37.846Z" fill="#2E293B"/>
<path d="M32.4498 39.7097C36.5785 38.1622 40.8622 37.0867 45.0426 35.6939C45.5625 35.5203 45.2949 34.7109 44.7727 34.8852C40.5923 36.278 36.3086 37.3535 32.1799 38.9011C31.6662 39.0931 31.9338 39.9025 32.4498 39.7097Z" fill="#2E293B"/>
<path d="M62.9187 33.0577C59.9621 34.0702 57.0032 35.0836 54.0466 36.0961C53.5283 36.2743 53.7959 37.0837 54.3165 36.9048C57.2731 35.8922 60.232 34.8789 63.1886 33.8663C63.7069 33.6882 63.4393 32.8788 62.9187 33.0577Z" fill="#2E293B"/>
<path d="M62.898 35.3046C58.948 36.8105 54.927 38.1347 50.852 39.2663C49.6883 39.588 48.5199 39.8958 47.3462 40.1874C46.8125 40.3193 47.0878 41.1288 47.6161 40.9961C51.7196 39.973 55.7738 38.7636 59.7631 37.3601C60.9029 36.9591 62.0381 36.5442 63.1656 36.114C63.6762 35.9204 63.4101 35.1079 62.8957 35.3053L62.898 35.3046Z" fill="#2E293B"/>
<path d="M2.02241 32.3921L59.1969 13.3079L58.2859 11.9634L55.9907 10.3876L53.1244 10.0399L6.14364 25.7215L4.15532 26.9116L2.85039 28.5181L2.15097 30.3231L2.02241 32.3921Z" fill="#2E293B"/>
<path d="M14.6315 26.5478C14.6138 26.4716 14.5976 26.3923 14.5798 26.316C14.5783 26.3114 14.559 26.2151 14.569 26.2683C14.5598 26.2251 14.552 26.1789 14.5451 26.135C14.5196 25.9895 14.4995 25.8447 14.4818 25.6991C14.464 25.5535 14.4485 25.4072 14.4377 25.2593C14.433 25.1838 14.4261 25.1091 14.4237 25.0328C14.4237 25.0174 14.4291 24.9412 14.4214 25.0259C14.4306 24.992 14.4268 24.9959 14.4137 25.0413C14.4006 25.0637 14.3845 25.0845 14.3614 25.0999C14.4961 25.0035 14.5538 24.7994 14.4498 24.6569C14.3457 24.5145 14.1516 24.4637 14.0068 24.5685C13.8328 24.6934 13.7782 24.8837 13.7852 25.0893C13.7914 25.2696 13.8085 25.4513 13.8301 25.6316C13.8711 26.0082 13.939 26.381 14.0239 26.7507C14.0609 26.9155 14.2774 27.0101 14.4276 26.9523C14.6032 26.886 14.6693 26.7227 14.6292 26.5486L14.6315 26.5478Z" fill="#ECECEC"/>
<path d="M14.2727 25.072C14.2981 25.0558 14.3258 25.0389 14.352 25.025C14.3689 25.0142 14.3889 25.005 14.4066 24.9965C14.409 24.9957 14.4552 24.9726 14.4244 24.988C14.3936 25.0034 14.4405 24.9826 14.4428 24.9818C14.4567 24.9772 14.4721 24.9695 14.4852 24.9626C14.5191 24.9487 14.553 24.9348 14.5869 24.9209C14.6515 24.8993 14.7162 24.8777 14.7794 24.8592C14.8094 24.8492 14.841 24.8438 14.8695 24.8368C14.8834 24.8322 14.9003 24.8291 14.9149 24.8268C14.8695 24.8368 14.9149 24.8268 14.9373 24.8245C15.069 24.8036 15.2053 24.7967 15.3401 24.8005C15.3555 24.8004 15.3717 24.8027 15.3871 24.8027C15.3802 24.8051 15.3447 24.7989 15.3825 24.8043C15.4118 24.8074 15.441 24.8104 15.468 24.8143C15.5003 24.8189 15.5304 24.8243 15.5612 24.8319C15.5751 24.835 15.5866 24.8389 15.6005 24.8419C15.609 24.8442 15.659 24.8635 15.6259 24.8489C15.5951 24.8335 15.6606 24.8681 15.6698 24.8727C15.7083 24.8881 15.6359 24.8404 15.666 24.8689C15.6737 24.8766 15.6845 24.8858 15.6945 24.8927C15.6875 24.8873 15.6667 24.8481 15.6829 24.8812C15.6875 24.8951 15.7014 24.9058 15.706 24.9197C15.7045 24.9151 15.6837 24.8758 15.6983 24.912C15.7145 24.9528 15.6999 24.8704 15.6999 24.9166C15.7014 24.952 15.7061 24.989 15.703 25.026C15.7053 24.979 15.6969 25.0537 15.6938 25.0676C15.6838 25.13 15.6653 25.1901 15.6469 25.2502C15.6653 25.1978 15.6469 25.2502 15.6361 25.2717C15.6261 25.2956 15.6138 25.3203 15.6038 25.3441C15.5761 25.3996 15.5453 25.4535 15.5122 25.5082C15.5399 25.4605 15.5099 25.509 15.496 25.5291C15.4798 25.5499 15.4637 25.5707 15.4452 25.5922C15.4052 25.6415 15.3613 25.687 15.3166 25.7302C15.3066 25.7386 15.2974 25.7494 15.2874 25.7579C15.2527 25.7926 15.3443 25.7132 15.2774 25.7664C15.2527 25.7849 15.2265 25.8065 15.2019 25.825C15.1457 25.8643 15.0887 25.9013 15.0279 25.9344C15.014 25.939 15.004 25.9475 14.9909 25.9544C14.9516 25.9753 15.0325 25.9406 14.9978 25.9521C14.9863 25.956 14.9316 25.9845 14.9239 25.9768C14.9239 25.9768 14.9894 25.9652 14.9524 25.9699C14.9085 25.9768 14.9247 25.9714 14.9593 25.9752C14.9378 25.9722 14.9362 25.9599 14.9601 25.9776C14.9847 25.9822 15.0071 25.9953 15.0225 26.0184C15.0626 26.0615 15.0749 26.0676 15.0541 26.0361C14.9762 25.8874 14.739 25.8536 14.6112 25.9477C14.4587 26.0602 14.4418 26.2327 14.5228 26.3906C14.6314 26.6008 14.8957 26.6308 15.1013 26.5852C15.2561 26.549 15.4063 26.4603 15.5349 26.3686C15.8098 26.1767 16.0415 25.9093 16.1831 25.6027C16.3363 25.2691 16.4416 24.8 16.1842 24.4905C15.9268 24.1809 15.5031 24.1426 15.1319 24.1612C14.699 24.1799 14.277 24.3156 13.9104 24.5407C13.768 24.6293 13.7234 24.8496 13.822 24.9836C13.9291 25.1276 14.1132 25.1637 14.265 25.072L14.2727 25.072Z" fill="#ECECEC"/>
<path d="M17.4842 25.5767L17.1957 24.5123L17.127 24.2605C17.1147 24.2235 17.1062 24.1827 17.0962 24.145C17.0915 24.1311 17.0869 24.1172 17.0846 24.1026C17.0723 24.0656 17.0931 24.1434 17.0807 24.0833C17.0807 24.0833 17.0761 24.031 17.0753 24.0672C17.0754 24.098 17.0723 24.0579 17.0776 24.051C17.0753 24.0518 17.0576 24.0911 17.0576 24.0911C17.0584 24.0857 17.0954 24.0579 17.0684 24.0772C17.0376 24.1003 17.1354 24.0394 17.1031 24.0579C17.0707 24.0764 17.1285 24.0494 17.1377 24.0464C17.1585 24.0394 17.1793 24.0325 17.1993 24.0232C17.3688 23.9615 17.5436 23.9083 17.7192 23.8651C17.7639 23.8528 17.807 23.8435 17.8524 23.8335C17.8886 23.8265 17.8524 23.8335 17.8455 23.8358C17.8594 23.8312 17.8771 23.8304 17.8917 23.8281C17.9287 23.8234 17.9641 23.8219 17.9996 23.8203C18.0019 23.8195 18.0519 23.8234 18.0173 23.8195C17.9826 23.8157 18.0643 23.8295 18.0619 23.8303C18.008 23.8149 18.0912 23.8488 18.0465 23.8226C18.0527 23.8257 18.0797 23.8603 18.0604 23.8334C18.0327 23.7964 18.0812 23.8804 18.0604 23.8334C18.0419 23.7933 18.0743 23.9058 18.0704 23.8634C18.0643 23.8295 18.0712 23.9582 18.0728 23.932C18.0751 23.9004 18.0712 23.9505 18.0689 23.9512C18.0666 23.9674 18.0635 23.9813 18.0612 23.9974C18.0551 24.0329 18.0459 24.0668 18.0343 24.1014C18.0189 24.1554 18.0428 24.0883 18.0212 24.1392C18.0059 24.1777 17.9897 24.2139 17.9712 24.2509C17.9528 24.2879 17.9312 24.3233 17.9097 24.3588C17.9097 24.3588 17.8804 24.4019 17.8981 24.378C17.9135 24.3549 17.8781 24.4027 17.875 24.4088C17.8265 24.4713 17.7742 24.5298 17.7203 24.5838C17.6756 24.6269 17.701 24.603 17.7126 24.5915C17.6964 24.6046 17.6802 24.6177 17.6641 24.6308C17.6294 24.6577 17.594 24.6824 17.5586 24.7071C17.5586 24.7071 17.5108 24.7333 17.5355 24.7225C17.5447 24.7194 17.5147 24.7217 17.5193 24.7279C17.5193 24.7279 17.5586 24.7302 17.5701 24.734C17.6117 24.7509 17.6441 24.7941 17.6603 24.8349L17.4586 25.2386C17.5295 25.2124 17.5988 25.1892 17.6712 25.1676C17.6828 25.1638 17.8029 25.1391 17.7421 25.1491C17.7736 25.1437 17.8052 25.1383 17.8376 25.1352C17.9115 25.1259 17.9839 25.1197 18.0579 25.1182C18.0941 25.1189 18.1318 25.1166 18.1688 25.1197C18.1842 25.1197 18.2004 25.122 18.2158 25.122C18.1865 25.1189 18.1896 25.1204 18.2265 25.1235C18.3706 25.1396 18.5162 25.1681 18.6556 25.2165C18.6032 25.1981 18.6941 25.2319 18.6949 25.2342C18.7334 25.2496 18.7704 25.2681 18.8066 25.2842C18.8713 25.3166 18.9322 25.3527 18.9938 25.3912C19.1348 25.4828 19.3566 25.3934 19.4236 25.2478C19.4998 25.076 19.4311 24.9166 19.2801 24.818C18.6907 24.437 17.905 24.3834 17.2558 24.6309C17.101 24.6903 16.9886 24.869 17.0542 25.0346C17.1652 25.3211 17.4841 25.4304 17.7614 25.3147C17.9732 25.226 18.1618 25.0604 18.3096 24.8878C18.586 24.5618 18.7953 24.0888 18.6773 23.6583C18.6102 23.4111 18.3929 23.2294 18.141 23.1902C17.9053 23.1533 17.6696 23.2166 17.4432 23.2767C17.2168 23.3369 16.9695 23.404 16.7624 23.522C16.5337 23.6522 16.4113 23.9011 16.453 24.1645C16.4947 24.4279 16.5896 24.7044 16.6605 24.9709L16.8812 25.7857C16.9251 25.9482 17.1301 26.0467 17.2849 25.9873C17.4558 25.9226 17.5336 25.7554 17.4865 25.5836L17.4842 25.5767Z" fill="#ECECEC"/>
<path d="M19.3225 23.1067L19.6444 24.902C19.6737 25.0669 19.7947 25.2216 19.9811 25.2031C20.1352 25.1876 20.3154 25.0427 20.2822 24.8663L19.9602 23.071C19.9309 22.9062 19.8099 22.7514 19.6235 22.77C19.4695 22.7854 19.2893 22.9303 19.3225 23.1067Z" fill="#ECECEC"/>
<path d="M20.2098 23.0188C20.5189 23.591 20.9266 24.1046 21.4005 24.5473C21.5461 24.6836 21.8149 24.6349 21.8973 24.4508C22.0573 24.0841 22.2205 23.7189 22.3805 23.3522C22.5406 22.9855 22.6683 22.6296 22.8677 22.3037C22.957 22.1558 22.8698 21.9486 22.7242 21.8739C22.5578 21.7908 22.3861 21.8687 22.2945 22.0174C22.0951 22.3433 21.9605 22.7169 21.8073 23.0659C21.6542 23.4149 21.4841 23.7978 21.3241 24.1645L21.8208 24.068C21.3847 23.6615 21.0256 23.1933 20.7411 22.6643C20.6594 22.5118 20.4307 22.488 20.2982 22.5759C20.1427 22.6792 20.1281 22.8663 20.2098 23.0188Z" fill="#ECECEC"/>
<path d="M23.0616 21.8685C23.2144 22.4877 23.3672 23.1069 23.5184 23.7293C23.5577 23.8933 23.7696 23.9895 23.9221 23.9309C24.0954 23.8654 24.1662 23.7005 24.1237 23.5272C23.971 22.908 23.8182 22.2888 23.667 21.6664C23.6276 21.5024 23.4158 21.4062 23.2633 21.4648C23.09 21.5303 23.0192 21.6952 23.0616 21.8685Z" fill="#ECECEC"/>
<path d="M24.8831 23.1872C24.7611 22.5987 24.7016 21.9972 24.6936 21.3964L24.163 21.6531C24.7864 22.1974 25.4329 22.7494 26.2233 23.0326C26.3458 23.0764 26.4698 23.0787 26.5745 22.9847C26.6715 22.8984 26.7061 22.7713 26.6691 22.6449C26.4593 21.9395 26.3481 21.2139 26.3308 20.4776C26.3269 20.3043 26.1628 20.1665 25.9941 20.1765C25.8177 20.1866 25.6891 20.34 25.6931 20.5133C25.7103 21.3035 25.837 22.0907 26.0645 22.8493L26.5103 22.4617C25.7608 22.1932 25.1806 21.6935 24.5857 21.1731C24.3723 20.9875 24.0519 21.1586 24.0551 21.4298C24.0646 22.0891 24.1419 22.7438 24.2754 23.39C24.3117 23.5602 24.529 23.6418 24.6791 23.5916C24.8593 23.5315 24.9163 23.3558 24.8808 23.1879L24.8831 23.1872Z" fill="#ECECEC"/>
<path d="M28.6598 19.7767C28.2284 19.6228 27.7532 19.7147 27.399 20.0075C27.0448 20.3004 26.8408 20.7357 26.7201 21.1817C26.6586 21.4128 26.6178 21.6678 26.7142 21.895C26.8237 22.1537 27.0587 22.3038 27.3191 22.3838C27.7374 22.5138 28.2496 22.4327 28.5899 22.1522C28.9941 21.817 29.1426 21.2462 28.8743 20.7811L28.3438 21.1379C28.5472 21.4243 28.7476 21.7093 28.9511 21.9957C29.0482 22.1328 29.2539 22.1874 29.394 22.0841C29.5342 21.9808 29.5849 21.7867 29.4824 21.6412C29.2789 21.3547 29.0786 21.0698 28.8751 20.7834C28.778 20.6463 28.5723 20.5917 28.4322 20.695C28.292 20.7982 28.2559 20.9823 28.3438 21.1379C28.3615 21.191 28.3546 21.1548 28.3438 21.1379C28.3484 21.1518 28.3522 21.1633 28.3569 21.1772C28.3646 21.2003 28.3723 21.2773 28.3692 21.2141C28.3708 21.2419 28.3723 21.2696 28.3739 21.2973C28.3777 21.3551 28.3746 21.315 28.3739 21.2973C28.3723 21.3158 28.3685 21.3351 28.3647 21.3543C28.3608 21.3736 28.3562 21.3905 28.3523 21.4098C28.3531 21.4121 28.3377 21.4583 28.3477 21.4267C28.3577 21.3952 28.3416 21.4391 28.34 21.4422C28.3331 21.4599 28.3239 21.4784 28.3162 21.4938C28.31 21.5061 28.3016 21.5192 28.2954 21.5315C28.2715 21.5754 28.3223 21.4968 28.2923 21.5377C28.2731 21.5646 28.2515 21.5924 28.2261 21.6163C28.213 21.6309 28.1999 21.6456 28.1838 21.6587C28.1899 21.654 28.2161 21.6325 28.1868 21.6525C28.1576 21.6725 28.1237 21.6941 28.0921 21.7149C28.0852 21.7172 28.0351 21.7442 28.0844 21.7226C28.0683 21.728 28.0552 21.735 28.0398 21.7427C27.9989 21.7589 27.9597 21.772 27.9173 21.7835C27.9011 21.7889 27.8873 21.7936 27.8696 21.7944C27.8834 21.7897 27.9212 21.7874 27.8572 21.7959C27.8249 21.799 27.7925 21.8021 27.7602 21.8052C27.7224 21.8075 27.6839 21.8075 27.647 21.8045C27.61 21.8014 27.6416 21.8037 27.647 21.8045C27.62 21.8006 27.593 21.7968 27.5684 21.7922C27.5322 21.7837 27.4937 21.776 27.459 21.7645C27.496 21.7752 27.4236 21.7506 27.4112 21.7445C27.3927 21.7352 27.3712 21.7245 27.3527 21.7152C27.3588 21.7183 27.3835 21.7383 27.3527 21.7152C27.3465 21.7121 27.2964 21.6698 27.3219 21.6921C27.3404 21.7091 27.3034 21.6675 27.3011 21.6606C27.2741 21.6182 27.3126 21.6952 27.2964 21.6467C27.2849 21.612 27.2941 21.6398 27.2941 21.6475C27.291 21.6305 27.2902 21.6128 27.2895 21.5951C27.2879 21.5905 27.2902 21.5204 27.2895 21.5489C27.2933 21.4988 27.3179 21.3956 27.3363 21.3278C27.381 21.1614 27.4086 21.0751 27.4841 20.9164C27.5164 20.8517 27.551 20.7862 27.5903 20.7269C27.5957 20.72 27.6111 20.6968 27.5903 20.7269C27.6026 20.7099 27.6165 20.6899 27.6311 20.6722C27.6603 20.6367 27.6873 20.6021 27.7204 20.5705C27.7319 20.5589 27.7435 20.5474 27.755 20.5358C27.7781 20.5127 27.7281 20.5551 27.7728 20.5196C27.8059 20.4957 27.8382 20.4695 27.8744 20.4472C27.8913 20.4364 27.9837 20.3901 27.9345 20.4117C27.9683 20.3978 28.0022 20.384 28.0346 20.3732C28.0531 20.367 28.0739 20.36 28.0923 20.3539C28.097 20.3523 28.1586 20.3369 28.1247 20.3431C28.0862 20.3508 28.1493 20.34 28.157 20.34C28.1771 20.3384 28.1971 20.3369 28.2171 20.3353C28.2371 20.3338 28.2579 20.3346 28.2764 20.3361C28.3257 20.3376 28.2333 20.3299 28.2818 20.3369C28.2957 20.3399 28.3119 20.3422 28.3257 20.3453C28.3303 20.3438 28.4197 20.373 28.3635 20.3507C28.5268 20.4092 28.7078 20.3744 28.7932 20.2072C28.864 20.0655 28.8131 19.836 28.6498 19.7775L28.6598 19.7767Z" fill="#ECECEC"/>
<path d="M31.0269 18.715C30.9794 19.4499 31.046 20.18 31.2134 20.8971C31.2605 21.0996 31.5362 21.1719 31.6949 21.0625C31.939 20.8937 32.2147 20.7888 32.4989 20.7633C32.666 20.7486 32.8177 20.6029 32.7999 20.4266C32.7829 20.2602 32.6419 20.107 32.4632 20.1255C32.0596 20.1627 31.6714 20.2999 31.3357 20.5327L31.8172 20.6981C31.7431 20.3839 31.6929 20.0642 31.6666 19.7238C31.6403 19.3833 31.6386 19.0321 31.6615 18.6855C31.6723 18.5176 31.4835 18.3674 31.3248 18.3844C31.1361 18.4038 31.033 18.5409 31.0238 18.7212L31.0269 18.715Z" fill="#ECECEC"/>
<path d="M32.6602 18.3933C32.7969 19.0564 32.9304 19.718 33.067 20.3812C33.1009 20.5444 33.3228 20.6399 33.4707 20.5828C33.6478 20.5134 33.7078 20.3547 33.6723 20.1791C33.5357 19.516 33.4022 18.8544 33.2656 18.1912C33.2316 18.028 33.0098 17.9325 32.8619 17.9896C32.6848 18.059 32.6247 18.2177 32.6602 18.3933Z" fill="#ECECEC"/>
<path d="M35.4127 17.4384C35.0244 17.2367 34.58 17.3979 34.2898 17.6899C34.0357 17.9442 33.8317 18.3333 33.7918 18.6907C33.7496 19.072 33.8877 19.4394 34.1758 19.695C34.4424 19.9321 34.8122 20.0398 35.1619 19.9796C35.5739 19.9062 35.9543 19.6534 36.1329 19.2651C36.2029 19.1134 36.1497 18.9077 35.9894 18.8354C35.8292 18.763 35.6367 18.817 35.5597 18.9788C35.5482 19.0058 35.5343 19.0335 35.5197 19.059C35.5127 19.069 35.5066 19.0813 35.4997 19.0913C35.5035 19.0875 35.5328 19.052 35.5074 19.0759C35.4866 19.0982 35.4696 19.1244 35.4488 19.1468C35.4396 19.1576 35.4319 19.1653 35.4219 19.1738C35.4157 19.1784 35.3742 19.2154 35.4042 19.1899C35.4327 19.1676 35.3626 19.2192 35.3526 19.2277C35.3318 19.2423 35.3087 19.2578 35.2848 19.2709C35.2702 19.2809 35.2548 19.2886 35.2394 19.2963C35.244 19.2948 35.291 19.2739 35.2571 19.2878C35.2232 19.3017 35.1916 19.3148 35.157 19.3264C35.1316 19.3349 35.1054 19.341 35.0792 19.3472C35.0445 19.3588 35.0938 19.3449 35.0985 19.3433C35.0815 19.3464 35.0646 19.3495 35.0469 19.3503C35.0199 19.3542 34.9945 19.3549 34.9691 19.3557C34.956 19.355 34.9429 19.3542 34.9305 19.3557C34.8936 19.3604 34.9798 19.365 34.9205 19.3565C34.8936 19.3527 34.8666 19.3488 34.8412 19.3419C34.8242 19.3373 34.7495 19.3135 34.7788 19.3242C34.8111 19.3365 34.7426 19.3081 34.7326 19.3011C34.7172 19.2934 34.7018 19.2857 34.6863 19.278C34.6802 19.275 34.6324 19.2473 34.6648 19.2673C34.6941 19.2857 34.6239 19.2372 34.6155 19.2272C34.5947 19.2111 34.5785 19.1934 34.5569 19.1749C34.553 19.171 34.5222 19.1402 34.5492 19.1672C34.5769 19.1964 34.5407 19.1572 34.5353 19.1487C34.5168 19.1241 34.4991 19.1017 34.4852 19.0755C34.4752 19.0609 34.4698 19.0447 34.4598 19.0301C34.4606 19.0324 34.4829 19.084 34.469 19.0501C34.4613 19.027 34.4482 19.0032 34.4405 18.9801C34.4313 18.9523 34.422 18.9246 34.4174 18.8953C34.4336 18.967 34.4181 18.8745 34.4174 18.8491C34.4166 18.8314 34.4196 18.7636 34.4143 18.8168C34.4158 18.7829 34.4227 18.7498 34.4296 18.7166C34.4358 18.6889 34.4411 18.6589 34.4504 18.6327C34.4535 18.6188 34.4588 18.6042 34.4619 18.5903C34.4465 18.6442 34.4665 18.5811 34.4704 18.5695C34.4942 18.5102 34.5235 18.4516 34.5535 18.3954C34.5681 18.37 34.5827 18.3445 34.5997 18.3183C34.6097 18.3022 34.6212 18.2829 34.6312 18.2667C34.6128 18.296 34.6259 18.2737 34.6366 18.2598C34.6828 18.1981 34.7298 18.1388 34.7868 18.0864C34.8145 18.0618 34.7868 18.0864 34.7829 18.0903C34.8037 18.0756 34.8237 18.0587 34.8453 18.0463C34.8576 18.0371 34.8707 18.0302 34.8861 18.0224C34.9184 18.0039 34.9069 18.0155 34.8815 18.024C34.9161 18.0124 34.9508 18.0009 34.9831 17.9901C34.9785 17.9916 34.9285 17.9955 34.9662 17.9931C34.9885 17.9908 35.0109 17.9885 35.0332 17.9862C35.0378 17.9846 35.084 17.9846 35.0448 17.9823C35.0055 17.98 35.0609 17.9846 35.0694 17.9869C35.0802 17.9885 35.1333 18.0015 35.0933 17.9892C35.0532 17.9769 35.1218 18.0054 35.1249 18.0069C35.2736 18.0831 35.4838 18.0207 35.5546 17.8635C35.6254 17.7063 35.5699 17.5169 35.4112 17.4338L35.4127 17.4384Z" fill="#ECECEC"/>
<path d="M37.5821 16.3445L36.6564 16.6329C36.4985 16.683 36.3214 16.7216 36.2082 16.8518C36.065 17.0152 36.0974 17.2047 36.1391 17.3988C36.2749 18.0365 36.4107 18.6742 36.5466 19.3119C36.5936 19.5299 36.8679 19.5667 37.028 19.4773C37.0496 19.465 37.0735 19.4519 37.095 19.4395C37.0635 19.4527 37.0665 19.4542 37.095 19.4395C37.1466 19.4172 37.1982 19.3948 37.2506 19.3748C37.36 19.3331 37.4709 19.2961 37.5833 19.2637C37.6958 19.2313 37.7997 19.2043 37.9068 19.1789C37.9376 19.1712 37.9692 19.1658 38 19.158C38.0601 19.1457 37.983 19.1611 38.0185 19.1519C38.067 19.1434 38.1155 19.1349 38.1648 19.1287C38.3366 19.1047 38.4775 18.973 38.4658 18.792C38.4581 18.6302 38.3009 18.467 38.1291 18.4909C37.6323 18.5566 37.1109 18.6947 36.672 18.9414L37.1534 19.1068C37.0361 18.5553 36.9188 18.0039 36.8008 17.4501C36.7869 17.3854 36.773 17.3207 36.7591 17.256C36.7521 17.2198 36.7429 17.1844 36.7359 17.1482C36.7298 17.122 36.729 17.1197 36.7328 17.1389C36.7475 17.1828 36.7313 17.2267 36.6882 17.2668C36.6651 17.2899 36.595 17.3108 36.659 17.2946C36.6898 17.2868 36.7213 17.2737 36.7537 17.2629L36.9632 17.1982L37.7842 16.9421C37.949 16.8896 38.0398 16.7001 37.9858 16.5384C37.9318 16.3767 37.7469 16.2843 37.5821 16.3368L37.5821 16.3445Z" fill="#ECECEC"/>
<path d="M37.1223 18.4442C37.1816 18.3988 37.2455 18.3595 37.3141 18.3263L37.2371 18.3649C37.3233 18.3232 37.4157 18.2924 37.5097 18.2739L37.425 18.2893C37.4543 18.2847 37.4835 18.28 37.5128 18.2754C37.5991 18.2646 37.6784 18.233 37.7361 18.1675C37.7862 18.1097 37.8223 18.018 37.8146 17.941C37.8069 17.8563 37.7737 17.7723 37.7067 17.7177C37.6435 17.6668 37.5618 17.6299 37.4802 17.6392C37.2229 17.6686 36.9757 17.7588 36.7686 17.9152C36.7031 17.9653 36.6508 18.0316 36.6346 18.114C36.6193 18.191 36.6355 18.2935 36.6825 18.3574C36.7295 18.4213 36.7996 18.4775 36.8813 18.4913C36.9629 18.5052 37.0569 18.4943 37.1247 18.4435L37.1223 18.4442Z" fill="#ECECEC"/>
<path d="M39.246 18.5365C39.1286 17.8002 39.0659 17.0585 39.0618 16.3152L38.5312 16.5719C38.8648 16.8714 39.0845 17.1678 39.3896 17.5051C39.6786 17.8246 40.0069 18.1233 40.4082 18.2949C40.6478 18.3973 40.9581 18.1807 40.854 17.9073C40.8271 17.8341 40.8055 17.7618 40.7877 17.6855C40.78 17.6624 40.7792 17.6447 40.7854 17.6786C40.7792 17.6524 40.7754 17.6254 40.7723 17.6008C40.7653 17.5569 40.7615 17.5145 40.7545 17.4706C40.7344 17.2796 40.7274 17.0894 40.7273 16.8968C40.7264 16.5325 40.7486 16.1681 40.7299 15.8046C40.7105 15.3925 40.0728 15.4282 40.0914 15.8379C40.1272 16.5835 39.9742 17.3947 40.2464 18.1101L40.6922 17.7225C40.5998 17.684 40.515 17.6379 40.4287 17.5871L40.4002 17.5709C40.4172 17.5832 40.4172 17.5832 40.4002 17.5709C40.3833 17.5586 40.3632 17.5447 40.3463 17.5324C40.3055 17.5024 40.2669 17.4716 40.2284 17.4408C40.0681 17.3068 39.9233 17.1575 39.7838 17.0012C39.7799 16.9973 39.7422 16.9534 39.7545 16.9673C39.7668 16.9811 39.7137 16.9218 39.7137 16.9218C39.6798 16.8818 39.6466 16.8441 39.6127 16.804C39.541 16.7201 39.4671 16.637 39.3954 16.553C39.2544 16.3921 39.1095 16.235 38.9485 16.0911C38.7358 15.9001 38.4162 16.0813 38.4179 16.3478C38.4228 17.0934 38.4832 17.8359 38.6021 18.5691C38.6307 18.7393 38.7524 18.881 38.9388 18.8701C39.0975 18.8608 39.2692 18.7059 39.2398 18.5334L39.246 18.5365Z" fill="#ECECEC"/>
<path d="M42.9602 15.0475C42.5804 14.8174 42.0621 14.9108 41.7171 15.1621C41.5122 15.31 41.3575 15.5003 41.2251 15.7114C41.0927 15.9226 40.9796 16.1375 40.9681 16.3801C40.9551 16.6644 41.1517 16.9069 41.4313 16.9522C41.6462 16.9884 41.8672 16.9197 42.079 16.8927C42.3186 16.8641 42.5589 16.8532 42.7984 16.8631C42.8138 16.8631 42.8932 16.87 42.8293 16.8631C42.8477 16.8646 42.8693 16.8677 42.8886 16.8715C42.9078 16.8754 42.9271 16.8792 42.9463 16.8831C43.0157 16.8985 42.9355 16.8661 42.961 16.8885C42.9941 16.9185 42.9278 16.8507 42.9278 16.8507C42.917 16.8338 42.9109 16.8076 42.9116 16.7868L42.9155 16.7598C42.927 16.7329 42.9286 16.7298 42.9178 16.7514C42.9062 16.7706 42.9086 16.7699 42.9247 16.7491C42.9163 16.7622 42.9047 16.7737 42.8962 16.7868C42.8601 16.8323 42.8177 16.8747 42.7738 16.9124C42.8077 16.8831 42.7677 16.917 42.7615 16.9217C42.7345 16.9409 42.7107 16.9617 42.6837 16.981C42.6298 17.0195 42.5736 17.0511 42.5159 17.0858C42.5089 17.0881 42.4589 17.1151 42.5051 17.092C42.4766 17.1066 42.445 17.1198 42.4157 17.1321C42.3595 17.156 42.3018 17.1753 42.2448 17.1892C42.2193 17.1976 42.1901 17.2023 42.1647 17.2108C42.1015 17.2293 42.1924 17.2092 42.1192 17.2208C41.9991 17.2378 41.8805 17.244 41.7603 17.2379C41.5931 17.2295 41.4422 17.4159 41.4593 17.5746C41.4786 17.7633 41.6157 17.8665 41.796 17.8756C42.2435 17.9009 42.711 17.7551 43.0691 17.4892C43.2562 17.3497 43.4456 17.1787 43.5248 16.9545C43.6195 16.6841 43.4745 16.4038 43.2149 16.2953C42.9915 16.2029 42.735 16.2115 42.4955 16.217C42.2559 16.2225 42.0279 16.2472 41.7969 16.2858C41.7122 16.3013 41.629 16.3136 41.5404 16.3175C41.6059 16.3136 41.5573 16.3144 41.545 16.316L41.5743 16.3267C41.5465 16.3129 41.5435 16.3113 41.5658 16.3244C41.5689 16.3337 41.602 16.3637 41.6082 16.3745L41.6167 16.3999C41.612 16.3629 41.6136 16.3598 41.6136 16.3907C41.6167 16.3691 41.6221 16.3467 41.6282 16.3267C41.6182 16.366 41.632 16.3152 41.6351 16.309C41.6567 16.2582 41.6821 16.2112 41.7067 16.1619C41.7275 16.1241 41.7475 16.084 41.7714 16.0478C41.7868 16.0247 41.7991 16.0001 41.8145 15.9769C41.826 15.9577 41.826 15.9577 41.8145 15.9769C41.8229 15.9638 41.8337 15.95 41.8445 15.9361C41.8799 15.8883 41.9176 15.8398 41.96 15.7974C41.9754 15.782 41.9908 15.7666 42.0062 15.7512C42.0755 15.6818 41.9661 15.7774 42.0439 15.718C42.0847 15.6865 42.1294 15.6587 42.1733 15.6286C42.2464 15.5785 42.1386 15.6402 42.1856 15.6194C42.2133 15.6101 42.2395 15.5963 42.2672 15.587C42.2903 15.5793 42.3134 15.5716 42.3365 15.5639C42.3527 15.5585 42.4343 15.5492 42.3643 15.5546C42.4112 15.5492 42.459 15.5461 42.5052 15.5461C42.5191 15.5492 42.5668 15.5461 42.5052 15.5461C42.5322 15.5499 42.5599 15.5561 42.5876 15.5622C42.6647 15.5776 42.5614 15.5453 42.6015 15.5653C42.63 15.5815 42.6593 15.5922 42.6855 15.6092C42.8303 15.6969 43.0467 15.6144 43.1152 15.4657C43.1899 15.297 43.1259 15.1284 42.9718 15.036L42.9602 15.0475Z" fill="#ECECEC"/>
<path d="M45.4739 14.0316L44.5367 14.2931C44.3842 14.3363 44.217 14.3664 44.0699 14.4258C43.8712 14.5075 43.7712 14.677 43.7674 14.8888C43.7629 15.2062 43.79 15.5258 43.8032 15.8424C43.8165 16.1744 43.8282 16.5094 43.8414 16.8414C43.8492 17.0494 44.0664 17.1926 44.2628 17.127C44.8805 16.9234 45.5051 16.7406 46.078 16.4261C46.2297 16.3421 46.2551 16.1179 46.1664 15.9832C46.0639 15.8299 45.876 15.8131 45.7235 15.8948C45.2291 16.1676 44.6207 16.3373 44.06 16.5194L44.4815 16.805C44.4596 16.2165 44.4355 15.6288 44.4137 15.0403C44.4122 15.0049 44.4106 14.9695 44.4091 14.934L44.4075 14.8909C44.4075 14.8601 44.4059 14.8555 44.4036 14.8793C44.4244 14.8955 44.3436 15.0226 44.3013 15.0188C44.3228 15.0219 44.369 14.9987 44.3929 14.9933L44.8203 14.8738L45.6775 14.6339C45.8393 14.5876 45.9386 14.385 45.8792 14.2302C45.8152 14.0615 45.6465 13.9792 45.4755 14.0285L45.4739 14.0316Z" fill="#ECECEC"/>
<path d="M44.4866 16.0282C44.6052 15.9912 44.7261 15.9688 44.847 15.9387C44.9918 15.9033 45.125 15.8331 45.2552 15.7614C45.3222 15.7237 45.3745 15.6343 45.3891 15.5626C45.4045 15.4856 45.3883 15.3832 45.3413 15.3193C45.2942 15.2553 45.2241 15.1991 45.1425 15.1853C45.0531 15.1715 44.9769 15.1892 44.8991 15.2332C44.8621 15.2532 44.8252 15.2733 44.7905 15.2925L44.8675 15.254C44.6842 15.3434 44.4809 15.3651 44.2853 15.4252C44.209 15.4507 44.1351 15.5139 44.0997 15.5847C44.0643 15.6556 44.0536 15.7542 44.0836 15.8289C44.1461 15.993 44.3179 16.0845 44.4873 16.0306L44.4866 16.0282Z" fill="#ECECEC"/>
<path d="M37.2541 45.8178C37.8845 46.7834 38.3479 47.8408 38.6195 48.9622C38.8185 49.7816 38.9516 51.088 38.012 51.5351C37.6308 51.7162 37.1656 51.6071 36.8473 51.3461C36.4829 51.0466 36.3309 50.5452 36.3669 50.0838C36.4451 49.0563 37.3545 48.3265 38.2424 47.9633C38.7284 47.7652 39.3052 47.5546 39.8398 47.633C40.2473 47.6921 40.6526 48.0216 40.5133 48.4661L41.3568 48.5313C41.3849 47.6693 41.5163 46.8166 41.7386 45.9823L40.9175 46.0304C41.1696 46.6935 41.4233 47.3535 41.6755 48.0166C41.7973 48.3354 42.3134 48.4354 42.4619 48.0725C42.7351 47.3984 43.0098 46.7212 43.283 46.0472L42.4772 45.8796C42.4667 46.5019 42.6603 47.105 43.0263 47.6093C43.226 47.8842 43.5926 47.8363 43.7604 47.5621C44.1468 46.9349 44.4215 46.2346 44.5483 45.5067C44.6751 44.7787 44.7086 43.9484 44.3001 43.2938C43.9394 42.7132 43.2283 42.3754 42.5598 42.6036C41.8344 42.8535 41.4988 43.6408 41.721 44.3525C41.8852 44.8754 42.6939 44.6055 42.5296 44.0825C42.3993 43.669 42.7588 43.2536 43.1925 43.4145C43.5939 43.563 43.7443 44.0289 43.773 44.4148C43.8434 45.3799 43.4988 46.3706 42.9969 47.1826L43.7309 47.1353C43.4458 46.7426 43.317 46.3183 43.3252 45.8353C43.332 45.4171 42.6765 45.2764 42.5195 45.6677C42.2463 46.3418 41.9716 47.019 41.6985 47.6931L42.4849 47.749C42.2328 47.0859 41.9791 46.4259 41.7269 45.7628C41.5727 45.3623 41.0151 45.3995 40.9059 45.8109C40.6667 46.7176 40.5361 47.6419 40.5072 48.5786C40.4897 49.0954 41.2161 49.0713 41.3507 48.6437C41.5338 48.0536 41.2223 47.4283 40.7369 47.0896C40.2007 46.7139 39.529 46.725 38.9113 46.8593C37.5874 47.1471 36.1997 47.9364 35.6988 49.2592C35.1979 50.5819 35.767 52.133 37.1952 52.4343C38.6233 52.7357 39.5802 51.402 39.6197 50.1048C39.6433 49.283 39.3949 48.4312 39.1235 47.6641C38.8328 46.847 38.4388 46.0669 37.9633 45.3422C37.6635 44.8825 36.9543 45.3581 37.2564 45.817L37.2541 45.8178Z" fill="#2E293B"/>
<path d="M45.4682 48.1554C45.4326 47.7487 45.3893 47.3189 45.4254 46.9191C45.4599 46.5455 45.5483 46.2182 45.7323 45.9385C45.807 45.8237 45.9379 45.685 46.0557 45.6071C46.1465 45.5486 46.1573 45.5424 46.2613 45.5154C46.299 45.5054 46.3507 45.5061 46.4023 45.5146C46.4215 45.5184 46.4408 45.5222 46.4608 45.5284C46.4285 45.5161 46.4254 45.5146 46.4523 45.5261C46.4909 45.5415 46.5247 45.5584 46.5602 45.58C46.5787 45.5892 46.5949 45.5992 46.6118 45.6115C46.5825 45.5931 46.5818 45.5907 46.6056 45.6084C46.6372 45.6339 46.6719 45.6608 46.7012 45.687C46.7305 45.7132 46.7636 45.7432 46.7921 45.7747C46.8037 45.7863 46.8761 45.8648 46.8584 45.8425C46.8784 45.8641 46.9663 45.9734 47.0102 46.0281C47.1528 46.209 47.4001 46.2806 47.601 46.1441C47.7812 46.0224 47.862 45.7335 47.7171 45.5533C47.4281 45.1876 47.1029 44.821 46.6345 44.6949C46.0845 44.5472 45.5285 44.8433 45.1821 45.2593C44.4923 46.0853 44.5281 47.1929 44.6156 48.2012C44.6357 48.4307 44.8291 48.6178 45.0633 48.6038C45.2974 48.5899 45.4861 48.3857 45.4659 48.1562L45.4682 48.1554Z" fill="#2E293B"/>
<path d="M35.5398 44.6826C35.9157 44.7626 36.2839 44.8656 36.6468 44.991L36.5451 44.9556C36.6676 44.9995 36.7901 45.0433 36.9118 45.0926C37.0181 45.1341 37.1244 45.1526 37.2376 45.1148C37.337 45.0816 37.4401 44.9984 37.4848 44.9013C37.5733 44.7049 37.5154 44.4161 37.2943 44.3306C36.7828 44.129 36.2551 43.9637 35.7182 43.8476C35.4994 43.7999 35.2514 43.9494 35.2145 44.1774C35.1777 44.4055 35.3126 44.6326 35.5444 44.6811L35.5398 44.6826Z" fill="#2E293B"/>
<path d="M81.4281 0.183594H33.5318C29.9588 0.183594 27.0624 3.08006 27.0624 6.65303V34.4482C27.0624 38.0212 29.9588 40.9177 33.5318 40.9177H81.4281C85.0011 40.9177 87.8976 38.0212 87.8976 34.4482V6.65303C87.8976 3.08006 85.0011 0.183594 81.4281 0.183594Z" fill="#2B5EDA"/>
<path d="M32.6413 0.426758H82.2599C85.1726 0.426758 87.5389 2.79303 87.5389 5.70574H27.3599C27.3599 2.79303 29.7262 0.426758 32.6389 0.426758H32.6413Z" fill="#2E293B"/>
<path d="M82.2599 2.08302e-05C81.7379 2.08302e-05 81.2159 2.08302e-05 80.6914 2.08302e-05C79.2838 2.08302e-05 77.8762 2.08302e-05 76.4662 2.08302e-05C74.422 2.08302e-05 72.3753 2.08302e-05 70.331 2.08302e-05H62.9541C60.3365 2.08302e-05 57.7214 2.08302e-05 55.1039 2.08302e-05C52.4864 2.08302e-05 49.9932 2.08302e-05 47.4367 2.08302e-05H40.7013C39.0059 2.08302e-05 37.3105 2.08302e-05 35.6151 2.08302e-05H32.9048C32.4535 2.08302e-05 32.0071 0.0219755 31.5607 0.102478C29.8165 0.424486 28.2674 1.61738 27.5039 3.21523C27.1306 3.99341 26.9306 4.84234 26.9306 5.70591C26.9306 5.93766 27.1258 6.13282 27.3575 6.13282H85.0848C85.8679 6.13282 86.6534 6.14745 87.4365 6.13282C87.4706 6.13282 87.5023 6.13282 87.5365 6.13282C87.7682 6.13282 87.9634 5.93766 87.9634 5.70591C87.9634 2.57853 85.3654 0.0244154 82.2575 2.08302e-05C81.7086 -0.00485809 81.7086 0.848952 82.2575 0.853831C84.9043 0.875786 87.1096 3.04446 87.1096 5.70591L87.5365 5.27901H29.8116C29.031 5.27901 28.2382 5.23754 27.46 5.27901C27.4283 5.27901 27.3941 5.27901 27.3599 5.27901L27.7869 5.70591C27.7869 4.00805 28.6968 2.40533 30.1556 1.53688C30.9435 1.06606 31.8266 0.853831 32.739 0.853831C33.4879 0.853831 34.2368 0.853831 34.9857 0.853831H39.6621C41.8089 0.853831 43.9556 0.853831 46.1023 0.853831C48.5881 0.853831 51.0739 0.853831 53.5597 0.853831C56.1602 0.853831 58.7631 0.853831 61.3635 0.853831H68.8478C70.9848 0.853831 73.1193 0.853831 75.2563 0.853831C76.8126 0.853831 78.369 0.853831 79.9254 0.853831C80.6694 0.853831 81.4159 0.868468 82.1599 0.853831C82.1916 0.853831 82.2258 0.853831 82.2575 0.853831C82.8064 0.853831 82.8088 2.08302e-05 82.2575 2.08302e-05H82.2599Z" fill="#2E293B"/>
<path d="M46.8829 9.06829C46.1633 9.06829 32.8365 8.43159 31.5509 8.50722C30.2654 8.58284 29.9555 9.9465 29.9555 11.7858C29.9555 13.3861 29.7994 18.9286 29.6921 23.3952C29.675 24.0588 29.6604 24.7003 29.6482 25.3004C29.5603 29.3134 29.7775 30.5111 30.5727 30.7599C30.6971 30.799 30.8337 30.8161 30.9874 30.8161C31.2314 30.8161 31.9925 30.8209 33.0561 30.8258C36.9324 30.8478 44.824 30.8966 46.3194 30.8966C48.2222 30.8966 47.5709 28.5034 47.6562 26.5787C47.6709 26.2787 47.6855 25.7688 47.705 25.1102C47.7099 24.9711 47.7123 24.8247 47.7172 24.6735C47.7172 24.6393 47.7172 24.6052 47.7197 24.571C47.8221 20.807 47.9758 13.5886 48.0173 11.7883C48.0685 9.54886 47.605 9.07073 46.8854 9.07073L46.8829 9.06829Z" fill="#ECECEC"/>
<mask id="mask1_5327_15374" style="mask-type:luminance" maskUnits="userSpaceOnUse" x="30" y="8" width="19" height="24">
<path d="M47.383 9.43841C46.6634 9.43841 33.3366 8.80171 32.051 8.87733C30.7654 8.95296 30.4556 10.3166 30.4556 12.156C30.4556 13.7562 30.2995 19.2987 30.1921 23.7653C30.1751 24.4289 30.1604 25.0705 30.1482 25.6706C30.0604 29.6835 30.2775 30.8812 31.0728 31.1301C31.1972 31.1691 31.3338 31.1862 31.4875 31.1862C31.7314 31.1862 32.4925 31.1911 33.5562 31.1959C37.4324 31.2179 45.3241 31.2667 46.8195 31.2667C48.7223 31.2667 48.0709 28.8736 48.1563 26.9488C48.1709 26.6488 48.1856 26.1389 48.2051 25.4803C48.21 25.3412 48.2124 25.1949 48.2173 25.0436C48.2173 25.0095 48.2173 24.9753 48.2197 24.9412C48.3222 21.1771 48.4759 13.9587 48.5173 12.1584C48.5686 9.91898 48.1051 9.44085 47.3854 9.44085L47.383 9.43841Z" fill="white"/>
</mask>
<g mask="url(#mask1_5327_15374)">
<path d="M47.7222 28.1891C47.3294 29.1893 46.4537 29.8626 45.4925 30.2797C44.4362 30.7359 43.2653 30.9603 42.1309 31.1165C40.9234 31.2824 39.7012 31.3287 38.484 31.2799C37.2642 31.2287 36.0494 31.0848 34.8492 30.8603C33.7173 30.6481 32.5829 30.3871 31.4998 29.9894C30.4777 29.6138 29.4799 29.0868 28.7066 28.3087C28.3261 27.9257 27.9967 27.4768 27.8357 26.9548C27.665 26.3961 27.6918 25.796 27.8235 25.2349C28.0577 24.2445 28.5529 23.1834 29.3823 22.554C29.5775 22.4052 29.7946 22.2905 30.019 22.2002C30.2386 22.1124 30.4703 22.0417 30.6826 21.9368C30.8899 21.8319 31.0704 21.688 31.1753 21.4757C31.2754 21.2684 31.3022 21.0342 31.312 20.8073C31.3315 20.3487 31.2851 19.8608 31.4852 19.4315C31.6876 18.9899 32.1194 18.7801 32.5512 18.6167C32.7634 18.5362 32.9805 18.4654 33.1781 18.3532C33.3879 18.2361 33.5636 18.08 33.7124 17.8897C34.1856 17.2823 34.4271 16.4553 34.7223 15.7528C35.1126 14.8258 35.3053 13.8597 35.9298 13.0401C37.5838 10.8714 40.3453 10.9495 42.7433 11.5862C43.7873 11.8643 44.7826 12.3375 45.4364 13.2279C46.0999 14.133 46.4195 15.3063 46.439 16.4187C46.4488 17.0042 46.3805 17.5921 46.2244 18.1556C46.0634 18.7387 45.7779 19.3095 45.7511 19.9218C45.7072 20.9098 46.4951 21.6611 46.7293 22.5759C46.7903 22.8174 46.8123 23.0565 46.7879 23.3029C46.7562 23.6127 46.6537 23.9176 46.683 24.2323C46.722 24.6934 47.0123 25.0837 47.266 25.4496C47.5465 25.8546 47.8051 26.2644 47.893 26.7572C47.9783 27.2377 47.8954 27.7378 47.7197 28.1891H47.7222Z" fill="#2E293B"/>
<path d="M44.8362 17.446C44.907 17.8777 44.9118 18.3242 44.8411 18.7584C44.7069 19.5707 44.3191 20.327 43.6946 20.8685C43.1237 21.3637 42.3895 21.654 41.6332 21.6565C41.5283 21.8906 41.4234 22.1224 41.3185 22.3566C41.3063 22.3859 41.2868 22.4078 41.2673 22.4224C41.2331 22.52 41.2014 22.6225 41.177 22.7225C41.3746 22.8981 41.6991 22.9055 41.943 22.9469C42.2919 23.0104 42.6383 23.0884 42.9798 23.1811C43.1628 23.2299 43.4018 23.2738 43.5653 23.3909C43.6799 23.3324 43.8482 23.4251 43.7824 23.5739C43.7702 23.6056 43.7555 23.6349 43.7433 23.6666C43.7897 23.9252 43.6287 24.1276 43.4457 24.2886C43.2237 24.6985 42.9481 25.0741 42.5505 25.3425C42.004 25.7133 41.3405 25.8694 40.6892 25.884C39.9427 25.9011 39.1816 25.7816 38.4522 25.6255C38.1082 25.5523 37.8008 25.4254 37.5154 25.2205C37.4813 25.1961 37.4471 25.1693 37.413 25.1449C37.3861 25.2327 37.2568 25.2937 37.1617 25.2376C36.5665 24.8863 35.9932 24.4984 35.4468 24.0788C35.2662 23.9837 35.1028 23.8666 34.9759 23.7007C34.5978 23.4739 34.2246 23.2616 33.8562 23.0494C33.7294 22.9762 33.8123 22.8006 33.927 22.7737C34.4807 22.6469 35.0418 22.5347 35.6053 22.4444C35.8761 22.4005 36.1493 22.3517 36.4225 22.3297C36.5445 22.32 36.6616 22.3249 36.7689 22.3615C37.069 21.2905 37.4715 20.2489 37.974 19.256C37.9692 19.2512 37.8813 19.0804 37.8813 19.0804C37.5496 19.0755 37.2202 19.0096 36.9592 18.7852C36.564 18.4461 36.5616 17.9168 36.7787 17.4752C36.8055 17.4216 36.8494 17.3947 36.8934 17.3874C36.9275 17.302 36.969 17.2191 37.0202 17.141C37.1861 16.8873 37.4764 16.6604 37.7911 16.6653C37.9594 16.6678 38.1009 16.7483 38.2326 16.8483C38.3009 16.902 38.3692 16.9556 38.44 17.0117C38.4473 16.9654 38.4741 16.9264 38.5327 16.9068C38.9742 16.7629 39.3962 16.5726 39.7939 16.3433C39.7987 16.3067 39.8158 16.2701 39.8524 16.2409C40.1476 15.9945 40.472 15.7871 40.8184 15.6188C40.8111 15.5578 40.8428 15.4968 40.9063 15.4578C41.4503 15.1504 41.9674 14.8016 42.4553 14.4113C42.6724 14.2381 42.8847 14.0575 43.0871 13.8697C43.1872 13.7795 43.2847 13.6868 43.3823 13.5916C43.4701 13.5038 43.5531 13.4013 43.6531 13.3282C43.8751 13.1647 44.102 13.3208 44.302 13.4452C44.5191 13.5794 44.6899 13.7624 44.785 14.0039C44.8777 14.2429 44.9045 14.4991 44.9362 14.7528C44.9484 14.8431 44.9582 14.9358 44.9704 15.026C45.0167 15.0406 45.0533 15.0797 45.068 15.1431C45.2241 15.9164 45.1387 16.719 44.8484 17.4435L44.8362 17.446Z" fill="white"/>
<path d="M45.0339 17.6971C44.9998 17.48 44.6631 17.5288 44.6973 17.7459C44.8559 18.7217 44.5582 19.7365 43.9264 20.4927C43.2702 21.2807 42.2578 21.693 41.2406 21.649C40.6576 21.6222 40.0867 21.4588 39.5915 21.149C39.4061 21.0343 39.2012 21.3051 39.3866 21.4222C40.3575 22.032 41.5797 22.154 42.6603 21.7759C43.6996 21.41 44.5046 20.5513 44.8656 19.517C45.0681 18.9364 45.1315 18.3094 45.0339 17.6996V17.6971Z" fill="#2E293B"/>
<path d="M45.3875 15.5944C45.3656 15.2333 45.3021 14.8796 45.2046 14.5308C45.1168 14.221 45.0241 13.8111 44.7655 13.5989C44.5971 13.4599 44.3922 13.7331 44.5606 13.8721C44.6752 13.9673 44.7191 14.1551 44.7679 14.2893C44.8216 14.4381 44.8704 14.5893 44.907 14.743C44.985 15.0553 45.0314 15.3724 45.0509 15.6944C45.0875 16.3409 44.9875 16.9898 44.7703 17.5972C44.6972 17.8021 45.0143 17.929 45.0875 17.7216C45.3314 17.041 45.4314 16.3189 45.3851 15.5968L45.3875 15.5944Z" fill="#2E293B"/>
<path d="M45.6412 16.0044C44.9338 15.7166 44.2263 16.3167 43.8238 16.8436C43.3969 17.4022 43.1408 18.1341 43.3237 18.8342C43.3774 19.044 43.7165 18.9976 43.6604 18.7854C43.5067 18.1951 43.6994 17.5998 44.0482 17.1144C44.3507 16.6923 44.9435 16.0874 45.5192 16.3216C45.7217 16.4045 45.8461 16.0874 45.6436 16.0044H45.6412Z" fill="#2E293B"/>
<path d="M44.4729 17.5023C44.468 17.4876 44.4656 17.4754 44.4607 17.4608C44.4534 17.4486 44.4461 17.4364 44.4387 17.4218C44.4143 17.3925 44.3826 17.3705 44.346 17.3632C44.2875 17.3486 44.2265 17.3681 44.1826 17.412C44.1558 17.4242 44.1314 17.4388 44.1094 17.4632C44.0118 17.5754 43.9509 17.7242 43.9411 17.873C43.9362 17.934 43.9582 17.9926 44.0094 18.0292C44.0338 18.0487 44.0606 18.0584 44.0923 18.0609C44.1216 18.0633 44.1509 18.0609 44.1777 18.0487C44.207 18.0316 44.2338 18.017 44.2607 17.9975C44.2802 17.9828 44.2997 17.9633 44.3168 17.9462C44.3607 17.9023 44.39 17.8584 44.4192 17.8023C44.468 17.712 44.4827 17.6047 44.4753 17.5023H44.4729Z" fill="#2E293B"/>
<path d="M42.126 17.1194C42.1187 17.0779 42.0967 17.0316 42.0601 17.0072C42.0235 16.9828 41.9772 16.9657 41.9333 16.9754C41.8284 16.9974 41.7308 17.0584 41.6771 17.1535C41.6698 17.1682 41.6625 17.1828 41.6576 17.195C41.5381 17.3097 41.4917 17.4975 41.5552 17.6561C41.5918 17.7439 41.6918 17.778 41.7772 17.7463C42.0187 17.6561 42.1772 17.3755 42.126 17.1194Z" fill="#2E293B"/>
<path d="M42.8481 15.987C42.67 15.6577 42.3504 15.4601 41.9894 15.382C41.5649 15.2893 41.1234 15.3918 40.7111 15.4918C40.6208 15.5137 40.5525 15.5869 40.5672 15.6845C40.5794 15.7699 40.6696 15.8504 40.7599 15.8284C41.1185 15.7406 41.4966 15.6455 41.8674 15.704C42.1284 15.7455 42.4041 15.8797 42.5358 16.1212C42.5797 16.2017 42.6675 16.2505 42.7578 16.2114C42.8359 16.1773 42.892 16.0699 42.8481 15.9894V15.987Z" fill="#2E293B"/>
<path d="M36.8202 22.1954C36.8251 22.2393 36.808 22.2832 36.7812 22.3125C36.7641 22.3296 36.7446 22.3442 36.7226 22.3515C36.7104 22.3588 36.6958 22.3613 36.6836 22.3613C36.6641 22.3613 35.7249 22.454 34.5076 22.7296C34.3978 22.754 34.2832 22.7808 34.1661 22.8101C34.0588 22.837 33.949 22.8638 33.8392 22.8931C33.8294 22.8857 33.8197 22.8809 33.8099 22.8735C33.705 22.8028 33.5977 22.7345 33.4904 22.6662C33.644 22.6223 33.7929 22.5833 33.9417 22.5442C34.0514 22.5174 34.1563 22.4906 34.2612 22.4662C35.5493 22.1612 36.5738 22.0636 36.6519 22.0563C36.73 22.049 36.8031 22.1027 36.8178 22.1807C36.8178 22.1856 36.8178 22.1905 36.8178 22.1954H36.8202Z" fill="white"/>
<path d="M43.7921 23.2636C43.7848 23.3197 43.775 23.3733 43.7652 23.4294C43.7604 23.4514 43.7579 23.4709 43.753 23.4929C43.7482 23.5197 43.7408 23.5441 43.7335 23.5685C43.6579 23.5465 43.5847 23.5246 43.5115 23.5026C42.3138 23.1489 41.2624 22.883 41.2404 22.8757C41.1575 22.8562 41.1087 22.7708 41.1282 22.6878C41.1404 22.6415 41.1721 22.6049 41.2111 22.5878C41.2428 22.5732 41.2794 22.5683 41.3136 22.5756C41.4014 22.5976 42.4626 22.8659 43.6555 23.2221C43.7018 23.2343 43.7457 23.2489 43.7921 23.2611V23.2636Z" fill="white"/>
<path d="M41.8164 21.6977C41.7481 21.6465 41.6261 21.6538 41.5773 21.7319C41.2772 22.2319 41.0431 22.7686 40.8918 23.3321C40.8674 23.42 40.8967 23.5175 40.9894 23.5517C41.0675 23.5834 41.187 23.5444 41.2089 23.4541C41.3529 22.9223 41.5651 22.4076 41.8481 21.9343C41.8944 21.8563 41.892 21.7562 41.8139 21.6953L41.8164 21.6977Z" fill="#2E293B"/>
<path d="M39.089 17.5483C38.928 17.1702 38.6304 16.8677 38.2645 16.6871C37.8864 16.5018 37.4107 16.4481 37.0448 16.6871C36.352 17.1433 36.169 18.2069 36.7179 18.8436C37.0057 19.1754 37.4302 19.3584 37.8669 19.3169C38.0864 19.2974 38.0254 18.9607 37.8108 18.9802C37.2033 19.0363 36.6984 18.4777 36.735 17.8874C36.7545 17.5727 36.8935 17.2604 37.1301 17.0506C37.3961 16.814 37.7376 16.8311 38.0523 16.9604C38.3816 17.0945 38.6426 17.3604 38.7817 17.6873C38.867 17.8898 39.1769 17.7459 39.0915 17.5458L39.089 17.5483Z" fill="#2E293B"/>
<path d="M38.4669 18.25C38.1742 18.0109 37.8814 17.7694 37.5863 17.5304C37.518 17.4743 37.3984 17.4913 37.3472 17.5645C37.2935 17.6426 37.3082 17.7426 37.3813 17.8036C37.6741 18.0451 37.9668 18.2842 38.262 18.5232C38.3303 18.5793 38.4498 18.5623 38.5011 18.4891C38.5547 18.411 38.5401 18.311 38.4669 18.25Z" fill="#2E293B"/>
<path d="M45.2559 14.9454C45.1803 14.6576 45.0998 14.3673 44.9827 14.0941C44.8754 13.8428 44.7339 13.5988 44.5411 13.4012C44.3533 13.211 44.0752 13.0085 43.7947 13.0158C43.6459 13.0207 43.5215 13.0963 43.4117 13.1915C43.2799 13.3085 43.1531 13.4354 43.0214 13.5549C42.7652 13.7891 42.5018 14.0184 42.2334 14.2404C41.6845 14.6942 41.1137 15.1211 40.5234 15.5163C39.8671 15.9554 39.189 16.3603 38.4889 16.7238C38.3132 16.8141 38.4327 17.0995 38.6084 17.0068C39.7818 16.3945 40.899 15.6797 41.9431 14.8674C42.4627 14.4624 42.9628 14.0331 43.4434 13.5818C43.5361 13.4939 43.6581 13.3329 43.7947 13.3207C43.9191 13.3086 44.0728 13.411 44.1704 13.4818C44.3777 13.633 44.5241 13.8501 44.6363 14.077C44.7705 14.3502 44.8607 14.6429 44.9388 14.9381C45.0437 15.3333 45.1266 15.7358 45.1583 16.1456C45.173 16.3432 45.4779 16.2993 45.4633 16.1017C45.434 15.709 45.3559 15.3235 45.2584 14.943L45.2559 14.9454Z" fill="#2E293B"/>
<path d="M43.3774 19.3017C42.9529 19.1675 42.5284 19.0333 42.104 18.8967C42.0259 18.8723 41.9356 18.904 41.9039 18.9845C41.8747 19.0577 41.9113 19.1577 41.9918 19.1846L43.2652 19.5895C43.3432 19.6139 43.4335 19.5822 43.4652 19.5017C43.4945 19.4285 43.4579 19.3285 43.3774 19.3017Z" fill="#2E293B"/>
<path d="M43.4678 19.4167C43.397 19.3655 43.3068 19.3826 43.2531 19.4484C43.1189 19.6095 42.8652 19.6607 42.6627 19.5826C42.5579 19.5436 42.4603 19.4728 42.3895 19.3899C42.3505 19.3436 42.3115 19.2899 42.2846 19.2411C42.27 19.2118 42.2554 19.1825 42.2432 19.1533C42.2383 19.1386 42.231 19.1264 42.2261 19.1118C42.2724 18.963 42.0626 18.8239 41.9577 18.9703C41.8431 19.1362 41.9943 19.3777 42.0968 19.5168C42.2066 19.6656 42.3554 19.7851 42.5237 19.8583C42.8579 19.9998 43.2653 19.9119 43.4995 19.6314C43.5531 19.568 43.5336 19.4631 43.4678 19.4167Z" fill="#2E293B"/>
<path d="M37.7666 19.1996C37.3129 20.4925 36.8592 21.7878 36.4054 23.0808C36.3396 23.2662 36.625 23.3808 36.6908 23.193C37.1446 21.9001 37.5983 20.6047 38.0521 19.3118C38.1179 19.1264 37.8325 19.0117 37.7666 19.1996Z" fill="#2E293B"/>
<path d="M50.1542 31.2066C48.4734 31.2627 46.8293 31.2919 45.3119 31.3188C45.2851 31.3188 45.2607 31.3188 45.2338 31.3188C45.1558 31.3188 45.0802 31.3212 45.0045 31.3237C43.9946 31.3407 42.9774 31.3554 41.9601 31.3676C40.3135 31.3846 38.662 31.3944 37.0251 31.3944C36.7738 31.3944 36.5201 31.3944 36.2688 31.3944C33.6806 31.3895 31.063 31.3627 28.4797 31.3163C28.0137 31.309 27.5258 31.2968 27.0013 31.2871C27.0282 31.1529 27.0575 31.0187 27.0843 30.8846C27.1745 30.4601 27.2526 30.0551 27.3282 29.6673C27.6551 27.9792 27.921 26.6106 28.8553 25.4177C29.292 24.8615 29.8726 24.3419 30.6776 23.8443C31.4143 23.3881 32.273 23.0441 33.1049 22.7856C33.2342 22.7465 33.3634 22.7075 33.4903 22.6709C33.5976 22.7392 33.705 22.8075 33.8099 22.8783C33.8196 22.8856 33.8294 22.8929 33.8391 22.8978C34.227 23.1612 34.5905 23.4247 34.954 23.6882C35.5443 24.1151 36.1249 24.5249 36.7519 24.8542C36.9641 24.9664 37.1836 25.0713 37.4081 25.1665C37.4276 25.1738 37.4471 25.1835 37.4666 25.1909C38.2838 25.5348 39.1596 25.7544 40.0427 25.7983C41.0746 25.8471 42.1674 25.6104 42.9383 24.8859C43.2237 24.6151 43.4604 24.2858 43.614 23.9248C43.6628 23.8101 43.7043 23.693 43.736 23.5735C43.7433 23.5467 43.7482 23.5223 43.7555 23.4954C43.7604 23.4759 43.7653 23.454 43.7677 23.4344C43.7799 23.3783 43.7873 23.3247 43.7946 23.2661C43.8482 23.2832 43.9019 23.2978 43.9556 23.3149C44.0019 23.3296 44.0483 23.3442 44.0946 23.3588C45.1948 23.6955 46.3218 24.0858 46.8512 24.4127C47.6709 24.9176 48.3442 25.6666 48.8345 26.5984C49.1687 27.24 49.4175 27.9694 49.5663 28.7647C49.6712 29.3282 49.8957 30.2259 50.1567 31.2114L50.1542 31.2066Z" fill="#2B5EDA"/>
<path d="M45.6071 27.1258C45.2509 27.7015 44.9411 28.3065 44.6801 28.931C44.9801 29.4603 45.1753 30.0434 45.2607 30.641C45.2924 30.8655 45.3119 31.0923 45.3119 31.3192C45.2851 31.3192 45.2607 31.3192 45.2338 31.3192C45.1558 31.3192 45.0801 31.3216 45.0045 31.3241C45.0045 31.1265 44.9899 30.9289 44.9655 30.7337C44.9143 30.3312 44.8094 29.936 44.6508 29.5603C44.6093 29.4603 44.563 29.3603 44.5142 29.2652C44.4678 29.1749 44.3727 29.0603 44.3581 28.9602C44.3434 28.8553 44.4361 28.7138 44.4776 28.6187C44.5288 28.5041 44.58 28.387 44.6362 28.2723C44.8533 27.8137 45.0972 27.3697 45.3631 26.9404C45.468 26.772 45.712 26.9574 45.6095 27.1258H45.6071Z" fill="#ECECEC"/>
</g>
<path d="M47.1245 8.82142C45.595 8.81654 44.0581 8.69944 42.531 8.63358C40.0354 8.52624 37.5423 8.41891 35.0468 8.33109C34.1734 8.29937 33.3001 8.26766 32.4268 8.2579C32.2194 8.25546 32.0072 8.24814 31.7998 8.26278C31.1046 8.30669 30.5264 8.67505 30.2142 9.30199C29.6116 10.5168 29.78 12.0147 29.7556 13.3344C29.7239 15.0567 29.68 16.7789 29.636 18.4987C29.5848 20.5723 29.5287 22.6458 29.4824 24.7194C29.4433 26.388 29.3189 28.1297 29.619 29.7837C29.7873 30.7082 30.2386 31.4108 31.2583 31.423C32.7171 31.4425 34.1783 31.4376 35.6371 31.4449C38.7035 31.462 41.7699 31.4815 44.8387 31.4962C45.2974 31.4962 45.756 31.5011 46.2146 31.5011C46.7513 31.5011 47.2855 31.4864 47.7173 31.1181C48.2174 30.6912 48.3296 29.9837 48.3589 29.3641C48.3955 28.5981 48.3101 27.8297 48.3174 27.0637C48.332 25.4805 48.4125 23.8973 48.4516 22.3141C48.493 20.6235 48.5321 18.933 48.5687 17.2424C48.6004 15.8349 48.6297 14.4273 48.6614 13.0197C48.6736 12.4879 48.698 11.9561 48.6858 11.4243C48.6736 10.7657 48.6467 9.96796 48.2613 9.40201C47.9954 9.01169 47.5905 8.8263 47.1245 8.82142C46.5756 8.8141 46.5756 9.66791 47.1245 9.67523C47.166 9.67523 47.2099 9.67522 47.2514 9.6801C47.2538 9.6801 47.2148 9.67035 47.2928 9.68986C47.3099 9.69474 47.4197 9.73133 47.3709 9.71182C47.327 9.69474 47.4368 9.75085 47.4538 9.76305C47.4514 9.76305 47.4416 9.74597 47.4904 9.79964C47.5368 9.85087 47.5295 9.84599 47.5343 9.85087C47.6026 9.95089 47.6295 10.0168 47.6612 10.1143C47.8759 10.7608 47.8393 11.478 47.8246 12.1488C47.8002 13.2734 47.7759 14.398 47.7515 15.5202C47.6832 18.5866 47.6173 21.6505 47.5343 24.7169C47.5124 25.5634 47.4563 26.4123 47.4612 27.2588C47.466 27.9834 47.5417 28.7103 47.4977 29.4348C47.4709 29.8959 47.388 30.457 46.9074 30.6033C46.5732 30.7058 46.1487 30.6472 45.7999 30.6448C43.0482 30.635 40.2965 30.6155 37.5448 30.6009C36.1372 30.5936 34.7321 30.5838 33.3245 30.5765C32.8537 30.5741 32.3829 30.5716 31.9145 30.5692C31.6388 30.5692 31.3412 30.596 31.068 30.557C31.0021 30.5472 30.9412 30.5301 30.8802 30.5082C30.8094 30.4838 30.9582 30.5472 30.8924 30.5131C30.868 30.4984 30.8436 30.4862 30.8192 30.4716C30.7387 30.4228 30.8728 30.5302 30.807 30.4643C30.785 30.4423 30.7655 30.4228 30.7436 30.4009C30.6826 30.3423 30.7362 30.3984 30.7338 30.3935C30.6899 30.3326 30.6533 30.2667 30.6191 30.2008C30.585 30.135 30.6045 30.1667 30.6021 30.1618C30.5874 30.1228 30.5728 30.0813 30.5582 30.0398C30.5264 29.9398 30.4996 29.8398 30.4777 29.7373C30.4264 29.508 30.3972 29.2958 30.3752 29.0665C30.2996 28.2956 30.2947 27.515 30.2996 26.7417C30.3093 24.7072 30.385 22.6727 30.4362 20.6406C30.4825 18.8037 30.5313 16.9692 30.5728 15.1323C30.6021 13.8711 30.5826 12.605 30.6411 11.3463C30.6704 10.7266 30.7143 9.93137 31.1387 9.43616C31.3705 9.16538 31.6876 9.11415 32.0243 9.10927C32.7122 9.10195 33.4001 9.13123 34.0881 9.15318C36.4153 9.22637 38.7425 9.32638 41.0698 9.4264C42.9408 9.5069 44.8143 9.59472 46.6879 9.66303C46.8342 9.66791 46.983 9.67523 47.1294 9.67523C47.6783 9.67523 47.6807 8.82386 47.1294 8.82142H47.1245Z" fill="#ECECEC"/>
<path d="M69.1526 10.412C69.1745 9.76313 69.1867 8.51413 69.2087 7.86523C74.0998 7.91646 78.9885 7.96769 83.8796 8.01648C84.2675 8.02136 85.1457 7.85792 85.1847 8.24335C85.292 9.28256 85.3335 9.7241 85.0164 10.434C81.7865 10.5462 78.4713 10.6535 75.239 10.6243C73.1289 10.6047 71.1017 10.6072 69.1501 10.412" fill="#ECECEC"/>
<path d="M69.5797 10.4117C69.6065 9.56278 69.609 8.71385 69.6358 7.86491L69.2089 8.29182C71.7947 8.31865 74.383 8.34549 76.9688 8.37232L80.8476 8.41135C81.999 8.42355 83.1602 8.48454 84.3091 8.42111C84.4897 8.41135 84.6824 8.44794 84.8556 8.43819C84.7653 8.44307 84.78 8.25767 84.78 8.46258C84.78 8.60651 84.8092 8.75532 84.819 8.89924C84.8531 9.3603 84.8336 9.78965 84.6458 10.2166L85.0142 10.0043C80.8549 10.1507 76.698 10.2507 72.5363 10.1629C71.4044 10.1385 70.275 10.0921 69.1479 9.98236C68.6015 9.9287 68.6064 10.7825 69.1479 10.8362C71.1507 11.0313 73.1657 11.0313 75.1758 11.0484C77.1859 11.0655 79.3522 11.0313 81.4404 10.9752C82.6308 10.9411 83.8213 10.902 85.0117 10.8606C85.1483 10.8557 85.3215 10.7849 85.3801 10.6483C85.5728 10.2044 85.6899 9.76037 85.685 9.27248C85.685 9.03585 85.6606 8.80167 85.6387 8.56748C85.6143 8.3089 85.6216 8.02104 85.4289 7.821C85.1312 7.51119 84.6263 7.55022 84.2335 7.57218C83.67 7.60633 83.1016 7.58194 82.5381 7.57462C79.7083 7.54535 76.881 7.51607 74.0512 7.4868C72.4339 7.46972 70.819 7.45265 69.2016 7.43557C68.965 7.43313 68.782 7.63317 68.7747 7.86247C68.7479 8.71141 68.7454 9.56034 68.7186 10.4093C68.7015 10.9581 69.5553 10.9581 69.5724 10.4093L69.5797 10.4117Z" fill="#ECECEC"/>
<path d="M53.7599 14.8672L59.4122 14.6306C59.9586 14.6086 59.9635 13.7548 59.4122 13.7768L53.7599 14.0134C53.2135 14.0354 53.2086 14.8892 53.7599 14.8672Z" fill="#ECECEC"/>
<path d="M53.6744 16.7308C57.9727 16.7308 62.2711 16.7308 66.5694 16.7308C67.1183 16.7308 67.1207 15.877 66.5694 15.877C62.2711 15.877 57.9727 15.877 53.6744 15.877C53.1255 15.877 53.1231 16.7308 53.6744 16.7308Z" fill="#ECECEC"/>
<path d="M53.6745 20.0686C56.9214 20.0491 60.1708 20.0296 63.4177 20.0101C63.9665 20.0076 63.969 19.1538 63.4177 19.1563C60.1708 19.1758 56.9214 19.1953 53.6745 19.2148C53.1256 19.2172 53.1232 20.071 53.6745 20.0686Z" fill="#ECECEC"/>
<path d="M53.8208 22.0633C59.7218 21.9364 65.6204 22.117 71.5215 22.2023C73.2267 22.2267 74.9343 22.2438 76.6395 22.2438C77.1883 22.2438 77.1908 21.39 76.6395 21.39C70.6945 21.39 64.752 21.1802 58.8095 21.168C57.1458 21.1631 55.4845 21.1753 53.8208 21.2119C53.2719 21.2241 53.2695 22.0779 53.8208 22.0657V22.0633Z" fill="#ECECEC"/>
<path d="M74.6002 26.8437C74.893 27.9609 74.9979 29.1124 74.9003 30.2638C74.8295 31.1054 74.5417 32.3885 73.5074 32.5154C73.0878 32.5666 72.6804 32.3154 72.4608 31.9665C72.2096 31.5665 72.2242 31.042 72.4047 30.6151C72.8048 29.6637 73.9001 29.2587 74.8588 29.1953C75.3833 29.1611 75.998 29.1441 76.4811 29.388C76.8494 29.5734 77.1299 30.015 76.8567 30.3931L77.6374 30.7224C77.9374 29.9125 78.3326 29.1441 78.8083 28.422L78.013 28.2073C78.0423 28.9172 78.074 29.6246 78.1033 30.3345C78.1179 30.6761 78.5765 30.9346 78.8327 30.637C79.3059 30.0833 79.7816 29.5271 80.2549 28.9733L79.5426 28.5586C79.3352 29.1465 79.3279 29.7808 79.5157 30.376C79.6182 30.7004 79.9817 30.7712 80.2281 30.5638C80.794 30.0906 81.277 29.5124 81.6283 28.8611C81.9796 28.2098 82.2748 27.4316 82.0942 26.6802C81.9357 26.0142 81.3673 25.4678 80.6598 25.4727C79.8914 25.48 79.323 26.1216 79.3084 26.8681C79.2986 27.4169 80.1524 27.4169 80.1622 26.8681C80.1695 26.4338 80.6428 26.1533 81.0038 26.4436C81.338 26.7119 81.3331 27.2023 81.238 27.5779C80.9989 28.5171 80.3574 29.349 79.6231 29.9613L80.3354 30.1491C80.189 29.6856 80.2012 29.2417 80.3622 28.7855C80.5013 28.3903 79.9231 28.0488 79.6499 28.3708C79.1767 28.9245 78.701 29.4807 78.2277 30.0345L78.9571 30.337C78.9278 29.6271 78.8961 28.9196 78.8668 28.2098C78.8473 27.7804 78.3058 27.6389 78.0716 27.9951C77.5569 28.7806 77.1397 29.6173 76.8153 30.498C76.6347 30.9834 77.3324 31.1908 77.5959 30.8273C77.9569 30.3248 77.8593 29.632 77.5056 29.1563C77.1153 28.6293 76.4737 28.4269 75.8444 28.3586C74.4953 28.2122 72.9268 28.522 72.0315 29.6198C71.1362 30.7175 71.185 32.3715 72.4462 33.1106C73.7074 33.8498 75.0393 32.8862 75.4882 31.6665C75.7712 30.8932 75.8053 30.0052 75.7907 29.1904C75.7736 28.322 75.6468 27.456 75.4248 26.6168C75.2857 26.085 74.4612 26.3119 74.6027 26.8437H74.6002Z" fill="#ECECEC"/>
<path d="M81.6599 31.6713C81.755 31.2737 81.8502 30.8517 82.0112 30.4833C82.1624 30.1394 82.3502 29.8564 82.6137 29.649C82.721 29.5636 82.8894 29.4734 83.026 29.4368C83.1309 29.41 83.1431 29.4075 83.2504 29.4148C83.2894 29.4173 83.3382 29.4344 83.3846 29.4587C83.4017 29.4685 83.4187 29.4783 83.4358 29.4905C83.409 29.4685 83.4065 29.4661 83.4285 29.4856C83.4602 29.5124 83.487 29.5393 83.5139 29.571C83.5285 29.5856 83.5407 29.6002 83.5529 29.6173C83.5309 29.5905 83.5309 29.588 83.548 29.6124C83.57 29.6466 83.5944 29.6832 83.6139 29.7173C83.6334 29.7515 83.6554 29.7905 83.6724 29.8295C83.6797 29.8442 83.7237 29.9418 83.7139 29.9149C83.7261 29.9418 83.7749 30.0735 83.7993 30.1394C83.8773 30.3565 84.0896 30.5028 84.3238 30.437C84.5336 30.3784 84.7019 30.1296 84.6214 29.9125C84.4628 29.4734 84.2701 29.0221 83.8651 28.7537C83.3895 28.4391 82.7674 28.544 82.3063 28.8294C81.3891 29.3953 81.072 30.4589 80.8353 31.4445C80.7817 31.6689 80.9061 31.908 81.133 31.969C81.3598 32.0299 81.6038 31.8958 81.6574 31.6713H81.6599Z" fill="#ECECEC"/>
<path d="M73.3292 25.224C73.661 25.4192 73.9781 25.6339 74.2831 25.868L74.1977 25.8022C74.3001 25.8827 74.4026 25.9632 74.5026 26.0486C74.5904 26.1217 74.6856 26.173 74.8051 26.173C74.91 26.173 75.0344 26.1266 75.1076 26.0486C75.2539 25.89 75.2905 25.5973 75.1076 25.446C74.6856 25.0923 74.2367 24.7679 73.7634 24.4873C73.5707 24.3727 73.2877 24.4361 73.1804 24.641C73.0731 24.8459 73.1292 25.1045 73.3341 25.224H73.3292Z" fill="#ECECEC"/>
<path d="M53.9648 25.2073C56.4433 25.2317 58.9194 25.2561 61.3978 25.2805C61.9467 25.2854 61.9467 24.4316 61.3978 24.4267C58.9194 24.4023 56.4433 24.3779 53.9648 24.3535C53.4159 24.3487 53.4159 25.2025 53.9648 25.2073Z" fill="#ECECEC"/>
<path d="M54.5453 27.3345C58.851 27.5638 63.1712 27.4662 67.4623 27.0418C68.0038 26.9881 68.0087 26.1343 67.4623 26.188C63.1712 26.6124 58.851 26.71 54.5453 26.4807C53.9964 26.4514 53.9989 27.3052 54.5453 27.3345Z" fill="#ECECEC"/>
<path d="M82.2892 40.5732L32.6706 40.5732C29.7579 40.5732 27.3916 38.207 27.3916 35.2943L87.5706 35.2943C87.5706 38.207 85.2043 40.5732 82.2916 40.5732H82.2892Z" fill="#2E293B"/>
<path d="M32.6707 40.9997C33.1927 40.9997 33.7148 40.9997 34.2392 40.9997H38.4644C40.5086 40.9997 42.5554 40.9997 44.5996 40.9997H51.9765C54.5941 40.9997 57.2092 40.9997 59.8267 40.9997C62.4443 40.9997 64.9374 40.9997 67.4939 40.9997H74.2293C75.9247 40.9997 77.6201 40.9997 79.3155 40.9997H82.0258C82.4771 40.9997 82.9235 40.9777 83.3699 40.8972C85.1141 40.5752 86.6632 39.3823 87.4267 37.7845C87.8 37.0063 88 36.1573 88 35.2938C88 35.062 87.8049 34.8669 87.5731 34.8669H29.8409C29.0578 34.8669 28.2723 34.8522 27.4893 34.8669C27.4551 34.8669 27.4234 34.8669 27.3892 34.8669C27.1575 34.8669 26.9623 35.062 26.9623 35.2938C26.9623 38.4211 29.5604 40.9753 32.6682 40.9997C33.2171 41.0045 33.2171 40.1507 32.6682 40.1458C30.0214 40.1239 27.8162 37.9552 27.8162 35.2938L27.3892 35.7207H85.1166C85.8972 35.7207 86.69 35.7621 87.4682 35.7207C87.4999 35.7207 87.5341 35.7207 87.5682 35.7207L87.1413 35.2938C87.1413 36.9916 86.2314 38.5944 84.7726 39.4628C83.9847 39.9336 83.1016 40.1458 82.1892 40.1458C81.4403 40.1458 80.6914 40.1458 79.9425 40.1458H75.266C73.1193 40.1458 70.9726 40.1458 68.8259 40.1458H61.3685C58.768 40.1458 56.1651 40.1458 53.5646 40.1458H46.0804C43.9434 40.1458 41.8089 40.1458 39.6719 40.1458C38.1155 40.1458 36.5592 40.1458 35.0028 40.1458C34.2588 40.1458 33.5123 40.1312 32.7683 40.1458C32.7365 40.1458 32.7024 40.1458 32.6707 40.1458C32.1218 40.1458 32.1194 40.9997 32.6707 40.9997Z" fill="#2E293B"/>
</svg>
