<svg id="ic-more" xmlns="http://www.w3.org/2000/svg" width="24" height="24" viewBox="0 0 24 24">
  <rect id="Rectangle_9984" data-name="Rectangle 9984" width="24" height="24" fill="none"/>
  <path id="more_vert_FILL0_wght400_GRAD0_opsz24" d="M402.375-781a2.287,2.287,0,0,1-1.677-.7,2.287,2.287,0,0,1-.7-1.677,2.287,2.287,0,0,1,.7-1.677,2.287,2.287,0,0,1,1.677-.7,2.287,2.287,0,0,1,1.677.7,2.287,2.287,0,0,1,.7,1.677,2.287,2.287,0,0,1-.7,1.677A2.287,2.287,0,0,1,402.375-781Zm0-7.125a2.287,2.287,0,0,1-1.677-.7,2.287,2.287,0,0,1-.7-1.677,2.287,2.287,0,0,1,.7-1.677,2.287,2.287,0,0,1,1.677-.7,2.287,2.287,0,0,1,1.677.7,2.287,2.287,0,0,1,.7,1.677,2.287,2.287,0,0,1-.7,1.677A2.287,2.287,0,0,1,402.375-788.125Zm0-7.125a2.287,2.287,0,0,1-1.677-.7,2.287,2.287,0,0,1-.7-1.677,2.287,2.287,0,0,1,.7-1.677,2.287,2.287,0,0,1,1.677-.7,2.287,2.287,0,0,1,1.677.7,2.287,2.287,0,0,1,.7,1.677,2.287,2.287,0,0,1-.7,1.677A2.287,2.287,0,0,1,402.375-795.25Z" transform="translate(-390 802)" fill="#2a5ed9"/>
</svg>
