<svg id="ic-logo" xmlns="http://www.w3.org/2000/svg" xmlns:xlink="http://www.w3.org/1999/xlink" width="160" height="160" viewBox="0 0 160 160">
  <defs>
    <clipPath id="clip-path">
      <path id="Path_54596" data-name="Path 54596" d="M50.259,71.349c6.5-4.092,10.945-10.7,13.881-17.65,3.18-7.541,5.6-16.018,5.7-24.235.086-7.113-2.093-14.515-7.4-19.507C58.784,6.54,53,4.051,48.428,2.369A31.858,31.858,0,0,0,36.546.012c-8.016.246-15.134,5.21-21.588,9.455C8.788,13.528,3.181,18.38,1.131,25.722c-1.964,7.027-1.163,14.9.826,21.839C5.884,61.226,16.323,72.895,30.9,75.094A28.3,28.3,0,0,0,50.259,71.349Z" transform="translate(-0.001 -0.002)" fill="none"/>
    </clipPath>
  </defs>
  <rect id="Rectangle_9947" data-name="Rectangle 9947" width="160" height="160" fill="none"/>
  <g id="content" transform="translate(8 30)">
    <path id="Path_54587" data-name="Path 54587" d="M217.712,65.629c-4.494-8.252-12.258-14.2-20.565-18.35-9.01-4.492-19.24-8.145-29.338-8.941-8.741-.693-18.023,1.35-24.6,7.4-4.5,4.171-8.044,11.005-10.489,16.429-2.032,4.513-3.69,9.287-3.877,14.269-.359,9.773,5.158,18.846,9.846,27.055,4.483,7.841,9.99,15.065,18.849,18.168,8.479,2.971,18.228,2.646,26.926.8,17.133-3.649,32.346-15.39,36.251-32.951a34.219,34.219,0,0,0-3.008-23.87Z" transform="translate(-82.581 -24.566)" fill="#dce5f2"/>
    <g id="Group_10488" data-name="Group 10488" clip-path="url(#clip-path)">
      <g id="Group_10487" data-name="Group 10487" transform="translate(-13.026 -11.717)">
        <path id="Path_54588" data-name="Path 54588" d="M21.19,120.42c18.332-10.759,35.663-20.932,53-31.108,2.559-1.5,5.151-2.789,7.682-4.578,11.655-8.248,19.736-9.623,28.243-11.962,1.971-.543,2.6.871,4.3,1.571-10.026,5.838-18.9,11.094-27.719,16.125Q60.929,105.176,35.225,119.68c-10.894,6.163-10.884,6.127-14.035.739Z" transform="translate(-0.558 -34.993)" fill="#dce5f2"/>
        <path id="Path_54589" data-name="Path 54589" d="M38.56,139.663c8.615-5.035,15.959-9.4,23.246-13.565Q90.435,109.74,119,93.593c2.9-1.632,7.718-5.824,7.854-2.817.075,1.628-6.939,9.334-10.439,11.508-4.724,2.939-9.426,5.749-14.129,8.559C87.181,119.877,72.1,128.768,56.967,137.97c-6.264,3.806-9.24,3.46-12.226,2.928-1.863-.332-3.665-.732-6.181-1.236Z" transform="translate(-11.693 -45.966)" fill="#dce5f2"/>
        <path id="Path_54590" data-name="Path 54590" d="M67.477,46c-5.305,3.374-10.543,5.22-15.643,8.213-5.9,3.464-11.978,7.67-17.977,11.512-7.682,4.92-15.371,9.9-23.027,14.665-4.451,2.767-6.339,4.317-7.886.846-.747-1.671-1.666-3.314.416-4.97,3.855-2.2,9.66-6.459,13.124-8.666,10.054-6.406,20.13-13,30.2-19.5,3.643-2.35,7.276-4.61,10.916-6.945,7.535-4.831,10-3.892,10.151-.168a7.4,7.4,0,0,0,.592,2.4,2.137,2.137,0,0,1-.861,2.61Z" transform="translate(11.691 -12.62)" fill="#dce5f2"/>
        <path id="Path_54591" data-name="Path 54591" d="M79.79,78.249c-7.237,4.163-14.168,8.127-21.136,12.233-11.027,6.5-22.058,12.958-33.146,19.8-13.134,8.106-13.163,8.277-13.378.25,4.243-2.271,8.224-4.063,12.294-6.659,6.425-4.1,12.944-8.98,19.369-13.058,6.063-3.849,12.054-7.088,18.074-10.584.42-.246,18.372-9.113,20.382-5.113.416.828-.973,2.275-2.455,3.124Z" transform="translate(5.25 -35.913)" fill="#dce5f2"/>
        <path id="Path_54592" data-name="Path 54592" d="M53.947,14.836C34.258,27.387,13.159,40.628-7.93,54.071c-7.736.739-7.036-2.889-4.774-7.213.194-.368,6.687-4.424,15.36-9.68C16.6,28.723,36.186,17.164,44.219,12.861c8.73-4.674,9.3-4.06,9.731,1.975Z" transform="translate(22.148 5.432)" fill="#dce5f2"/>
        <path id="Path_54593" data-name="Path 54593" d="M39.9,3.255C37.946,4.912,8.924,21.441-4.749,28.589c-5.083,2.657-10,7.416-11.16,7.066-1.454-.439-4.1-3.9-1.2-6.438C-11.217,24.072,3.633,16.07,9.843,12.182c5.984-3.746,24.632-13.919,28.272-13.6,2.534.218,4.462,2.407,1.784,4.678Z" transform="translate(24.828 12.635)" fill="#dce5f2"/>
        <path id="Path_54594" data-name="Path 54594" d="M-35-.392C-33.043-2.049-4.018-18.578,9.651-25.726c5.083-2.657,10-7.416,11.16-7.066,1.454.439,4.1,3.9,1.2,6.438C16.12-21.209,1.269-13.207-4.941-9.322-10.924-5.577-29.572,4.6-33.212,4.286-35.746,4.068-37.674,1.879-35-.392Z" transform="translate(36.288 32.811)" fill="#dce5f2"/>
        <path id="Path_54595" data-name="Path 54595" d="M150.768,136.42c-14.2,16.2-44.831,34.447-56.849,33.858Q122.344,153.347,150.768,136.42Z" transform="translate(-47.181 -75.992)" fill="#dce5f2"/>
      </g>
    </g>
    <g id="Group_10490" data-name="Group 10490" transform="translate(24.947 11.622)">
      <path id="Path_54597" data-name="Path 54597" d="M125.641,100.824a1.515,1.515,0,0,1,.007,1.4l-18.928,36.821-.391.757-.007.018a8.612,8.612,0,0,1-3.18,3.164,8.741,8.741,0,0,1-11.914-3.178c-.057-.1-.111-.2-.162-.293l-21.243-40a2.74,2.74,0,0,1,2.43-4.021h47.936a4.374,4.374,0,0,1,3.87,2.325l1.587,3h0Z" transform="translate(-69.5 -73.022)" fill="#0048d2"/>
      <path id="Path_54598" data-name="Path 54598" d="M124.728,49.906c2.366,4.713.449,8.534-4.286,8.534s-10.485-3.817-12.854-8.534.93-7.067,5.661-7.067a12.5,12.5,0,0,1,11.476,7.067Z" transform="translate(-93.412 -39.166)" fill="#0048d2"/>
      <path id="Path_54599" data-name="Path 54599" d="M146,123.6a1.247,1.247,0,0,1,.007,1.153l-7.334,30.3-.323.621-.007.014a7.057,7.057,0,0,1-2.62,2.6,7.2,7.2,0,0,1-9.8-2.614c-.047-.079-.093-.161-.136-.243l-16.961-32.54a2.253,2.253,0,0,1,2-3.307l30.68-.368a3.6,3.6,0,0,1,3.184,1.91L146,123.6h0Z" transform="translate(-94.539 -88.272)" fill="#fff1ba"/>
      <path id="Path_54600" data-name="Path 54600" d="M167.006,144.12a.708.708,0,0,1,0,.657L164,162.087l-.183.357v.007a4.112,4.112,0,0,1-7.1,0c-.025-.046-.05-.093-.075-.136l-9.631-18.45a1.287,1.287,0,0,1,1.141-1.889l16.293-.353a2.062,2.062,0,0,1,1.82,1.093l.747,1.407h0Z" transform="translate(-119.089 -102.674)" fill="#ff6e70"/>
      <path id="Path_54601" data-name="Path 54601" d="M239.622,41.787l-28.11,54.454a13.787,13.787,0,0,1-12.32,7.445H150.65c2.261,0,4.67-1.985,6.206-5.12,0-.011.014-.021.014-.029l.237-.468,2.369-4.6,28.117-54.586a11.718,11.718,0,0,1,10.471-6.331l7.337.036a1.359,1.359,0,0,1,1.213,1.964l-2.089,4.446c-2.94,5.845-.8,10.587,4.789,10.6,6.188,0,11.494-2.8,15.439-10.573.7-1.378,2.656-5.577,2.656-5.577a1.367,1.367,0,0,1,1.224-.75l5.463.025c8.762,0,6.386,7.327,5.524,9.066h0Z" transform="translate(-121.52 -32.55)" fill="#0048d2"/>
      <g id="Group_10489" data-name="Group 10489" transform="translate(59.584 26.017)">
        <path id="Path_54602" data-name="Path 54602" d="M293.77,107.467H295.8l-2.157,1.328-.183,2.107-1.131-1.3-2.154,1.3,1.479-2.107-1.134-1.328h2.028l1.422-2.057-.2,2.057Z" transform="translate(-270.548 -105.41)" fill="#fff1ba"/>
        <path id="Path_54603" data-name="Path 54603" d="M264.392,183.565h2.121l-2.208,1.282-.122,2.025-1.22-1.246-2.193,1.246,1.468-2.025-1.22-1.282h2.114l1.414-1.975-.154,1.975Z" transform="translate(-251.695 -154.388)" fill="#fff1ba"/>
        <path id="Path_54604" data-name="Path 54604" d="M285.066,178.528h2.114l-2.186,1.278-.108,2.028-1.224-1.25-2.183,1.25,1.45-2.028-1.231-1.278h2.111l1.393-1.978-.136,1.978Z" transform="translate(-264.971 -151.148)" fill="#fff1ba"/>
        <path id="Path_54605" data-name="Path 54605" d="M310.181,112.675h2.042l-2.132,1.278-.129,2.028-1.17-1.25-2.121,1.25,1.425-2.028-1.17-1.278h2.039l1.371-1.975-.154,1.975Z" transform="translate(-281.119 -108.811)" fill="#fff1ba"/>
        <path id="Path_54606" data-name="Path 54606" d="M318.383,126.625h2.057L318.3,127.9l-.111,2.028-1.188-1.25-2.125,1.25L316.3,127.9l-1.192-1.278h2.05l1.36-1.975-.133,1.975Z" transform="translate(-286.382 -117.78)" fill="#fff1ba"/>
        <path id="Path_54607" data-name="Path 54607" d="M304.106,164.775h2.1l-2.168,1.282-.1,2.028-1.224-1.25-2.154,1.25,1.429-2.028-1.224-1.282h2.089l1.375-1.975-.122,1.975Z" transform="translate(-277.202 -142.307)" fill="#fff1ba"/>
        <path id="Path_54608" data-name="Path 54608" d="M316.468,145.408h2.078l-2.147,1.278-.1,2.028-1.206-1.253-2.143,1.253,1.421-2.028-1.213-1.278h2.071l1.364-1.978-.126,1.978Z" transform="translate(-285.145 -129.854)" fill="#fff1ba"/>
        <path id="Path_54609" data-name="Path 54609" d="M273.425,112.718h2.043L273.31,114l-.169,2.025L272,114.775l-2.147,1.25L271.315,114l-1.141-1.282H272.2l1.411-1.978-.19,1.978Z" transform="translate(-257.516 -108.837)" fill="#fff1ba"/>
        <path id="Path_54610" data-name="Path 54610" d="M254.691,126.668h2.06l-2.175,1.278-.183,2.028-1.145-1.25-2.168,1.25,1.483-2.028-1.149-1.278h2.053l1.429-1.978-.2,1.978Z" transform="translate(-245.484 -117.806)" fill="#fff1ba"/>
        <path id="Path_54611" data-name="Path 54611" d="M242.107,145.455h2.078l-2.2,1.282-.179,2.025-1.159-1.246-2.19,1.246,1.5-2.025-1.159-1.282h2.071l1.436-1.975-.2,1.975Z" transform="translate(-237.394 -129.886)" fill="#fff1ba"/>
        <path id="Path_54612" data-name="Path 54612" d="M239.151,164.825h2.1l-2.215,1.282-.165,2.028-1.177-1.25-2.2,1.25,1.5-2.028-1.181-1.282H237.9l1.439-1.975-.187,1.975Z" transform="translate(-235.49 -142.34)" fill="#fff1ba"/>
        <path id="Path_54613" data-name="Path 54613" d="M247.244,178.578h2.111l-2.211,1.278-.151,2.028-1.2-1.25-2.2,1.25,1.49-2.028-1.2-1.278h2.107l1.429-1.978-.169,1.978Z" transform="translate(-240.682 -151.18)" fill="#fff1ba"/>
      </g>
    </g>
  </g>
</svg>
