<svg id="ic-logo" xmlns="http://www.w3.org/2000/svg" width="192" height="192" viewBox="0 0 192 192">
  <rect id="Rectangle_9947" data-name="Rectangle 9947" width="192" height="192" fill="none"/>
  <g id="content" transform="translate(-93.438 -264.182)">
    <g id="stars" transform="translate(119.438 271.182)">
      <path id="Path_33980" data-name="Path 33980" d="M188.51,17.994l5.805-4.248,5.805,4.248L197.9,11.121l5.805-4.248h-7.176L194.315,0,192.1,6.873h-7.176l5.805,4.248Z" transform="translate(-124.316)" fill="#f3c126"/>
      <path id="Path_33981" data-name="Path 33981" d="M278.8,22.47l-2.218,6.873H269.4l5.805,4.248-2.217,6.873,5.805-4.248,5.805,4.248-2.217-6.873,5.805-4.248h-7.176Z" transform="translate(-178.513 -14.357)" fill="#f3c126"/>
      <path id="Path_33982" data-name="Path 33982" d="M334.99,102.348,340.8,98.1l5.805,4.248-2.217-6.873,5.805-4.248h-7.176L340.8,84.353l-2.217,6.873H331.4l5.805,4.248Z" transform="translate(-218.287 -53.899)" fill="#f3c126"/>
      <path id="Path_33983" data-name="Path 33983" d="M343.013,260.278,340.8,253.4l-2.217,6.873H331.4l5.805,4.248-2.217,6.874,5.8-4.248L346.6,271.4l-2.217-6.874,5.805-4.248Z" transform="translate(-218.287 -161.916)" fill="#f3c126"/>
      <path id="Path_33984" data-name="Path 33984" d="M372.78,175.708H365.6l-2.217-6.873-2.217,6.873h-7.176l5.805,4.248-2.218,6.873,5.805-4.248,5.8,4.248-2.217-6.873Z" transform="translate(-232.78 -107.879)" fill="#f3c126"/>
      <path id="Path_33985" data-name="Path 33985" d="M280.809,321.927l-2.218-6.874-2.217,6.874H269.2L275,326.175l-2.218,6.873,5.805-4.248,5.805,4.248-2.218-6.873,5.805-4.248Z" transform="translate(-178.381 -201.307)" fill="#f3c126"/>
      <path id="Path_33986" data-name="Path 33986" d="M196.533,344.8l-2.218-6.873L192.1,344.8h-7.176l5.805,4.248-2.217,6.873,5.805-4.248,5.805,4.248L197.9,349.05l5.805-4.248Z" transform="translate(-124.316 -215.924)" fill="#f3c126"/>
      <path id="Path_33987" data-name="Path 33987" d="M104.029,40.465l5.805-4.248,5.805,4.248-2.218-6.873,5.805-4.248h-7.176l-2.217-6.873-2.217,6.873h-7.176l5.805,4.248Z" transform="translate(-70.118 -14.358)" fill="#f3c126"/>
      <path id="Path_33988" data-name="Path 33988" d="M47.836,84.353l-2.218,6.873H38.443l5.805,4.248-2.217,6.873L47.836,98.1l5.805,4.248-2.217-6.873,5.805-4.248H50.053Z" transform="translate(-30.345 -53.898)" fill="#f3c126"/>
      <path id="Path_33989" data-name="Path 33989" d="M50.053,260.278,47.836,253.4l-2.217,6.873H38.443l5.805,4.248L42.031,271.4l5.805-4.248,5.805,4.248-2.217-6.874,5.805-4.248Z" transform="translate(-30.344 -161.916)" fill="#f3c126"/>
      <path id="Path_33990" data-name="Path 33990" d="M25.245,182.582l5.805,4.248-2.217-6.873,5.805-4.248H27.462l-2.218-6.873-2.217,6.873H15.852l5.805,4.248-2.217,6.873Z" transform="translate(-15.852 -107.88)" fill="#f3c126"/>
      <path id="Path_33991" data-name="Path 33991" d="M112.258,321.927l-2.217-6.874-2.217,6.874h-7.176l5.805,4.248-2.217,6.873,5.805-4.248,5.805,4.248-2.217-6.873,5.805-4.248Z" transform="translate(-70.25 -201.307)" fill="#f3c126"/>
    </g>
    <path id="Path_54577" data-name="Path 54577" d="M-23.024,3.974h-8.4V9.146H-21.5v4.024h-15.26v-21.7h15.29v4.039h-9.95V.084h8.4ZM-1.952-8.531v14.2A8.033,8.033,0,0,1-3,9.854a6.751,6.751,0,0,1-3.012,2.69,10.8,10.8,0,0,1-4.64.924,9.289,9.289,0,0,1-6.375-2.057A7.264,7.264,0,0,1-19.4,5.778V-8.531h5.371V5.882q.091,3.562,3.377,3.562a3.307,3.307,0,0,0,2.51-.894,4.122,4.122,0,0,0,.852-2.907V-8.531Zm3.332,21.7v-21.7H8.515a10.668,10.668,0,0,1,5.279,1.3,9.258,9.258,0,0,1,3.659,3.682,10.935,10.935,0,0,1,1.331,5.329v1A11,11,0,0,1,17.5,8.125a9.293,9.293,0,0,1-3.621,3.7,10.43,10.43,0,0,1-5.211,1.349ZM6.72-4.492V9.146H8.576a4.188,4.188,0,0,0,3.53-1.6,7.732,7.732,0,0,0,1.232-4.762V1.843A7.669,7.669,0,0,0,12.105-2.9a4.262,4.262,0,0,0-3.59-1.595ZM27.213,13.171H21.888v-21.7h5.325ZM55.846,5.077,58.386-8.531h5.294l-4.7,21.7H53.442L50.475.8,47.569,13.171H42.047L37.33-8.531h5.31L45.181,5.077,48.223-8.531h4.534ZM77.693,9.116H70.375L69.1,13.171H63.392l8.124-21.7h5.021l8.185,21.7H78.986Zm-6.04-4.039h4.762L74.026-2.45ZM91.674,9.146h9.3v4.024H86.334v-21.7h5.34Zm16.887,0h9.3v4.024H103.222v-21.7h5.34Zm25.286-5.172h-8.4V9.146h9.919v4.024h-15.26v-21.7H135.4v4.039h-9.95V.084h8.4Zm21.391-8.466H148.59V13.171h-5.34V-4.492h-6.527V-8.531h18.515Z" transform="translate(130.2 435.713)" fill="rgba(255,255,255,0.7)"/>
  </g>
</svg>
