<svg id="ic-edit" xmlns="http://www.w3.org/2000/svg" width="24" height="24" viewBox="0 0 24 24">
  <rect id="Rectangle_9983" data-name="Rectangle 9983" width="24" height="24" fill="none"/>
  <path id="edit_FILL0_wght400_GRAD0_opsz24" d="M122-824h1.425l9.775-9.775-1.425-1.425L122-825.425Zm-2,2v-4.25l13.2-13.175a2.247,2.247,0,0,1,.663-.425,1.975,1.975,0,0,1,.762-.15,2.069,2.069,0,0,1,.775.15,1.757,1.757,0,0,1,.65.45l1.375,1.4a1.634,1.634,0,0,1,.437.65,2.166,2.166,0,0,1,.138.75,2.132,2.132,0,0,1-.138.763,1.874,1.874,0,0,1-.437.662L124.25-822Zm16-14.6-1.4-1.4Zm-3.525,2.125-.7-.725,1.425,1.425Z" transform="translate(-117 843)" fill="#2a5ed9"/>
</svg>
