<svg id="ic-id-stroke" xmlns="http://www.w3.org/2000/svg" width="96" height="72" viewBox="0 0 96 72">
  <rect id="Rectangle_7571" data-name="Rectangle 7571" width="96" height="72" fill="none"/>
  <g id="Rectangle_9944" data-name="Rectangle 9944" transform="translate(10 10)" fill="#fff" stroke="rgba(255,255,255,0.7)" stroke-width="4">
    <rect width="76" height="52" rx="8" stroke="none"/>
    <rect x="-2" y="-2" width="80" height="56" rx="10" fill="none"/>
  </g>
  <path id="id-card-solid" d="M0,39.429H76A7.391,7.391,0,0,0,68.66,32H7.34A7.391,7.391,0,0,0,0,39.429Zm0,3.714V76.571A7.391,7.391,0,0,0,7.34,84H68.66A7.391,7.391,0,0,0,76,76.571V43.143ZM7.34,75.329a6.148,6.148,0,0,1,6.112-6.187H26.916a6.148,6.148,0,0,1,6.112,6.187A1.236,1.236,0,0,1,31.8,76.571H8.567A1.236,1.236,0,0,1,7.34,75.329ZM20.184,50.571A7.429,7.429,0,1,1,12.844,58,7.384,7.384,0,0,1,20.184,50.571Zm22.67,1.857a1.852,1.852,0,0,1,1.835-1.857H66.826a1.857,1.857,0,0,1,0,3.714H44.688A1.852,1.852,0,0,1,42.854,52.429Zm0,7.429A1.852,1.852,0,0,1,44.688,58H66.826a1.857,1.857,0,0,1,0,3.714H44.688A1.852,1.852,0,0,1,42.854,59.857Zm0,7.429a1.852,1.852,0,0,1,1.835-1.857H66.826a1.857,1.857,0,0,1,0,3.714H44.688A1.852,1.852,0,0,1,42.854,67.286Z" transform="translate(10 -22)" fill="#2a5ed9"/>
</svg>
