<svg width="16" height="17" viewBox="0 0 16 17" fill="none" xmlns="http://www.w3.org/2000/svg">
<path d="M7.99109 0.258789C9.11609 0.258789 10.1161 0.915039 10.6161 1.88379C11.6473 1.54004 12.8348 1.79004 13.6473 2.60254C14.4598 3.41504 14.7098 4.60254 14.3661 5.63379C15.3348 6.13379 15.9911 7.13379 15.9911 8.25879C15.9911 9.41504 15.3348 10.415 14.3661 10.915C14.7098 11.9463 14.4598 13.1025 13.6473 13.915C12.8348 14.7275 11.6473 14.9775 10.6161 14.665C10.1161 15.6338 9.11609 16.2588 7.99109 16.2588C6.83484 16.2588 5.83484 15.6338 5.33484 14.665C4.30359 14.9775 3.14734 14.7275 2.33484 13.915C1.52234 13.1025 1.27234 11.9463 1.58484 10.915C0.616089 10.415 -0.00891113 9.41504 -0.00891113 8.25879C-0.00891113 7.13379 0.616089 6.13379 1.58484 5.63379C1.27234 4.60254 1.52234 3.41504 2.33484 2.60254C3.14734 1.79004 4.30359 1.54004 5.33484 1.88379C5.83484 0.915039 6.83484 0.258789 7.99109 0.258789ZM11.0223 7.29004C11.3036 7.00879 11.3036 6.54004 11.0223 6.25879C10.7098 5.94629 10.2411 5.94629 9.95984 6.25879L6.99109 9.22754L5.77234 8.00879C5.45984 7.69629 4.99109 7.69629 4.70984 8.00879C4.39734 8.29004 4.39734 8.75879 4.70984 9.04004L6.45984 10.79C6.74109 11.1025 7.20984 11.1025 7.52234 10.79L11.0223 7.29004Z" fill="#55953B"/>
</svg>
